<?xml version="1.0" standalone="no"?>
<!DOCTYPE svg PUBLIC "-//W3C//DTD SVG 1.1//EN" "http://www.w3.org/Graphics/SVG/1.1/DTD/svg11.dtd" >
<svg xmlns="http://www.w3.org/2000/svg">
<metadata></metadata>
<defs>
<font id="andes_rounded_mediummedium" horiz-adv-x="524" >
<font-face units-per-em="1000" ascent="750" descent="-250" />
<missing-glyph horiz-adv-x="228" />
<glyph unicode="&#xfb01;" horiz-adv-x="620" d="M557 642q0 -29 -21 -48.5t-51 -19.5q-29 0 -49.5 19.5t-20.5 48.5q0 30 20.5 50t49.5 20q30 0 51 -20t21 -50zM431 396h-224v-378q0 -18 -17 -18h-73q-18 0 -18 18v378h-53q-17 0 -17 17v51q0 18 18 18h52v60q0 87 42.5 137.5t127.5 50.5q64 0 107 -32q13 -8 5 -25 l-23 -51q-6 -13 -17 -5q-24 20 -64 20q-33 -1 -51.5 -27t-18.5 -73v-55h315q18 0 18 -18v-337q0 -39 26 -44q14 -6 14 -17v-48q0 -21 -48 -21q-49 -1 -75 27.5t-26 87.5v284z" />
<glyph unicode="&#xfb02;" horiz-adv-x="638" d="M100 396h-54q-16 0 -16 17v51q0 18 17 18h53v60q0 87 44 137.5t133 50.5q67 0 111 -34q11 -8 4 -24l-23 -52q-5 -13 -16 -4q-31 21 -66 21q-38 0 -59 -26.5t-21 -73.5v-55h146q17 0 17 -18v-51q0 -17 -17 -17h-146v-378q0 -18 -17 -18h-73q-17 0 -17 18v378zM557 708 v-581q0 -40 27 -44q14 -6 14 -17v-48q0 -21 -48 -22q-101 0 -101 116v596q0 18 17 18h74q17 0 17 -18z" />
<glyph unicode="&#xfb03;" horiz-adv-x="931" d="M869 642q0 -29 -21 -48.5t-51 -19.5t-50.5 19.5t-20.5 48.5q0 30 20.5 50t50.5 20t51 -20t21 -50zM851 463v-336q0 -40 26 -44q14 -5 14 -17v-48q0 -21 -48 -22q-101 0 -101 116v284h-223v-378q0 -18 -18 -18h-73q-17 0 -17 18v378h-204v-378q0 -18 -17 -18h-73 q-18 0 -18 18v378h-53q-17 0 -17 17v51q0 18 18 18h52v60q0 87 44.5 137.5t132.5 50.5q68 0 112 -34q11 -8 4 -24l-23 -52q-6 -12 -17 -4q-29 21 -65 21q-38 0 -59 -26.5t-21 -73.5v-55h204v60q0 87 44.5 137.5t132.5 50.5q65 0 107 -34q12 -8 5 -24l-23 -50q-6 -13 -17 -5 q-24 20 -64 20q-36 -1 -56.5 -27t-20.5 -73v-55h314q18 0 18 -19z" />
<glyph unicode="&#xfb04;" horiz-adv-x="950" d="M411 396h-204v-378q0 -18 -17 -18h-73q-18 0 -18 18v378h-53q-17 0 -17 17v51q0 18 18 18h52v60q0 87 44.5 137.5t132.5 50.5q68 0 112 -34q11 -8 4 -24l-23 -52q-6 -12 -17 -4q-29 21 -65 21q-38 0 -59 -26.5t-21 -73.5v-55h204v60q0 87 44.5 137.5t132.5 50.5 q67 0 111 -34q12 -8 5 -24l-23 -52q-6 -12 -17 -4q-29 21 -65 21q-39 0 -59.5 -26t-20.5 -74v-55h145q17 0 17 -18v-51q0 -17 -16 -17h-146v-378q0 -18 -18 -18h-73q-17 0 -17 18v378zM910 66v-48q0 -21 -49 -22q-100 0 -100 116v596q0 18 17 18h74q17 0 17 -18v-581 q0 -40 27 -44q14 -6 14 -17z" />
<glyph horiz-adv-x="0" />
<glyph horiz-adv-x="333" />
<glyph unicode=" "  horiz-adv-x="228" />
<glyph unicode="&#x09;" horiz-adv-x="228" />
<glyph unicode="&#xa0;" horiz-adv-x="228" />
<glyph unicode="!" horiz-adv-x="263" d="M85 221l-13 530q0 18 18 18h86q17 0 17 -18l-15 -530q-2 -17 -18 -17h-58q-17 0 -17 17zM130 113q26 0 45 -19t19 -45t-19 -45t-45 -19t-45.5 19t-19.5 45t19.5 45t45.5 19z" />
<glyph unicode="&#x22;" horiz-adv-x="316" d="M61 598l-3 147q0 17 17 17h41q17 0 17 -18l-4 -147q0 -17 -16 -17h-35q-17 0 -17 18zM187 598l-3 147q0 17 17 17h41q17 0 17 -18l-4 -147q0 -17 -16 -17h-35q-17 0 -17 18z" />
<glyph unicode="#" horiz-adv-x="627" d="M362 192l29 139h-126l-31 -139h128zM157 192l30 139h-79q-16 0 -12 20l5 26q4 15 20 15h79l18 83q3 16 19 16h41q21 0 17 -20l-17 -79h126l19 83q3 16 20 16h40q21 0 17 -20l-17 -79h93q14 0 10 -14l-7 -32q-4 -15 -20 -15h-89l-30 -139h81q18 0 13 -18l-7 -27 q-3 -16 -20 -16h-80l-16 -70q-3 -16 -19 -16h-41q-21 0 -17 20l14 66h-126l-15 -70q-5 -16 -20 -16h-40q-22 0 -18 20l14 66h-87q-7 0 -10.5 6.5t-1.5 14.5l6 24q3 16 20 16h87z" />
<glyph unicode="$" horiz-adv-x="607" d="M270 -90v101q-51 5 -94 20.5t-70.5 36.5t-43 37.5t-25.5 32.5q-8 12 5 23l44 40q14 14 23 2q14 -18 36 -37t69 -39t98 -20q65 0 101.5 23.5t36.5 65.5q0 38 -29.5 61.5t-73 32.5t-95 22t-95 28t-73 52.5t-29.5 94.5q0 81 56.5 137.5t158.5 64.5v96q0 17 17 17h58 q17 0 17 -17v-99q132 -19 187 -110q10 -16 -6 -26l-50 -35q-16 -10 -23 1q-53 76 -159 76q-66 0 -102.5 -29t-36.5 -74q0 -30 22 -50t57 -30t77 -18t84 -20t77 -30.5t57 -54.5t22 -87q0 -72 -52.5 -124.5t-153.5 -63.5v-101q0 -18 -17 -18h-58q-17 0 -17 18z" />
<glyph unicode="%" horiz-adv-x="613" d="M149 424q-56 0 -86.5 36.5t-30.5 102.5t30.5 102.5t86.5 36.5q59 0 90 -36.5t31 -102.5t-31.5 -102.5t-89.5 -36.5zM149 480q53 0 53 83q0 79 -53 79q-51 0 -51 -79q0 -83 51 -83zM461 -2q-57 0 -87 36.5t-30 102.5t30.5 102.5t86.5 36.5q58 0 89 -36.5t31 -102.5 t-31 -102.5t-89 -36.5zM461 54q52 0 52 83q0 79 -52 79t-52 -79q0 -83 52 -83zM447 681l-200 -665q-6 -16 -22 -16h-38q-9 0 -14.5 5.5t-2.5 13.5l201 665q4 16 21 16h37q9 0 14.5 -5.5t3.5 -13.5z" />
<glyph unicode="&#x26;" horiz-adv-x="693" d="M565 -93h-68q-17 0 -17 18q0 33 -11 84q-63 -26 -141 -26q-121 0 -196 68.5t-75 178.5q0 49 16 89t40 62.5t37.5 32t24.5 14.5q-41 69 -41 124q0 75 54.5 128t152.5 53q104 0 157 -53t53 -126q0 -10 -1 -23.5t-4.5 -30.5t-10.5 -28t-17 -11h-65q-12 0 -14.5 9t0.5 23 q0 1 2 17t2 26q0 42 -23.5 70.5t-73.5 28.5q-46 0 -72.5 -26t-26.5 -72q0 -34 30 -73.5t69.5 -74.5t90.5 -93.5t83 -118.5q27 52 32 136q2 17 18 17h67q17 0 17 -18q0 -144 -92 -244q21 -82 21 -143q0 -18 -18 -18zM341 83q56 0 96 20q-25 56 -60.5 103t-87 98t-53.5 53 l-5 -3q-5 -4 -10.5 -8t-12.5 -10.5t-13.5 -15.5t-12 -20t-9 -26t-3.5 -31q0 -72 48.5 -116t122.5 -44z" />
<glyph unicode="'" horiz-adv-x="190" d="M61 598l-3 147q0 17 17 17h41q17 0 17 -18l-4 -147q0 -17 -16 -17h-35q-17 0 -17 18z" />
<glyph unicode="(" horiz-adv-x="309" d="M153 241q0 -148 39 -258t85 -173q5 -7 2.5 -11.5t-14.5 -10.5l-52 -24q-20 -8 -30 6q-17 22 -35 54.5t-43.5 92.5t-42 145.5t-16.5 178.5q0 91 15.5 175t40.5 143t44 93t37 59q10 16 30 7l52 -24q21 -9 10 -23q-17 -24 -33 -54.5t-38.5 -85t-36.5 -130.5t-14 -160z" />
<glyph unicode=")" horiz-adv-x="309" d="M264 241q0 -93 -16.5 -178.5t-42.5 -145.5t-44 -92t-35 -55q-10 -14 -30 -6l-52 25q-21 8 -12 21q46 63 85 173t39 258q0 84 -14 160.5t-36 130.5t-39 85t-33 54q-10 13 10 23l52 24q20 8 30 -7q19 -26 37 -59t43.5 -93t41.5 -143.5t16 -174.5z" />
<glyph unicode="*" horiz-adv-x="437" d="M97 499l83 92l-122 11q-12 1 -12 15l3 31q2 11 17 9l118 -26l-50 107q-5 13 5 19l29 12q13 7 16 -10l40 -114l71 101q10 13 20 6l23 -18q11 -9 2 -20l-83 -94l120 -12q7 0 11 -3.5t3 -9.5l-3 -30q-1 -13 -16 -11l-122 25l52 -109q7 -12 -5 -18l-29 -13q-11 -5 -17 10 l-41 112l-69 -94q-8 -13 -19 -5l-26 18q-10 8 1 19z" />
<glyph unicode="+" horiz-adv-x="468" d="M404 240h-132v-143q0 -18 -17 -18h-45q-18 0 -18 18v143h-129q-17 0 -17 17v44q0 18 18 18h128v130q0 18 17 18h45q18 0 18 -19v-129h132q18 0 18 -18v-44q0 -17 -18 -17z" />
<glyph unicode="," horiz-adv-x="252" d="M55 61q0 28 20 48t48 20q30 0 51.5 -21t21.5 -58q0 -125 -93 -175q-10 -5 -14 4l-21 31q-5 8 3 13q51 34 52 71q-28 0 -48 19.5t-20 47.5z" />
<glyph unicode="-" horiz-adv-x="406" d="M83 312h241q17 0 17 -17v-45q0 -17 -18 -17h-241q-18 0 -18 17v45q0 17 19 17z" />
<glyph unicode="." horiz-adv-x="245" d="M55 61q0 28 20 48t48 20t47.5 -20t19.5 -48t-19.5 -47.5t-47.5 -19.5t-48 19.5t-20 47.5z" />
<glyph unicode="/" horiz-adv-x="435" d="M115 -227h-69q-9 0 -14 5t-3 13l272 899q6 16 20 16h68q9 0 14.5 -5t2.5 -13l-271 -899q-4 -16 -20 -16z" />
<glyph unicode="0" horiz-adv-x="644" d="M319 -6q-132 0 -198.5 93.5t-66.5 261.5t66.5 262.5t198.5 94.5q135 0 203.5 -94.5t68.5 -262.5t-68 -261.5t-204 -93.5zM319 91q82 0 120.5 64t38.5 194q0 260 -159 260q-154 0 -154 -260q0 -258 154 -258z" />
<glyph unicode="1" horiz-adv-x="451" d="M368 683v-668q0 -15 -15 -15h-83q-15 0 -15 15v506q-17 -36 -74 -71.5t-128 -39.5q-15 0 -17 14l-7 78q-1 7 4 11t9 4q80 6 138.5 56t71.5 109q4 18 18 18h81q17 0 17 -17z" />
<glyph unicode="2" horiz-adv-x="582" d="M510 0h-441q-18 0 -18 16v47q0 67 37.5 117t90.5 80.5t106 58.5t90.5 67t37.5 90q0 61 -32 96.5t-89 35.5q-59 0 -90 -34.5t-38 -74.5q-3 -16 -19 -12l-78 20q-16 4 -13 20q3 21 11.5 43t27 47t44 44t65 32t87.5 13q109 0 173.5 -63t64.5 -167q0 -62 -35 -113.5 t-84.5 -84t-99.5 -60t-85 -55.5t-35 -57v-13h323q17 0 17 -17v-59q0 -17 -18 -17z" />
<glyph unicode="3" horiz-adv-x="602" d="M243 393h59q42 1 76 28.5t34 75.5q0 47 -35 79t-96 32q-46 0 -75.5 -23.5t-37.5 -51.5q-5 -14 -20 -9l-77 27q-15 5 -10 20q8 20 21 38t39 42.5t71 39.5t102 15q115 0 176 -58.5t61 -138.5q0 -40 -16.5 -71t-40 -46.5t-39 -22.5t-23.5 -9q45 -15 66 -30q73 -49 73 -141 q0 -93 -70.5 -144t-190.5 -51q-61 0 -109 13.5t-75.5 35.5t-41.5 39t-22 35q-6 15 7 24l52 35q14 10 23 -2q52 -84 159 -84q71 0 110 28t39 83q0 52 -42 80t-87 28h-61q-17 0 -17 17v50q0 17 18 17z" />
<glyph unicode="4" horiz-adv-x="583" d="M452 149v-131q0 -18 -18 -18h-77q-17 0 -17 17v132h-291q-17 0 -17 17v52q0 24 11 44l216 423q7 15 19 15h87q21 0 11 -18l-226 -440h192v141q0 17 18 17h74q18 0 18 -17v-141h83q18 0 18 -17v-59q0 -17 -18 -17h-83z" />
<glyph unicode="5" horiz-adv-x="601" d="M186 606v-175q44 32 134 32q105 0 171.5 -66t66.5 -166q0 -101 -65 -169t-197 -68q-66 0 -121 24t-78.5 46t-40.5 46q-10 14 6 24l62 42q14 9 21 -3q62 -81 151 -81q72 0 111 36t39 103q0 57 -39.5 95.5t-104.5 38.5q-62 0 -104 -37q-14 -11 -33 -11h-72q-17 0 -17 17 v349q0 17 18 17h409q17 0 17 -17v-59q0 -18 -18 -18h-316z" />
<glyph unicode="6" horiz-adv-x="619" d="M328 -6q-133 0 -203.5 86.5t-70.5 254.5q0 183 71 277t210 94q128 0 197 -81q11 -11 -2 -22l-62 -50q-10 -9 -21 4q-38 49 -112 49q-160 0 -170 -233l7 5q6 6 13.5 11.5t19.5 13.5t26.5 15t31 13.5t36 10t39.5 3.5q103 0 171 -60t68 -161q0 -104 -64.5 -167t-184.5 -63z M169 271q7 -83 50.5 -131t107.5 -48t101 35.5t37 96.5q0 59 -36 91t-103 32q-25 0 -48.5 -6.5t-42 -17.5t-31 -20.5t-23.5 -20t-12 -11.5z" />
<glyph unicode="7" horiz-adv-x="526" d="M28 624v59q0 17 18 17h439q17 0 17 -18v-33q0 -58 -26 -116t-63 -110.5t-74.5 -109.5t-65 -135t-29.5 -165q0 -13 -15 -13h-83q-15 0 -15 13q2 88 28 169.5t62 140t71.5 109.5t60 96t24.5 79h-332q-17 0 -17 17z" />
<glyph unicode="8" horiz-adv-x="624" d="M49 192q0 35 12.5 66t27.5 48.5t36 32.5t29.5 19.5t17.5 7.5q-5 1 -13 5t-22 15.5t-25.5 27.5t-20 44t-8.5 62q0 83 62 134.5t166 51.5q115 0 175 -55.5t60 -131.5q0 -34 -10.5 -62.5t-25 -45t-29 -28.5t-25.5 -17l-10 -4q129 -50 129 -181q0 -87 -68.5 -137t-193.5 -50 q-117 0 -190.5 50t-73.5 148zM361 308l-103 24q-4 -1 -10.5 -3t-22.5 -11.5t-28.5 -22t-23 -35t-10.5 -50.5q0 -58 40.5 -89.5t109.5 -31.5t107 30.5t38 85.5q0 38 -25.5 65t-71.5 38zM269 411l86 -22q3 1 8 2.5t18 9.5t22.5 19t17.5 32.5t8 48.5q0 47 -31.5 79t-86.5 32 q-52 0 -83 -30t-31 -74q0 -74 72 -97z" />
<glyph unicode="9" horiz-adv-x="620" d="M292 706q133 0 203.5 -86.5t70.5 -254.5q0 -183 -71.5 -277t-210.5 -94q-133 0 -200 86q-7 7 2 14l61 56q8 7 13 0q43 -56 119 -56q165 0 176 233l-7 -5q-6 -6 -13.5 -11.5t-19.5 -13.5t-26.5 -15t-31 -13.5t-36.5 -10t-40 -3.5q-103 0 -170.5 60t-67.5 161 q0 104 64.5 167t184.5 63zM451 429q-7 83 -50.5 131t-107.5 48t-101 -35t-37 -97q0 -59 36 -91t103 -32q31 0 60.5 11t45.5 22.5t34 27.5z" />
<glyph unicode=":" horiz-adv-x="271" d="M68 61q0 28 20 48t48 20t47.5 -20t19.5 -48t-19.5 -47.5t-47.5 -19.5t-48 19.5t-20 47.5zM68 479q0 28 20 48t48 20t47.5 -20t19.5 -48t-19.5 -47.5t-47.5 -19.5t-48 19.5t-20 47.5z" />
<glyph unicode=";" horiz-adv-x="281" d="M72 61q0 28 20 48t48 20q30 0 51.5 -21t21.5 -58q0 -125 -93 -175q-10 -5 -14 4l-21 31q-5 8 3 13q51 34 52 71q-28 0 -48 19.5t-20 47.5zM70 479q0 28 20 48t48 20t47.5 -20t19.5 -48t-19.5 -47.5t-47.5 -19.5t-48 19.5t-20 47.5z" />
<glyph unicode="&#x3c;" horiz-adv-x="429" d="M56 327l295 174q8 5 14 1.5t6 -15.5v-50q0 -17 -19 -29l-221 -135l223 -136q17 -10 17 -28v-50q0 -12 -6 -16t-14 1l-296 176q-18 11 -18 29v49q0 19 19 29z" />
<glyph unicode="=" horiz-adv-x="522" d="M85 407h352q18 0 18 -17v-45q0 -17 -19 -17h-351q-18 0 -18 17v45q0 17 18 17zM85 204h352q18 0 18 -17v-44q0 -17 -19 -17h-351q-18 0 -18 17v44q0 17 18 17z" />
<glyph unicode="&#x3e;" horiz-adv-x="429" d="M78 501l294 -174q20 -10 20 -29v-49q0 -18 -19 -29l-295 -175q-8 -5 -14 -1.5t-6 15.5v50q0 17 17 28l223 136l-221 135q-19 11 -19 29v50q0 12 6 15.5t14 -1.5z" />
<glyph unicode="?" horiz-adv-x="484" d="M212 113q27 0 46 -19t19 -46q0 -26 -19 -44.5t-46 -18.5q-26 0 -44.5 18.5t-18.5 44.5q0 27 18.5 46t44.5 19zM117 543l-73 13q-12 3 -12 21q6 82 64.5 132.5t144.5 50.5q104 0 156.5 -57.5t52.5 -142.5q0 -50 -18 -88.5t-44 -64t-52 -50.5t-46 -61.5t-23 -83.5 q0 -16 -16 -16h-70q-15 0 -15 16q2 60 20 104.5t43 70t49 47.5t41 51.5t17 67.5q0 46 -26 75t-72 29q-42 0 -70 -27t-34 -70v-3q-1 -3 -1 -3.5t-1 -3.5t-2 -3.5t-3 -2.5t-4 -1.5t-6 0.5z" />
<glyph unicode="@" horiz-adv-x="850" d="M815 342q0 -120 -75.5 -209.5t-171.5 -89.5q-69 0 -72 57q0 11 5 26q-57 -82 -140 -82q-55 0 -93.5 36t-38.5 111q0 110 69 188t164 78q70 0 98 -45l8 26q4 15 20 15h41q20 0 15 -15q-77 -292 -79 -307q-2 -12 4 -20t18 -8q49 0 99 69t50 167q0 101 -65 163.5t-184 62.5 q-154 0 -254.5 -110.5t-100.5 -272.5q0 -125 73.5 -192t180.5 -67q145 0 259 78q20 16 31 -1l17 -26q12 -17 -5 -32q-124 -95 -304 -95q-144 0 -240 88.5t-96 244.5q0 199 125.5 330.5t316.5 131.5q143 0 234 -85.5t91 -214.5zM507 215l33 136q-2 4 -7 10t-26.5 15.5 t-49.5 9.5q-58 0 -100.5 -53.5t-42.5 -123.5q0 -42 19 -64t52 -22q31 0 59 18.5t41 36.5t22 37z" />
<glyph unicode="A" horiz-adv-x="661" d="M522 18l-60 167h-264l-59 -167q-5 -18 -20 -18h-80q-9 0 -14 6t-2 14l242 651q12 29 34 29h66q22 0 34 -29l239 -651q4 -8 -1.5 -14t-14.5 -6h-80q-13 0 -20 18zM330 556l-100 -282h201z" />
<glyph unicode="B" horiz-adv-x="639" d="M353 0h-255q-18 0 -18 17v666q0 17 18 17h230q225 0 225 -183q0 -45 -11.5 -76.5t-30 -46t-34 -20.5t-30.5 -6v-2q15 0 33.5 -5t40 -17.5t39 -31t29 -50t11.5 -69.5q0 -101 -69.5 -147t-177.5 -46zM194 93h143q142 0 142 113q0 58 -38.5 85.5t-103.5 27.5h-143v-226z M194 401h133q109 0 109 103t-131 103h-111v-206z" />
<glyph unicode="C" horiz-adv-x="647" d="M559 179l41 -44q15 -13 3 -28q-13 -16 -29.5 -31.5t-46 -36t-71.5 -33t-90 -12.5q-145 0 -232 90t-87 264q0 176 81.5 267t221.5 91q60 0 106.5 -17.5t73 -41.5t45 -56.5t24.5 -55.5t9 -45q2 -16 -17 -20l-67 -11q-19 -4 -21 13q-4 20 -11 38.5t-23 43t-46.5 39 t-71.5 14.5q-84 0 -136 -64.5t-52 -194.5t60 -192.5t149 -62.5t161 81q14 17 26 5z" />
<glyph unicode="D" horiz-adv-x="666" d="M307 0h-209q-18 0 -18 17v666q0 17 18 17h177q71 0 131.5 -20.5t108.5 -62t75.5 -112.5t27.5 -165q0 -174 -86 -257t-225 -83zM194 93h112q91 0 145 63.5t54 184.5q0 130 -59.5 198t-172.5 68h-79v-514z" />
<glyph unicode="E" horiz-adv-x="554" d="M492 0h-394q-18 0 -18 17v666q0 17 18 17h395q17 0 17 -17v-59q0 -17 -18 -17h-298v-213h239q17 0 17 -18v-58q0 -17 -18 -17h-238v-208h299q17 0 17 -17v-59q0 -17 -18 -17z" />
<glyph unicode="F" horiz-adv-x="534" d="M194 296v-279q0 -17 -18 -17h-78q-18 0 -18 17v666q0 17 18 17h395q17 0 17 -17v-59q0 -17 -18 -17h-298v-218h239q17 0 17 -18v-57q0 -18 -18 -18h-238z" />
<glyph unicode="G" horiz-adv-x="660" d="M612 341v-91q0 -109 -65.5 -182.5t-194.5 -73.5q-137 0 -221 90t-84 264q0 176 81.5 267t221.5 91q58 0 104 -17.5t72 -41.5t44.5 -56t25.5 -54t10 -43q3 -14 -18 -18l-68 -11q-17 -3 -20 12q-3 18 -9.5 35.5t-21.5 41.5t-45 38.5t-72 14.5q-84 0 -136 -64t-52 -195 q0 -129 55 -192t135 -63q77 0 113.5 42.5t36.5 113.5v23h-149q-17 0 -17 18v51q0 17 18 17h238q18 0 18 -17z" />
<glyph unicode="H" horiz-adv-x="689" d="M609 683v-666q0 -17 -17 -17h-79q-17 0 -17 17v274h-302v-274q0 -17 -18 -17h-78q-18 0 -18 17v666q0 17 18 17h78q18 0 18 -17v-298h302v298q0 17 17 17h79q17 0 17 -17z" />
<glyph unicode="I" horiz-adv-x="274" d="M194 683v-666q0 -17 -18 -17h-78q-18 0 -18 17v666q0 17 18 17h78q18 0 18 -17z" />
<glyph unicode="J" horiz-adv-x="472" d="M284 220v463q0 17 17 17h79q17 0 17 -17v-457q0 -112 -62.5 -172t-159.5 -60t-163 60q-13 11 -2 24l46 52q14 15 25 4q43 -40 94 -40q52 0 80.5 32t28.5 94z" />
<glyph unicode="K" horiz-adv-x="671" d="M194 386h92q77 -1 128.5 69.5t56.5 227.5q0 17 18 17h76q18 0 18 -18q0 -140 -47 -223.5t-110 -114.5q35 -19 62 -64t41.5 -87t40.5 -74.5t60 -32.5h14q15 0 15 -18v-51q0 -12 -16 -17q-22 -4 -47 -4q-54 0 -92 30.5t-58.5 74.5t-38.5 88t-46.5 74.5t-69.5 30.5h-97v-277 q0 -17 -18 -17h-78q-18 0 -18 17v666q0 17 18 17h78q18 0 18 -17v-297z" />
<glyph unicode="L" horiz-adv-x="530" d="M194 683v-590h307q17 0 17 -17v-59q0 -17 -18 -17h-402q-18 0 -18 17v666q0 17 18 17h78q18 0 18 -17z" />
<glyph unicode="M" horiz-adv-x="833" d="M80 17v666q0 17 18 17h76q25 0 35 -23l208 -440h2l211 440q11 23 35 23h70q18 0 18 -17v-666q0 -17 -18 -17h-77q-17 0 -17 17v461l-171 -356q-16 -31 -54 -31q-40 0 -55 32l-167 355v-461q0 -17 -18 -17h-78q-18 0 -18 17z" />
<glyph unicode="N" horiz-adv-x="685" d="M587 0h-81q-23 0 -37 25l-275 471v-479q0 -17 -18 -17h-78q-18 0 -18 17v666q0 17 18 17h82q22 0 37 -26l275 -484v493q0 17 17 17h78q18 0 18 -17v-666q0 -17 -18 -17z" />
<glyph unicode="O" horiz-adv-x="707" d="M354 -6q-133 0 -220 89.5t-87 265.5t87 266.5t220 90.5t219.5 -90.5t86.5 -266.5t-87 -265.5t-219 -89.5zM354 92q83 0 136 62.5t53 194.5q0 134 -53.5 196t-135.5 62q-83 0 -136.5 -62t-53.5 -196q0 -132 53.5 -194.5t136.5 -62.5z" />
<glyph unicode="P" horiz-adv-x="605" d="M176 0h-78q-18 0 -18 17v666q0 17 18 17h214q125 0 194 -59t69 -174q0 -112 -68 -168.5t-180 -56.5h-133v-224q0 -18 -18 -18zM194 334h113q154 0 154 133q0 64 -40 102t-118 38h-109v-273z" />
<glyph unicode="Q" horiz-adv-x="707" d="M575 -152v-57q0 -19 -21 -19q-114 6 -179.5 71.5t-79.5 156.5q-111 18 -179.5 106.5t-68.5 243.5q0 176 86.5 266.5t219.5 90.5t219.5 -90.5t86.5 -266.5q0 -161 -73.5 -249.5t-189.5 -102.5q14 -58 55.5 -91.5t102.5 -38.5q21 0 21 -20zM353 93q83 0 136.5 62.5 t53.5 194.5q0 134 -53.5 196t-136.5 62t-136 -62t-53 -196q0 -132 53 -194.5t136 -62.5z" />
<glyph unicode="R" horiz-adv-x="670" d="M658 69v-49q0 -12 -16 -18q-20 -6 -47 -6q-55 0 -93 28.5t-58 69.5t-38 82t-46.5 69.5t-69.5 28.5h-96v-257q0 -17 -18 -17h-78q-18 0 -18 17v665q0 18 18 18h219q126 0 190 -51.5t64 -163.5q0 -71 -37.5 -116.5t-90.5 -62.5q26 -17 49 -56t37.5 -73.5t40 -62t58.5 -28.5 h15q15 0 15 -17zM194 360h109q68 0 111 32t43 90t-38 91.5t-106 33.5h-119v-247z" />
<glyph unicode="S" horiz-adv-x="609" d="M545 565l-50 -35q-17 -10 -23 1q-10 16 -26 31.5t-53 31.5t-83 16q-64 0 -100.5 -28.5t-36.5 -71.5q0 -34 22 -56.5t57 -34t77 -20.5t84 -22t77 -33t57 -58.5t22 -93.5q0 -83 -65.5 -140.5t-192.5 -57.5q-61 0 -112 14.5t-83 37.5t-48.5 40.5t-28.5 35.5q-8 14 5 24 l43 41q14 14 24 0q77 -98 200 -98q66 0 103.5 26.5t37.5 72.5q0 37 -22 60.5t-57 35.5t-77.5 20.5t-85 21t-77.5 32t-57 58t-22 93.5q0 84 66 140.5t182 56.5q57 0 103.5 -12.5t75 -32.5t44.5 -36.5t26 -33.5q9 -15 -6 -26z" />
<glyph unicode="T" horiz-adv-x="620" d="M32 700h557q17 0 17 -17v-59q0 -17 -18 -17h-218v-590q0 -17 -18 -17h-77q-18 0 -18 17v590h-226q-17 0 -17 17v59q0 17 18 17z" />
<glyph unicode="U" horiz-adv-x="674" d="M487 280v403q0 17 18 17h78q17 0 17 -17v-395q0 -294 -262 -294q-121 0 -193 68.5t-72 225.5l1 395q0 17 17 17h79q17 0 17 -17v-403q0 -187 151 -187q149 0 149 187z" />
<glyph unicode="V" horiz-adv-x="659" d="M330 132l184 551q6 17 20 17h87q9 0 14.5 -6t2.5 -14l-242 -652q-6 -16 -13 -22t-20 -6h-69q-21 0 -32 28l-240 652q-3 9 2 14.5t14 5.5h94q15 0 20 -16z" />
<glyph unicode="W" horiz-adv-x="1001" d="M557 679l153 -547l132 551q3 17 20 17h95q9 0 13 -6t1 -14l-186 -651q-8 -29 -36 -29h-73q-29 0 -37 29l-138 484l-139 -484q-10 -29 -36 -29h-74q-28 0 -36 29l-187 650q-2 8 2.5 14.5t13.5 6.5h96q17 0 20 -17l130 -551l155 547q5 21 23 21h67q16 0 21 -21z" />
<glyph unicode="X" horiz-adv-x="636" d="M596 0h-87q-12 0 -23 17l-168 259l-168 -259q-11 -17 -22 -17h-88q-10 0 -15 6t1 14l215 329l-216 331q-6 8 -1 14t15 6h95q12 0 23 -17l161 -254l162 254q11 17 22 17h94q11 0 15.5 -6t-0.5 -14l-219 -329l219 -331q6 -8 1 -14t-16 -6z" />
<glyph unicode="Y" horiz-adv-x="650" d="M365 0h-80q-17 0 -17 17v281l-242 382q-5 8 -0.5 14t15.5 6h95q12 0 20 -14l170 -291l168 291q8 14 20 14h96q10 0 14.5 -6t-0.5 -14l-241 -382v-281q0 -17 -18 -17z" />
<glyph unicode="Z" horiz-adv-x="606" d="M546 0h-486q-18 0 -18 17v60q0 16 13 33l372 497h-367q-18 0 -18 17v59q0 17 18 17h487q18 0 18 -17v-57q0 -18 -13 -36l-368 -497h363q18 0 18 -17v-59q0 -17 -19 -17z" />
<glyph unicode="[" horiz-adv-x="352" d="M299 -244h-206q-17 0 -17 17v936q0 17 17 17h207q17 0 17 -17v-59q0 -18 -18 -18h-116v-782h117q17 0 17 -18v-59q0 -17 -18 -17z" />
<glyph unicode="\" horiz-adv-x="435" d="M389 -227h-69q-14 0 -20 16l-271 899q-2 8 3 13t14 5h69q13 0 19 -16l272 -899q3 -8 -2.5 -13t-14.5 -5z" />
<glyph unicode="]" horiz-adv-x="352" d="M259 -244h-206q-18 0 -18 17v59q0 18 17 18h117v782h-116q-18 0 -18 18v59q0 17 17 17h207q18 0 18 -17v-936q0 -17 -18 -17z" />
<glyph unicode="^" horiz-adv-x="416" d="M131 514h-56q-9 0 -12.5 6t-0.5 14l78 174q8 19 25 19h85q17 0 26 -19l77 -174q8 -20 -12 -20h-57q-17 0 -25 19l-52 114l-51 -115q-8 -18 -25 -18z" />
<glyph unicode="_" horiz-adv-x="427" d="M41 0h346q17 0 17 -17v-44q0 -17 -18 -17h-346q-18 0 -18 17v44q0 17 19 17z" />
<glyph unicode="`" horiz-adv-x="284" d="M233 559h-67q-13 0 -23 16l-100 153q-4 6 -1 10t10 4h99q14 0 20 -14l71 -156q1 -3 1 -6t-3 -5t-7 -2z" />
<glyph unicode="a" horiz-adv-x="518" d="M488 66v-47q0 -23 -48 -23q-39 0 -64 20t-25 56v2q-45 -80 -159 -80q-73 0 -114.5 34.5t-41.5 92.5q0 133 190 133h113v63q0 85 -88 85q-42 0 -65 -19t-23 -50q0 -4 3 -25q2 -5 -2.5 -8t-14.5 -3h-57q-29 0 -29 54q0 61 50 99t141 38q193 0 193 -175v-184q0 -41 26 -47 q15 -3 15 -16zM339 171v18h-108q-85 0 -85 -56q0 -27 20.5 -41.5t54.5 -14.5q41 0 70.5 23.5t38.5 47.5z" />
<glyph unicode="b" horiz-adv-x="549" d="M144 0h-60q-18 0 -18 18v690q0 18 18 18h73q17 0 17 -18v-292l1 1q32 57 106 69q15 2 31 2q80 0 137 -61.5t57 -182.5q0 -127 -57 -188.5t-143 -61.5q-22 0 -42 4.5t-33.5 11t-27 15.5t-20 15.5t-14 14.5t-8.5 9v-46q0 -18 -17 -18zM174 299v-117q0 -25 27.5 -60 t82.5 -35q52 0 83.5 39.5t31.5 115.5q0 78 -33.5 115.5t-82.5 37.5q-40 0 -67 -24t-34 -48z" />
<glyph unicode="c" horiz-adv-x="497" d="M42 241q0 119 58 183t167 64q87 0 136 -42.5t49 -109.5q0 -57 -29 -57h-46q-25 0 -25 14q0 3 1 10.5t1 11.5q0 37 -22.5 58.5t-64.5 21.5q-118 0 -118 -153q0 -83 39.5 -119t92.5 -36q64 0 108 44q16 17 25 7l32 -33q15 -16 6 -29q-64 -82 -185 -82q-98 0 -161.5 63 t-63.5 184z" />
<glyph unicode="d" horiz-adv-x="563" d="M375 185v120q-1 24 -29 57t-82 33q-50 0 -82.5 -40t-32.5 -115t34 -114t82 -39q26 0 46.5 10t31.5 22.5t19 29.5t10 23.5t3 12.5zM523 66v-48q0 -22 -47 -22q-38 0 -62.5 19t-26.5 53v9q-44 -83 -151 -83q-79 0 -136 62.5t-57 182.5q0 126 59 187.5t146 61.5q42 0 73 -15 t41.5 -27t12.5 -19v281q0 18 17 18h73q18 0 18 -18v-577q0 -43 26 -48q14 -6 14 -17z" />
<glyph unicode="e" horiz-adv-x="502" d="M436 230h-285v-6q3 -75 43 -107.5t88 -32.5q64 0 109 48q14 15 21 7l38 -38q12 -11 4 -22q-13 -18 -32 -35t-61.5 -33.5t-93.5 -16.5q-98 0 -161 63t-63 184q0 119 56.5 183t165.5 64q192 0 192 -234q0 -24 -21 -24zM154 297h200q0 47 -23.5 75t-71.5 28q-91 0 -105 -103 z" />
<glyph unicode="f" horiz-adv-x="391" d="M99 396h-54q-16 0 -16 17v51q0 18 17 18h53v60q0 87 44.5 137.5t132.5 50.5q67 0 111 -34q12 -8 5 -24l-24 -52q-6 -12 -16 -4q-31 21 -66 21q-38 0 -59 -26.5t-21 -73.5v-55h146q17 0 17 -18v-51q0 -17 -17 -17h-146v-378q0 -18 -17 -18h-73q-17 0 -17 18v378z" />
<glyph unicode="g" d="M317 -18h-115q-76 0 -76 -72q0 -36 30.5 -53.5t102.5 -17.5q78 0 110.5 18t32.5 57q0 68 -85 68zM373 304q0 43 -30.5 70t-78.5 27t-78 -26.5t-30 -70.5t29.5 -71t77.5 -27t79 27t31 71zM199 59h115q85 0 137.5 -37t52.5 -109q0 -71 -56 -115.5t-182 -44.5 q-240 0 -240 151q0 25 7 45t21 34t21 19.5t20 13.5q-1 1 -9.5 7.5t-13 11t-11.5 13.5t-10.5 20t-3.5 24q0 66 64 86q-58 55 -58 126q0 84 60.5 134t149.5 50q15 0 29.5 -2.5t25.5 -5.5t13 -3q47 -3 73.5 22t30.5 55q2 15 19 13l49 -7q15 -2 15 -16q-4 -52 -37 -77.5 t-72 -29.5q66 -47 66 -133q0 -84 -61.5 -134t-148.5 -50q-39 0 -81 16q-48 0 -48 -38q0 -39 63 -39z" />
<glyph unicode="h" horiz-adv-x="549" d="M66 18v690q0 18 18 18h73q17 0 17 -18v-298q36 78 134 78q87 0 128.5 -52.5t41.5 -137.5v-171q0 -38 26 -45q15 -3 15 -16v-49q0 -21 -48 -21q-101 0 -101 116v186q0 43 -25 70t-68 27q-49 0 -76 -37.5t-27 -80.5v-259q0 -18 -17 -18h-73q-18 0 -18 18z" />
<glyph unicode="i" horiz-adv-x="252" d="M191 642q0 -29 -21 -48.5t-51 -19.5t-50.5 19.5t-20.5 48.5q0 30 20.5 50t50.5 20t51 -20t21 -50zM212 66v-48q0 -21 -48 -22q-101 0 -101 116v355q0 18 18 18h73q18 0 18 -18v-340q0 -41 28 -45q12 -2 12 -16z" />
<glyph unicode="j" horiz-adv-x="241" d="M189 645q0 -29 -20 -47.5t-49 -18.5q-30 0 -50 18.5t-20 47.5q0 28 20.5 47.5t49.5 19.5t49 -19.5t20 -47.5zM175 464v-516q0 -92 -43.5 -143.5t-132.5 -51.5q-47 0 -82 20q-14 8 -6 25l20 45q7 15 16 11q19 -8 41 -8q78 0 78 107v512q0 17 18 17h73q18 0 18 -18z" />
<glyph unicode="k" horiz-adv-x="549" d="M529 63v-44q0 -23 -44 -23q-45 0 -74 23.5t-44 56.5t-29 66t-40.5 56.5t-67.5 23.5h-57v-204q0 -18 -18 -18h-72q-17 0 -17 18v690q0 18 18 18h71q18 0 18 -18v-405h62q66 0 101 50t36 111q2 18 18 18h66q17 0 17 -19q-2 -69 -33.5 -122t-90.5 -73q32 -15 53 -48 t30.5 -63t31 -53t54.5 -23q11 0 11 -18z" />
<glyph unicode="l" horiz-adv-x="253" d="M213 66v-48q0 -21 -48 -22q-101 0 -101 116v596q0 17 17 17h74q18 0 18 -18v-580q0 -39 24 -44l3 -1q3 -1 4 -1.5l3 -1.5t3 -2.5t2 -4.5t1 -6z" />
<glyph unicode="m" horiz-adv-x="861" d="M791 298v-171q0 -45 27 -45q13 0 13 -19v-44q0 -23 -48 -23q-101 0 -101 116v180q0 47 -23.5 75t-69.5 28q-42 0 -66 -29t-30 -68v-171q0 -45 27 -45q13 0 13 -19v-44q0 -23 -48 -23q-101 0 -101 116v180q0 47 -23.5 75t-69.5 28q-49 0 -75.5 -37.5t-26.5 -82.5v-257 q0 -18 -17 -18h-74q-17 0 -17 18v338q0 39 -29 44q-12 0 -12 20v44q0 22 48 22q36 0 60 -19t27 -53v-19q13 40 49 66.5t98 26.5q111 0 151 -91q20 44 51 67.5t96 23.5q87 0 129 -52.5t42 -137.5z" />
<glyph unicode="n" horiz-adv-x="563" d="M81 18v338q0 37 -27 43q-14 4 -14 21v44q0 22 48 22q36 0 60 -19t27 -53v-19q13 40 49 66.5t98 26.5q87 0 129 -52.5t42 -137.5v-171q0 -37 25 -44q15 -5 15 -20v-44q0 -23 -48 -23q-101 0 -101 116v180q0 47 -23.5 75t-69.5 28q-49 0 -75.5 -37.5t-26.5 -82.5v-257 q0 -18 -17 -18h-74q-17 0 -17 18z" />
<glyph unicode="o" d="M261 -6q-102 0 -160 66.5t-58 180.5t58 180.5t160 66.5t161 -66.5t59 -180.5t-58.5 -180.5t-161.5 -66.5zM261 87q55 0 84 39.5t29 114.5t-29.5 114.5t-83.5 39.5q-53 0 -82.5 -39.5t-29.5 -114.5t29 -114.5t83 -39.5z" />
<glyph unicode="p" horiz-adv-x="563" d="M40 419v45q0 22 48 22q37 0 61.5 -18.5t27.5 -52.5v-10q41 83 150 83q80 0 137 -61.5t57 -182.5q0 -126 -58 -188t-145 -62q-26 0 -49 6t-36 13.5t-24 18t-14 15t-6 8.5v-281q0 -18 -17 -18h-74q-17 0 -17 18v582q0 37 -28 44q-13 3 -13 19zM189 300v-120 q1 -13 9.5 -32.5t35 -40t64.5 -20.5q52 0 84 39.5t32 115.5q0 78 -33.5 115.5t-82.5 37.5q-25 0 -45 -10t-31.5 -23t-19.5 -27.5t-10.5 -23.5t-2.5 -11z" />
<glyph unicode="q" horiz-adv-x="549" d="M375 186v118q-1 24 -29 57.5t-82 33.5q-52 0 -83.5 -39.5t-31.5 -115.5q0 -75 34 -114t82 -39q30 0 53 13t34 32.5t16 31.5t7 21v1zM404 494h61q18 0 18 -18v-702q0 -18 -18 -18h-74q-16 0 -16 18v291l-1 -1q-31 -56 -105 -68q-15 -2 -32 -2q-79 0 -136.5 62.5 t-57.5 182.5q0 126 56.5 187.5t142.5 61.5q26 0 48.5 -6t39 -15.5t27.5 -18t20 -18t11 -10.5v56q0 18 16 18z" />
<glyph unicode="r" horiz-adv-x="401" d="M81 17v337q0 41 -29 46q-12 0 -12 16v50q0 20 46 20q36 0 60.5 -18.5t27.5 -56.5v-18q12 40 48 67.5t99 27.5q31 0 57 -10q13 -6 7 -20l-31 -69q-7 -12 -17 -8q-18 8 -47 8q-49 0 -75 -36t-26 -78v-257q0 -18 -17 -18h-74q-17 0 -17 17z" />
<glyph unicode="s" horiz-adv-x="483" d="M410 306h-55q-19 0 -17 12q0 2 0.5 10.5t0.5 14.5q0 59 -91 59q-90 0 -90 -61q0 -30 29.5 -45.5t71 -22t83 -16t71 -39t29.5 -79.5q0 -68 -50 -106.5t-148 -38.5q-60 0 -107.5 17t-67.5 34t-33 35q-8 13 1 22l42 44q11 9 19 1q60 -66 141 -66q90 0 90 53q0 25 -28.5 38.5 t-69.5 20.5t-82 18.5t-69.5 43t-28.5 83.5q0 64 47.5 107t147.5 43q102 0 147 -39t45 -97q0 -24 -7 -35t-21 -11z" />
<glyph unicode="t" horiz-adv-x="426" d="M212 482h157q18 0 18 -17v-51q0 -18 -18 -18h-157v-200q0 -108 85 -108q37 0 70 23q11 10 17 -3l22 -52q6 -12 -5 -20q-50 -42 -116 -42q-95 0 -138.5 49.5t-43.5 148.5v204h-55q-19 0 -19 18v51q0 17 19 17h55v133q0 17 18 17h73q18 0 18 -18v-132z" />
<glyph unicode="u" horiz-adv-x="553" d="M513 62v-44q0 -22 -48 -22q-83 0 -89 79v4q-17 -36 -57 -60.5t-104 -24.5q-153 0 -153 173v297q0 18 18 18h73q17 0 17 -18v-277q0 -100 82 -100q30 0 53 14t35 34t18 38.5t6 31.5v259q0 18 16 18h75q17 0 17 -18v-336q0 -39 27 -45q14 -5 14 -21z" />
<glyph unicode="v" horiz-adv-x="526" d="M298 0h-71q-13 0 -19.5 6t-12.5 22l-165 433q-4 8 1.5 14.5t14.5 6.5h79q15 0 21 -16l118 -341l120 341q6 16 21 16h75q9 0 14 -6.5t2 -14.5l-165 -433q-11 -28 -33 -28z" />
<glyph unicode="w" horiz-adv-x="787" d="M582 0h-69q-23 0 -31 28l-84 283l-91 -283q-10 -28 -33 -28h-68q-13 0 -20 6t-12 22l-143 433q-3 8 2 14.5t13 6.5h80q14 0 19 -17l97 -342l103 335q7 20 19 20h75q13 0 18 -20l91 -335l95 343q6 16 21 16h75q10 0 15 -6.5t1 -14.5l-140 -433q-10 -28 -33 -28z" />
<glyph unicode="x" horiz-adv-x="515" d="M466 0h-77q-10 0 -23 15l-109 160l-109 -158q-11 -17 -22 -17h-78q-11 0 -15 6t2 15l157 223l-157 219q-6 8 -1.5 14t15.5 6h81q14 0 23 -16l104 -155l109 155q11 16 23 16h77q11 0 15.5 -5.5t-0.5 -13.5l-159 -221l159 -224q5 -8 0.5 -13.5t-15.5 -5.5z" />
<glyph unicode="y" d="M493 460l-218 -572q-52 -135 -174 -135q-34 0 -65 11q-16 5 -12 21l9 53q5 16 16 13q22 -5 45 -5q34 0 53.5 19t33.5 55l29 78l-182 462q-8 22 15 22h75q19 0 24 -18l124 -335l116 336q6 17 24 17h73q23 0 14 -22z" />
<glyph unicode="z" horiz-adv-x="474" d="M413 0h-353q-18 0 -18 17v47q0 22 23 48l241 284h-246q-18 0 -18 17v52q0 17 18 17h354q18 0 18 -17v-46q0 -22 -26 -51l-233 -282h241q18 0 18 -17v-52q0 -17 -19 -17z" />
<glyph unicode="{" horiz-adv-x="346" d="M107 352l-1 185q0 93 51.5 139.5t128.5 48.5q23 2 23 -21v-56q0 -15 -21 -18q-81 -11 -81 -111v-191q0 -71 -48 -87q14 -4 31 -26.5t17 -60.5v-191q1 -97 78 -110q24 -3 24 -22v-55q0 -19 -22 -19q-78 4 -129 48t-52 140l1 185q0 33 -19.5 50t-45.5 17q-10 0 -10 12v64 q0 12 10 12q26 0 45.5 17t19.5 50z" />
<glyph unicode="|" horiz-adv-x="243" d="M167 719v-956q0 -17 -17 -17h-57q-18 0 -18 17v956q0 17 18 17h57q17 0 17 -17z" />
<glyph unicode="}" horiz-adv-x="346" d="M240 537v-185q0 -33 19 -50t45 -17q10 0 10 -12v-64q0 -12 -10 -12q-26 0 -45 -17t-19 -50v-185q0 -96 -51.5 -140t-129.5 -48q-22 0 -22 19v55q0 19 25 22q77 13 77 110v191q0 38 17 60.5t31 26.5q-48 16 -48 87v191q0 100 -80 111q-22 2 -22 18v56q0 23 23 21 q77 -2 128.5 -48.5t51.5 -139.5z" />
<glyph unicode="~" horiz-adv-x="474" d="M142 194h-53q-11 0 -14 7q-10 22 -10 48q0 37 23.5 61.5t66.5 24.5q34 0 84 -18.5t70 -18.5q22 0 22 22q0 12 -8 33q-3 8 12 8h51q12 0 16 -11q7 -21 7 -44q0 -37 -22 -61t-64 -24t-90 18t-62 18q-27 0 -27 -28q0 -14 7 -26q5 -9 -9 -9z" />
<glyph unicode="&#xa1;" horiz-adv-x="250" d="M127 400q-26 0 -45 19t-19 45q0 27 19 46t45 19q27 0 46 -19t19 -46q0 -26 -19 -45t-46 -19zM65 -246l14 538q0 17 17 17h58q19 0 19 -17l11 -538q0 -17 -16 -17h-86q-19 0 -17 17z" />
<glyph unicode="&#xa2;" horiz-adv-x="507" d="M158 248q0 -118 80 -149v300q-80 -20 -80 -151zM233 -81v78q-81 13 -131.5 78t-50.5 172q0 109 46.5 172t135.5 76v71q0 18 17 18h41q17 0 17 -19v-69q53 -6 89 -32.5t53 -56.5q8 -13 -3 -18l-70 -40q-10 -6 -14 5q-16 36 -57 46v-313q69 8 99 62q9 9 18 1l37 -36 q12 -12 5 -20q-49 -88 -157 -98v-78q0 -18 -17 -18h-41q-17 0 -17 19z" />
<glyph unicode="&#xa3;" horiz-adv-x="649" d="M65 307h81q-20 32 -29 47.5t-20.5 50.5t-11.5 71q0 100 70 165t195 65q59 0 107.5 -15t78.5 -39t46 -42t26 -36q8 -15 -6 -21l-70 -32q-12 -6 -20 6q-49 80 -162 80q-71 0 -109.5 -42.5t-39.5 -99.5q0 -23 7 -47t14.5 -38t23 -39.5t19.5 -33.5h213q17 0 17 -18v-52 q0 -17 -18 -17h-188q2 -5 2 -19q0 -30 -12 -56t-22 -36.5t-15 -13.5h314q17 0 17 -18v-60q0 -17 -18 -17h-446q-17 0 -17 17v37q0 14 9 21q72 51 74 126q0 11 -2 19h-109q-16 0 -16 17v53q0 17 17 17z" />
<glyph unicode="&#xa4;" horiz-adv-x="601" d="M488 379q0 -51 -26 -94l64 -63q13 -13 1 -25l-32 -32q-11 -12 -23 0l-64 65q-47 -39 -107 -39t-109 39l-66 -66q-12 -12 -24 -1l-32 32q-12 11 1 24l67 67q-23 41 -25 93q0 51 25 93l-65 66q-12 12 -1 25l30 31q13 13 25 1l65 -67q48 38 109 38q59 0 107 -37l63 64 q13 13 24 1l32 -32q11 -12 -1 -24l-65 -65q27 -47 27 -94zM404 379q0 43 -30 73.5t-73 29.5q-43 0 -73.5 -30t-30.5 -73t30.5 -73.5t73.5 -30.5t73 30.5t30 73.5z" />
<glyph unicode="&#xa5;" horiz-adv-x="675" d="M104 420h98l-164 253q-4 8 0.5 13.5t14.5 5.5h96q12 0 19 -14l170 -283l169 283q7 14 19 14h96q11 0 15 -5.5t0 -13.5l-165 -253h100q17 0 17 -18v-47q0 -17 -18 -17h-151l-25 -40v-37h123q17 0 17 -17v-47q0 -17 -18 -17h-122v-163q0 -17 -17 -17h-81q-17 0 -17 17v163 h-123q-17 0 -17 17v47q0 17 18 17h122v37l-26 40h-151q-18 0 -18 17v47q0 18 19 18z" />
<glyph unicode="&#xa6;" horiz-adv-x="245" d="M77 372v347q-2 17 17 17h57q18 0 18 -18v-347q0 -17 -18 -17h-56q-18 0 -18 18zM77 -236v414q0 18 17 18h57q18 0 18 -18v-415q0 -17 -18 -17h-56q-18 0 -18 18z" />
<glyph unicode="&#xa7;" horiz-adv-x="632" d="M581 191q0 -70 -46 -120q44 -47 44 -122q0 -83 -65.5 -140t-192.5 -57q-61 0 -112 14.5t-82.5 37.5t-49 40.5t-28.5 35.5q-8 14 5 24l43 41q14 12 23 0q25 -33 77 -64.5t124 -31.5q65 0 102.5 26.5t37.5 70.5q0 37 -22 60.5t-56.5 35t-76.5 20.5t-84.5 21t-77 31.5 t-56.5 57.5t-22 94q0 71 46 121q-44 44 -44 121q0 84 66 141t182 57q57 0 103 -12.5t74.5 -32.5t44 -36.5t25.5 -33.5q9 -16 -6 -27l-50 -34q-16 -12 -23 0q-17 28 -56.5 52.5t-104.5 24.5q-64 0 -101.5 -28.5t-37.5 -70.5q0 -34 22 -56t57 -33t77 -19.5t84.5 -21.5 t77.5 -32.5t57 -59t22 -95.5zM463 189q0 31 -14.5 52.5t-43 33.5t-57 19.5t-70 17t-67.5 18.5q-29 -27 -29 -65q0 -29 15.5 -49t44.5 -32t58.5 -19t71 -16.5t68.5 -19.5q23 25 23 60z" />
<glyph unicode="&#xa8;" horiz-adv-x="373" d="M91 578q-25 0 -42 17t-17 42q0 24 17 41.5t42 17.5q24 0 41 -17.5t17 -41.5q0 -25 -17 -42t-41 -17zM283 578q-24 0 -41.5 17t-17.5 42q0 24 17.5 41.5t41.5 17.5q25 0 42 -17.5t17 -41.5q0 -25 -17 -42t-42 -17z" />
<glyph unicode="&#xa9;" horiz-adv-x="875" d="M437 -28q-167 0 -278.5 112t-111.5 279t111.5 279t278.5 112t279 -112t112 -279t-112 -279t-279 -112zM437 55q132 0 219.5 88t87.5 220q0 133 -87.5 222.5t-219.5 89.5q-131 0 -218.5 -89t-87.5 -223q0 -132 87 -220t219 -88zM237 356q0 122 56.5 185.5t144.5 63.5 q50 0 87 -15t55 -39.5t26 -43.5t11 -39q2 -14 -13 -17l-50 -9q-14 -2 -17 11q-16 69 -97 69q-45 0 -77 -37.5t-32 -123.5q0 -77 34.5 -116t83.5 -39q66 0 110 36q11 10 19 -2l24 -37q9 -14 -1 -24q-53 -56 -163 -56q-85 0 -143 60.5t-58 172.5z" />
<glyph unicode="&#xaa;" horiz-adv-x="365" d="M50 494q0 78 108 78h66v28q0 44 -47 44t-47 -28v-11q-2 -5 -7 -5h-43q-10 0 -12 8q-3 6 -3 19q0 33 29 54t82 21q113 0 113 -98v-106q0 -16 12 -19q10 -3 10 -9v-31q0 -16 -32 -16q-17 0 -32.5 10.5t-16.5 29.5v1q-22 -42 -90 -42q-41 0 -65.5 19.5t-24.5 52.5zM224 519 v12h-61q-49 0 -49 -28q0 -14 12 -21.5t30 -7.5q33 0 50 15t18 30z" />
<glyph unicode="&#xab;" horiz-adv-x="520" d="M69 207q-14 13 -14 32v49q0 19 14 33l124 112q14 12 26 0l31 -35q12 -14 -2 -26l-111 -108l111 -107q14 -13 2 -27l-31 -35q-13 -13 -26 1zM277 207q-14 13 -14 32v49q0 19 14 33l124 112q14 12 26 0l31 -35q12 -14 -2 -26l-111 -108l111 -107q14 -13 2 -27l-31 -35 q-13 -13 -26 1z" />
<glyph unicode="&#xac;" horiz-adv-x="483" d="M330 132v112h-246q-18 0 -18 18v43q0 18 18 18h312q17 0 17 -18v-174q0 -17 -17 -17h-49q-17 0 -17 18z" />
<glyph unicode="&#xad;" horiz-adv-x="406" d="M83 312h241q17 0 17 -17v-45q0 -17 -18 -17h-241q-18 0 -18 17v45q0 17 19 17z" />
<glyph unicode="&#xae;" horiz-adv-x="875" d="M645 202v-48q0 -18 -38 -18q-35 0 -59.5 18.5t-38.5 44.5t-26 52t-31 44.5t-46 18.5h-51v-159q0 -15 -14 -15h-60q-14 0 -14 15v426q0 15 15 15h149q159 0 159 -138q0 -14 -2.5 -27t-6.5 -23t-9 -18t-12 -14.5t-12.5 -11t-12 -8.5t-10.5 -6t-9 -4l-6 -2q22 -14 40 -48 t35.5 -58.5t42.5 -24.5h10q7 0 7 -11zM355 387h58q87 0 87 65q0 68 -82 68h-63v-133zM437 -28q-167 0 -278.5 112t-111.5 279t111.5 279t278.5 112t279 -112t112 -279t-112 -279t-279 -112zM437 55q132 0 219.5 88t87.5 220q0 133 -87.5 222.5t-219.5 89.5 q-131 0 -218.5 -89t-87.5 -223q0 -132 87 -220t219 -88z" />
<glyph unicode="&#xaf;" horiz-adv-x="399" d="M67 661h266q17 0 17 -17v-44q0 -17 -18 -17h-266q-18 0 -18 17v44q0 17 19 17z" />
<glyph unicode="&#xb0;" horiz-adv-x="349" d="M303 587q0 -53 -38 -90.5t-91 -37.5t-90 37.5t-37 90.5t37 91t90 38q52 0 90.5 -38t38.5 -91zM244 587q0 29 -20.5 49.5t-49.5 20.5t-49 -20.5t-20 -49.5t20.5 -49t48.5 -20q29 0 49.5 20t20.5 49z" />
<glyph unicode="&#xb1;" horiz-adv-x="503" d="M422 316h-132v-143q0 -18 -17 -18h-45q-18 0 -18 18v143h-129q-17 0 -17 17v44q0 18 18 18h128v130q0 18 17 18h45q18 0 18 -19v-129h132q18 0 18 -18v-44q0 -17 -18 -17zM78 94h346q17 0 17 -17v-44q0 -17 -18 -17h-346q-18 0 -18 17v44q0 17 19 17z" />
<glyph unicode="&#xb2;" horiz-adv-x="254" d="M209 493h-165q-14 0 -14 14v14q0 31 21 54t46 34.5t46 29t21 38.5q0 36 -38 36q-33 0 -40 -28q-2 -6 -10 -5l-42 8q-5 1 -5 8q4 27 27.5 50t69.5 23t71.5 -24t25.5 -65q0 -37 -28 -64t-56 -43t-28 -27v-2h97q15 2 15 -14v-23q0 -14 -14 -14z" />
<glyph unicode="&#xb3;" horiz-adv-x="258" d="M129 606h-20q-10 0 -10 10v26q0 9 10 9h19q11 0 20.5 9t9.5 26q0 11 -9.5 19t-27.5 8q-21 0 -33 -15q-5 -7 -16 -3l-33 13q-8 3 -5 11q24 50 91 50q48 0 72.5 -22.5t24.5 -54.5q0 -26 -14 -41t-27 -17q49 -16 49 -67q0 -35 -29 -55.5t-77 -20.5q-73 0 -98 47q-3 7 4 13 l22 20q8 8 12 0q20 -29 57 -29q48 0 48 31q0 16 -12 24.5t-28 8.5z" />
<glyph unicode="&#xb4;" horiz-adv-x="284" d="M118 559h-66q-7 0 -9.5 4t-0.5 9l71 156q6 14 20 14h99q7 0 10 -4t-1 -10l-99 -153q-11 -16 -24 -16z" />
<glyph unicode="&#xb5;" horiz-adv-x="536" d="M180 465v-274q0 -50 22 -74t60 -24q53 0 82 39t30 76v257q0 17 17 17h73q17 0 17 -17v-448q0 -17 -17 -17h-60q-18 0 -18 17v74q-41 -97 -161 -97q-19 0 -33.5 3.5t-19.5 6.5l-5 4v-235q0 -17 -17 -17h-60q-18 0 -18 17v692q0 17 18 17h73q17 0 17 -17z" />
<glyph unicode="&#xb6;" horiz-adv-x="626" d="M320 17v236h-70q-104 0 -160 60.5t-56 161.5q0 102 56 163.5t160 61.5h274q18 0 18 -17v-666q0 -17 -17 -17h-32q-17 0 -17 17v630h-90v-630q0 -17 -18 -17h-31q-17 0 -17 17z" />
<glyph unicode="&#xb7;" horiz-adv-x="251" d="M58 355q0 28 20 48t48 20t47.5 -20t19.5 -48t-19.5 -47.5t-47.5 -19.5t-48 19.5t-20 47.5z" />
<glyph unicode="&#xb8;" horiz-adv-x="279" d="M176 -6l-12 -26q25 0 46 -19t21 -52q0 -39 -27 -59.5t-68 -20.5q-48 0 -82 31q-7 5 -2 13l16 28q5 8 10 4q25 -22 56 -22q39 0 39 28q0 33 -73 34q-8 0 -5 7l24 56q4 9 15 9h36q11 0 6 -11z" />
<glyph unicode="&#xb9;" horiz-adv-x="221" d="M178 752v-246q0 -14 -13 -14h-35q-14 0 -14 15v171q-8 -15 -27.5 -28t-48.5 -16q-13 -3 -14 8l-7 38q-1 6 2.5 9.5t7.5 3.5q30 3 53.5 21t30.5 39q5 12 15 12h38q12 0 12 -13z" />
<glyph unicode="&#xba;" horiz-adv-x="348" d="M174 427q-58 0 -91.5 37t-33.5 101q0 63 33.5 100t91.5 37t91.5 -37t33.5 -100q0 -64 -33.5 -101t-91.5 -37zM174 486q28 0 44 20.5t16 57.5q0 36 -16.5 57.5t-43.5 21.5t-44 -21t-17 -58t16.5 -57.5t44.5 -20.5z" />
<glyph unicode="&#xbb;" horiz-adv-x="520" d="M242 205l-122 -109q-15 -13 -24 -2l-36 40q-9 10 3 21l113 109l-113 110q-12 10 -3 21l35 39q10 12 24 -1l123 -110q16 -15 16 -33v-50q0 -20 -16 -35zM450 205l-122 -109q-15 -13 -24 -2l-36 40q-9 10 3 21l113 109l-113 110q-12 10 -3 21l35 39q10 12 24 -1l123 -110 q16 -15 16 -33v-50q0 -20 -16 -35z" />
<glyph unicode="&#xbc;" horiz-adv-x="572" d="M417 682l-200 -666q-4 -16 -20 -16h-40q-9 0 -14 5t-3 13l201 666q6 16 21 16h39q9 0 14 -5t2 -13zM198 687v-246q0 -14 -14 -14h-35q-14 0 -14 15v171q-8 -15 -27.5 -28t-47.5 -16q-13 -3 -15 8l-7 38q-1 12 10 12q30 3 52.5 21.5t31.5 39.5q5 12 15 12h38q13 0 13 -13z M309 71v19q0 11 4 19l77 153q5 11 16 11h43q14 0 8 -12l-74 -149h63v42q0 15 13 15h35q14 0 14 -14v-43h21q14 0 14 -14v-27q0 -14 -14 -14h-21v-43q0 -14 -14 -14h-38q-14 0 -14 15v42h-119q-14 0 -14 14z" />
<glyph unicode="&#xbd;" horiz-adv-x="566" d="M417 682l-200 -666q-4 -16 -20 -16h-40q-9 0 -14 5t-3 13l201 666q6 16 21 16h39q9 0 14 -5t2 -13zM198 687v-246q0 -14 -13 -14h-35q-14 0 -14 15v171q-8 -15 -28 -28t-48 -16q-13 -3 -15 8l-6 38q-1 6 2.5 9.5t6.5 3.5q30 3 53 21t31 39q5 12 15 12h38q13 0 13 -13z M508 0h-165q-14 0 -14 14v14q0 31 21 54t46 34.5t46 29t21 38.5q0 36 -38 36q-34 0 -41 -28q-2 -6 -9 -5l-42 8q-6 1 -6 8q4 27 28 50t70 23t71.5 -24t25.5 -65q0 -37 -28 -64t-56 -43t-28 -27v-2h97q15 1 15 -14v-23q0 -14 -14 -14z" />
<glyph unicode="&#xbe;" horiz-adv-x="590" d="M439 682l-200 -666q-4 -16 -20 -16h-40q-9 0 -14 5t-3 13l201 666q6 16 21 16h39q9 0 14 -5t2 -13zM327 71v19q0 11 4 19l77 153q5 11 16 11h43q14 0 8 -12l-74 -149h63v42q0 15 13 15h35q14 0 14 -14v-43h21q14 0 14 -14v-27q0 -14 -14 -14h-21v-43q0 -14 -14 -14h-38 q-14 0 -14 15v42h-119q-14 0 -14 14zM142 539h-19q-10 0 -10 10v26q0 10 10 10h18q11 0 21 9t10 25q0 11 -9.5 19.5t-27.5 8.5q-21 0 -33 -15q-6 -7 -16 -4l-33 13q-9 4 -5 12q24 49 91 49q48 0 72.5 -22.5t24.5 -53.5q0 -27 -14 -42t-27 -17q49 -16 49 -66q0 -36 -29 -56.5 t-77 -20.5q-76 0 -98 47q-4 7 3 13l23 20q8 7 12 1q19 -30 57 -30q47 0 47 32q0 16 -12 24t-28 8z" />
<glyph unicode="&#xbf;" horiz-adv-x="478" d="M268 401q-26 0 -44.5 19t-18.5 45t18.5 45t44.5 19q27 0 45.5 -19t18.5 -45t-18.5 -45t-45.5 -19zM363 -38l74 -13q12 -3 12 -20q-6 -83 -64.5 -133.5t-144.5 -50.5q-104 0 -156.5 58t-52.5 143q0 50 18 88t43.5 63.5t52 50.5t46.5 61.5t23 83.5q0 16 15 16h70 q16 0 16 -16q-2 -60 -20.5 -104.5t-43 -70t-49 -47.5t-41.5 -51.5t-17 -67.5q0 -45 26.5 -74.5t72.5 -29.5q42 0 70 27t33 70q3 18 14 17h3z" />
<glyph unicode="&#xc0;" horiz-adv-x="661" d="M522 18l-60 167h-264l-59 -167q-5 -18 -20 -18h-80q-9 0 -14 6t-2 14l242 651q12 29 34 29h66q22 0 34 -29l239 -651q4 -8 -1.5 -14t-14.5 -6h-80q-13 0 -20 18zM330 556l-100 -282h201zM363 777h-67q-13 0 -23 16l-100 153q-4 6 -1 10t10 4h99q14 0 20 -14l71 -156 q1 -3 1 -6t-3 -5t-7 -2z" />
<glyph unicode="&#xc1;" horiz-adv-x="661" d="M522 18l-60 167h-264l-59 -167q-5 -18 -20 -18h-80q-9 0 -14 6t-2 14l242 651q12 29 34 29h66q22 0 34 -29l239 -651q4 -8 -1.5 -14t-14.5 -6h-80q-13 0 -20 18zM330 556l-100 -282h201zM373 777h-66q-7 0 -9.5 4t-0.5 9l71 156q6 14 20 14h99q7 0 10 -4t-1 -10l-99 -153 q-11 -16 -24 -16z" />
<glyph unicode="&#xc2;" horiz-adv-x="661" d="M522 18l-60 167h-264l-59 -167q-5 -18 -20 -18h-80q-9 0 -14 6t-2 14l242 651q12 29 34 29h66q22 0 34 -29l239 -651q4 -8 -1.5 -14t-14.5 -6h-80q-13 0 -20 18zM330 556l-100 -282h201zM264 762h-56q-10 0 -14 6t0 13l71 146q7 18 24 18h87q16 0 25 -18l71 -146 q4 -8 -0.5 -13.5t-14.5 -5.5h-57q-16 0 -23 15l-45 88l-45 -88q-7 -15 -23 -15z" />
<glyph unicode="&#xc3;" horiz-adv-x="661" d="M522 18l-60 167h-264l-59 -167q-5 -18 -20 -18h-80q-9 0 -14 6t-2 14l242 651q12 29 34 29h66q22 0 34 -29l239 -651q4 -8 -1.5 -14t-14.5 -6h-80q-13 0 -20 18zM330 556l-100 -282h201zM243 771h-53q-10 0 -14 7q-10 22 -10 48q0 37 23.5 61.5t66.5 24.5q34 0 84 -18.5 t70 -18.5q22 0 22 22q0 12 -8 33q-3 8 12 8h51q12 0 16 -11q7 -21 7 -44q0 -37 -22 -61t-64 -24t-90 18t-62 18q-27 0 -27 -28q0 -14 7 -26q5 -9 -9 -9z" />
<glyph unicode="&#xc4;" horiz-adv-x="661" d="M522 18l-60 167h-264l-59 -167q-5 -18 -20 -18h-80q-9 0 -14 6t-2 14l242 651q12 29 34 29h66q22 0 34 -29l239 -651q4 -8 -1.5 -14t-14.5 -6h-80q-13 0 -20 18zM330 556l-100 -282h201zM240 796q-25 0 -42 17t-17 42q0 24 17 41.5t42 17.5q24 0 41 -17.5t17 -41.5 q0 -25 -17 -42t-41 -17zM432 796q-24 0 -41.5 17t-17.5 42q0 24 17.5 41.5t41.5 17.5q25 0 42 -17.5t17 -41.5q0 -25 -17 -42t-42 -17z" />
<glyph unicode="&#xc5;" horiz-adv-x="661" d="M522 18l-60 167h-264l-59 -167q-5 -18 -20 -18h-80q-9 0 -14 6t-2 14l242 651q12 29 34 29h66q22 0 34 -29l239 -651q4 -8 -1.5 -14t-14.5 -6h-80q-13 0 -20 18zM330 556l-100 -282h201zM333 772q-39 0 -65 26t-26 64q0 39 26 65.5t65 26.5q38 0 64.5 -26.5t26.5 -65.5 q0 -38 -26.5 -64t-64.5 -26zM372 862q0 17 -11 28t-28 11t-28 -11t-11 -28t11 -27.5t28 -10.5t28 10.5t11 27.5z" />
<glyph unicode="&#xc6;" horiz-adv-x="851" d="M330 556l-100 -282h201zM522 18l-60 167h-264l-59 -167q-5 -18 -20 -18h-80q-9 0 -14.5 6t-1.5 14l240 651q10 29 33 29h494q18 0 18 -17v-59q0 -17 -18 -17h-368l79 -216h225q17 0 17 -17v-58q0 -17 -18 -17h-190l76 -206h179q18 0 18 -17v-59q0 -17 -18 -17h-248 q-15 0 -20 18z" />
<glyph unicode="&#xc7;" horiz-adv-x="647" d="M559 179l41 -44q15 -13 3 -28q-17 -23 -40.5 -44t-75 -44t-110.5 -25l-11 -26q25 0 46 -19t21 -52q0 -39 -27.5 -59.5t-68.5 -20.5q-47 0 -81 31q-6 6 -2 12l16 29q5 8 12 3q24 -21 54 -21q39 0 39 28q0 33 -74 34q-7 0 -4 7l24 56q-126 14 -200 103t-74 249 q0 176 81.5 267t221.5 91q60 0 106.5 -17.5t73 -41.5t45 -56.5t24.5 -55.5t9 -45q2 -16 -17 -20l-67 -11q-19 -4 -21 13q-4 20 -11 38.5t-23 43t-46.5 39t-71.5 14.5q-84 0 -136 -64.5t-52 -194.5t60 -192.5t149 -62.5t161 81q14 17 26 5z" />
<glyph unicode="&#xc8;" horiz-adv-x="554" d="M492 0h-394q-18 0 -18 17v666q0 17 18 17h395q17 0 17 -17v-59q0 -17 -18 -17h-298v-213h239q17 0 17 -18v-58q0 -17 -18 -17h-238v-208h299q17 0 17 -17v-59q0 -17 -18 -17zM350 777h-67q-13 0 -23 16l-100 153q-4 6 -1 10t10 4h99q14 0 20 -14l71 -156q1 -3 1 -6t-3 -5 t-7 -2z" />
<glyph unicode="&#xc9;" horiz-adv-x="554" d="M333 777h-66q-7 0 -9.5 4t-0.5 9l71 156q6 14 20 14h99q7 0 10 -4t-1 -10l-99 -153q-11 -16 -24 -16zM492 0h-394q-18 0 -18 17v666q0 17 18 17h395q17 0 17 -17v-59q0 -17 -18 -17h-298v-213h239q17 0 17 -18v-58q0 -17 -18 -17h-238v-208h299q17 0 17 -17v-59 q0 -17 -18 -17z" />
<glyph unicode="&#xca;" horiz-adv-x="554" d="M245 762h-56q-10 0 -14 6t0 13l71 146q8 18 24 18h87q16 0 25 -18l71 -146q4 -8 -0.5 -13.5t-14.5 -5.5h-57q-15 0 -23 15l-45 88l-45 -88q-8 -15 -23 -15zM492 0h-394q-18 0 -18 17v666q0 17 18 17h395q17 0 17 -17v-59q0 -17 -18 -17h-298v-213h239q17 0 17 -18v-58 q0 -17 -18 -17h-238v-208h299q17 0 17 -17v-59q0 -17 -18 -17z" />
<glyph unicode="&#xcb;" horiz-adv-x="554" d="M216 796q-25 0 -42 17t-17 42q0 24 17 41.5t42 17.5q24 0 41 -17.5t17 -41.5q0 -25 -17 -42t-41 -17zM408 796q-24 0 -41.5 17t-17.5 42q0 24 17.5 41.5t41.5 17.5q25 0 42 -17.5t17 -41.5q0 -25 -17 -42t-42 -17zM492 0h-394q-18 0 -18 17v666q0 17 18 17h395 q17 0 17 -17v-59q0 -17 -18 -17h-298v-213h239q17 0 17 -18v-58q0 -17 -18 -17h-238v-208h299q17 0 17 -17v-59q0 -17 -18 -17z" />
<glyph unicode="&#xcc;" horiz-adv-x="274" d="M194 683v-666q0 -17 -18 -17h-78q-18 0 -18 17v666q0 17 18 17h78q18 0 18 -17zM177 777h-67q-13 0 -23 16l-100 153q-4 6 -1 10t10 4h99q14 0 20 -14l71 -156q1 -3 1 -6t-3 -5t-7 -2z" />
<glyph unicode="&#xcd;" horiz-adv-x="274" d="M194 683v-666q0 -17 -18 -17h-78q-18 0 -18 17v666q0 17 18 17h78q18 0 18 -17zM165 777h-66q-7 0 -9.5 4t-0.5 9l71 156q6 14 20 14h99q7 0 10 -4t-1 -10l-99 -153q-11 -16 -24 -16z" />
<glyph unicode="&#xce;" horiz-adv-x="274" d="M194 683v-666q0 -17 -18 -17h-78q-18 0 -18 17v666q0 17 18 17h78q18 0 18 -17zM64 762h-56q-10 0 -14 6t0 13l71 146q7 18 24 18h87q16 0 25 -18l71 -146q4 -8 -0.5 -13.5t-14.5 -5.5h-57q-16 0 -23 15l-45 88l-45 -88q-7 -15 -23 -15z" />
<glyph unicode="&#xcf;" horiz-adv-x="274" d="M194 683v-666q0 -17 -18 -17h-78q-18 0 -18 17v666q0 17 18 17h78q18 0 18 -17zM38 768q-25 0 -42 17t-17 42q0 24 17 41.5t42 17.5q24 0 41 -17.5t17 -41.5q0 -25 -17 -42t-41 -17zM230 768q-24 0 -41.5 17t-17.5 42q0 24 17.5 41.5t41.5 17.5q25 0 42 -17.5t17 -41.5 q0 -25 -17 -42t-42 -17z" />
<glyph unicode="&#xd0;" horiz-adv-x="666" d="M307 0h-209q-18 0 -18 17v666q0 17 18 17h177q71 0 131.5 -20.5t108.5 -62t75.5 -112.5t27.5 -165q0 -174 -86 -257t-225 -83zM194 93h112q91 0 145 63.5t54 184.5q0 130 -59.5 198t-172.5 68h-79v-220h172q17 0 17 -17v-42q0 -18 -18 -18h-171v-217z" />
<glyph unicode="&#xd1;" horiz-adv-x="685" d="M587 0h-81q-23 0 -37 25l-275 471v-479q0 -17 -18 -17h-78q-18 0 -18 17v666q0 17 18 17h82q22 0 37 -26l275 -484v493q0 17 17 17h78q18 0 18 -17v-666q0 -17 -18 -17zM257 771h-53q-10 0 -14 7q-10 22 -10 48q0 37 23.5 61.5t66.5 24.5q34 0 84 -18.5t70 -18.5 q22 0 22 22q0 12 -8 33q-3 8 12 8h51q12 0 16 -11q7 -21 7 -44q0 -37 -22 -61t-64 -24t-90 18t-62 18q-27 0 -27 -28q0 -14 7 -26q5 -9 -9 -9z" />
<glyph unicode="&#xd2;" horiz-adv-x="707" d="M354 -6q-133 0 -220 89.5t-87 265.5t87 266.5t220 90.5t219.5 -90.5t86.5 -266.5t-87 -265.5t-219 -89.5zM354 92q83 0 136 62.5t53 194.5q0 134 -53.5 196t-135.5 62q-83 0 -136.5 -62t-53.5 -196q0 -132 53.5 -194.5t136.5 -62.5zM401 777h-67q-13 0 -23 16l-100 153 q-4 6 -1 10t10 4h99q14 0 20 -14l71 -156q1 -3 1 -6t-3 -5t-7 -2z" />
<glyph unicode="&#xd3;" horiz-adv-x="707" d="M370 777h-66q-7 0 -9.5 4t-0.5 9l71 156q6 14 20 14h99q7 0 10 -4t-1 -10l-99 -153q-11 -16 -24 -16zM354 -6q-133 0 -220 89.5t-87 265.5t87 266.5t220 90.5t219.5 -90.5t86.5 -266.5t-87 -265.5t-219 -89.5zM354 92q83 0 136 62.5t53 194.5q0 134 -53.5 196t-135.5 62 q-83 0 -136.5 -62t-53.5 -196q0 -132 53.5 -194.5t136.5 -62.5z" />
<glyph unicode="&#xd4;" horiz-adv-x="707" d="M289 762h-56q-10 0 -14 6t0 13l71 146q8 18 24 18h87q16 0 25 -18l71 -146q4 -8 -0.5 -13.5t-14.5 -5.5h-57q-15 0 -23 15l-45 88l-45 -88q-8 -15 -23 -15zM354 -6q-133 0 -220 89.5t-87 265.5t87 266.5t220 90.5t219.5 -90.5t86.5 -266.5t-87 -265.5t-219 -89.5zM354 92 q83 0 136 62.5t53 194.5q0 134 -53.5 196t-135.5 62q-83 0 -136.5 -62t-53.5 -196q0 -132 53.5 -194.5t136.5 -62.5z" />
<glyph unicode="&#xd5;" horiz-adv-x="707" d="M354 -6q-133 0 -220 89.5t-87 265.5t87 266.5t220 90.5t219.5 -90.5t86.5 -266.5t-87 -265.5t-219 -89.5zM354 92q83 0 136 62.5t53 194.5q0 134 -53.5 196t-135.5 62q-83 0 -136.5 -62t-53.5 -196q0 -132 53.5 -194.5t136.5 -62.5zM261 771h-53q-10 0 -14 7 q-10 22 -10 48q0 37 23.5 61.5t66.5 24.5q34 0 84 -18.5t70 -18.5q22 0 22 22q0 12 -8 33q-3 8 12 8h51q12 0 16 -11q7 -21 7 -44q0 -37 -22 -61t-64 -24t-90 18t-62 18q-27 0 -27 -28q0 -14 7 -26q5 -9 -9 -9z" />
<glyph unicode="&#xd6;" horiz-adv-x="707" d="M260 796q-25 0 -42 17t-17 42q0 24 17 41.5t42 17.5q24 0 41 -17.5t17 -41.5q0 -25 -17 -42t-41 -17zM452 796q-24 0 -41.5 17t-17.5 42q0 24 17.5 41.5t41.5 17.5q25 0 42 -17.5t17 -41.5q0 -25 -17 -42t-42 -17zM354 -6q-133 0 -220 89.5t-87 265.5t87 266.5t220 90.5 t219.5 -90.5t86.5 -266.5t-87 -265.5t-219 -89.5zM354 92q83 0 136 62.5t53 194.5q0 134 -53.5 196t-135.5 62q-83 0 -136.5 -62t-53.5 -196q0 -132 53.5 -194.5t136.5 -62.5z" />
<glyph unicode="&#xd7;" horiz-adv-x="483" d="M416 391l-118 -118l118 -119q12 -12 1 -25l-32 -31q-13 -12 -25 0l-119 119l-118 -119q-12 -12 -24 0l-32 31q-13 13 0 25l119 119l-119 118q-13 13 0 25l32 32q12 12 24 -1l118 -118l119 118q12 13 24 1l32 -31q13 -13 0 -26z" />
<glyph unicode="&#xd8;" horiz-adv-x="706" d="M353 -6q-87 0 -156 39l-23 -36q-10 -13 -21 -13h-79q-8 0 -10.5 4.5t1.5 11.5l60 92q-79 94 -79 257q0 176 87 266.5t220 90.5q83 0 153 -38l23 35q7 13 18 13h80q7 0 10 -4.5t-1 -10.5l-59 -91q82 -97 82 -261q0 -176 -87 -265.5t-219 -89.5zM353 92q83 0 136 62.5 t53 194.5q0 99 -32 161l-256 -390q41 -28 99 -28zM163 349q0 -99 31 -159l256 389q-43 28 -97 28q-83 0 -136.5 -62t-53.5 -196z" />
<glyph unicode="&#xd9;" horiz-adv-x="673" d="M487 280v403q0 17 18 17h78q17 0 17 -17v-395q0 -294 -262 -294q-121 0 -193 68.5t-72 225.5l1 395q0 17 17 17h79q17 0 17 -17v-403q0 -187 151 -187q149 0 149 187zM369 777h-67q-13 0 -23 16l-100 153q-4 6 -1 10t10 4h99q14 0 20 -14l71 -156q1 -3 1 -6t-3 -5t-7 -2z " />
<glyph unicode="&#xda;" horiz-adv-x="673" d="M354 777h-66q-7 0 -9.5 4t-0.5 9l71 156q6 14 20 14h99q7 0 10 -4t-1 -10l-99 -153q-11 -16 -24 -16zM487 280v403q0 17 18 17h78q17 0 17 -17v-395q0 -294 -262 -294q-121 0 -193 68.5t-72 225.5l1 395q0 17 17 17h79q17 0 17 -17v-403q0 -187 151 -187q149 0 149 187z " />
<glyph unicode="&#xdb;" horiz-adv-x="673" d="M263 762h-56q-10 0 -14 6t0 13l71 146q8 18 24 18h87q16 0 25 -18l71 -146q4 -8 -0.5 -13.5t-14.5 -5.5h-57q-15 0 -23 15l-45 88l-45 -88q-8 -15 -23 -15zM487 280v403q0 17 18 17h78q17 0 17 -17v-395q0 -294 -262 -294q-121 0 -193 68.5t-72 225.5l1 395q0 17 17 17 h79q17 0 17 -17v-403q0 -187 151 -187q149 0 149 187z" />
<glyph unicode="&#xdc;" horiz-adv-x="673" d="M239 796q-25 0 -42 17t-17 42q0 24 17 41.5t42 17.5q24 0 41 -17.5t17 -41.5q0 -25 -17 -42t-41 -17zM431 796q-24 0 -41.5 17t-17.5 42q0 24 17.5 41.5t41.5 17.5q25 0 42 -17.5t17 -41.5q0 -25 -17 -42t-42 -17zM487 280v403q0 17 18 17h78q17 0 17 -17v-395 q0 -294 -262 -294q-121 0 -193 68.5t-72 225.5l1 395q0 17 17 17h79q17 0 17 -17v-403q0 -187 151 -187q149 0 149 187z" />
<glyph unicode="&#xdd;" horiz-adv-x="650" d="M365 0h-80q-17 0 -17 17v281l-242 382q-5 8 -0.5 14t15.5 6h95q12 0 20 -14l170 -291l168 291q8 14 20 14h96q10 0 14.5 -6t-0.5 -14l-241 -382v-281q0 -17 -18 -17zM349 777h-66q-7 0 -9.5 4t-0.5 9l71 156q6 14 20 14h99q7 0 10 -4t-1 -10l-99 -153q-11 -16 -24 -16z " />
<glyph unicode="&#xde;" horiz-adv-x="609" d="M194 225h113q154 0 154 134q0 64 -40 101.5t-118 37.5h-109v-273zM194 592h118q125 0 194 -59t69 -174q0 -112 -68 -169t-180 -57h-133v-116q0 -17 -18 -17h-78q-18 0 -18 17v666q0 17 18 17h78q18 0 18 -17v-91z" />
<glyph unicode="&#xdf;" horiz-adv-x="555" d="M222 22l11 52q2 16 15 14q30 -10 60 -10q50 0 77.5 23t27.5 67q0 32 -15.5 55.5t-37.5 37.5t-44.5 26.5t-38 29.5t-15.5 39q0 18 11 34.5t27 30.5t31.5 29.5t26.5 38.5t11 51q0 49 -25 80.5t-71 31.5t-71.5 -34t-25.5 -91v-509q0 -18 -17 -18h-75q-18 0 -18 18v528 q0 86 51.5 143t153.5 57q91 0 147.5 -52t56.5 -127q0 -43 -17 -78t-37 -53t-37 -37.5t-17 -34.5q0 -14 16 -26t39.5 -26t46.5 -33t39 -55t16 -84q0 -75 -54.5 -114.5t-140.5 -39.5q-51 0 -95 13q-16 5 -12 23z" />
<glyph unicode="&#xe0;" horiz-adv-x="518" d="M295 559h-67q-13 0 -23 16l-100 153q-4 6 -1 10t10 4h99q14 0 20 -14l71 -156q1 -3 1 -6t-3 -5t-7 -2zM488 66v-47q0 -23 -48 -23q-39 0 -64 20t-25 56v2q-45 -80 -159 -80q-73 0 -114.5 34.5t-41.5 92.5q0 133 190 133h113v63q0 85 -88 85q-42 0 -65 -19t-23 -50 q0 -4 3 -25q2 -5 -2.5 -8t-14.5 -3h-57q-29 0 -29 54q0 61 50 99t141 38q193 0 193 -175v-184q0 -41 26 -47q15 -3 15 -16zM339 171v18h-108q-85 0 -85 -56q0 -27 20.5 -41.5t54.5 -14.5q41 0 70.5 23.5t38.5 47.5z" />
<glyph unicode="&#xe1;" horiz-adv-x="518" d="M272 559h-66q-7 0 -9.5 4t-0.5 9l71 156q6 14 20 14h99q7 0 10 -4t-1 -10l-99 -153q-11 -16 -24 -16zM488 66v-47q0 -23 -48 -23q-39 0 -64 20t-25 56v2q-45 -80 -159 -80q-73 0 -114.5 34.5t-41.5 92.5q0 133 190 133h113v63q0 85 -88 85q-42 0 -65 -19t-23 -50 q0 -4 3 -25q2 -5 -2.5 -8t-14.5 -3h-57q-29 0 -29 54q0 61 50 99t141 38q193 0 193 -175v-184q0 -41 26 -47q15 -3 15 -16zM339 171v18h-108q-85 0 -85 -56q0 -27 20.5 -41.5t54.5 -14.5q41 0 70.5 23.5t38.5 47.5z" />
<glyph unicode="&#xe2;" horiz-adv-x="518" d="M189 544h-56q-10 0 -14 6t0 13l71 146q8 18 24 18h87q16 0 25 -18l71 -146q4 -8 -0.5 -13.5t-14.5 -5.5h-57q-15 0 -23 15l-45 88l-45 -88q-8 -15 -23 -15zM488 66v-47q0 -23 -48 -23q-39 0 -64 20t-25 56v2q-45 -80 -159 -80q-73 0 -114.5 34.5t-41.5 92.5 q0 133 190 133h113v63q0 85 -88 85q-42 0 -65 -19t-23 -50q0 -4 3 -25q2 -5 -2.5 -8t-14.5 -3h-57q-29 0 -29 54q0 61 50 99t141 38q193 0 193 -175v-184q0 -41 26 -47q15 -3 15 -16zM339 171v18h-108q-85 0 -85 -56q0 -27 20.5 -41.5t54.5 -14.5q41 0 70.5 23.5t38.5 47.5z " />
<glyph unicode="&#xe3;" horiz-adv-x="518" d="M150 553h-53q-11 0 -14 7q-10 22 -10 48q0 37 23.5 61.5t66.5 24.5q34 0 84 -18.5t70 -18.5q22 0 22 22q0 12 -8 33q-3 8 12 8h51q12 0 16 -11q7 -21 7 -44q0 -37 -22 -61t-64 -24t-90 18t-62 18q-27 0 -27 -28q0 -14 7 -26q5 -9 -9 -9zM488 66v-47q0 -23 -48 -23 q-39 0 -64 20t-25 56v2q-45 -80 -159 -80q-73 0 -114.5 34.5t-41.5 92.5q0 133 190 133h113v63q0 85 -88 85q-42 0 -65 -19t-23 -50q0 -4 3 -25q2 -5 -2.5 -8t-14.5 -3h-57q-29 0 -29 54q0 61 50 99t141 38q193 0 193 -175v-184q0 -41 26 -47q15 -3 15 -16zM339 171v18h-108 q-85 0 -85 -56q0 -27 20.5 -41.5t54.5 -14.5q41 0 70.5 23.5t38.5 47.5z" />
<glyph unicode="&#xe4;" horiz-adv-x="518" d="M161 578q-25 0 -42 17t-17 42q0 24 17 41.5t42 17.5q24 0 41 -17.5t17 -41.5q0 -25 -17 -42t-41 -17zM353 578q-24 0 -41.5 17t-17.5 42q0 24 17.5 41.5t41.5 17.5q25 0 42 -17.5t17 -41.5q0 -25 -17 -42t-42 -17zM488 66v-47q0 -23 -48 -23q-39 0 -64 20t-25 56v2 q-45 -80 -159 -80q-73 0 -114.5 34.5t-41.5 92.5q0 133 190 133h113v63q0 85 -88 85q-42 0 -65 -19t-23 -50q0 -4 3 -25q2 -5 -2.5 -8t-14.5 -3h-57q-29 0 -29 54q0 61 50 99t141 38q193 0 193 -175v-184q0 -41 26 -47q15 -3 15 -16zM339 171v18h-108q-85 0 -85 -56 q0 -27 20.5 -41.5t54.5 -14.5q41 0 70.5 23.5t38.5 47.5z" />
<glyph unicode="&#xe5;" horiz-adv-x="518" d="M258 554q-39 0 -65 26t-26 64q0 39 26 65.5t65 26.5q38 0 64.5 -26.5t26.5 -65.5q0 -38 -26.5 -64t-64.5 -26zM297 644q0 17 -11 28t-28 11t-28 -11t-11 -28t11 -27.5t28 -10.5t28 10.5t11 27.5zM488 66v-47q0 -23 -48 -23q-39 0 -64 20t-25 56v2q-45 -80 -159 -80 q-73 0 -114.5 34.5t-41.5 92.5q0 133 190 133h113v63q0 85 -88 85q-42 0 -65 -19t-23 -50q0 -4 3 -25q2 -5 -2.5 -8t-14.5 -3h-57q-29 0 -29 54q0 61 50 99t141 38q193 0 193 -175v-184q0 -41 26 -47q15 -3 15 -16zM339 171v18h-108q-85 0 -85 -56q0 -27 20.5 -41.5 t54.5 -14.5q41 0 70.5 23.5t38.5 47.5z" />
<glyph unicode="&#xe6;" horiz-adv-x="820" d="M732 230h-284v-7q3 -72 42.5 -104.5t88.5 -32.5q68 0 109 47q14 14 21 6l38 -38q11 -11 4 -22q-13 -18 -32 -35t-61.5 -33.5t-93.5 -16.5q-127 0 -193 106q-57 -106 -179 -106q-73 0 -114.5 34.5t-41.5 92.5q0 133 190 133h113v63q0 85 -88 85q-42 0 -65 -19t-23 -50 q0 -6 3 -24q2 -6 -2 -9t-15 -3h-57q-29 0 -29 54q0 61 50 99t141 38q106 0 155 -57q57 57 153 57q98 0 144.5 -58t46.5 -176q0 -24 -21 -24zM339 171v18h-108q-85 0 -85 -56q0 -27 20.5 -41.5t54.5 -14.5q41 0 70.5 23.5t38.5 47.5zM451 297h200q0 46 -23.5 73.5t-71.5 27.5 q-91 0 -105 -101z" />
<glyph unicode="&#xe7;" horiz-adv-x="497" d="M42 241q0 119 58 183t167 64q87 0 136 -42.5t49 -109.5q0 -57 -29 -57h-43q-28 0 -28 14q0 3 1 10.5t1 11.5q0 37 -22.5 58.5t-64.5 21.5q-118 0 -118 -153q0 -83 39.5 -119t92.5 -36q64 0 108 44q16 17 25 7l32 -33q15 -16 6 -29q-60 -72 -157 -81q-3 -5 -12 -27 q25 0 46 -19t21 -52q0 -39 -27.5 -59.5t-68.5 -20.5q-54 0 -82 31q-5 7 -2 12l16 29q5 10 12 3q26 -21 54 -21q40 0 40 28q0 33 -74 34q-7 0 -4 7l23 56q-87 9 -141 71t-54 174z" />
<glyph unicode="&#xe8;" horiz-adv-x="502" d="M436 230h-285v-6q3 -75 43 -107.5t88 -32.5q64 0 109 48q14 15 21 7l38 -38q12 -11 4 -22q-13 -18 -32 -35t-61.5 -33.5t-93.5 -16.5q-98 0 -161 63t-63 184q0 119 56.5 183t165.5 64q192 0 192 -234q0 -24 -21 -24zM154 297h200q0 47 -23.5 75t-71.5 28q-91 0 -105 -103 zM298 559h-67q-13 0 -23 16l-100 153q-4 6 -1 10t10 4h99q14 0 20 -14l71 -156q1 -3 1 -6t-3 -5t-7 -2z" />
<glyph unicode="&#xe9;" horiz-adv-x="502" d="M283 559h-66q-7 0 -9.5 4t-0.5 9l71 156q6 14 20 14h99q7 0 10 -4t-1 -10l-99 -153q-11 -16 -24 -16zM436 230h-285v-6q3 -75 43 -107.5t88 -32.5q64 0 109 48q14 15 21 7l38 -38q12 -11 4 -22q-13 -18 -32 -35t-61.5 -33.5t-93.5 -16.5q-98 0 -161 63t-63 184 q0 119 56.5 183t165.5 64q192 0 192 -234q0 -24 -21 -24zM154 297h200q0 47 -23.5 75t-71.5 28q-91 0 -105 -103z" />
<glyph unicode="&#xea;" horiz-adv-x="502" d="M192 544h-56q-10 0 -14 6t0 13l71 146q7 18 24 18h87q16 0 25 -18l71 -146q4 -8 -0.5 -13.5t-14.5 -5.5h-57q-16 0 -23 15l-45 88l-45 -88q-7 -15 -23 -15zM436 230h-285v-6q3 -75 43 -107.5t88 -32.5q64 0 109 48q14 15 21 7l38 -38q12 -11 4 -22q-13 -18 -32 -35 t-61.5 -33.5t-93.5 -16.5q-98 0 -161 63t-63 184q0 119 56.5 183t165.5 64q192 0 192 -234q0 -24 -21 -24zM154 297h200q0 47 -23.5 75t-71.5 28q-91 0 -105 -103z" />
<glyph unicode="&#xeb;" horiz-adv-x="502" d="M171 578q-25 0 -42 17t-17 42q0 24 17 41.5t42 17.5q24 0 41 -17.5t17 -41.5q0 -25 -17 -42t-41 -17zM363 578q-24 0 -41.5 17t-17.5 42q0 24 17.5 41.5t41.5 17.5q25 0 42 -17.5t17 -41.5q0 -25 -17 -42t-42 -17zM436 230h-285v-6q3 -75 43 -107.5t88 -32.5q64 0 109 48 q14 15 21 7l38 -38q12 -11 4 -22q-13 -18 -32 -35t-61.5 -33.5t-93.5 -16.5q-98 0 -161 63t-63 184q0 119 56.5 183t165.5 64q192 0 192 -234q0 -24 -21 -24zM154 297h200q0 47 -23.5 75t-71.5 28q-91 0 -105 -103z" />
<glyph unicode="&#xec;" horiz-adv-x="254" d="M212 66v-48q0 -22 -48 -22q-101 0 -101 115v356q0 18 18 18h73q18 0 18 -19v-339q0 -41 28 -45q12 -2 12 -16zM149 559h-67q-13 0 -23 16l-100 153q-4 6 -1 10t10 4h99q14 0 20 -14l71 -156q1 -3 1 -6t-3 -5t-7 -2z" />
<glyph unicode="&#xed;" horiz-adv-x="254" d="M144 559h-66q-7 0 -9.5 4t-0.5 9l71 156q6 14 20 14h99q7 0 10 -4t-1 -10l-99 -153q-11 -16 -24 -16zM212 66v-48q0 -22 -48 -22q-101 0 -101 115v356q0 18 18 18h73q18 0 18 -19v-339q0 -41 28 -45q12 -2 12 -16z" />
<glyph unicode="&#xee;" horiz-adv-x="254" d="M49 544h-56q-10 0 -14 6t0 13l71 146q7 18 24 18h87q16 0 25 -18l71 -146q4 -8 -0.5 -13.5t-14.5 -5.5h-57q-15 0 -23 15l-45 88l-45 -88q-8 -15 -23 -15zM212 66v-48q0 -22 -48 -22q-101 0 -101 115v356q0 18 18 18h73q18 0 18 -19v-339q0 -41 28 -45q12 -2 12 -16z" />
<glyph unicode="&#xef;" horiz-adv-x="254" d="M27 578q-25 0 -42 17t-17 42q0 24 17 41.5t42 17.5q24 0 41 -17.5t17 -41.5q0 -25 -17 -42t-41 -17zM219 578q-24 0 -41.5 17t-17.5 42q0 24 17.5 41.5t41.5 17.5q25 0 42 -17.5t17 -41.5q0 -25 -17 -42t-42 -17zM212 66v-48q0 -22 -48 -22q-101 0 -101 115v356 q0 18 18 18h73q18 0 18 -19v-339q0 -41 28 -45q12 -2 12 -16z" />
<glyph unicode="&#xf0;" horiz-adv-x="599" d="M442 271q-1 1 -8 9t-13.5 13.5t-17.5 15t-22.5 16.5t-26 14t-31.5 10.5t-35 3.5q-65 0 -101.5 -34t-36.5 -95q0 -62 37 -99.5t99 -37.5q63 0 106 49.5t50 134.5zM243 509l-22 34q-8 13 5 21l66 40q-40 14 -96 16q-11 0 -11 10v75q0 12 12 12q120 -3 199 -51l84 51 q13 8 23 -6l19 -29q9 -14 -4 -22l-64 -39q100 -100 100 -286q0 -153 -68 -247t-200 -94q-118 0 -181 63t-63 167q0 101 66 161t168 60q28 0 54 -5t45 -13.5t31.5 -16t24.5 -16.5t14 -10q-1 119 -80 182l-101 -63q-12 -8 -21 6z" />
<glyph unicode="&#xf1;" horiz-adv-x="563" d="M177 553h-53q-10 0 -14 7q-10 22 -10 48q0 37 23.5 61.5t66.5 24.5q34 0 84 -18.5t70 -18.5q22 0 22 22q0 12 -8 33q-3 8 12 8h51q12 0 16 -11q7 -21 7 -44q0 -37 -22 -61t-64 -24t-90 18t-62 18q-27 0 -27 -28q0 -14 7 -26q5 -9 -9 -9zM81 18v338q0 37 -27 43 q-14 4 -14 21v44q0 22 48 22q36 0 60 -19t27 -53v-19q13 40 49 66.5t98 26.5q87 0 129 -52.5t42 -137.5v-171q0 -37 25 -44q15 -5 15 -20v-44q0 -23 -48 -23q-101 0 -101 116v180q0 47 -23.5 75t-69.5 28q-49 0 -75.5 -37.5t-26.5 -82.5v-257q0 -18 -17 -18h-74 q-17 0 -17 18z" />
<glyph unicode="&#xf2;" d="M261 -6q-102 0 -160 66.5t-58 180.5t58 180.5t160 66.5t161 -66.5t59 -180.5t-58.5 -180.5t-161.5 -66.5zM261 87q55 0 84 39.5t29 114.5t-29.5 114.5t-83.5 39.5q-53 0 -82.5 -39.5t-29.5 -114.5t29 -114.5t83 -39.5zM301 559h-67q-13 0 -23 16l-100 153q-4 6 -1 10 t10 4h99q14 0 20 -14l71 -156q1 -3 1 -6t-3 -5t-7 -2z" />
<glyph unicode="&#xf3;" d="M283 559h-66q-7 0 -9.5 4t-0.5 9l71 156q6 14 20 14h99q7 0 10 -4t-1 -10l-99 -153q-11 -16 -24 -16zM261 -6q-102 0 -160 66.5t-58 180.5t58 180.5t160 66.5t161 -66.5t59 -180.5t-58.5 -180.5t-161.5 -66.5zM261 87q55 0 84 39.5t29 114.5t-29.5 114.5t-83.5 39.5 q-53 0 -82.5 -39.5t-29.5 -114.5t29 -114.5t83 -39.5z" />
<glyph unicode="&#xf4;" d="M193 544h-56q-10 0 -14 6t0 13l71 146q8 18 24 18h87q16 0 25 -18l71 -146q4 -8 -0.5 -13.5t-14.5 -5.5h-57q-15 0 -23 15l-45 88l-45 -88q-8 -15 -23 -15zM261 -6q-102 0 -160 66.5t-58 180.5t58 180.5t160 66.5t161 -66.5t59 -180.5t-58.5 -180.5t-161.5 -66.5zM261 87 q55 0 84 39.5t29 114.5t-29.5 114.5t-83.5 39.5q-53 0 -82.5 -39.5t-29.5 -114.5t29 -114.5t83 -39.5z" />
<glyph unicode="&#xf5;" d="M261 -6q-102 0 -160 66.5t-58 180.5t58 180.5t160 66.5t161 -66.5t59 -180.5t-58.5 -180.5t-161.5 -66.5zM261 87q55 0 84 39.5t29 114.5t-29.5 114.5t-83.5 39.5q-53 0 -82.5 -39.5t-29.5 -114.5t29 -114.5t83 -39.5zM159 553h-53q-10 0 -14 7q-10 22 -10 48 q0 37 23.5 61.5t66.5 24.5q34 0 84 -18.5t70 -18.5q22 0 22 22q0 12 -8 33q-3 8 12 8h51q12 0 16 -11q7 -21 7 -44q0 -37 -22 -61t-64 -24t-90 18t-62 18q-27 0 -27 -28q0 -14 7 -26q5 -9 -9 -9z" />
<glyph unicode="&#xf6;" d="M172 578q-25 0 -42 17t-17 42q0 24 17 41.5t42 17.5q24 0 41 -17.5t17 -41.5q0 -25 -17 -42t-41 -17zM364 578q-24 0 -41.5 17t-17.5 42q0 24 17.5 41.5t41.5 17.5q25 0 42 -17.5t17 -41.5q0 -25 -17 -42t-42 -17zM261 -6q-102 0 -160 66.5t-58 180.5t58 180.5t160 66.5 t161 -66.5t59 -180.5t-58.5 -180.5t-161.5 -66.5zM261 87q55 0 84 39.5t29 114.5t-29.5 114.5t-83.5 39.5q-53 0 -82.5 -39.5t-29.5 -114.5t29 -114.5t83 -39.5z" />
<glyph unicode="&#xf7;" horiz-adv-x="463" d="M69 326h325q18 0 18 -17v-44q0 -17 -18 -17h-326q-18 0 -18 17v44q0 17 19 17zM160 115q0 31 21.5 52.5t52.5 21.5t52.5 -21.5t21.5 -52.5t-21.5 -53t-52.5 -22t-52.5 22t-21.5 53zM160 451q0 30 21 51.5t51 21.5q31 0 52.5 -21.5t21.5 -51.5t-21.5 -52t-52.5 -22 q-30 0 -51 22t-21 52z" />
<glyph unicode="&#xf8;" d="M261 -6q-60 0 -103 22l-16 -23q-7 -13 -23 -13h-44q-6 0 -9 4.5t0 10.5l39 60q-62 67 -62 186q0 114 58 180.5t160 66.5q61 0 109 -25l19 28q7 12 23 12h42q7 0 10 -4.5t-1 -10.5l-42 -65q60 -68 60 -182t-58.5 -180.5t-161.5 -66.5zM149 241q0 -57 17 -94l151 233 q-24 15 -56 15q-53 0 -82.5 -39.5t-29.5 -114.5zM261 87q55 0 84 39.5t29 114.5q0 48 -15 88l-149 -231q24 -11 51 -11z" />
<glyph unicode="&#xf9;" horiz-adv-x="553" d="M513 62v-44q0 -22 -48 -22q-83 0 -89 79v4q-17 -36 -57 -60.5t-104 -24.5q-153 0 -153 173v297q0 18 18 18h73q17 0 17 -18v-277q0 -100 82 -100q30 0 53 14t35 34t18 38.5t6 31.5v259q0 18 16 18h75q17 0 17 -18v-336q0 -39 27 -45q14 -5 14 -21zM319 559h-67 q-13 0 -23 16l-100 153q-4 6 -1 10t10 4h99q14 0 20 -14l71 -156q1 -3 1 -6t-3 -5t-7 -2z" />
<glyph unicode="&#xfa;" horiz-adv-x="553" d="M276 559h-66q-7 0 -9.5 4t-0.5 9l71 156q6 14 20 14h99q7 0 10 -4t-1 -10l-99 -153q-11 -16 -24 -16zM513 62v-44q0 -22 -48 -22q-83 0 -89 79v4q-17 -36 -57 -60.5t-104 -24.5q-153 0 -153 173v297q0 18 18 18h73q17 0 17 -18v-277q0 -100 82 -100q30 0 53 14t35 34 t18 38.5t6 31.5v259q0 18 16 18h75q17 0 17 -18v-336q0 -39 27 -45q14 -5 14 -21z" />
<glyph unicode="&#xfb;" horiz-adv-x="553" d="M198 544h-56q-10 0 -14 6t0 13l71 146q7 18 24 18h87q16 0 25 -18l71 -146q4 -8 -0.5 -13.5t-14.5 -5.5h-57q-16 0 -23 15l-45 88l-45 -88q-7 -15 -23 -15zM513 62v-44q0 -22 -48 -22q-83 0 -89 79v4q-17 -36 -57 -60.5t-104 -24.5q-153 0 -153 173v297q0 18 18 18h73 q17 0 17 -18v-277q0 -100 82 -100q30 0 53 14t35 34t18 38.5t6 31.5v259q0 18 16 18h75q17 0 17 -18v-336q0 -39 27 -45q14 -5 14 -21z" />
<glyph unicode="&#xfc;" horiz-adv-x="553" d="M175 578q-25 0 -42 17t-17 42q0 24 17 41.5t42 17.5q24 0 41 -17.5t17 -41.5q0 -25 -17 -42t-41 -17zM367 578q-24 0 -41.5 17t-17.5 42q0 24 17.5 41.5t41.5 17.5q25 0 42 -17.5t17 -41.5q0 -25 -17 -42t-42 -17zM513 62v-44q0 -22 -48 -22q-83 0 -89 79v4 q-17 -36 -57 -60.5t-104 -24.5q-153 0 -153 173v297q0 18 18 18h73q17 0 17 -18v-277q0 -100 82 -100q30 0 53 14t35 34t18 38.5t6 31.5v259q0 18 16 18h75q17 0 17 -18v-336q0 -39 27 -45q14 -5 14 -21z" />
<glyph unicode="&#xfd;" d="M493 460l-218 -572q-52 -135 -174 -135q-34 0 -65 11q-16 5 -12 21l9 53q5 16 16 13q22 -5 45 -5q34 0 53.5 19t33.5 55l29 78l-182 462q-8 22 15 22h75q19 0 24 -18l124 -335l116 336q6 17 24 17h73q23 0 14 -22zM270 559h-66q-7 0 -9.5 4t-0.5 9l71 156q6 14 20 14h99 q7 0 10 -4t-1 -10l-99 -153q-11 -16 -24 -16z" />
<glyph unicode="&#xfe;" horiz-adv-x="549" d="M174 300v-121q1 -13 9.5 -32t35.5 -39.5t65 -20.5q52 0 84 39.5t32 115.5q0 77 -34 115t-83 38q-25 0 -45 -10t-31.5 -23t-19.5 -27.5t-10.5 -23.5t-2.5 -11zM157 -244h-73q-18 0 -18 18v934q0 18 17 18h73q18 0 18 -18v-285q47 65 138 65q80 0 137 -61.5t57 -182.5 q0 -127 -57 -188.5t-143 -61.5q-27 0 -50.5 6.5t-37.5 15.5t-24.5 18t-15.5 16l-4 6v-282q0 -18 -17 -18z" />
<glyph unicode="&#xff;" d="M493 460l-218 -572q-52 -135 -174 -135q-34 0 -65 11q-16 5 -12 21l9 53q5 16 16 13q22 -5 45 -5q34 0 53.5 19t33.5 55l29 78l-182 462q-8 22 15 22h75q19 0 24 -18l124 -335l116 336q6 17 24 17h73q23 0 14 -22zM172 578q-25 0 -42 17t-17 42q0 24 17 41.5t42 17.5 q24 0 41 -17.5t17 -41.5q0 -25 -17 -42t-41 -17zM364 578q-24 0 -41.5 17t-17.5 42q0 24 17.5 41.5t41.5 17.5q25 0 42 -17.5t17 -41.5q0 -25 -17 -42t-42 -17z" />
<glyph unicode="&#x152;" horiz-adv-x="1021" d="M354 92q83 0 137 62.5t54 194.5q0 134 -54 196t-137 62t-136.5 -62t-53.5 -196q0 -132 53.5 -194.5t136.5 -62.5zM661 607v-216h239q18 0 18 -17v-58q0 -17 -19 -17h-238v-206h299q17 0 17 -17v-59q0 -17 -18 -17h-398q-14 0 -14 14v62q-1 0 -16 -14.5t-34 -28.5 t-58 -26.5t-85 -12.5q-133 0 -220 89.5t-87 265.5t87 266.5t220 90.5q44 0 83 -12.5t58.5 -27t35 -29t16.5 -14.5v64q0 13 14 13h399q17 0 17 -17v-59q0 -17 -18 -17h-298z" />
<glyph unicode="&#x153;" horiz-adv-x="833" d="M767 230h-284v-6q3 -72 41.5 -105t89.5 -33q67 0 109 47q13 14 21 6l39 -39q10 -10 3 -21q-63 -85 -187 -85q-110 0 -171 79q-60 -79 -167 -79q-102 0 -160 66.5t-58 180.5t58 180.5t160 66.5q105 0 165 -76q59 76 171 76q100 0 145.5 -59t45.5 -175q0 -24 -21 -24z M261 87q55 0 84 39.5t29 114.5t-29.5 114.5t-83.5 39.5q-53 0 -82.5 -39.5t-29.5 -114.5t29 -114.5t83 -39.5zM485 297h200q0 47 -23.5 74t-70.5 27q-43 0 -71 -25t-35 -76z" />
<glyph unicode="&#x178;" horiz-adv-x="650" d="M365 0h-80q-17 0 -17 17v281l-242 382q-5 8 -0.5 14t15.5 6h95q12 0 20 -14l170 -291l168 291q8 14 20 14h96q10 0 14.5 -6t-0.5 -14l-241 -382v-281q0 -17 -18 -17zM230 796q-25 0 -42 17t-17 42q0 24 17 41.5t42 17.5q24 0 41 -17.5t17 -41.5q0 -25 -17 -42t-41 -17z M422 796q-24 0 -41.5 17t-17.5 42q0 24 17.5 41.5t41.5 17.5q25 0 42 -17.5t17 -41.5q0 -25 -17 -42t-42 -17z" />
<glyph unicode="&#x2c6;" horiz-adv-x="366" d="M113 544h-56q-10 0 -14 6t0 13l71 146q8 18 24 18h87q16 0 25 -18l71 -146q4 -8 -0.5 -13.5t-14.5 -5.5h-57q-15 0 -23 15l-45 88l-45 -88q-8 -15 -23 -15z" />
<glyph unicode="&#x2dc;" horiz-adv-x="421" d="M115 553h-53q-10 0 -14 7q-10 22 -10 48q0 37 23.5 61.5t66.5 24.5q34 0 84 -18.5t70 -18.5q22 0 22 22q0 12 -8 33q-3 8 12 8h51q12 0 16 -11q7 -21 7 -44q0 -37 -22 -61t-64 -24t-90 18t-62 18q-27 0 -27 -28q0 -14 7 -26q5 -9 -9 -9z" />
<glyph unicode="&#x2000;" horiz-adv-x="480" />
<glyph unicode="&#x2001;" horiz-adv-x="960" />
<glyph unicode="&#x2002;" horiz-adv-x="480" />
<glyph unicode="&#x2003;" horiz-adv-x="960" />
<glyph unicode="&#x2004;" horiz-adv-x="320" />
<glyph unicode="&#x2005;" horiz-adv-x="240" />
<glyph unicode="&#x2006;" horiz-adv-x="160" />
<glyph unicode="&#x2007;" horiz-adv-x="160" />
<glyph unicode="&#x2008;" horiz-adv-x="120" />
<glyph unicode="&#x2009;" horiz-adv-x="192" />
<glyph unicode="&#x200a;" horiz-adv-x="53" />
<glyph unicode="&#x2010;" horiz-adv-x="406" d="M83 312h241q17 0 17 -17v-45q0 -17 -18 -17h-241q-18 0 -18 17v45q0 17 19 17z" />
<glyph unicode="&#x2011;" horiz-adv-x="406" d="M83 312h241q17 0 17 -17v-45q0 -17 -18 -17h-241q-18 0 -18 17v45q0 17 19 17z" />
<glyph unicode="&#x2012;" horiz-adv-x="406" d="M83 312h241q17 0 17 -17v-45q0 -17 -18 -17h-241q-18 0 -18 17v45q0 17 19 17z" />
<glyph unicode="&#x2013;" horiz-adv-x="557" d="M83 312h392q18 0 18 -17v-45q0 -17 -19 -17h-392q-18 0 -18 17v45q0 17 19 17z" />
<glyph unicode="&#x2014;" horiz-adv-x="896" d="M83 312h732q17 0 17 -17v-45q0 -17 -18 -17h-732q-18 0 -18 17v45q0 17 19 17z" />
<glyph unicode="&#x2018;" horiz-adv-x="195" d="M166 712q0 -28 -19.5 -48t-47.5 -20q-31 0 -52 21t-21 59q0 122 93 175q8 3 13 -4l21 -33q6 -7 -2 -11q-51 -34 -52 -72q28 0 47.5 -19.5t19.5 -47.5z" />
<glyph unicode="&#x2019;" horiz-adv-x="238" d="M52 650q0 28 20 48t48 20q30 0 51.5 -21t21.5 -58q0 -126 -94 -175q-8 -5 -13 3l-21 33q-4 7 2 12q52 31 53 71q-28 0 -48 19.5t-20 47.5z" />
<glyph unicode="&#x201a;" horiz-adv-x="252" d="M55 61q0 28 20 48t48 20q30 0 51.5 -21t21.5 -58q0 -123 -94 -176q-8 -3 -13 4l-21 33q-5 8 2 11q52 35 53 72q-28 0 -48 19.5t-20 47.5z" />
<glyph unicode="&#x201c;" horiz-adv-x="373" d="M344 713q0 -28 -20 -48t-48 -20q-31 0 -52 21.5t-21 58.5q0 42 10.5 75.5t28 53.5t30 30t25.5 16q7 5 13 -4l21 -33q3 -6 -2 -11q-52 -35 -53 -72q28 0 48 -19.5t20 -47.5zM167 713q0 -28 -19.5 -48t-47.5 -20q-31 0 -52 21.5t-21 58.5q0 126 93 175q7 4 13 -4l21 -33 q5 -6 -2 -11q-51 -34 -52 -72q28 0 47.5 -19.5t19.5 -47.5z" />
<glyph unicode="&#x201d;" horiz-adv-x="415" d="M51 648q0 28 20 48t48 20q30 0 51.5 -21t21.5 -59q0 -122 -94 -175q-8 -3 -13 4l-21 33q-5 8 2 11q52 35 53 72q-28 0 -48 19.5t-20 47.5zM228 648q0 28 20 48t48 20q31 0 52 -21t21 -59q0 -122 -93 -175q-9 -4 -13 4l-22 33q-4 7 2 11q52 35 53 72q-28 0 -48 19.5 t-20 47.5z" />
<glyph unicode="&#x201e;" horiz-adv-x="424" d="M55 61q0 28 20 48t48 20q30 0 51.5 -21t21.5 -58q0 -123 -94 -176q-8 -3 -13 4l-21 33q-5 8 2 11q52 35 53 72q-28 0 -48 19.5t-20 47.5zM227 61q0 28 20 48t48 20q30 0 51.5 -21t21.5 -58q0 -123 -94 -176q-8 -3 -13 4l-21 33q-6 7 2 11q52 35 53 72q-29 0 -48.5 19.5 t-19.5 47.5z" />
<glyph unicode="&#x2022;" horiz-adv-x="380" d="M305 289q0 -47 -34 -81t-81 -34q-48 0 -81.5 34t-33.5 81q0 48 33.5 82t81.5 34q47 0 81 -34t34 -82z" />
<glyph unicode="&#x2026;" horiz-adv-x="586" d="M116 -6q-25 0 -42.5 17t-17.5 42q0 24 17.5 41.5t42.5 17.5q24 0 41 -17.5t17 -41.5q0 -25 -17 -42t-41 -17zM291 -6q-24 0 -42 17.5t-18 41.5t18 41.5t42 17.5q25 0 42 -17.5t17 -41.5q0 -25 -17 -42t-42 -17zM471 -6q-24 0 -41.5 17t-17.5 42q0 24 17.5 41.5t41.5 17.5 q25 0 42 -17.5t17 -41.5q0 -25 -17 -42t-42 -17z" />
<glyph unicode="&#x202f;" horiz-adv-x="192" />
<glyph unicode="&#x2039;" horiz-adv-x="312" d="M71 205q-17 14 -17 35v50q0 18 16 33l123 110q14 13 24 1l35 -39q9 -10 -2 -21l-114 -110l114 -109q11 -11 2 -21l-36 -40q-9 -11 -24 2z" />
<glyph unicode="&#x203a;" horiz-adv-x="312" d="M242 205l-122 -109q-15 -13 -24 -2l-36 40q-9 10 3 21l113 109l-113 110q-12 10 -3 21l35 39q10 12 24 -1l123 -110q16 -15 16 -33v-50q0 -20 -16 -35z" />
<glyph unicode="&#x205f;" horiz-adv-x="240" />
<glyph unicode="&#x20ac;" horiz-adv-x="677" d="M61 442h60q21 122 95.5 184t187.5 62q138 0 207 -89q5 -6 5 -14t-7 -15l-58 -41q-16 -11 -31 7q-42 51 -115 51q-58 0 -101.5 -36.5t-60.5 -108.5h202q17 0 17 -17v-45q0 -17 -18 -17h-212q0 -37 1 -45h212q17 0 17 -17v-46q0 -17 -18 -17h-194q20 -67 67 -99t106 -32 q64 0 126 49q19 17 33 3l40 -40q16 -17 0 -35q-83 -78 -202 -78q-113 0 -191.5 58t-104.5 174h-64q-17 0 -17 17v46q0 17 18 17h53q-1 8 -1 45h-53q-17 0 -17 17v45q0 17 18 17z" />
<glyph unicode="&#x2122;" horiz-adv-x="833" d="M72 712h278q17 0 17 -19v-30q0 -17 -18 -17h-93v-290q0 -18 -17 -18h-51q-18 0 -18 19v289h-98q-18 0 -18 17v30q0 19 18 19zM689 357v219l-81 -173q-6 -15 -31 -15q-27 0 -33 15l-79 173v-220q0 -18 -17 -18h-37q-18 0 -18 19v338q0 17 18 17h40q22 0 31 -21l94 -212 l97 212q9 21 31 21h38q18 0 18 -17v-339q0 -18 -18 -18h-36q-17 0 -17 19z" />
<glyph unicode="&#x25fc;" horiz-adv-x="485" d="M0 485h485v-485h-485v485z" />
</font>
</defs>
</svg>
