<?xml version="1.0" encoding="UTF-8" standalone="no"?>
<svg width="40px" height="40px" viewBox="0 0 40 40" version="1.1" xmlns="http://www.w3.org/2000/svg" xmlns:xlink="http://www.w3.org/1999/xlink" xmlns:sketch="http://www.bohemiancoding.com/sketch/ns">
    <!-- Generator: Sketch 3.3.2 (12043) - http://www.bohemiancoding.com/sketch -->
    <title>bell</title>
    <desc>Created with Sketch.</desc>
    <defs>
        <path id="path-1" d="M0,26.6666667 L24.1812481,26.6666667 L24.1812481,0.0443333333 L0,0.0443333333"></path>
    </defs>
    <g id="Style" stroke="none" stroke-width="1" fill="none" fill-rule="evenodd" sketch:type="MSPage">
        <g id="bell" sketch:type="MSArtboardGroup">
            <g id="Icon-/-notification" sketch:type="MSLayerGroup">
                <g id="NOTIFICATION" transform="translate(7.777778, 6.666667)">
                    <mask id="mask-2" sketch:name="Clip 2" fill="white">
                        <use xlink:href="#path-1"></use>
                    </mask>
                    <g id="Clip-2"></g>
                    <path d="M12.090624,26.6666667 C13.9373516,26.6666667 15.4770167,25.358 15.8249315,23.6213333 C15.902618,23.2326667 15.5794825,22.876 15.1813394,22.876 L8.99990868,22.876 C8.6017656,22.876 8.27829528,23.2326667 8.35631659,23.6213333 C8.7038965,25.358 10.2438965,26.6666667 12.090624,26.6666667" id="Fill-1" fill="#FFFFFF" sketch:type="MSShapeGroup" mask="url(#mask-2)"></path>
                    <path d="M23.9170472,19.6733333 C22.8317808,18.5796667 22.0445358,17.0176667 21.7327854,15.221 L21.7327854,10.8316667 C21.7327854,4.10933333 17.4168341,0.0443333333 12.092968,0.0443333333 L12.0882801,0.0443333333 C6.76407915,0.0443333333 2.44812785,4.10933333 2.44812785,10.8316667 L2.44812785,15.221 C2.13671233,17.0176667 1.34913242,18.5796667 0.264200913,19.6733333 C-0.245783866,20.1873333 0.0314764079,21.2406667 0.677412481,21.2406667 L23.5038356,21.2406667 C24.1497717,21.2406667 24.4266971,20.1873333 23.9170472,19.6733333" id="Fill-3" fill="#FFFFFF" sketch:type="MSShapeGroup" mask="url(#mask-2)"></path>
                </g>
            </g>
        </g>
    </g>
</svg>