<?xml version="1.0" encoding="UTF-8" standalone="no"?>
<svg width="40px" height="40px" viewBox="0 0 40 40" version="1.1" xmlns="http://www.w3.org/2000/svg" xmlns:xlink="http://www.w3.org/1999/xlink" xmlns:sketch="http://www.bohemiancoding.com/sketch/ns">
    <!-- Generator: Sketch 3.3.2 (12043) - http://www.bohemiancoding.com/sketch -->
    <title>boat</title>
    <desc>Created with Sketch.</desc>
    <defs></defs>
    <g id="Style" stroke="none" stroke-width="1" fill="none" fill-rule="evenodd" sketch:type="MSPage">
        <g id="boat" sketch:type="MSArtboardGroup">
            <g id="Icon-/-Trip-/-Boat" sketch:type="MSLayerGroup">
                <rect id="Rectangle-139" sketch:type="MSShapeGroup" x="0" y="0" width="40" height="40"></rect>
                <g id="Barco" transform="translate(8.000000, 7.000000)" fill="#0E777F" sketch:type="MSShapeGroup">
                    <path d="M23.4677333,13.1056 C23.3498667,12.9056 23.1578667,12.7621333 22.9328,12.7066667 L20.6384,12.1456 L18.9274667,6.2752 C18.3370667,4.2512 16.5157333,2.81706667 14.4085333,2.7248 L14.4085333,1.47893333 C14.4085333,0.682133333 13.7488,0.0282666667 12.9530667,0.0282666667 L11.0549333,0.0282666667 C10.2592,0.0282666667 9.59946667,0.682133333 9.59946667,1.47893333 L9.59946667,2.7248 C7.4928,2.81706667 5.67146667,4.2512 5.08,6.2752 L3.37226667,12.1456 L1.07573333,12.7066667 C0.850666667,12.7621333 0.658133333,12.9056 0.5408,13.1056 C0.421866667,13.3045333 0.390933333,13.544 0.451733333,13.7669333 L2.1792,20.1136 C2.62346667,21.7472 3.94986667,22.9904 5.60853333,23.3285333 L11.0709333,24.4426667 C11.3786667,24.5061333 11.6917333,24.5333333 12.0037333,24.5333333 C12.3168,24.5333333 12.6298667,24.5061333 12.9370667,24.4437333 L18.3994667,23.3296 C20.0576,22.9909333 21.3845333,21.7477333 21.8293333,20.1146667 L23.5562667,13.768 C23.6170667,13.544 23.5861333,13.3045333 23.4677333,13.1056 L23.4677333,13.1056 Z M7.14773333,6.8848 C7.4928,5.70186667 8.5952,4.8832 9.82773333,4.8832 L14.1797333,4.8832 C15.4128,4.8832 16.5146667,5.70186667 16.8597333,6.8848 L17.1589333,7.9072 L12.6298667,6.5264 C12.4250667,6.464 12.2144,6.4288 12.0032,6.4288 C11.7930667,6.4288 11.5824,6.46293333 11.3776,6.5248 L6.84853333,7.90666667 L7.14773333,6.8848 L7.14773333,6.8848 Z M7.40426667,19.5797333 C6.45866667,19.5797333 5.69173333,18.4186667 5.69173333,16.9861333 C5.69173333,15.5536 6.45866667,14.392 7.40426667,14.392 C8.3504,14.392 9.11786667,15.5536 9.11786667,16.9861333 C9.11786667,18.4186667 8.3504,19.5797333 7.40426667,19.5797333 L7.40426667,19.5797333 Z M12.0037333,10.1642667 C11.6549333,10.1642667 11.3056,10.2085333 10.9637333,10.2917333 L5.7824,11.5578667 L6.30933333,9.75093333 L11.8453333,8.06506667 C11.8976,8.04906667 11.9504,8.03786667 12.0037333,8.03786667 C12.0576,8.03786667 12.1109333,8.04906667 12.1632,8.06506667 L17.6992,9.75093333 L18.2256,11.5578667 L13.0442667,10.2917333 C12.7024,10.2085333 12.3530667,10.1642667 12.0037333,10.1642667 L12.0037333,10.1642667 Z M16.6042667,19.5797333 C15.6581333,19.5797333 14.8906667,18.4186667 14.8906667,16.9861333 C14.8906667,15.5536 15.6576,14.392 16.6042667,14.392 C17.5498667,14.392 18.3168,15.5536 18.3168,16.9861333 C18.3168,18.4186667 17.5498667,19.5797333 16.6042667,19.5797333 L16.6042667,19.5797333 Z" id="Shape"></path>
                </g>
            </g>
        </g>
    </g>
</svg>