<?xml version="1.0" encoding="UTF-8" standalone="no"?>
<svg width="40px" height="40px" viewBox="0 0 40 40" version="1.1" xmlns="http://www.w3.org/2000/svg" xmlns:xlink="http://www.w3.org/1999/xlink" xmlns:sketch="http://www.bohemiancoding.com/sketch/ns">
    <!-- Generator: Sketch 3.3.2 (12043) - http://www.bohemiancoding.com/sketch -->
    <title>books</title>
    <desc>Created with Sketch.</desc>
    <defs></defs>
    <g id="Style" stroke="none" stroke-width="1" fill="none" fill-rule="evenodd" sketch:type="MSPage">
        <g id="books" sketch:type="MSArtboardGroup" fill="#00B2BE">
            <g id="Icon-/-Category-/-Books" sketch:type="MSLayerGroup" transform="translate(4.000000, 9.000000)">
                <g id="Book" transform="translate(0.000000, 0.958333)" sketch:type="MSShapeGroup">
                    <path d="M8.6533,0.501800417 C6.1533,0.501800417 3.3453,1.13614625 0.3083,2.38790875 C0.1223,2.46458792 0.0003,2.64682542 0.0003,2.84798375 L0.0003,20.4144838 C0.0003,20.5807879 0.0833,20.7361379 0.2223,20.8287504 C0.3613,20.9213629 0.5363,20.9382921 0.6913,20.8745588 C3.6063,19.6735838 6.2853,19.0641338 8.6533,19.0641338 C12.5423,19.0641338 14.2683,20.7381296 14.2943,20.7640213 C14.3903,20.8606171 14.5193,20.9124004 14.6513,20.9124004 C14.7143,20.9124004 14.7783,20.9004504 14.8393,20.8755546 C15.0273,20.7998713 15.1513,20.6176338 15.1513,20.4144838 L15.1513,2.84798375 C15.1513,2.71852542 15.1003,2.59404625 15.0093,2.50043792 C14.9293,2.41877958 13.0073,0.501800417 8.6533,0.501800417" id="Fill-1"></path>
                    <path d="M30.6919,2.38790875 C27.6549,1.13614625 24.8469,0.501800417 22.3459,0.501800417 C17.9929,0.501800417 16.0709,2.41877958 15.9909,2.50043792 C15.8999,2.59404625 15.8489,2.71852542 15.8489,2.84798375 L15.8489,20.4144838 C15.8489,20.6176338 15.9719,20.7998713 16.1609,20.8755546 C16.2219,20.9004504 16.2859,20.9124004 16.3489,20.9124004 C16.4819,20.9124004 16.6119,20.8596213 16.7079,20.7620296 C16.7239,20.7451004 18.4099,19.0641338 22.3459,19.0641338 C24.7149,19.0641338 27.3939,19.6735838 30.3089,20.8745588 C30.4629,20.9372963 30.6389,20.9203671 30.7789,20.8287504 C30.9179,20.7361379 31.0009,20.5807879 31.0009,20.4144838 L31.0009,2.84798375 C31.0009,2.64682542 30.8789,2.46458792 30.6919,2.38790875" id="Fill-4"></path>
                </g>
            </g>
        </g>
    </g>
</svg>