<?xml version="1.0" encoding="UTF-8" standalone="no"?>
<svg width="40px" height="40px" viewBox="0 0 40 40" version="1.1" xmlns="http://www.w3.org/2000/svg" xmlns:xlink="http://www.w3.org/1999/xlink" xmlns:sketch="http://www.bohemiancoding.com/sketch/ns">
    <!-- Generator: Sketch 3.3.2 (12043) - http://www.bohemiancoding.com/sketch -->
    <title>bus</title>
    <desc>Created with Sketch.</desc>
    <defs></defs>
    <g id="Style" stroke="none" stroke-width="1" fill="none" fill-rule="evenodd" sketch:type="MSPage">
        <g id="bus" sketch:type="MSArtboardGroup">
            <g id="Icon-/-Trip-/-Bus" sketch:type="MSLayerGroup">
                <rect id="Rectangle-139" sketch:type="MSShapeGroup" x="0" y="0" width="40" height="40"></rect>
                <g id="Bus" transform="translate(7.000000, 9.000000)" fill="#0E777F" sketch:type="MSShapeGroup">
                    <path d="M25.1674468,0.189574468 L6.02846809,0.189574468 C5.21617021,0.189574468 4.50957447,0.75312766 4.3182766,1.54187234 L0.480829787,17.378234 C0.35387234,17.9027234 0.47393617,18.4645532 0.80712766,18.8885106 C1.14089362,19.3118936 1.65044681,19.5681064 2.18987234,19.5681064 L3.27102128,19.5681064 C3.31065957,17.3299787 5.1443617,15.5215532 7.39168085,15.5215532 C9.63842553,15.5215532 11.4721277,17.3294043 11.5123404,19.5681064 L15.9828511,19.5681064 C16.0230638,17.3299787 17.856766,15.5215532 20.1040851,15.5215532 C22.3508298,15.5215532 24.1845319,17.3294043 24.2247447,19.5681064 L25.1674468,19.5681064 C26.1382979,19.5681064 26.9408298,18.7684468 26.9408298,17.7975957 L26.9408298,1.96468085 C26.9402553,0.993255319 26.1382979,0.189574468 25.1674468,0.189574468 L25.1674468,0.189574468 Z M5.72802128,10.5466596 C5.43446809,10.5466596 5.15642553,10.4214255 4.97259574,10.1927872 C4.78876596,9.96357447 4.71810638,9.66714894 4.78014894,9.37991489 L6.1307234,3.22793617 C6.22895745,2.7827234 6.62304255,2.46159574 7.07802128,2.46159574 L9.29948936,2.46159574 L9.29948936,10.5466596 L5.72802128,10.5466596 L5.72802128,10.5466596 Z M11.0366809,10.5466596 L11.0366809,2.46159574 L16.8169787,2.46159574 L16.8169787,10.5466596 L11.0366809,10.5466596 L11.0366809,10.5466596 Z M24.6354894,9.59246809 C24.6354894,10.1284468 24.2155532,10.5466596 23.6795745,10.5466596 L18.5541702,10.5466596 L18.5541702,2.46159574 L23.6795745,2.46159574 C24.2155532,2.46159574 24.6354894,2.90738298 24.6354894,3.44393617 L24.6354894,9.59246809 L24.6354894,9.59246809 Z" id="Shape"></path>
                    <circle id="Oval" cx="7.39168085" cy="19.6312979" r="2.38806383"></circle>
                    <circle id="Oval" cx="20.1040851" cy="19.6312979" r="2.38806383"></circle>
                </g>
            </g>
        </g>
    </g>
</svg>