<?xml version="1.0" encoding="UTF-8" standalone="no"?>
<svg width="40px" height="40px" viewBox="0 0 40 40" version="1.1" xmlns="http://www.w3.org/2000/svg" xmlns:xlink="http://www.w3.org/1999/xlink" xmlns:sketch="http://www.bohemiancoding.com/sketch/ns">
    <!-- Generator: Sketch 3.3.2 (12043) - http://www.bohemiancoding.com/sketch -->
    <title>calendar</title>
    <desc>Created with Sketch.</desc>
    <defs></defs>
    <g id="Style" stroke="none" stroke-width="1" fill="none" fill-rule="evenodd" sketch:type="MSPage">
        <g id="calendar" sketch:type="MSArtboardGroup">
            <g id="Icon-/-calendar-light" sketch:type="MSLayerGroup">
                <g id="Group" transform="translate(8.000000, 8.000000)" sketch:type="MSShapeGroup">
                    <path d="M2.35337143,23.690715 C1.05587931,23.690715 0,22.6277916 0,21.3216435 L0,3.94845249 C0,2.64230441 0.880160914,1.579381 1.96114286,1.579381 L3.13782857,1.579381 L3.13782857,3.15876199 L1.96114286,3.15876199 C1.82621623,3.15876199 1.56891429,3.46674129 1.56891429,3.94845249 L1.56891429,21.3216435 C1.56891429,21.7567629 1.92113554,22.111334 2.35337143,22.111334 L21.1803429,22.111334 C21.6125787,22.111334 21.9648,21.7567629 21.9648,21.3216435 L21.9648,3.94845249 C21.9648,3.46674129 21.7074981,3.15876199 21.5725714,3.15876199 L20.3958857,3.15876199 L20.3958857,1.579381 L21.5725714,1.579381 C22.6535534,1.579381 23.5337143,2.64230441 23.5337143,3.94845249 L23.5337143,21.3216435 C23.5337143,22.6277916 22.477835,23.690715 21.1803429,23.690715 L2.35337143,23.690715 Z" id="Fill-133" fill="#00B2BE"></path>
                    <path d="M5.4912,4.73814299 C5.05817966,4.73814299 4.70674286,4.38436165 4.70674286,3.94845249 L4.70674286,0.789690499 C4.70674286,0.353781343 5.05817966,0 5.4912,0 C5.92422034,0 6.27565714,0.353781343 6.27565714,0.789690499 L6.27565714,3.94845249 C6.27565714,4.38436165 5.92422034,4.73814299 5.4912,4.73814299" id="Fill-134" fill="#00B2BE"></path>
                    <path d="M18.0425143,4.73814299 C17.6094939,4.73814299 17.2580571,4.38436165 17.2580571,3.94845249 L17.2580571,0.789690499 C17.2580571,0.353781343 17.6094939,0 18.0425143,0 C18.4755346,0 18.8269714,0.353781343 18.8269714,0.789690499 L18.8269714,3.94845249 C18.8269714,4.38436165 18.4755346,4.73814299 18.0425143,4.73814299" id="Fill-135" fill="#00B2BE"></path>
                    <path d="M7.84457143,1.579381 L15.6891429,1.579381 L15.6891429,3.15876199 L7.84457143,3.15876199 L7.84457143,1.579381 Z" id="Fill-136" fill="#00B2BE"></path>
                    <path d="M1.56891429,6.31752399 L21.9689139,6.31752399 L21.9689139,23.317524 L1.56891429,23.317524 L1.56891429,6.31752399 Z" id="Fill-137" fill="#00B2BE"></path>
                    <path d="M18.8269714,9.47628598 L20.3958857,9.47628598 L20.3958857,11.055667 L18.8269714,11.055667 L18.8269714,9.47628598 Z" id="Fill-138" fill="#FFFFFF"></path>
                    <path d="M15.6891429,9.47628598 L17.2580571,9.47628598 L17.2580571,11.055667 L15.6891429,11.055667 L15.6891429,9.47628598 Z" id="Fill-139" fill="#FFFFFF"></path>
                    <path d="M12.5513143,9.47628598 L14.1202286,9.47628598 L14.1202286,11.055667 L12.5513143,11.055667 L12.5513143,9.47628598 Z" id="Fill-140" fill="#FFFFFF"></path>
                    <path d="M9.41348571,9.47628598 L10.9824,9.47628598 L10.9824,11.055667 L9.41348571,11.055667 L9.41348571,9.47628598 Z" id="Fill-141" fill="#FFFFFF"></path>
                    <path d="M6.27565714,9.47628598 L7.84457143,9.47628598 L7.84457143,11.055667 L6.27565714,11.055667 L6.27565714,9.47628598 Z" id="Fill-142" fill="#FFFFFF"></path>
                    <path d="M18.8269714,12.635048 L20.3958857,12.635048 L20.3958857,14.214429 L18.8269714,14.214429 L18.8269714,12.635048 Z" id="Fill-143" fill="#FFFFFF"></path>
                    <path d="M15.6891429,12.635048 L17.2580571,12.635048 L17.2580571,14.214429 L15.6891429,14.214429 L15.6891429,12.635048 Z" id="Fill-144" fill="#FFFFFF"></path>
                    <path d="M12.5513143,12.635048 L14.1202286,12.635048 L14.1202286,14.214429 L12.5513143,14.214429 L12.5513143,12.635048 Z" id="Fill-145" fill="#FFFFFF"></path>
                    <path d="M9.41348571,12.635048 L10.9824,12.635048 L10.9824,14.214429 L9.41348571,14.214429 L9.41348571,12.635048 Z" id="Fill-146" fill="#FFFFFF"></path>
                    <path d="M6.27565714,12.635048 L7.84457143,12.635048 L7.84457143,14.214429 L6.27565714,14.214429 L6.27565714,12.635048 Z" id="Fill-147" fill="#FFFFFF"></path>
                    <path d="M3.13782857,12.635048 L4.70674286,12.635048 L4.70674286,14.214429 L3.13782857,14.214429 L3.13782857,12.635048 Z" id="Fill-148" fill="#FFFFFF"></path>
                    <path d="M18.8269714,15.79381 L20.3958857,15.79381 L20.3958857,17.373191 L18.8269714,17.373191 L18.8269714,15.79381 Z" id="Fill-149" fill="#FFFFFF"></path>
                    <path d="M15.6891429,15.79381 L17.2580571,15.79381 L17.2580571,17.373191 L15.6891429,17.373191 L15.6891429,15.79381 Z" id="Fill-150" fill="#FFFFFF"></path>
                    <path d="M12.5513143,15.79381 L14.1202286,15.79381 L14.1202286,17.373191 L12.5513143,17.373191 L12.5513143,15.79381 Z" id="Fill-151" fill="#FFFFFF"></path>
                    <path d="M9.41348571,15.79381 L10.9824,15.79381 L10.9824,17.373191 L9.41348571,17.373191 L9.41348571,15.79381 Z" id="Fill-152" fill="#FFFFFF"></path>
                    <path d="M6.27565714,15.79381 L7.84457143,15.79381 L7.84457143,17.373191 L6.27565714,17.373191 L6.27565714,15.79381 Z" id="Fill-153" fill="#FFFFFF"></path>
                    <path d="M3.13782857,15.79381 L4.70674286,15.79381 L4.70674286,17.373191 L3.13782857,17.373191 L3.13782857,15.79381 Z" id="Fill-154" fill="#FFFFFF"></path>
                    <path d="M15.6891429,18.952572 L17.2580571,18.952572 L17.2580571,20.531953 L15.6891429,20.531953 L15.6891429,18.952572 Z" id="Fill-155" fill="#FFFFFF"></path>
                    <path d="M12.5513143,18.952572 L14.1202286,18.952572 L14.1202286,20.531953 L12.5513143,20.531953 L12.5513143,18.952572 Z" id="Fill-156" fill="#FFFFFF"></path>
                    <path d="M9.41348571,18.952572 L10.9824,18.952572 L10.9824,20.531953 L9.41348571,20.531953 L9.41348571,18.952572 Z" id="Fill-157" fill="#FFFFFF"></path>
                    <path d="M6.27565714,18.952572 L7.84457143,18.952572 L7.84457143,20.531953 L6.27565714,20.531953 L6.27565714,18.952572 Z" id="Fill-158" fill="#FFFFFF"></path>
                    <path d="M3.13782857,18.952572 L4.70674286,18.952572 L4.70674286,20.531953 L3.13782857,20.531953 L3.13782857,18.952572 Z" id="Fill-159" fill="#FFFFFF"></path>
                </g>
                <rect id="Rectangle-450" sketch:type="MSShapeGroup" x="0" y="0" width="40" height="40"></rect>
            </g>
        </g>
    </g>
</svg>