<?xml version="1.0" encoding="UTF-8" standalone="no"?>
<svg width="40px" height="40px" viewBox="0 0 40 40" version="1.1" xmlns="http://www.w3.org/2000/svg" xmlns:xlink="http://www.w3.org/1999/xlink" xmlns:sketch="http://www.bohemiancoding.com/sketch/ns">
    <!-- Generator: Sketch 3.3.2 (12043) - http://www.bohemiancoding.com/sketch -->
    <title>camper</title>
    <desc>Created with Sketch.</desc>
    <defs></defs>
    <g id="Style" stroke="none" stroke-width="1" fill="none" fill-rule="evenodd" sketch:type="MSPage">
        <g id="camper" sketch:type="MSArtboardGroup">
            <g id="Icon-/-Trip-/-Bus-Copy" sketch:type="MSLayerGroup">
                <rect id="Rectangle-139" sketch:type="MSShapeGroup" x="0" y="0" width="40" height="40"></rect>
                <g id="Autocaravana" transform="translate(7.000000, 7.000000)" fill="#0E777F" sketch:type="MSShapeGroup">
                    <path d="M24.0906957,0.436347826 L6.29991304,0.436347826 C3.8253913,0.436347826 1.81943478,2.44230435 1.81943478,4.91682609 C1.81943478,7.29413043 3.67052174,9.23847826 6.01052174,9.38769565 L3.79204348,16.0431304 L1.64704348,16.4173043 C0.779434783,16.5687826 0.152043478,17.3216522 0.152043478,18.2016957 L0.152043478,20.4676522 C0.152043478,21.3284783 0.743826087,22.0576087 1.54643478,22.2441304 C1.67417391,19.9646087 3.56878261,18.1485652 5.87995652,18.1485652 C8.20695652,18.1485652 10.1117391,19.9894783 10.2157391,22.2910435 L13.0203478,22.2910435 L13.5872609,22.2910435 L13.5872609,12.1979565 C13.5872609,11.271 14.333913,10.5271739 15.2603043,10.5271739 L19.1812174,10.5271739 C20.1076087,10.5271739 20.8723478,11.271 20.8723478,12.1979565 L20.8723478,18.1694783 C22.9551739,18.3752174 24.6095652,20.0601304 24.7695217,22.1559565 C25.4291304,21.884087 25.8892174,21.2267391 25.8892174,20.4676522 L25.8892174,9.39730435 L25.8892174,3.79713043 L25.8892174,2.24843478 C25.8892174,1.24743478 25.0911304,0.436347826 24.0906957,0.436347826 L24.0906957,0.436347826 Z M11.3484348,14.7306957 L5.67591304,15.7175652 L7.25117391,10.9810435 L11.3484348,10.9810435 L11.3484348,14.7306957 L11.3484348,14.7306957 Z" id="Shape"></path>
                    <path d="M19.7385217,12.1979565 C19.7385217,11.8887826 19.4903913,11.6327391 19.1817826,11.6327391 L15.2608696,11.6327391 C14.9522609,11.6327391 14.6933913,11.8887826 14.6933913,12.1979565 L14.6933913,22.2904783 L16.1064348,22.2904783 C16.1996957,20.2257391 17.7427391,18.5323478 19.739087,18.205087 L19.739087,12.1979565 L19.7385217,12.1979565 Z" id="Shape"></path>
                    <ellipse id="Oval" cx="5.87995652" cy="22.4888696" rx="2.66047826" ry="2.66047826"></ellipse>
                    <ellipse id="Oval" cx="20.4416522" cy="22.4888696" rx="2.66047826" ry="2.66047826"></ellipse>
                </g>
            </g>
        </g>
    </g>
</svg>