<?xml version="1.0" encoding="UTF-8" standalone="no"?>
<svg width="40px" height="40px" viewBox="0 0 40 40" version="1.1" xmlns="http://www.w3.org/2000/svg" xmlns:xlink="http://www.w3.org/1999/xlink" xmlns:sketch="http://www.bohemiancoding.com/sketch/ns">
    <!-- Generator: Sketch 3.3.2 (12043) - http://www.bohemiancoding.com/sketch -->
    <title>car</title>
    <desc>Created with Sketch.</desc>
    <defs></defs>
    <g id="Style" stroke="none" stroke-width="1" fill="none" fill-rule="evenodd" sketch:type="MSPage">
        <g id="car" sketch:type="MSArtboardGroup">
            <g id="Icon-/-Trip-/-Car" sketch:type="MSLayerGroup">
                <rect id="Rectangle-139" sketch:type="MSShapeGroup" x="0" y="0" width="40" height="40"></rect>
                <g id="Coche" transform="translate(7.000000, 8.000000)" fill="#0E777F" sketch:type="MSShapeGroup">
                    <path d="M26.4743617,16.551 L25.3535745,10.1881915 C25.2398298,9.54191489 24.678,9.06165957 24.0219574,9.06165957 L23.2682553,9.06165957 L22.9827447,6.0876383 C22.6765532,2.89991489 20.0305532,0.496340426 16.8284681,0.496340426 L9.68610638,0.496340426 C6.48402128,0.496340426 3.83802128,2.90048936 3.53182979,6.0876383 L3.24631915,9.06165957 L2.49319149,9.06165957 C1.83714894,9.06165957 1.27531915,9.54191489 1.16157447,10.1881915 L0.040787234,16.5464043 C-0.0982340426,17.3334255 0.123510638,18.1445745 0.637659574,18.7575319 C1.13170213,19.3463617 1.85093617,19.6979362 2.62244681,19.7243617 L2.62244681,20.7796596 C2.62244681,22.2744255 3.82308511,23.4721915 5.3172766,23.4721915 L6.16806383,23.4721915 C7.66225532,23.4721915 8.87323404,22.2744255 8.87323404,20.7796596 L8.87323404,19.7375745 L17.6413404,19.7375745 L17.6413404,20.7790851 C17.6413404,22.2732766 18.8528936,23.4721915 20.3470851,23.4721915 L21.1984468,23.4721915 C22.6926383,23.4721915 23.8927021,22.2727021 23.8927021,20.7790851 L23.8927021,19.7249362 C24.6636383,19.6985106 25.3828723,19.350383 25.8769149,18.7609787 C26.3916383,18.1474468 26.6139574,17.3385957 26.4743617,16.551 L26.4743617,16.551 Z M4.995,17.2903404 C3.73346809,17.2903404 2.71091489,16.2672128 2.71091489,15.0051064 C2.71091489,13.743 3.73346809,12.7210213 4.995,12.7210213 C6.25653191,12.7210213 7.27965957,13.743 7.27965957,15.0051064 C7.27965957,16.2672128 6.25653191,17.2903404 4.995,17.2903404 L4.995,17.2903404 Z M5.5637234,9.06108511 L5.82797872,6.31168085 C6.01985106,4.31310638 7.67891489,2.80914894 9.68668085,2.80914894 L10.0922553,2.80914894 L10.0922553,3.67659574 C10.0922553,4.42570213 10.6942979,5.04210638 11.4434043,5.04210638 L15.0728936,5.04210638 C15.822,5.04210638 16.4240426,4.42570213 16.4240426,3.67659574 L16.4240426,2.80914894 L16.829617,2.80914894 C18.837383,2.80914894 20.4964468,4.31310638 20.6883191,6.31168085 L20.9525745,9.06108511 L5.5637234,9.06108511 L5.5637234,9.06108511 Z M21.5201489,17.2903404 C20.258617,17.2903404 19.2360638,16.2672128 19.2360638,15.0051064 C19.2360638,13.743 20.258617,12.7210213 21.5201489,12.7210213 C22.7816809,12.7210213 23.804234,13.743 23.804234,15.0051064 C23.804234,16.2672128 22.7816809,17.2903404 21.5201489,17.2903404 L21.5201489,17.2903404 Z" id="Shape"></path>
                </g>
            </g>
        </g>
    </g>
</svg>