<?xml version="1.0" encoding="UTF-8" standalone="no"?>
<svg width="60px" height="60px" viewBox="0 0 60 60" version="1.1" xmlns="http://www.w3.org/2000/svg" xmlns:xlink="http://www.w3.org/1999/xlink" xmlns:sketch="http://www.bohemiancoding.com/sketch/ns">
    <!-- Generator: Sketch 3.3.2 (12043) - http://www.bohemiancoding.com/sketch -->
    <title>chat</title>
    <desc>Created with Sketch.</desc>
    <defs></defs>
    <g id="Style" stroke="none" stroke-width="1" fill="none" fill-rule="evenodd" sketch:type="MSPage">
        <g id="chat" sketch:type="MSArtboardGroup">
            <g id="icons" sketch:type="MSLayerGroup" transform="translate(16.000000, 16.000000)">
                <path d="M19.6111111,5.55555556 L19.6111111,15.0555556 L5.55555556,15.0555556 L5.55555556,20.8333333 C5.55555556,21.6666667 6.11111111,22.2222222 6.94444444,22.2222222 L22.2222222,22.2222222 L27.7777778,27.7777778 L27.7777778,6.94444444 C27.7777778,6.11111111 27.2222222,5.55555556 26.3888889,5.55555556 L19.6111111,5.55555556 Z" id="Shape-Copy-2" fill="#FFFFFF" sketch:type="MSShapeGroup"></path>
                <path d="M20.8333333,13.8888889 L20.8333333,1.38888889 C20.8333333,0.555555556 20.2777778,0 19.4444444,0 L1.38888889,0 C0.555555556,0 0,0.555555556 0,1.38888889 L0,20.8333333 L5.55555556,15.2777778 L19.4444444,15.2777778 C20.2777778,15.2777778 20.8333333,14.7222222 20.8333333,13.8888889 L20.8333333,13.8888889 Z" id="Path" fill="#0E777F" sketch:type="MSShapeGroup"></path>
            </g>
        </g>
    </g>
</svg>