<?xml version="1.0" encoding="UTF-8" standalone="no"?>
<svg width="40px" height="40px" viewBox="0 0 40 40" version="1.1" xmlns="http://www.w3.org/2000/svg" xmlns:xlink="http://www.w3.org/1999/xlink" xmlns:sketch="http://www.bohemiancoding.com/sketch/ns">
    <!-- Generator: Sketch 3.3.2 (12043) - http://www.bohemiancoding.com/sketch -->
    <title>check</title>
    <desc>Created with Sketch.</desc>
    <defs></defs>
    <g id="Style" stroke="none" stroke-width="1" fill="none" fill-rule="evenodd" sketch:type="MSPage">
        <g id="check" sketch:type="MSArtboardGroup" fill="#00C45A">
            <g id="Fill-43-+-Fill-44" sketch:type="MSLayerGroup" transform="translate(3.000000, 3.000000)">
                <path d="M17,33.93 C7.665,33.93 0.07,26.335 0.07,17 C0.07,7.665 7.665,0.07 17,0.07 C26.335,0.07 33.93,7.665 33.93,17 C33.93,26.335 26.335,33.93 17,33.93 L17,33.93 Z M17,1.93 C8.69,1.93 1.93,8.69 1.93,17 C1.93,25.31 8.69,32.07 17,32.07 C25.31,32.07 32.07,25.31 32.07,17 C32.07,8.69 25.31,1.93 17,1.93 L17,1.93 Z" id="Fill-43" sketch:type="MSShapeGroup"></path>
                <path d="M14.978,24.316 L6.342,15.657 L7.658,14.343 L14.981,21.684 L26.343,10.321 L27.657,11.637 L14.978,24.316" id="Fill-44" sketch:type="MSShapeGroup"></path>
            </g>
        </g>
    </g>
</svg>