<?xml version="1.0" encoding="UTF-8" standalone="no"?>
<svg width="60px" height="60px" viewBox="0 0 60 60" version="1.1" xmlns="http://www.w3.org/2000/svg" xmlns:xlink="http://www.w3.org/1999/xlink" xmlns:sketch="http://www.bohemiancoding.com/sketch/ns">
    <!-- Generator: Sketch 3.3.2 (12043) - http://www.bohemiancoding.com/sketch -->
    <title>comments</title>
    <desc>Created with Sketch.</desc>
    <defs></defs>
    <g id="Style" stroke="none" stroke-width="1" fill="none" fill-rule="evenodd" sketch:type="MSPage">
        <g id="comments" sketch:type="MSArtboardGroup">
            <g id="Icon-/-review" sketch:type="MSLayerGroup" transform="translate(15.000000, 15.000000)">
                <g id="Shape-+-Path-+-Path-+-Path" sketch:type="MSShapeGroup">
                    <path d="M0,11.5007737 C0,16.6836881 2.79375,21.091057 7.55625,22.5097379 C7.51875,22.6799796 7.5,22.8313056 7.5,23.0015473 L7.5,27.049517 C7.5,28.4114507 8.45625,28.5060294 9.43125,27.5413264 L15,22.6988954 L18.4125,22.6988954 C24.80625,22.6988954 30,17.5538124 30,11.1981217 C30,4.84243101 24.80625,0 18.4125,0 L11.5875,0 C5.19375,1.07523568e-13 0,5.14508295 0,11.5007737 L0,11.5007737 Z" id="Shape" fill="#0E777F"></path>
                    <g id="Path-+-Path-+-Path" transform="translate(7.272727, 7.272727)" fill="#FFFFFF">
                        <path d="M0.227272727,0.293571186 L15.2272727,0.293571186 L15.2272727,2.1851458 L0.227272727,2.1851458 L0.227272727,0.293571186 L0.227272727,0.293571186 Z" id="Path"></path>
                        <path d="M0.227272727,4.07672042 L15.2272727,4.07672042 L15.2272727,5.96829503 L0.227272727,5.96829503 L0.227272727,4.07672042 L0.227272727,4.07672042 Z" id="Path"></path>
                        <path d="M0.227272727,7.85986964 L9.60227273,7.85986964 L9.60227273,9.75144426 L0.227272727,9.75144426 L0.227272727,7.85986964 L0.227272727,7.85986964 Z" id="Path"></path>
                    </g>
                </g>
            </g>
        </g>
    </g>
</svg>