<?xml version="1.0" encoding="UTF-8" standalone="no"?>
<svg width="40px" height="40px" viewBox="0 0 40 40" version="1.1" xmlns="http://www.w3.org/2000/svg" xmlns:xlink="http://www.w3.org/1999/xlink" xmlns:sketch="http://www.bohemiancoding.com/sketch/ns">
    <!-- Generator: Sketch 3.3.2 (12043) - http://www.bohemiancoding.com/sketch -->
    <title>delete</title>
    <desc>Created with Sketch.</desc>
    <defs></defs>
    <g id="Style" stroke="none" stroke-width="1" fill="none" fill-rule="evenodd" sketch:type="MSPage">
        <g id="delete" sketch:type="MSArtboardGroup">
            <g sketch:type="MSLayerGroup">
                <rect id="Rectangle-89" sketch:type="MSShapeGroup" x="0" y="0" width="40" height="40"></rect>
                <path d="M16.375,19.375 C16.375,19.03 16.655,18.75 17,18.75 C17.345,18.75 17.625,19.03 17.625,19.375 L17.625,26.875 C17.625,27.220625 17.345,27.5 17,27.5 C16.655,27.5 16.375,27.220625 16.375,26.875 L16.375,19.375 L16.375,19.375 Z M19.5,19.375 C19.5,19.03 19.78,18.75 20.125,18.75 C20.47,18.75 20.75,19.03 20.75,19.375 L20.75,26.875 C20.75,27.220625 20.47,27.5 20.125,27.5 C19.78,27.5 19.5,27.220625 19.5,26.875 L19.5,19.375 L19.5,19.375 Z M22.625,19.375 C22.625,19.03 22.905,18.75 23.25,18.75 C23.595,18.75 23.875,19.03 23.875,19.375 L23.875,26.875 C23.875,27.220625 23.595,27.5 23.25,27.5 C22.905,27.5 22.625,27.220625 22.625,26.875 L22.625,19.375 L22.625,19.375 Z M13.25,27.5 C13.25,28.880625 14.369375,30 15.75,30 L24.5,30 C25.880625,30 27,28.880625 27,27.5 L27,17.5 L13.25,17.5 L13.25,27.5 L13.25,27.5 Z M22,12.5 L18.25,12.5 L18.25,11.875 C18.25,11.529375 18.53,11.25 18.875,11.25 L21.375,11.25 C21.72,11.25 22,11.529375 22,11.875 L22,12.5 L22,12.5 Z M27,12.5 L23.25,12.5 L23.25,11.25 C23.25,10.56 22.69,10 22,10 L18.25,10 C17.56,10 17,10.56 17,11.25 L17,12.5 L13.25,12.5 C12.56,12.5 12,13.06 12,13.75 L12,15 C12,15.69 12.559375,16.249375 13.249375,16.25 L27.00125,16.25 C27.690625,16.249375 28.25,15.69 28.25,15 L28.25,13.75 C28.25,13.06 27.69,12.5 27,12.5 L27,12.5 Z" id="Fill-198" fill="#D3D3D3" sketch:type="MSShapeGroup"></path>
            </g>
        </g>
    </g>
</svg>