<?xml version="1.0" encoding="UTF-8" standalone="no"?>
<svg width="40px" height="40px" viewBox="0 0 40 40" version="1.1" xmlns="http://www.w3.org/2000/svg" xmlns:xlink="http://www.w3.org/1999/xlink" xmlns:sketch="http://www.bohemiancoding.com/sketch/ns">
	
<title>Icon / edit</title>
<desc>Created with Sketch.</desc>
<g id="Style" sketch:type="MSPage">
	<g id="_x2D_Icons" transform="translate(-944.000000, -130.000000)" sketch:type="MSArtboardGroup">
		<g id="Icon-_x2F_-edit" transform="translate(933.000000, 120.000000)" sketch:type="MSLayerGroup">
			<rect id="Rectangle-89" x="11" y="10" sketch:type="MSShapeGroup" fill="none" width="40" height="40">
			</rect>
			<g id="PENCIL" transform="translate(11.000000, 10.000000)" sketch:type="MSShapeGroup">
				<path id="Fill-1" fill="#6C6C6C" d="M23,13.4l-8.9,9.1l3.9,4l8.9-9.1L23,13.4z"/>
				<path id="Fill-2" fill="#6C6C6C" d="M28.3,16.3l0.6-0.6c0.6-0.6,0.9-1.3,0.9-2.1s-0.3-1.6-0.9-2.1c-0.6-0.6-1.3-0.9-2.1-0.9
					c-0.8,0-1.6,0.3-2.1,0.9l-0.6,0.6L28.3,16.3z"/>
				<path id="Fill-5" fill="#6C6C6C" d="M13,23.7l-1.7,5.2c0,0.2,0,0.3,0.1,0.4s0.2,0.1,0.3,0.1h0.1l5.1-1.7L13,23.7z"/>
			</g>
		</g>
	</g>
</g>
</svg>
