<?xml version="1.0" encoding="UTF-8" standalone="no"?>
<svg width="40px" height="40px" viewBox="0 0 40 40" version="1.1" xmlns="http://www.w3.org/2000/svg" xmlns:xlink="http://www.w3.org/1999/xlink" xmlns:sketch="http://www.bohemiancoding.com/sketch/ns">
    <!-- Generator: Sketch 3.3.2 (12043) - http://www.bohemiancoding.com/sketch -->
    <title>electronic</title>
    <desc>Created with Sketch.</desc>
    <defs></defs>
    <g id="Style" stroke="none" stroke-width="1" fill="none" fill-rule="evenodd" sketch:type="MSPage">
        <g id="electronic" sketch:type="MSArtboardGroup">
            <g id="Icon-/-Category-/-Electronics" sketch:type="MSLayerGroup">
                <rect id="Rectangle-139" sketch:type="MSShapeGroup" x="0" y="0" width="40" height="40"></rect>
                <g id="Electronics" transform="translate(11.000000, 6.000000)" fill="#00B2BE" sketch:type="MSShapeGroup">
                    <path d="M17.7002,8.6104 L0.5002,8.6104 C0.2232,8.6104 0.0002,8.8344 0.0002,9.1104 L0.0002,11.3394 C0.0002,11.6164 0.2232,11.8394 0.5002,11.8394 L1.1962,11.8394 C1.1932,11.9164 1.1902,11.9924 1.1872,12.0684 C1.1662,12.5614 1.1442,13.0704 1.2092,13.5164 C1.4332,16.3194 2.6802,18.3304 4.8962,19.4834 C5.5322,19.8464 5.6222,20.0594 5.5782,20.3724 C5.5562,20.5264 5.6072,20.6824 5.7172,20.7934 L5.8092,20.8864 C5.9032,20.9824 6.0322,21.0364 6.1652,21.0364 L12.0342,21.0364 C12.1682,21.0364 12.2972,20.9824 12.3912,20.8864 L12.4832,20.7934 C12.5932,20.6824 12.6442,20.5264 12.6222,20.3724 C12.5772,20.0594 12.6682,19.8464 13.2862,19.4924 C15.5202,18.3304 16.7662,16.3194 16.9882,13.5474 C17.0562,13.0704 17.0342,12.5614 17.0132,12.0684 C17.0102,11.9924 17.0072,11.9164 17.0042,11.8394 L17.7002,11.8394 C17.9762,11.8394 18.2002,11.6164 18.2002,11.3394 L18.2002,9.1104 C18.2002,8.8344 17.9762,8.6104 17.7002,8.6104" id="Fill-1"></path>
                    <path d="M10.2534,22.8999 L7.8374,22.8999 C7.5614,22.8999 7.3374,23.1239 7.3374,23.3999 L7.3374,28.4999 C7.3374,28.7759 7.5614,28.9999 7.8374,28.9999 L10.2534,28.9999 C10.5294,28.9999 10.7534,28.7759 10.7534,28.4999 L10.7534,23.3999 C10.7534,23.1239 10.5294,22.8999 10.2534,22.8999" id="Fill-4"></path>
                    <path d="M4.123,6.5996 L6.631,6.5996 C6.908,6.5996 7.131,6.3756 7.131,6.0996 L7.131,1.0836 C7.131,0.8076 6.908,0.5836 6.631,0.5836 L4.123,0.5836 C3.847,0.5836 3.623,0.8076 3.623,1.0836 L3.623,6.0996 C3.623,6.3756 3.847,6.5996 4.123,6.5996" id="Fill-6"></path>
                    <path d="M11.5532,6.5996 L14.0622,6.5996 C14.3382,6.5996 14.5622,6.3756 14.5622,6.0996 L14.5622,1.0836 C14.5622,0.8076 14.3382,0.5836 14.0622,0.5836 L11.5532,0.5836 C11.2772,0.5836 11.0532,0.8076 11.0532,1.0836 L11.0532,6.0996 C11.0532,6.3756 11.2772,6.5996 11.5532,6.5996" id="Fill-8"></path>
                </g>
            </g>
        </g>
    </g>
</svg>