<?xml version="1.0" encoding="UTF-8" standalone="no"?>
<svg width="160px" height="60px" viewBox="0 0 160 60" version="1.1" xmlns="http://www.w3.org/2000/svg" xmlns:xlink="http://www.w3.org/1999/xlink" xmlns:sketch="http://www.bohemiancoding.com/sketch/ns">
    <!-- Generator: Sketch 3.3.2 (12043) - http://www.bohemiancoding.com/sketch -->
    <title>estela</title>
    <desc>Created with Sketch.</desc>
    <defs></defs>
    <g id="Style" stroke="none" stroke-width="1" fill="none" fill-rule="evenodd" sketch:type="MSPage">
        <g id="estela" sketch:type="MSArtboardGroup" fill="#F9A41A">
            <path d="M115.637076,27.3233637 C112.74723,27.419927 113.347158,27.5830406 108.447098,25.3242427 C99.4710624,21.1870279 87.2052294,19 78.8885908,19 C49.9012559,19 37.5935979,38.0764684 40.3860698,40.3411384 C40.3860698,40.3411384 42.330932,37.6889104 45.1626148,35.3035363 C53.5576753,28.2328854 61.8272608,25.0273759 78.2344217,24.8688294 C85.8446101,24.795102 93.2685465,26.5247592 101.13622,29.8542352 C103.700615,30.9392672 109.309085,33.7963661 109.763932,34.8761785 C110.25995,36.0532066 112.025749,38.4640265 115.30509,38.4640265 C118.392298,38.4640265 120.893301,35.9664302 120.893301,32.8855394 C120.893301,29.9162184 118.56744,27.4956117 115.637076,27.3233637" id="Shape-Copy-3" sketch:type="MSShapeGroup"></path>
        </g>
    </g>
</svg>