<?xml version="1.0" encoding="UTF-8" standalone="no"?>
<svg width="40px" height="40px" viewBox="0 0 40 40" version="1.1" xmlns="http://www.w3.org/2000/svg" xmlns:xlink="http://www.w3.org/1999/xlink" xmlns:sketch="http://www.bohemiancoding.com/sketch/ns">
    <!-- Generator: Sketch 3.3.2 (12043) - http://www.bohemiancoding.com/sketch -->
    <title>fashion</title>
    <desc>Created with Sketch.</desc>
    <defs></defs>
    <g id="Style" stroke="none" stroke-width="1" fill="none" fill-rule="evenodd" sketch:type="MSPage">
        <g id="fashion" sketch:type="MSArtboardGroup">
            <g id="Icon-/-Category-/-Fashion" sketch:type="MSLayerGroup">
                <rect id="Rectangle-139" sketch:type="MSShapeGroup" x="0" y="0" width="40" height="40"></rect>
                <g id="Fashion" transform="translate(4.000000, 7.000000)" fill="#00B2BE" sketch:type="MSShapeGroup">
                    <path d="M30.7413941,5.05706976 L21.6693941,0.0620697576 C21.4693941,-0.0489302424 21.2173941,-0.00793024239 21.0613941,0.160069758 C21.0353941,0.187069758 18.4813941,2.90506976 15.4443941,2.90506976 C12.4253941,2.90506976 10.0083941,0.197069758 9.98439414,0.170069758 C9.82439414,-0.00993024239 9.55939414,-0.0519302424 9.35139414,0.0710697576 L0.243394145,5.51806976 C0.0203941449,5.65206976 -0.0636058551,5.93406976 0.0513941449,6.16806976 L3.04139414,12.2500698 C3.10339414,12.3760698 3.21439414,12.4700698 3.34839414,12.5090698 C3.48339414,12.5490698 3.62739414,12.5310698 3.74639414,12.4590698 L7.16339414,10.4190698 L7.16339414,24.9490698 C7.16339414,25.2250698 7.38739414,25.4490698 7.66339414,25.4490698 L23.3733941,25.4490698 C23.6503941,25.4490698 23.8733941,25.2250698 23.8733941,24.9490698 L23.8733941,10.4040698 L27.2613941,12.3570698 C27.3833941,12.4270698 27.5283941,12.4420698 27.6613941,12.4000698 C27.7953941,12.3580698 27.9053941,12.2620698 27.9643941,12.1350698 L30.9533941,5.70606976 C31.0643941,5.46706976 30.9713941,5.18406976 30.7413941,5.05706976" id="Fill-1"></path>
                </g>
            </g>
        </g>
    </g>
</svg>