<?xml version="1.0" encoding="UTF-8" standalone="no"?>
<svg width="42px" height="42px" viewBox="0 0 42 42" version="1.1" xmlns="http://www.w3.org/2000/svg" xmlns:xlink="http://www.w3.org/1999/xlink" xmlns:sketch="http://www.bohemiancoding.com/sketch/ns">
    <!-- Generator: Sketch 3.3.2 (12043) - http://www.bohemiancoding.com/sketch -->
    <title>fb</title>
    <desc>Created with Sketch.</desc>
    <defs></defs>
    <g id="Style" stroke="none" stroke-width="1" fill="none" fill-rule="evenodd" sketch:type="MSPage">
        <g id="fb" sketch:type="MSArtboardGroup">
            <g id="Icon-/-SMfacebook" sketch:type="MSLayerGroup" transform="translate(1.000000, 1.000000)">
                <path d="M17.5677358,30.6958491 L17.5677358,20.984717 L15,20.984717 L15,17.4881132 L17.5677358,17.4881132 L17.5677358,14.5016981 C17.5677358,12.1549057 19.0845283,10 22.579434,10 C23.9945283,10 25.0411321,10.1356604 25.0411321,10.1356604 L24.9584906,13.4007547 C24.9584906,13.4007547 23.8913208,13.3903774 22.7267925,13.3903774 C21.4664151,13.3903774 21.2645283,13.9711321 21.2645283,14.935283 C21.2645283,15.6973585 21.2645283,13.3109434 21.2645283,17.4883019 L25.0586792,17.4883019 L24.8935849,20.9849057 L21.2645283,20.9849057 L21.2645283,30.6960377 L17.5677358,30.6960377 L17.5677358,30.6958491 Z" id="facebook" fill="#FFFFFF" sketch:type="MSShapeGroup"></path>
                <ellipse id="Oval-10" stroke="#8D8D8D" sketch:type="MSShapeGroup" cx="20" cy="20" rx="20" ry="20"></ellipse>
            </g>
        </g>
    </g>
</svg>