<?xml version="1.0" encoding="UTF-8" standalone="no"?>
<svg width="40px" height="40px" viewBox="0 0 40 40" version="1.1" xmlns="http://www.w3.org/2000/svg" xmlns:xlink="http://www.w3.org/1999/xlink" xmlns:sketch="http://www.bohemiancoding.com/sketch/ns">
    <!-- Generator: Sketch 3.3.2 (12043) - http://www.bohemiancoding.com/sketch -->
    <title>filters</title>
    <desc>Created with Sketch.</desc>
    <defs></defs>
    <g id="Style" stroke="none" stroke-width="1" fill="none" fill-rule="evenodd" sketch:type="MSPage">
        <g id="filters" sketch:type="MSArtboardGroup">
            <g id="Icon-/-location-ok-Copy-3" sketch:type="MSLayerGroup">
                <path d="M16.59375,13.1570312 C15.5578125,13.1570312 14.71875,13.9960937 14.71875,15.03125 C14.71875,16.0664062 15.5578125,16.90625 16.59375,16.90625 C17.6296875,16.90625 18.46875,16.0664062 18.46875,15.03125 C18.46875,13.9960937 17.6296875,13.1570312 16.59375,13.1570312 L16.59375,13.1570312 Z M23.625,19.40625 C22.5890625,19.40625 21.75,20.2460937 21.75,21.28125 C21.75,22.3164062 22.5890625,23.15625 23.625,23.15625 C24.6609375,23.15625 25.5,22.3164062 25.5,21.28125 C25.5,20.2460937 24.6609375,19.40625 23.625,19.40625 L23.625,19.40625 Z M28.3125,15.8125 L19.6078125,15.8125 C19.2601563,17.1585937 18.0484375,18.15625 16.59375,18.15625 C15.1390625,18.15625 13.9273438,17.1585937 13.5796875,15.8125 L12.6875,15.8125 C12.25625,15.8125 11.90625,15.4632812 11.90625,15.03125 C11.90625,14.6 12.25625,14.25 12.6875,14.25 L13.5796875,14.25 C13.9273438,12.9039062 15.1390625,11.90625 16.59375,11.90625 C18.0484375,11.90625 19.2601563,12.9039062 19.6078125,14.25 L28.3125,14.25 C28.74375,14.25 29.09375,14.6 29.09375,15.03125 C29.09375,15.4632812 28.74375,15.8125 28.3125,15.8125 L28.3125,15.8125 Z M28.3125,22.0625 L26.6390625,22.0625 C26.2914063,23.4085937 25.0796875,24.40625 23.625,24.40625 C22.1703125,24.40625 20.9585938,23.4085937 20.6109375,22.0625 L12.6875,22.0625 C12.25625,22.0625 11.90625,21.7132812 11.90625,21.28125 C11.90625,20.85 12.25625,20.5 12.6875,20.5 L20.6109375,20.5 C20.959375,19.1539062 22.1703125,18.15625 23.625,18.15625 C25.0796875,18.15625 26.2914063,19.1539062 26.6390625,20.5 L28.3125,20.5 C28.74375,20.5 29.09375,20.85 29.09375,21.28125 C29.09375,21.7132812 28.74375,22.0625 28.3125,22.0625 L28.3125,22.0625 Z M28.3125,28.3125 L19.6078125,28.3125 C19.2601563,29.6585937 18.0484375,30.65625 16.59375,30.65625 C15.1390625,30.65625 13.9273438,29.6585937 13.5796875,28.3125 L12.6875,28.3125 C12.25625,28.3125 11.90625,27.9632812 11.90625,27.53125 C11.90625,27.0992188 12.25625,26.75 12.6875,26.75 L13.5796875,26.75 C13.9273438,25.4046875 15.1390625,24.40625 16.59375,24.40625 C18.0484375,24.40625 19.2601563,25.4046875 19.6078125,26.75 L28.3125,26.75 C28.74375,26.75 29.09375,27.0992188 29.09375,27.53125 C29.09375,27.9632812 28.74375,28.3125 28.3125,28.3125 L28.3125,28.3125 Z M29.875,8 L11.125,8 C9.39921875,8 8,9.39921875 8,11.125 L8,29.875 C8,31.6007812 9.39921875,33 11.125,33 L29.875,33 C31.6007813,33 33,31.6007812 33,29.875 L33,11.125 C33,9.39921875 31.6007813,8 29.875,8 L29.875,8 Z M16.59375,25.6570312 C15.5578125,25.6570312 14.71875,26.4960937 14.71875,27.53125 C14.71875,28.5664062 15.5578125,29.40625 16.59375,29.40625 C17.6296875,29.40625 18.46875,28.5664062 18.46875,27.53125 C18.46875,26.4960937 17.6296875,25.6570312 16.59375,25.6570312 L16.59375,25.6570312 Z" id="Fill-170" fill="#00B2BE" sketch:type="MSShapeGroup"></path>
                <rect id="Rectangle-121" sketch:type="MSShapeGroup" x="0" y="0" width="40" height="40"></rect>
            </g>
        </g>
    </g>
</svg>