<?xml version="1.0" encoding="UTF-8" standalone="no"?>
<svg width="102px" height="102px" viewBox="0 0 102 102" version="1.1" xmlns="http://www.w3.org/2000/svg" xmlns:xlink="http://www.w3.org/1999/xlink" xmlns:sketch="http://www.bohemiancoding.com/sketch/ns">
    <!-- Generator: Sketch 3.3.2 (12043) - http://www.bohemiancoding.com/sketch -->
    <title>fireworks</title>
    <desc>Created with Sketch.</desc>
    <defs></defs>
    <g id="Style" stroke="none" stroke-width="1" fill="none" fill-rule="evenodd" sketch:type="MSPage">
        <g id="fireworks" sketch:type="MSArtboardGroup">
            <g id="Fireworks" sketch:type="MSLayerGroup" transform="translate(10.000000, 10.000000)">
                <path d="M58.667,28 C58.667,31.682 55.681,34.666 52.001,34.666 C48.319,34.666 45.333,31.682 45.333,28 C45.333,24.318 48.319,21.334 52.001,21.334 C55.681,21.334 58.667,24.318 58.667,28" id="Fill-1" fill="#F9A41A" sketch:type="MSShapeGroup"></path>
                <path d="M23.1162,45.1856 L22.0902,48.2096 L24.0002,50.7676 L20.8082,50.7276 L18.9642,53.3336 L18.0162,50.2836 L14.9682,49.3376 L17.5742,47.4936 L17.5342,44.3036 L20.0922,46.2116 L23.1162,45.1856 Z" id="Fill-3" fill="#00B2BE" sketch:type="MSShapeGroup"></path>
                <path d="M20,80 C19.264,80 18.666,79.404 18.666,78.666 L18.666,57.4 C18.666,56.662 19.264,56.068 20,56.068 C20.736,56.068 21.334,56.662 21.334,57.4 L21.334,78.666 C21.334,79.404 20.736,80 20,80" id="Estela-1" fill="#CE891B" sketch:type="MSShapeGroup"></path>
                <g id="Estela2" transform="translate(50.000000, 38.000000)" fill="#0E777F" sketch:type="MSShapeGroup">
                    <path d="M2,42 C1.264,42 0.666,41.404 0.666,40.666 L0.666,38.666 C0.666,37.93 1.264,37.334 2,37.334 C2.736,37.334 3.334,37.93 3.334,38.666 L3.334,40.666 C3.334,41.404 2.736,42 2,42" id="Fill-7"></path>
                    <path d="M2,13.0372 C1.264,13.0372 0.666,12.4432 0.666,11.7052 L0.666,7.8512 C0.666,7.1152 1.264,6.5172 2,6.5172 C2.736,6.5172 3.334,7.1152 3.334,7.8512 L3.334,11.7052 C3.334,12.4432 2.736,13.0372 2,13.0372 M2,20.7412 C1.264,20.7412 0.666,20.1452 0.666,19.4092 L0.666,15.5572 C0.666,14.8212 1.264,14.2252 2,14.2252 C2.736,14.2252 3.334,14.8212 3.334,15.5572 L3.334,19.4092 C3.334,20.1452 2.736,20.7412 2,20.7412 M2,28.4452 C1.264,28.4452 0.666,27.8492 0.666,27.1112 L0.666,23.2592 C0.666,22.5212 1.264,21.9252 2,21.9252 C2.736,21.9252 3.334,22.5212 3.334,23.2592 L3.334,27.1112 C3.334,27.8492 2.736,28.4452 2,28.4452 M2,36.1492 C1.264,36.1492 0.666,35.5532 0.666,34.8152 L0.666,30.9632 C0.666,30.2272 1.264,29.6312 2,29.6312 C2.736,29.6312 3.334,30.2272 3.334,30.9632 L3.334,34.8152 C3.334,35.5532 2.736,36.1492 2,36.1492" id="Fill-9"></path>
                    <path d="M2,5.334 C1.264,5.334 0.666,4.736 0.666,4 L0.666,2 C0.666,1.264 1.264,0.666 2,0.666 C2.736,0.666 3.334,1.264 3.334,2 L3.334,4 C3.334,4.736 2.736,5.334 2,5.334" id="Fill-11"></path>
                </g>
                <g id="Explosio2" transform="translate(24.000000, 0.000000)" fill="#00B2BE" sketch:type="MSShapeGroup">
                    <path d="M28,17.334 C27.264,17.334 26.666,16.738 26.666,16 L26.666,1.334 C26.666,0.596 27.264,0 28,0 C28.736,0 29.334,0.596 29.334,1.334 L29.334,16 C29.334,16.738 28.736,17.334 28,17.334" id="Fill-5"></path>
                    <path d="M54.667,29.334 L40.001,29.334 C39.261,29.334 38.667,28.736 38.667,28 C38.667,27.264 39.261,26.666 40.001,26.666 L54.667,26.666 C55.403,26.666 56.001,27.264 56.001,28 C56.001,28.736 55.403,29.334 54.667,29.334" id="Fill-13"></path>
                    <path d="M16,29.334 L1.334,29.334 C0.598,29.334 0,28.736 0,28 C0,27.264 0.598,26.666 1.334,26.666 L16,26.666 C16.736,26.666 17.334,27.264 17.334,28 C17.334,28.736 16.736,29.334 16,29.334" id="Fill-16"></path>
                    <path d="M36.4854,20.8476 C36.1454,20.8476 35.8014,20.7176 35.5434,20.4576 C35.0214,19.9356 35.0214,19.0916 35.5434,18.5716 L45.9134,8.2016 C46.4334,7.6796 47.2774,7.6796 47.7994,8.2016 C48.3194,8.7216 48.3194,9.5636 47.7994,10.0876 L37.4294,20.4576 C37.1674,20.7176 36.8274,20.8476 36.4854,20.8476" id="Fill-18"></path>
                    <path d="M10.667,46.666 C10.325,46.666 9.983,46.538 9.723,46.276 C9.203,45.756 9.203,44.912 9.723,44.39 L18.571,35.542 C19.093,35.024 19.937,35.024 20.457,35.542 C20.977,36.064 20.977,36.908 20.457,37.428 L11.609,46.276 C11.349,46.538 11.007,46.666 10.667,46.666" id="Fill-20"></path>
                    <path d="M46.8564,48.1894 C46.5164,48.1894 46.1724,48.0614 45.9144,47.7994 L35.5424,37.4294 C35.0224,36.9074 35.0224,36.0634 35.5424,35.5454 C36.0644,35.0214 36.9064,35.0214 37.4264,35.5454 L47.8004,45.9134 C48.3204,46.4354 48.3204,47.2794 47.8004,47.7994 C47.5384,48.0614 47.1984,48.1894 46.8564,48.1894" id="Fill-22"></path>
                    <path d="M19.5146,20.8476 C19.1726,20.8476 18.8326,20.7176 18.5706,20.4576 L8.2026,10.0876 C7.6806,9.5636 7.6806,8.7216 8.2026,8.2016 C8.7226,7.6796 9.5666,7.6796 10.0866,8.2016 L20.4566,18.5716 C20.9786,19.0916 20.9786,19.9356 20.4566,20.4576 C20.1986,20.7176 19.8546,20.8476 19.5146,20.8476" id="Fill-24"></path>
                    <path d="M32.7568,18.127 C32.5808,18.127 32.3988,18.091 32.2268,18.019 C31.5528,17.727 31.2408,16.941 31.5348,16.267 L37.3468,2.801 C37.6388,2.125 38.4248,1.815 39.1008,2.105 C39.7768,2.397 40.0868,3.181 39.7968,3.857 L33.9808,17.323 C33.7628,17.827 33.2728,18.127 32.7568,18.127" id="Fill-26"></path>
                    <path d="M17.4288,53.625 C17.2508,53.625 17.0708,53.591 16.8988,53.515 C16.2228,53.225 15.9108,52.439 16.2048,51.763 L22.0188,38.299 C22.3108,37.623 23.0948,37.313 23.7728,37.603 C24.4488,37.895 24.7588,38.679 24.4668,39.357 L18.6528,52.821 C18.4328,53.325 17.9448,53.625 17.4288,53.625" id="Fill-28"></path>
                    <path d="M52.4804,39.7168 C52.3044,39.7168 52.1244,39.6808 51.9524,39.6068 L38.4884,33.7908 C37.8124,33.5008 37.5004,32.7148 37.7924,32.0388 C38.0844,31.3628 38.8684,31.0488 39.5464,31.3428 L53.0084,37.1588 C53.6864,37.4508 53.9964,38.2368 53.7064,38.9128 C53.4884,39.4168 52.9964,39.7168 52.4804,39.7168" id="Fill-30"></path>
                    <path d="M16.9834,24.3868 C16.8054,24.3868 16.6254,24.3508 16.4534,24.2788 L2.9874,18.4628 C2.3134,18.1708 2.0034,17.3848 2.2934,16.7088 C2.5874,16.0328 3.3674,15.7248 4.0454,16.0128 L17.5114,21.8308 C18.1874,22.1208 18.4994,22.9088 18.2074,23.5828 C17.9874,24.0868 17.4994,24.3868 16.9834,24.3868" id="Fill-32"></path>
                    <path d="M39.3154,25.1464 C38.7654,25.1464 38.2514,24.8064 38.0594,24.2584 C37.8134,23.5644 38.1754,22.8024 38.8714,22.5564 L52.6994,17.6704 C53.3994,17.4344 54.1554,17.7904 54.4014,18.4864 C54.6474,19.1784 54.2814,19.9404 53.5894,20.1864 L39.7594,25.0724 C39.6134,25.1224 39.4614,25.1464 39.3154,25.1464" id="Fill-34"></path>
                    <path d="M8,36 C7.44,36 6.918,35.644 6.734,35.084 C6.502,34.384 6.884,33.63 7.584,33.4 L16.268,30.542 C16.968,30.31 17.722,30.694 17.95,31.39 C18.18,32.09 17.8,32.844 17.102,33.076 L8.416,35.934 C8.278,35.978 8.14,36 8,36" id="Fill-36"></path>
                    <path d="M36.8818,54.2872 C36.3318,54.2872 35.8178,53.9472 35.6238,53.3992 L30.7418,39.5712 C30.4938,38.8752 30.8578,38.1132 31.5518,37.8672 C32.2458,37.6272 33.0078,37.9872 33.2538,38.6812 L38.1398,52.5092 C38.3838,53.2052 38.0198,53.9672 37.3258,54.2132 C37.1778,54.2632 37.0278,54.2872 36.8818,54.2872" id="Fill-38"></path>
                    <path d="M24.004,17.83 C23.454,17.83 22.938,17.488 22.746,16.94 L17.862,3.112 C17.616,2.416 17.98,1.654 18.672,1.41 C19.368,1.17 20.128,1.528 20.376,2.222 L25.26,16.052 C25.506,16.748 25.142,17.51 24.446,17.754 C24.3,17.804 24.15,17.83 24.004,17.83" id="Fill-40"></path>
                </g>
                <g id="Explosio1" transform="translate(0.000000, 28.000000)" fill="#F9A41A" sketch:type="MSShapeGroup">
                    <path d="M20,5.334 C19.264,5.334 18.666,4.736 18.666,4 L18.666,1.334 C18.666,0.596 19.264,0 20,0 C20.736,0 21.334,0.596 21.334,1.334 L21.334,4 C21.334,4.736 20.736,5.334 20,5.334 M20,12 C19.264,12 18.666,11.404 18.666,10.666 L18.666,8 C18.666,7.264 19.264,6.666 20,6.666 C20.736,6.666 21.334,7.264 21.334,8 L21.334,10.666 C21.334,11.404 20.736,12 20,12" id="Fill-42"></path>
                    <path d="M32,22.666 L29.334,22.666 C28.598,22.666 28,22.07 28,21.334 C28,20.596 28.598,20 29.334,20 L32,20 C32.736,20 33.334,20.596 33.334,21.334 C33.334,22.07 32.736,22.666 32,22.666" id="Fill-46"></path>
                    <path d="M4,21.334 L1.334,21.334 C0.598,21.334 0,20.736 0,20 C0,19.264 0.598,18.666 1.334,18.666 L4,18.666 C4.736,18.666 5.334,19.264 5.334,20 C5.334,20.736 4.736,21.334 4,21.334 M10.666,21.334 L8,21.334 C7.264,21.334 6.666,20.736 6.666,20 C6.666,19.264 7.264,18.666 8,18.666 L10.666,18.666 C11.402,18.666 12,19.264 12,20 C12,20.736 11.402,21.334 10.666,21.334" id="Fill-48"></path>
                    <path d="M32.0126,13.334 C31.2766,13.334 30.6726,12.736 30.6726,12 C30.6726,11.264 31.2646,10.666 32.0006,10.666 L32.0126,10.666 C32.7506,10.666 33.3466,11.264 33.3466,12 C33.3466,12.736 32.7506,13.334 32.0126,13.334 M26.6686,17.334 C26.2626,17.334 25.8626,17.15 25.6006,16.798 C25.1566,16.21 25.2766,15.376 25.8666,14.934 L28.0006,13.334 C28.5926,12.892 29.4266,13.01 29.8666,13.6 C30.3086,14.19 30.1886,15.026 29.6006,15.466 L27.4666,17.068 C27.2266,17.248 26.9466,17.334 26.6686,17.334" id="Fill-50"></path>
                    <path d="M11.3818,29.9532 C11.0398,29.9532 10.6978,29.8232 10.4378,29.5632 C9.9178,29.0432 9.9178,28.1972 10.4358,27.6772 L12.3238,25.7912 C12.8438,25.2692 13.6878,25.2692 14.2098,25.7912 C14.7298,26.3112 14.7298,27.1552 14.2098,27.6772 L12.3238,29.5632 C12.0638,29.8232 11.7218,29.9532 11.3818,29.9532 M6.6658,34.6652 C6.3238,34.6652 5.9838,34.5372 5.7218,34.2752 C5.2038,33.7552 5.2038,32.9112 5.7218,32.3912 L7.6078,30.5052 C8.1298,29.9852 8.9738,29.9852 9.4938,30.5052 C10.0158,31.0252 10.0158,31.8692 9.4938,32.3912 L7.6078,34.2752 C7.3478,34.5372 7.0058,34.6652 6.6658,34.6652" id="Fill-52"></path>
                    <path d="M8.374,10.0488 C7.992,10.0488 7.614,9.8848 7.348,9.5708 L5.642,7.5208 C5.172,6.9548 5.248,6.1148 5.814,5.6428 C6.376,5.1728 7.22,5.2468 7.69,5.8128 L9.398,7.8608 C9.868,8.4268 9.792,9.2668 9.228,9.7408 C8.978,9.9468 8.676,10.0488 8.374,10.0488 M12.642,15.1728 C12.262,15.1728 11.882,15.0068 11.618,14.6888 L9.91,12.6408 C9.438,12.0768 9.514,11.2348 10.082,10.7628 C10.644,10.2908 11.486,10.3668 11.958,10.9328 L13.666,12.9848 C14.136,13.5488 14.062,14.3908 13.496,14.8608 C13.246,15.0708 12.944,15.1728 12.642,15.1728" id="Fill-54"></path>
                    <path d="M26.9804,7.371 C26.7804,7.371 26.5744,7.327 26.3864,7.233 C25.7264,6.901 25.4584,6.101 25.7884,5.443 L26.8084,3.405 C27.1364,2.745 27.9364,2.481 28.5944,2.807 C29.2564,3.137 29.5224,3.937 29.1944,4.595 L28.1744,6.635 C27.9404,7.101 27.4704,7.371 26.9804,7.371 M23.9984,13.333 C23.7984,13.333 23.5944,13.287 23.4024,13.193 C22.7464,12.863 22.4784,12.063 22.8084,11.405 L24.0004,9.017 C24.3284,8.359 25.1284,8.093 25.7884,8.421 C26.4484,8.751 26.7144,9.553 26.3864,10.211 L25.1944,12.595 C24.9584,13.065 24.4884,13.333 23.9984,13.333" id="Fill-56"></path>
                    <path d="M14.9804,32.705 C14.7804,32.705 14.5744,32.659 14.3864,32.565 C13.7264,32.235 13.4584,31.435 13.7884,30.775 L14.8084,28.737 C15.1364,28.079 15.9384,27.813 16.5944,28.141 C17.2564,28.471 17.5224,29.271 17.1944,29.929 L16.1744,31.967 C15.9404,32.435 15.4704,32.705 14.9804,32.705 M11.9984,38.665 C11.7984,38.665 11.5944,38.619 11.4024,38.525 C10.7464,38.197 10.4784,37.397 10.8084,36.737 L12.0004,34.351 C12.3284,33.693 13.1284,33.427 13.7884,33.755 C14.4484,34.083 14.7144,34.885 14.3864,35.545 L13.1944,37.929 C12.9584,38.399 12.4884,38.665 11.9984,38.665" id="Fill-58"></path>
                    <path d="M30.4756,27.6582 C30.3096,27.6582 30.1436,27.6262 29.9796,27.5622 L27.5036,26.5722 C26.8196,26.2982 26.4876,25.5222 26.7616,24.8382 C27.0336,24.1542 27.8096,23.8202 28.4956,24.0962 L30.9716,25.0862 C31.6556,25.3602 31.9876,26.1342 31.7136,26.8182 C31.5036,27.3422 31.0036,27.6582 30.4756,27.6582 M34.6656,29.3342 C34.5016,29.3342 34.3356,29.3022 34.1736,29.2402 L33.6956,29.0482 C33.0116,28.7762 32.6796,28.0002 32.9516,27.3162 C33.2256,26.6322 33.9996,26.2962 34.6836,26.5722 L35.1596,26.7622 C35.8456,27.0322 36.1796,27.8102 35.9056,28.4942 C35.6956,29.0162 35.1956,29.3342 34.6656,29.3342" id="Fill-60"></path>
                    <path d="M5.1172,15.7168 C4.9432,15.7168 4.7652,15.6848 4.5932,15.6088 L2.1412,14.5608 C1.4632,14.2668 1.1492,13.4848 1.4412,12.8088 C1.7312,12.1308 2.5132,11.8128 3.1912,12.1088 L5.6452,13.1588 C6.3192,13.4508 6.6332,14.2348 6.3432,14.9088 C6.1252,15.4168 5.6332,15.7168 5.1172,15.7168 M11.2452,18.3428 C11.0692,18.3428 10.8912,18.3108 10.7192,18.2368 L8.2692,17.1848 C7.5932,16.8968 7.2792,16.1108 7.5692,15.4348 C7.8592,14.7588 8.6452,14.4428 9.3192,14.7348 L11.7712,15.7868 C12.4492,16.0768 12.7612,16.8588 12.4692,17.5348 C12.2532,18.0408 11.7612,18.3428 11.2452,18.3428" id="Fill-62"></path>
                    <path d="M9.0772,26.168 C8.4952,26.168 7.9612,25.788 7.7952,25.202 C7.5932,24.492 8.0032,23.756 8.7112,23.552 L11.2752,22.82 C11.9832,22.626 12.7212,23.03 12.9232,23.736 C13.1252,24.446 12.7152,25.182 12.0072,25.384 L9.4432,26.118 C9.3212,26.15 9.1972,26.168 9.0772,26.168 M2.6652,28 C2.0852,28 1.5512,27.62 1.3832,27.034 C1.1832,26.326 1.5932,25.588 2.3012,25.384 L4.8632,24.65 C5.5752,24.456 6.3092,24.86 6.5112,25.568 C6.7152,26.276 6.3052,27.014 5.5972,27.216 L3.0332,27.952 C2.9112,27.982 2.7852,28 2.6652,28" id="Fill-64"></path>
                    <path d="M25.4804,31.5528 C25.0504,31.5528 24.6264,31.3448 24.3704,30.9588 L22.8924,28.7408 C22.4804,28.1268 22.6464,27.2988 23.2604,26.8908 C23.8724,26.4828 24.6984,26.6468 25.1084,27.2608 L26.5884,29.4788 C26.9964,30.0928 26.8304,30.9208 26.2184,31.3288 C25.9904,31.4788 25.7324,31.5528 25.4804,31.5528 M29.1784,37.0988 C28.7464,37.0988 28.3244,36.8908 28.0664,36.5068 L26.5884,34.2868 C26.1804,33.6748 26.3444,32.8448 26.9564,32.4368 C27.5704,32.0288 28.3964,32.1928 28.8084,32.8068 L30.2844,35.0248 C30.6944,35.6388 30.5304,36.4668 29.9164,36.8748 C29.6884,37.0248 29.4324,37.0988 29.1784,37.0988" id="Fill-66"></path>
                    <path d="M14.0654,6.5644 C13.4854,6.5644 12.9514,6.1824 12.7834,5.5964 L12.0514,3.0324 C11.8494,2.3244 12.2594,1.5884 12.9654,1.3844 C13.6754,1.1884 14.4134,1.5924 14.6154,2.3024 L15.3474,4.8644 C15.5514,5.5724 15.1394,6.3104 14.4314,6.5144 C14.3114,6.5464 14.1874,6.5644 14.0654,6.5644 M15.8974,12.9744 C15.3154,12.9744 14.7814,12.5924 14.6154,12.0064 L13.8814,9.4424 C13.6794,8.7344 14.0894,7.9984 14.7974,7.7944 C15.5074,7.6004 16.2454,8.0024 16.4454,8.7104 L17.1794,11.2744 C17.3814,11.9824 16.9734,12.7204 16.2654,12.9244 C16.1414,12.9584 16.0174,12.9744 15.8974,12.9744" id="Fill-68"></path>
                </g>
                <path d="M10.667,15.334 C10.667,17.176 9.175,18.666 7.333,18.666 C5.493,18.666 4.001,17.176 4.001,15.334 C4.001,13.492 5.493,12 7.333,12 C9.175,12 10.667,13.492 10.667,15.334" id="Fill-70" fill="#00B2BE" sketch:type="MSShapeGroup"></path>
                <path d="M22.667,7.334 C22.667,9.176 21.175,10.666 19.333,10.666 C17.493,10.666 16.001,9.176 16.001,7.334 C16.001,5.492 17.493,4 19.333,4 C21.175,4 22.667,5.492 22.667,7.334" id="Fill-72" fill="#F9A41A" sketch:type="MSShapeGroup"></path>
                <path d="M20,16.666 C20,17.772 19.104,18.666 18,18.666 C16.896,18.666 16,17.772 16,16.666 C16,15.56 16.896,14.666 18,14.666 C19.104,14.666 20,15.56 20,16.666" id="Fill-74" fill="#0E777F" sketch:type="MSShapeGroup"></path>
                <path d="M13.333,23.334 C13.333,24.44 12.437,25.334 11.333,25.334 C10.229,25.334 9.333,24.44 9.333,23.334 C9.333,22.228 10.229,21.334 11.333,21.334 C12.437,21.334 13.333,22.228 13.333,23.334" id="Fill-76" fill="#CE891B" sketch:type="MSShapeGroup"></path>
            </g>
        </g>
    </g>
</svg>