<?xml version="1.0" encoding="UTF-8" standalone="no"?>
<svg width="42px" height="42px" viewBox="0 0 42 42" version="1.1" xmlns="http://www.w3.org/2000/svg" xmlns:xlink="http://www.w3.org/1999/xlink" xmlns:sketch="http://www.bohemiancoding.com/sketch/ns">
    <!-- Generator: Sketch 3.3.2 (12043) - http://www.bohemiancoding.com/sketch -->
<title>googl</title>
<desc>Created with Sketch.</desc>
<g id="Style" sketch:type="MSPage">
	<g id="Icon-_x2F_-SMgoogle" transform="translate(1.000000, 1.000000)" sketch:type="MSLayerGroup">
		<g id="Google_x2B_" transform="translate(10.000000, 10.000000)" sketch:type="MSShapeGroup">
			<path id="Shape" fill="#FFFFFF" d="M21,2.2h-2.8v-2.8h-1.4v2.8h-2.8v1.4h2.8v2.8h1.4V3.5H21V2.2z"/>
			<path id="Shape-2" fill="#FFFFFF" d="M11.3,10.4C10.8,10,9.6,9.2,9.6,8.6c0-0.7,0.2-1,1.2-1.8c1-0.8,1.7-1.8,1.7-3.2
				c0-1.4-0.6-2.7-1.7-3.3h1.5L13.7-1H7.8c-3,0-5.5,2.2-5.5,4.6c0,2.5,1.6,4.5,4.4,4.5c0.2,0,0.4,0,0.6,0C7.2,8.4,7,8.8,7,9.2
				c0,0.7,0.4,1.1,0.8,1.5c-0.4,0-0.7,0-1.1,0c-3.4,0-5.8,2.4-5.8,4.6C1,17.6,3.9,19,7.3,19c3.9,0,6.3-2.2,6.3-4.4
				C13.6,12.8,13.2,11.9,11.3,10.4L11.3,10.4z M7.9,7.1C6.3,7,4.8,5.6,4.5,3.4C4.2,1.3,5.3-0.3,6.9-0.2c1.6,0,3,1.8,3.3,3.9
				C10.5,5.8,9.5,7.1,7.9,7.1L7.9,7.1z M7.3,17.8c-2.3,0-4-1.5-4-3.3c0-1.8,2-3.3,4.3-3.2c0.5,0,1.1,0.1,1.5,0.2
				c1.3,0.9,2.3,1.4,2.6,2.5c0,0.2,0.1,0.4,0.1,0.6C11.8,16.4,10.6,17.8,7.3,17.8L7.3,17.8z"/>
		</g>
	</g>
</g>
</svg>
