<?xml version="1.0" encoding="UTF-8" standalone="no"?>
<svg width="42px" height="42px" viewBox="0 0 42 42" version="1.1" xmlns="http://www.w3.org/2000/svg" xmlns:xlink="http://www.w3.org/1999/xlink" xmlns:sketch="http://www.bohemiancoding.com/sketch/ns">
    <!-- Generator: Sketch 3.3.2 (12043) - http://www.bohemiancoding.com/sketch -->
    <title>googl</title>
    <desc>Created with Sketch.</desc>
    <defs></defs>
    <g id="Style" stroke="none" stroke-width="1" fill="none" fill-rule="evenodd" sketch:type="MSPage">
        <g id="googl" sketch:type="MSArtboardGroup">
            <g id="Icon-/-SMgoogle" sketch:type="MSLayerGroup" transform="translate(1.000000, 1.000000)">
                <ellipse id="Oval-10-Copy-2" stroke="#8D8D8D" sketch:type="MSShapeGroup" cx="20" cy="20" rx="20" ry="20"></ellipse>
                <g id="Google+" transform="translate(10.000000, 10.000000)" fill="#FFFFFF" sketch:type="MSShapeGroup">
                    <path d="M20,3.15384615 L17.2307692,3.15384615 L17.2307692,0.384615385 L15.8461538,0.384615385 L15.8461538,3.15384615 L13.0769231,3.15384615 L13.0769231,4.53846154 L15.8461538,4.53846154 L15.8461538,7.30769231 L17.2307692,7.30769231 L17.2307692,4.53846154 L20,4.53846154 L20,3.15384615 Z" id="Shape"></path>
                    <path d="M10.3138745,11.4449279 C9.76840966,11.034811 8.58109364,10.194452 8.58109364,9.63040522 C8.58109364,8.96899646 8.76952203,8.64345934 9.76297944,7.86646723 C10.7811443,7.06935001 11.5020051,6.01903726 11.5020051,4.71580092 C11.5020051,3.29589339 10.9223299,2.00788686 9.83221465,1.38237694 L11.3771102,1.38237694 L12.6923077,0 L6.80704315,0 C3.82042616,0 1.33175967,2.20560239 1.33175967,4.63203699 C1.33175967,7.11150394 2.96706823,9.08784335 5.77557424,9.08784335 C5.97079039,9.08784335 6.16030482,9.0777808 6.3462896,9.06445472 C6.16410596,9.41446832 6.03378086,9.80446016 6.03378086,10.2134893 C6.03378086,10.9023661 6.41199518,11.2956214 6.88007951,11.7511558 C6.52657266,11.7511558 6.18501228,11.7606745 5.81249969,11.7606745 C2.39363777,11.7606745 0,14.1174871 0,16.3796573 C0,18.6067446 2.88507202,20 6.30420545,20 C10.2020121,20 12.5994511,17.784607 12.5994511,15.5567038 C12.5991795,13.771009 12.214449,12.8727223 10.3138745,11.4449279 L10.3138745,11.4449279 Z M6.92378813,8.07571252 C5.31339551,8.02733747 3.78320557,6.55409723 3.5051145,4.44565957 C3.22729903,2.33639733 4.30686567,0.722704528 5.91670707,0.770255006 C7.52654847,0.8183552 8.90377454,2.5485879 9.18186562,4.65730042 C9.45968108,6.7662878 8.53335392,8.123263 6.92378813,8.07571252 L6.92378813,8.07571252 Z M6.33520514,18.8461538 C3.99661463,18.8461538 2.30769231,17.352266 2.30769231,15.5577028 C2.30769231,13.7991989 4.28920713,12.2819945 6.62806631,12.3080223 C7.17375534,12.3137159 7.68209785,12.4023731 8.14395873,12.5531175 C9.41347161,13.4437566 10.4376797,14.0003722 10.6948064,15.0154568 C10.7429001,15.220968 10.7692308,15.4327151 10.7692308,15.6493424 C10.7692308,17.4439056 9.62331067,18.8461538 6.33520514,18.8461538 L6.33520514,18.8461538 Z" id="Shape-2"></path>
                </g>
            </g>
        </g>
    </g>
</svg>