<?xml version="1.0" encoding="UTF-8" standalone="no"?>
<svg width="40px" height="40px" viewBox="0 0 40 40" version="1.1" xmlns="http://www.w3.org/2000/svg" xmlns:xlink="http://www.w3.org/1999/xlink" xmlns:sketch="http://www.bohemiancoding.com/sketch/ns">
    <!-- Generator: Sketch 3.3.2 (12043) - http://www.bohemiancoding.com/sketch -->
    <title>helicopter</title>
    <desc>Created with Sketch.</desc>
    <defs></defs>
    <g id="Style" stroke="none" stroke-width="1" fill="none" fill-rule="evenodd" sketch:type="MSPage">
        <g id="helicopter" sketch:type="MSArtboardGroup">
            <g id="Icon-/-Trip-/-Helicopter" sketch:type="MSLayerGroup">
                <rect id="Rectangle-139" sketch:type="MSShapeGroup" x="0" y="0" width="40" height="40"></rect>
                <g id="Helicoptero" transform="translate(20.500000, 19.666667) scale(-1, 1) translate(-20.500000, -19.666667) translate(6.000000, 10.000000)" fill="#0E777F" sketch:type="MSShapeGroup">
                    <path d="M28.2453696,0.499304348 L6.09819565,0.499304348 C5.68084783,0.499304348 5.34293478,0.83973913 5.34293478,1.25645652 C5.34293478,1.67317391 5.68084783,2.01297826 6.09819565,2.01297826 L16.4171522,2.01297826 L16.4171522,4.03415217 C13.4137609,4.26552174 10.9550652,5.69282609 10.015087,7.61313043 L5.9613913,8.0185 C5.4683913,6.98269565 4.41052174,6.26526087 3.18936957,6.26526087 C1.49728261,6.26526087 0.121043478,7.6415 0.121043478,9.33232609 C0.121043478,11.024413 1.49728261,12.4006522 3.18936957,12.4006522 C4.41115217,12.4006522 5.4683913,11.682587 5.9613913,10.6467826 L10.0138261,11.0521522 C10.8106957,12.6786739 12.7057826,13.9483696 15.084413,14.4401087 L17.1913261,16.7096739 L10.6455217,16.7096739 C10.0894783,16.7096739 9.63871739,17.1591739 9.63871739,17.7152174 C9.63871739,18.2712609 10.0894783,18.7207609 10.6455217,18.7207609 L22.7252826,18.7207609 C24.8076087,18.7207609 26.5003261,17.0318261 26.5003261,14.9507609 C26.5003261,14.3947174 26.0495652,13.9464783 25.4935217,13.9464783 C24.9374783,13.9464783 24.4867174,14.3947174 24.4867174,14.9507609 C24.4867174,15.9222609 23.6961522,16.7103043 22.7246522,16.7103043 L19.2484348,16.7103043 L17.3457826,14.6613913 C21.547,14.6342826 24.9437826,12.2594348 24.9437826,9.33232609 C24.9437826,6.54013043 21.8533913,4.25165217 17.9308261,4.02154348 L17.9308261,2.01423913 L28.2441087,2.01423913 C28.6608261,2.01423913 28.9987391,1.67443478 28.9987391,1.25771739 C28.9987391,0.841 28.662087,0.499304348 28.2453696,0.499304348 L28.2453696,0.499304348 Z M3.18936957,10.8901304 C2.33008696,10.8901304 1.63093478,10.1916087 1.63093478,9.33169565 C1.63093478,8.47304348 2.32945652,7.7738913 3.18936957,7.7738913 C3.59663043,7.7738913 3.96858696,7.9315 4.2466087,8.18934783 L3.89167391,8.22465217 C3.32302174,8.28202174 2.88991304,8.76052174 2.88991304,9.33169565 C2.88991304,9.9035 3.32302174,10.382 3.89167391,10.4387391 L4.24723913,10.4746739 C3.96858696,10.7325217 3.59726087,10.8901304 3.18936957,10.8901304 L3.18936957,10.8901304 Z M23.7238913,9.14382609 C23.7421739,9.26234783 23.7081304,9.3796087 23.6299565,9.4703913 C23.552413,9.56180435 23.4383043,9.60971739 23.3191522,9.60971739 L18.294587,9.60971739 C17.6553261,9.60971739 17.1377391,9.09969565 17.1377391,8.46043478 L17.1377391,5.4393913 C17.1377391,5.32717391 17.1831304,5.22 17.2644565,5.14308696 C17.3457826,5.06491304 17.4548478,5.02456522 17.5664348,5.0296087 C20.7873261,5.18406522 23.3777826,6.92973913 23.7238913,9.14382609 L23.7238913,9.14382609 Z" id="Shape"></path>
                </g>
            </g>
        </g>
    </g>
</svg>