<?xml version="1.0" encoding="UTF-8" standalone="no"?>
<svg width="40px" height="40px" viewBox="0 0 40 40" version="1.1" xmlns="http://www.w3.org/2000/svg" xmlns:xlink="http://www.w3.org/1999/xlink" xmlns:sketch="http://www.bohemiancoding.com/sketch/ns">
    <!-- Generator: Sketch 3.3.2 (12043) - http://www.bohemiancoding.com/sketch -->
    <title>home</title>
    <desc>Created with Sketch.</desc>
    <defs></defs>
    <g id="Style" stroke="none" stroke-width="1" fill="none" fill-rule="evenodd" sketch:type="MSPage">
        <g id="home" sketch:type="MSArtboardGroup">
            <g id="Icon-/-Category-/-Home" sketch:type="MSLayerGroup">
                <rect id="Rectangle-139" sketch:type="MSShapeGroup" x="0" y="0" width="40" height="40"></rect>
                <g id="Home" transform="translate(5.000000, 7.000000)" fill="#00B2BE" sketch:type="MSShapeGroup">
                    <path d="M29.0894564,12.571302 L16.2974564,0.421302041 C15.7854564,-0.162697959 14.7334564,-0.135697959 14.2644564,0.478302041 L1.40545639,12.692302 C1.01945639,13.059302 0.895456388,13.625302 1.09245639,14.120302 C1.29045639,14.615302 1.77045639,14.941302 2.30345639,14.941302 L4.07645639,14.941302 L4.07645639,25.271302 C4.07645639,25.547302 4.30045639,25.771302 4.57645639,25.771302 L12.3054564,25.771302 C12.5814564,25.771302 12.8054564,25.547302 12.8054564,25.271302 L12.8054564,17.887302 L17.7644564,17.887302 L17.7644564,25.271302 C17.7644564,25.547302 17.9874564,25.771302 18.2644564,25.771302 L26.0454564,25.771302 C26.3214564,25.771302 26.5454564,25.547302 26.5454564,25.271302 L26.5454564,14.941302 L28.3184564,14.941302 C28.3264564,14.942302 28.3344564,14.941302 28.3384564,14.941302 C29.0594564,14.941302 29.6424564,14.357302 29.6424564,13.637302 C29.6424564,13.196302 29.4244564,12.807302 29.0894564,12.571302" id="Fill-1"></path>
                </g>
            </g>
        </g>
    </g>
</svg>