<?xml version="1.0" encoding="utf-8"?>
<!-- Generator: Adobe Illustrator 18.1.1, SVG Export Plug-In . SVG Version: 6.00 Build 0)  -->
<svg version="1.1" id="Layer_1" xmlns:sketch="http://www.bohemiancoding.com/sketch/ns"
	 xmlns="http://www.w3.org/2000/svg" xmlns:xlink="http://www.w3.org/1999/xlink" x="0px" y="0px" width="40px" height="40px"  viewBox="-579 296 40 40"
	 enable-background="new -579 296 40 40" xml:space="preserve">
<title>info</title>
<desc>Created with Sketch.</desc>
<g id="Icon-_x2F_-info" sketch:type="MSLayerGroup">
	<rect id="Rectangle-139" x="-579" y="296" sketch:type="MSShapeGroup" fill="none" width="40" height="40">
	</rect>
	<g id="Path-Copy-_x2B_-Shape" transform="translate(11.000000, 13.000000)" sketch:type="MSShapeGroup">
		<path id="Path-Copy" fill="#00B2BE" d="M-564.3,296.3c-0.2-0.2-0.5-0.3-0.8-0.3H-577c-1.1,0-2,0.9-2,2v10c0,1.1,0.9,2,2,2h11.9
			c0,0,0.5-0.1,0.8-0.3l3-5.9c0.2-0.4,0.3-0.6,0.3-0.8c0-0.3-0.1-0.4-0.3-0.8L-564.3,296.3z"/>
		<path id="Shape" fill="#FFFFFF" d="M-572,303v3h-1v1h1h2h1v-1h-1v-3v-1h-2h-1v1H-572L-572,303z M-572,299v2h2v-2H-572L-572,299z"
			/>
	</g>
</g>
</svg>
