<?xml version="1.0" encoding="UTF-8" standalone="no"?>
<svg width="40px" height="40px" viewBox="0 0 40 40" version="1.1" xmlns="http://www.w3.org/2000/svg" xmlns:xlink="http://www.w3.org/1999/xlink" xmlns:sketch="http://www.bohemiancoding.com/sketch/ns">
    <!-- Generator: Sketch 3.3.2 (12043) - http://www.bohemiancoding.com/sketch -->
    <title>info</title>
    <desc>Created with Sketch.</desc>
    <defs></defs>
    <g id="Style" stroke="none" stroke-width="1" fill="none" fill-rule="evenodd" sketch:type="MSPage">
        <g id="info" sketch:type="MSArtboardGroup">
            <g id="Icon-/-info" sketch:type="MSLayerGroup">
                <rect id="Rectangle-139" sketch:type="MSShapeGroup" x="0" y="0" width="40" height="40"></rect>
                <g id="Path-Copy-+-Shape" transform="translate(11.000000, 13.000000)" sketch:type="MSShapeGroup">
                    <path d="M3.33210498,13.7157455 C3.54938812,13.9287105 3.83807888,14.0156962 4.12268919,13.9976991 L15.9597827,13.9976991 C17.0859826,13.9976991 18,13.1018464 18,11.9980278 L18,1.99967131 C18,0.895852746 17.0859826,-3.73034936e-14 15.9597827,-3.73034936e-14 L4.08392506,0.0239960557 C4.08392506,0.0239960557 3.53918704,0.109981922 3.33210498,0.311948724 L0.292181141,6.25397201 C0.0626566904,6.67390299 0.0320534304,6.81088047 0.00145017029,7.01484695 C-0.0128313511,7.28780208 0.0779583205,7.39478449 0.292181141,7.77472204 L3.33210498,13.7157455 Z" id="Path-Copy" fill="#D8E1E1" transform="translate(9.000000, 7.000000) scale(-1, -1) translate(-9.000000, -7.000000) "></path>
                    <path d="M7,7 L7,10 L6,10 L6,11 L7,11 L9,11 L10,11 L10,10 L9,10 L9,7 L9,6 L7,6 L6,6 L6,7 L7,7 L7,7 Z M7,3 L7,5 L9,5 L9,3 L7,3 L7,3 Z" id="Shape" fill="#FFFFFF"></path>
                </g>
            </g>
        </g>
    </g>
</svg>