<?xml version="1.0" encoding="UTF-8" standalone="no"?>
<svg width="42px" height="42px" viewBox="0 0 42 42" version="1.1" xmlns="http://www.w3.org/2000/svg" xmlns:xlink="http://www.w3.org/1999/xlink" xmlns:sketch="http://www.bohemiancoding.com/sketch/ns">
    <!-- Generator: Sketch 3.3.2 (12043) - http://www.bohemiancoding.com/sketch -->
    <title>inst</title>
    <desc>Created with Sketch.</desc>
    <defs></defs>
    <g id="Style" stroke="none" stroke-width="1" fill="none" fill-rule="evenodd" sketch:type="MSPage">
        <g id="inst" sketch:type="MSArtboardGroup">
            <g id="Icon-/-SMinstagram" sketch:type="MSLayerGroup" transform="translate(1.000000, 1.000000)">
                <path d="M25.998,10 L13.8324,10 C11.7192,10 10,11.7188 10,13.832 L10,17.88 L10,25.998 C10,28.1112 11.7192,29.83 13.8324,29.83 L25.9984,29.83 C28.1116,29.83 29.8304,28.1112 29.8304,25.998 L29.8304,17.8796 L29.8304,13.8316 C29.83,11.7184 28.1112,10 25.998,10 L25.998,10 Z M27.0972,12.2852 L27.5356,12.2836 L27.5356,12.72 L27.5356,15.6448 L24.1856,15.6556 L24.174,12.2948 L27.0972,12.2852 L27.0972,12.2852 Z M17.0848,17.8796 C17.72,17.0008 18.7504,16.4244 19.9152,16.4244 C21.08,16.4244 22.1104,17.0008 22.7448,17.8796 C23.158,18.4532 23.4056,19.1548 23.4056,19.9148 C23.4056,21.8392 21.8384,23.4048 19.9148,23.4048 C17.99,23.4048 16.4244,21.8392 16.4244,19.9148 C16.4248,19.1548 16.6716,18.4532 17.0848,17.8796 L17.0848,17.8796 Z M27.898,25.9976 C27.898,27.046 27.0456,27.8976 25.998,27.8976 L13.8324,27.8976 C12.7844,27.8976 11.932,27.046 11.932,25.9976 L11.932,17.8796 L14.892,17.8796 C14.6364,18.5084 14.4928,19.1952 14.4928,19.9148 C14.4928,22.904 16.9248,25.3376 19.9152,25.3376 C22.9052,25.3376 25.3372,22.904 25.3372,19.9148 C25.3372,19.1952 25.1928,18.5084 24.9372,17.8796 L27.898,17.8796 L27.898,25.9976 L27.898,25.9976 Z" id="Shape-Copy" fill="#FFFFFF" sketch:type="MSShapeGroup"></path>
                <ellipse id="Oval-10-Copy-3" stroke="#8D8D8D" sketch:type="MSShapeGroup" cx="20" cy="20" rx="20" ry="20"></ellipse>
            </g>
        </g>
    </g>
</svg>