<?xml version="1.0" encoding="UTF-8" standalone="no"?>
<svg width="40px" height="40px" viewBox="0 0 40 40" version="1.1" xmlns="http://www.w3.org/2000/svg" xmlns:xlink="http://www.w3.org/1999/xlink" xmlns:sketch="http://www.bohemiancoding.com/sketch/ns">
    <!-- Generator: Sketch 3.3.2 (12043) - http://www.bohemiancoding.com/sketch -->
<title>inst</title>
<desc>Created with Sketch.</desc>
<g id="Style" sketch:type="MSPage">
	<g id="inst" sketch:type="MSArtboardGroup">
		<g id="Icon-_x2F_-SMinstagram" transform="translate(1.000000, 1.000000)" sketch:type="MSLayerGroup">
			<path id="Shape-Copy" sketch:type="MSShapeGroup" fill="#FFFFFF" d="M27,9H14.8c-2.1,0-3.8,1.7-3.8,3.8v4V25
				c0,2.1,1.7,3.8,3.8,3.8H27c2.1,0,3.8-1.7,3.8-3.8v-8.1v-4C30.8,10.7,29.1,9,27,9L27,9z M28.1,11.3l0.4,0v0.4v2.9l-3.4,0l0-3.4
				L28.1,11.3L28.1,11.3z M18.1,16.9c0.6-0.9,1.7-1.5,2.8-1.5c1.2,0,2.2,0.6,2.8,1.5c0.4,0.6,0.7,1.3,0.7,2c0,1.9-1.6,3.5-3.5,3.5
				c-1.9,0-3.5-1.6-3.5-3.5C17.4,18.2,17.7,17.5,18.1,16.9L18.1,16.9z M28.9,25c0,1-0.9,1.9-1.9,1.9H14.8c-1,0-1.9-0.9-1.9-1.9v-8.1
				h3c-0.3,0.6-0.4,1.3-0.4,2c0,3,2.4,5.4,5.4,5.4c3,0,5.4-2.4,5.4-5.4c0-0.7-0.1-1.4-0.4-2h3V25L28.9,25z"/>
		</g>
	</g>
</g>
</svg>
