<?xml version="1.0" encoding="UTF-8" standalone="no"?>
<svg width="40px" height="40px" viewBox="0 0 40 40" version="1.1" xmlns="http://www.w3.org/2000/svg" xmlns:xlink="http://www.w3.org/1999/xlink" xmlns:sketch="http://www.bohemiancoding.com/sketch/ns">
    <!-- Generator: Sketch 3.3.2 (12043) - http://www.bohemiancoding.com/sketch -->
    <title>items</title>
    <desc>Created with Sketch.</desc>
    <defs></defs>
    <g id="Style" stroke="none" stroke-width="1" fill="none" fill-rule="evenodd" sketch:type="MSPage">
        <g id="items" sketch:type="MSArtboardGroup">
            <g id="Icon-Trophy" sketch:type="MSLayerGroup" transform="translate(5.000000, 5.000000)">
                <rect id="Rectangle-118" sketch:type="MSShapeGroup" x="0" y="0" width="30" height="30"></rect>
                <g id="Wish" transform="translate(3.000000, 1.500000)" sketch:type="MSShapeGroup">
                    <path d="M17.0313567,0.247761746 L17.6335914,1.20655129 C17.6758674,1.27275722 17.7460617,1.31423563 17.8250302,1.31742628 L18.9553171,1.36528599 C19.1531372,1.37406027 19.2552379,1.60538221 19.1284097,1.75693796 L18.4033351,2.62479405 C18.3530824,2.68541635 18.3355338,2.76677786 18.3570707,2.84175807 L18.6601822,3.93216181 C18.7128279,4.12200533 18.5245797,4.29190731 18.3411174,4.21772476 L17.2913944,3.7965593 C17.2180096,3.76704581 17.136648,3.77502243 17.0712398,3.81889383 L16.1284035,4.44426072 C15.9632875,4.55433805 15.7447281,4.42671216 15.7582884,4.22889202 L15.8340662,3.10099817 C15.8396499,3.02282731 15.8061481,2.94625177 15.7447281,2.8975944 L14.8577281,2.19485431 C14.7029817,2.07201439 14.7556274,1.82473922 14.9486616,1.77608184 L16.0454466,1.50009084 C16.1204268,1.48094696 16.1834421,1.42590829 16.2105626,1.35172574 L16.6046076,0.291633148 C16.6748018,0.106575599 16.9260653,0.0810504202 17.0313567,0.247761746" id="Fill-1" fill="#0E777F"></path>
                    <path d="M20.6091094,12.4093131 L21.3557208,12.9860226 C21.4075689,13.0243104 21.4753701,13.037073 21.5367901,13.0171314 L22.4341597,12.7299731 C22.5905014,12.6789228 22.7364735,12.8296809 22.6822325,12.9860226 L22.3647631,13.8722249 C22.3432262,13.9336449 22.3527982,14.0014461 22.3910859,14.0548895 L22.9414726,14.8190495 C23.037192,14.9522591 22.9382819,15.1389119 22.7739636,15.134126 L21.8327226,15.1070055 C21.7673144,15.1046125 21.7058944,15.1349236 21.6676066,15.1875693 L21.1108387,15.947741 C21.0135239,16.0817482 20.8061318,16.0434605 20.7590698,15.8847258 L20.4942461,14.9825702 C20.4758998,14.9187573 20.4280401,14.8700999 20.3658225,14.8493607 L19.4708459,14.5542258 C19.3153018,14.5039731 19.2857884,14.2957834 19.4213909,14.2024569 L20.1983135,13.6712141 C20.2533522,13.6353193 20.2852586,13.5731017 20.2860563,13.5076934 L20.2884493,12.5664525 C20.2908423,12.4013365 20.4790905,12.3088077 20.6091094,12.4093131" id="Fill-3" fill="#0E777F"></path>
                    <path d="M5.90612761,3.23388863 L7.91224715,3.60081308 C8.05104031,3.62474294 8.19461945,3.5816692 8.29273185,3.48116381 L9.73410681,2.03978885 C9.98297731,1.78613238 10.412917,1.93130684 10.4631697,2.2854687 L10.7327794,4.30435083 C10.752721,4.44394165 10.8380708,4.56518626 10.964899,4.62820154 L12.7827704,5.55269162 C13.0978468,5.71461698 13.0914655,6.17008189 12.7716031,6.32403063 L10.9353855,7.20544697 C10.8077597,7.26606927 10.7184215,7.38492088 10.69848,7.52451171 L10.3802129,9.53701254 C10.3275672,9.89276973 9.89044853,10.0235863 9.64317336,9.76594149 L8.23928851,8.29266006 C8.1411761,8.18976169 7.99998996,8.14429496 7.86039913,8.16423651 L5.84710063,8.48649189 C5.49612942,8.54392354 5.235294,8.17301079 5.40120766,7.85952968 L6.36956914,6.06718351 C6.43976338,5.94354593 6.4373704,5.79199018 6.37355745,5.6659596 L5.44667439,3.85446955 C5.28793968,3.53460715 5.55675172,3.17007569 5.90612761,3.23388863" id="Fill-5" fill="#0E777F"></path>
                    <path d="M19.7327981,8.56745457 L17.9787397,6.81259851 C17.8574951,6.69215157 17.6939744,6.62435031 17.5232747,6.62435031 C17.3533728,6.62435031 17.1898521,6.69215157 17.0686075,6.81259851 L0.188487494,23.6927185 C0.0680405555,23.8131654 0.000239298553,23.9766861 0.000239298553,24.1473858 C0.000239298553,24.3180854 0.0680405555,24.4816061 0.188487494,24.6028507 L1.94334356,26.3577067 C2.06458816,26.4781537 2.22810884,26.5459549 2.39880847,26.5459549 C2.56871044,26.5459549 2.73223112,26.4781537 2.85347572,26.3577067 L19.7327981,9.4783844 C19.9840615,9.22632325 19.9840615,8.81871805 19.7327981,8.56745457" id="Fill-7" fill="#0E777F"></path>
                    <path d="M18.8797785,8.75051796 L17.7965537,7.66649551 C17.7263594,7.59550361 17.6314377,7.55641818 17.53173,7.55641818 C17.4328199,7.55641818 17.3363028,7.59550361 17.2669062,7.66569785 L14.542891,10.3881177 C14.4734944,10.458312 14.4336113,10.5532337 14.4336113,10.6529415 C14.4336113,10.7518515 14.4734944,10.8467733 14.542891,10.9177652 L15.6285088,12.0025853 C15.7018937,12.0751725 15.7976131,12.111865 15.8933325,12.111865 C15.9890519,12.111865 16.0847714,12.0751725 16.1581563,12.0017876 L18.8797785,9.27936777 C19.0257506,9.13339565 19.0257506,8.89649008 18.8797785,8.75051796" id="Fill-9" fill="#FFFFFF"></path>
                </g>
            </g>
        </g>
    </g>
</svg>