<?xml version="1.0" encoding="UTF-8" standalone="no"?>
<svg width="40px" height="40px" viewBox="0 0 40 40" version="1.1" xmlns="http://www.w3.org/2000/svg" xmlns:xlink="http://www.w3.org/1999/xlink" xmlns:sketch="http://www.bohemiancoding.com/sketch/ns">
    <!-- Generator: Sketch 3.3.2 (12043) - http://www.bohemiancoding.com/sketch -->
    <title>location_profile</title>
    <desc>Created with Sketch.</desc>
    <defs></defs>
    <g id="Style" stroke="none" stroke-width="1" fill="none" fill-rule="evenodd" sketch:type="MSPage">
        <g id="location_profile" sketch:type="MSArtboardGroup" fill="#00B2BE">
            <g id="Icon-/-Location" sketch:type="MSLayerGroup" transform="translate(2.000000, 2.000000)">
                <g id="location" transform="translate(10.000000, 6.000000)" sketch:type="MSShapeGroup">
                    <path d="M8.5,23.6296216 L8.03838462,23.0951351 C7.71211538,22.7176216 0.0457692308,13.7831351 0.0457692308,8.43243243 C0.0457692308,3.80821622 3.83807692,0.0454054054 8.5,0.0454054054 C13.1619231,0.0454054054 16.9542308,3.80821622 16.9542308,8.43243243 C16.9542308,13.7831351 9.28788462,22.7176216 8.96161538,23.0951351 L8.5,23.6296216 L8.5,23.6296216 Z M8.5,1.25189189 C4.50826923,1.25189189 1.26192308,4.47308108 1.26192308,8.43243243 C1.26192308,12.6311351 6.83726923,19.7331892 8.5,21.7576216 C10.1620769,19.7331892 15.7380769,12.6285405 15.7380769,8.43243243 C15.7380769,4.47308108 12.4917308,1.25189189 8.5,1.25189189 L8.5,1.25189189 Z" id="Fill-55"></path>
                    <path d="M8.5,11.6302703 C6.72219231,11.6302703 5.27653846,10.1954595 5.27653846,8.43243243 C5.27653846,6.66940541 6.72219231,5.23459459 8.5,5.23459459 C10.2778077,5.23459459 11.7234615,6.66940541 11.7234615,8.43243243 C11.7234615,10.1954595 10.2778077,11.6302703 8.5,11.6302703 L8.5,11.6302703 Z M8.5,6.44108108 C7.39369231,6.44108108 6.49269231,7.33427027 6.49269231,8.43243243 C6.49269231,9.53059459 7.39369231,10.4237838 8.5,10.4237838 C9.60630769,10.4237838 10.5073077,9.53059459 10.5073077,8.43243243 C10.5073077,7.33427027 9.60630769,6.44108108 8.5,6.44108108 L8.5,6.44108108 Z" id="Fill-56"></path>
                </g>
            </g>
        </g>
    </g>
</svg>