<?xml version="1.0" encoding="UTF-8" standalone="no"?>
<svg width="40px" height="40px" viewBox="0 0 40 40" version="1.1" xmlns="http://www.w3.org/2000/svg" xmlns:xlink="http://www.w3.org/1999/xlink" xmlns:sketch="http://www.bohemiancoding.com/sketch/ns">
    <!-- Generator: Sketch 3.3.2 (12043) - http://www.bohemiancoding.com/sketch -->
    <title>location</title>
    <desc>Created with Sketch.</desc>
    <defs></defs>
    <g id="Style" stroke="none" stroke-width="1" fill="none" fill-rule="evenodd" sketch:type="MSPage">
        <g id="location" sketch:type="MSArtboardGroup">
            <g id="Icon-/-location-ok" sketch:type="MSLayerGroup">
                <path d="M19.96875,9 C15.5290179,9 12,12.4875 12,16.875 C12,22.725 19.96875,31.5 19.96875,31.5 C19.96875,31.5 27.9375,22.725 27.9375,16.875 C27.9375,12.4875 24.4084821,9 19.96875,9 L19.96875,9 Z M19.96875,19.6875 C18.375,19.6875 17.1227679,18.45 17.1227679,16.875 C17.1227679,15.3 18.375,14.0625 19.96875,14.0625 C21.5625,14.0625 22.8147321,15.3 22.8147321,16.875 C22.8147321,18.45 21.5625,19.6875 19.96875,19.6875 L19.96875,19.6875 Z" id="Shape" fill="#0E777F" sketch:type="MSShapeGroup"></path>
                <rect id="Rectangle-121" sketch:type="MSShapeGroup" x="0" y="0" width="40" height="40"></rect>
            </g>
        </g>
    </g>
</svg>