<?xml version="1.0" encoding="UTF-8" standalone="no"?>
<svg width="40px" height="40px" viewBox="0 0 40 40" version="1.1" xmlns="http://www.w3.org/2000/svg" xmlns:xlink="http://www.w3.org/1999/xlink" xmlns:sketch="http://www.bohemiancoding.com/sketch/ns">
    <!-- Generator: Sketch 3.3.2 (12043) - http://www.bohemiancoding.com/sketch -->
    <title>localproduct</title>
    <desc>Created with Sketch.</desc>
    <defs></defs>
    <g id="Style" stroke="none" stroke-width="1" fill="none" fill-rule="evenodd" sketch:type="MSPage">
        <g id="localproduct" sketch:type="MSArtboardGroup">
            <g id="Icon-/-Volunteer-/-local-product" sketch:type="MSLayerGroup">
                <rect id="Rectangle-139" sketch:type="MSShapeGroup" x="0" y="0" width="40" height="40"></rect>
                <g id="product" transform="translate(6.000000, 5.000000)" sketch:type="MSShapeGroup">
                    <path d="M0.015627907,12.0902189 L27.3488372,12.0902189 L27.3488372,16.7205155 L0.015627907,16.7205155 L0.015627907,12.0902189 Z" id="Fill-1" fill="#95C006"></path>
                    <path d="M1.04186047,17.7494703 L26.3069767,17.7494703 L26.3069767,29.3252119 L1.04186047,29.3252119 L1.04186047,17.7494703 Z" id="Fill-2" fill="#95C006"></path>
                    <path d="M10.9395349,11.8329802 L16.4093023,11.8329802 L16.4093023,30.3541667 L10.9395349,30.3541667 L10.9395349,11.8329802 Z" id="Fill-3" fill="#D1E983"></path>
                    <path d="M21.9264744,5.03493309 C21.4034605,4.19890731 20.5527814,3.73870727 19.5304558,3.73870727 C18.5792372,3.73870727 17.5472744,4.14180032 16.6049116,4.89319456 C16.8237023,3.6232071 16.8007814,2.40029431 16.2681302,1.52928407 C15.9120744,0.947667373 15.1733953,0.251064972 13.6744186,0.251064972 C12.1803907,0.251064972 11.4549953,0.933776483 11.1093581,1.51179184 C10.5746233,2.40672528 10.5933767,3.67825618 10.8647814,4.9924887 C9.89064186,4.17729926 8.81049302,3.73870727 7.8183814,3.73870727 C6.79605581,3.73870727 5.94537674,4.19890731 5.42262326,5.03493309 C4.76677209,6.08369527 4.74202791,7.25696098 5.3528186,8.33890696 C6.37644651,10.1508964 9.09544186,11.4664151 11.8183442,11.4664151 C12.2731163,11.4664151 12.7239814,11.4298872 13.1586977,11.3581176 L13.6744186,11.2729716 L14.1901395,11.3581176 C14.6248558,11.4298872 15.0757209,11.4664151 15.530493,11.4664151 L15.530493,11.4664151 C18.2533953,11.4664151 20.9726512,10.1508964 21.9957581,8.33890696 C22.6068093,7.25696098 22.5820651,6.08369527 21.9264744,5.03493309 L21.9264744,5.03493309 Z M12.4554419,2.30897458 C12.5859349,2.09057892 12.854214,1.8006709 13.6744186,1.8006709 C14.5094698,1.8006709 14.7910326,2.10292638 14.9301209,2.33032539 C15.6417116,3.49304431 14.7616,6.37334605 13.7788651,8.59125812 C12.7302326,6.36331374 11.7641674,3.46449082 12.4554419,2.30897458 L12.4554419,2.30897458 Z M6.71791628,7.58699823 C6.38113488,6.99071893 6.39233488,6.42119244 6.75229767,5.84600671 C6.98619535,5.4717244 7.34485581,5.28213948 7.8183814,5.28213948 C9.85417674,5.28213948 11.4664558,7.76475018 12.0756837,9.91809534 C9.84636279,9.99912553 7.49983256,8.97171416 6.71791628,7.58699823 L6.71791628,7.58699823 Z M20.6311814,7.58699823 C19.8492651,8.97171416 17.5032558,10.0022124 15.2731535,9.91809534 C15.8823814,7.76475018 17.4946605,5.28213948 19.5304558,5.28213948 C20.0039814,5.28213948 20.3626419,5.4717244 20.5968,5.84600671 C20.9565023,6.42119244 20.9677023,6.99071893 20.6311814,7.58699823 L20.6311814,7.58699823 Z" id="Fill-4" fill="#95C006"></path>
                </g>
            </g>
        </g>
    </g>
</svg>