<?xml version="1.0" encoding="UTF-8" standalone="no"?>
<svg width="40px" height="40px" viewBox="0 0 40 40" version="1.1" xmlns="http://www.w3.org/2000/svg" xmlns:xlink="http://www.w3.org/1999/xlink" xmlns:sketch="http://www.bohemiancoding.com/sketch/ns">
    <!-- Generator: Sketch 3.3.2 (12043) - http://www.bohemiancoding.com/sketch -->
    <title>money</title>
    <desc>Created with Sketch.</desc>
    <defs></defs>
    <g id="Style" stroke="none" stroke-width="1" fill="none" fill-rule="evenodd" sketch:type="MSPage">
        <g id="money" sketch:type="MSArtboardGroup">
            <g id="Icon-/-Reward-/-Money" sketch:type="MSLayerGroup">
                <rect id="Rectangle-139" sketch:type="MSShapeGroup" x="0" y="0" width="40" height="39.8333333"></rect>
                <g id="Billetes" transform="translate(2.000000, 8.962500)" fill="#95C006" sketch:type="MSShapeGroup">
                    <path d="M35.1405128,0.445173248 L7.88858974,0.445173248 C6.97782051,0.445173248 6.23687179,1.17075274 6.23687179,2.06166609 L6.23687179,13.2977557 C6.23687179,14.1886691 6.97782051,14.9151933 7.88858974,14.9151933 L35.1405128,14.9151933 C36.0512821,14.9151933 36.7922308,14.1886691 36.7922308,13.2977557 L36.7922308,2.06166609 C36.7922308,1.17075274 36.0512821,0.445173248 35.1405128,0.445173248 L35.1405128,0.445173248 Z M35.0608205,10.7053207 C35.0608205,10.9944188 34.7202308,11.0218169 34.7202308,11.0218169 L32.6197692,11.0218169 C32.4034615,11.0218169 32.2260513,11.1928194 32.2260513,11.4063363 L32.2260513,12.9585851 C32.2260513,12.9585851 32.2013846,13.2212298 31.9461795,13.2212298 L10.6246923,13.2212298 C10.4482308,13.2212298 10.4728974,12.9963757 10.4728974,12.9963757 L10.4728974,11.4063363 C10.4728974,11.1928194 10.2954872,11.0218169 10.0791795,11.0218169 L8.21779487,11.0218169 C8.21779487,11.0218169 7.96733333,11.0454361 7.96733333,10.8016867 L7.96733333,4.24690744 C7.96733333,3.99654472 8.2244359,4.03244579 8.2244359,4.03244579 L10.0801282,4.03244579 C10.2954872,4.03244579 10.4728974,3.8595538 10.4728974,3.64792645 L10.4728974,2.32147645 C10.4728974,2.32147645 10.4377949,2.13913682 10.6635897,2.13913682 L32.0448462,2.13913682 C32.2545128,2.13913682 32.227,2.30541545 32.227,2.30541545 L32.227,3.64792645 C32.227,3.8595538 32.4034615,4.03244579 32.6207179,4.03244579 L34.8777179,4.03244579 C34.8777179,4.03244579 35.0608205,4.01544002 35.0608205,4.15998906 L35.0608205,10.7053207 Z" id="Fill-1"></path>
                    <path d="M31.4447821,17.9145386 C31.942859,17.844626 32.3574487,17.5621413 32.6069615,17.1738429 C32.6439615,17.1162123 32.6107564,17.0066195 32.3906538,16.9943376 L25.9792179,16.9943376 C25.6642436,17.0056748 25.5238333,17.036852 25.3710897,17.0585816 C19.7565769,17.8484051 11.4828077,19.0133003 6.93275641,19.6557405 C6.75819231,19.6793596 6.75060256,19.4535608 6.75060256,19.4535608 L6.51911538,17.8795823 C6.48685897,17.6688998 6.28667949,17.5224612 6.07321795,17.5517489 L4.22985897,17.812504 C4.22985897,17.812504 3.98603846,17.872969 3.9509359,17.6301644 C3.71280769,16.008003 3.24319231,12.8184765 2.99747436,11.1424634 C2.96047436,10.8939902 3.22042308,10.8939902 3.22042308,10.8939902 C3.22042308,10.8939902 3.53824359,10.8486415 3.64355128,10.8354148 C3.91014103,10.7995138 3.87598718,10.4423926 3.87598718,10.4423926 L3.87598718,7.43048191 C3.87598718,7.22641268 3.53255128,7.22641268 3.53255128,7.22641268 L2.36657692,7.39080178 C1.46434615,7.51740029 0.835346154,8.33840104 0.965320513,9.22175627 L2.59996154,20.3416398 C2.7299359,21.2249951 3.56955128,21.8390923 4.47083333,21.7134385 L31.4447821,17.9145386 Z" id="Fill-3"></path>
                    <path d="M17.1788154,7.7629447 C17.1788154,5.58242718 18.9519692,3.81666147 21.1416103,3.81666147 C23.3293538,3.81666147 25.1044051,5.58242718 25.1044051,7.7629447 C25.1044051,9.94251746 23.3293538,11.7092279 21.1416103,11.7092279 C18.9519692,11.7092279 17.1788154,9.94251746 17.1788154,7.7629447" id="Fill-6"></path>
                </g>
            </g>
        </g>
    </g>
</svg>