<?xml version="1.0" encoding="UTF-8" standalone="no"?>
<svg width="40px" height="40px" viewBox="0 0 40 40" version="1.1" xmlns="http://www.w3.org/2000/svg" xmlns:xlink="http://www.w3.org/1999/xlink" xmlns:sketch="http://www.bohemiancoding.com/sketch/ns">
<!-- Generator: Adobe Illustrator 18.1.1, SVG Export Plug-In . SVG Version: 6.00 Build 0)  -->
<title>questionmark</title>
<desc>Created with Sketch.</desc>
<circle id="Oval-1" sketch:type="MSShapeGroup" fill="#FFFFFF" cx="20" cy="20" r="13.5">
</circle>
<path fill="#0E777F" d="M24.8,19.2h-4v-4c0-0.4-0.4-0.8-0.8-0.8s-0.8,0.4-0.8,0.8v4h-4c-0.4,0-0.8,0.4-0.8,0.8
	c0,0.4,0.4,0.8,0.8,0.8h4v4c0,0.4,0.4,0.8,0.8,0.8s0.8-0.4,0.8-0.8v-4h4c0.4,0,0.8-0.4,0.8-0.8C25.6,19.6,25.3,19.2,24.8,19.2
	L24.8,19.2z"/>
</svg>
