<?xml version="1.0" encoding="UTF-8" standalone="no"?>
<svg width="40px" height="40px" viewBox="0 0 40 40" version="1.1" xmlns="http://www.w3.org/2000/svg" xmlns:xlink="http://www.w3.org/1999/xlink" xmlns:sketch="http://www.bohemiancoding.com/sketch/ns">
    <!-- Generator: Sketch 3.3.2 (12043) - http://www.bohemiancoding.com/sketch -->
    <title>moto</title>
    <desc>Created with Sketch.</desc>
    <defs></defs>
    <g id="Style" stroke="none" stroke-width="1" fill="none" fill-rule="evenodd" sketch:type="MSPage">
        <g id="moto" sketch:type="MSArtboardGroup">
            <g id="Icon-/-Trip-/-Moto" sketch:type="MSLayerGroup">
                <rect id="Rectangle-139" sketch:type="MSShapeGroup" x="0" y="0" width="40" height="40"></rect>
                <g id="Moto" transform="translate(10.000000, 7.000000)" fill="#0E777F" sketch:type="MSShapeGroup">
                    <path d="M9.62608696,17.3351739 C8.31423913,17.3351739 7.26006522,18.3987391 7.26006522,19.710587 L7.26006522,24.462 C7.26006522,25.7738478 8.31423913,26.837413 9.62608696,26.837413 C10.9379348,26.837413 11.9915217,25.7738478 11.9915217,24.462 L11.9915217,19.710587 C11.9921087,18.3987391 10.9379348,17.3351739 9.62608696,17.3351739 L9.62608696,17.3351739 Z" id="Shape"></path>
                    <path d="M18.1287391,2.943 L13.6168043,2.943 C13.1020435,1.242 11.5207826,0 9.65426087,0 C7.78773913,0 6.2058913,1.242 5.69171739,2.943 L1.17978261,2.943 C0.530608696,2.943 0.00352173913,3.47595652 0.00352173913,4.12571739 C0.00352173913,4.77547826 0.530608696,5.30902174 1.17978261,5.30902174 L5.68232609,5.30902174 C5.68291304,5.31195652 5.6835,5.3148913 5.68467391,5.31723913 C5.98167391,6.31741304 6.64669565,7.16028261 7.52184783,7.68795652 C4.32469565,8.60947826 1.98215217,11.555413 1.98215217,15.0478043 L1.98215217,21.1339565 C1.98215217,22.193413 2.83558696,23.0538913 3.89445652,23.0538913 L5.4851087,23.0538913 L5.4851087,19.7111739 C5.4851087,17.427913 7.34282609,15.5707826 9.6255,15.5707826 C11.9081739,15.5707826 13.7658913,17.427913 13.7658913,19.7111739 L13.7658913,23.0538913 L15.375913,23.0538913 C16.4353696,23.0538913 17.3152174,22.1928261 17.3152174,21.1339565 L17.3152174,15.0472174 C17.3152174,11.5577609 14.9761957,8.61358696 11.7825652,7.68971739 C12.6594783,7.16145652 13.3262609,6.318 13.6232609,5.31665217 C13.6238478,5.31430435 13.6244348,5.31136957 13.6256087,5.30843478 L18.1281522,5.30843478 C18.777913,5.30843478 19.304413,4.77547826 19.304413,4.12513043 C19.305,3.47595652 18.7785,2.943 18.1287391,2.943 L18.1287391,2.943 Z M9.65426087,6.5163913 C8.34241304,6.5163913 7.27884783,5.45223913 7.27884783,4.1403913 C7.27884783,2.82913043 8.34241304,1.76497826 9.65426087,1.76497826 C10.9661087,1.76497826 12.0296739,2.82913043 12.0296739,4.1403913 C12.0296739,5.45223913 10.9661087,6.5163913 9.65426087,6.5163913 L9.65426087,6.5163913 Z" id="Shape"></path>
                </g>
            </g>
        </g>
    </g>
</svg>