<?xml version="1.0" encoding="UTF-8" standalone="no"?>
<svg width="40px" height="40px" viewBox="0 0 40 40" version="1.1" xmlns="http://www.w3.org/2000/svg" xmlns:xlink="http://www.w3.org/1999/xlink" xmlns:sketch="http://www.bohemiancoding.com/sketch/ns">
    <!-- Generator: Sketch 3.3.2 (12043) - http://www.bohemiancoding.com/sketch -->
    <title>myown</title>
    <desc>Created with Sketch.</desc>
    <defs></defs>
    <g id="Style" stroke="none" stroke-width="1" fill="none" fill-rule="evenodd" sketch:type="MSPage">
        <g id="myown" sketch:type="MSArtboardGroup">
            <g id="Icon-/-Volunteer-/-my-own" sketch:type="MSLayerGroup">
                <rect id="Rectangle-139" sketch:type="MSShapeGroup" x="0" y="0" width="40" height="40"></rect>
                <path d="M18.608375,26.456 C17.624375,26.456 16.832375,27.248 16.832375,28.232 C16.832375,29.192 17.624375,29.984 18.608375,29.984 C19.568375,29.984 20.360375,29.192 20.360375,28.232 C20.360375,27.248 19.568375,26.456 18.608375,26.456 L18.608375,26.456 Z M16.616375,16.424 C16.976375,16.472 17.000375,16.16 17.024375,16.016 C17.192375,14.888 18.008375,14.096 19.208375,14.096 C20.528375,14.096 21.272375,15.032 21.272375,16.232 C21.272375,19.376 17.456375,18.992 17.240375,24.176 C17.240375,24.344 17.288375,24.584 17.648375,24.584 L19.784375,24.584 C20.120375,24.584 20.168375,24.32 20.192375,24.176 C20.456375,20.408 24.560375,20.36 24.560375,16.04 C24.560375,13.424 23.024375,11 19.304375,11 C16.400375,11 14.192375,12.8 14.000375,15.632 C14.000375,15.776 13.976375,16.064 14.312375,16.112 L16.616375,16.424 Z" id="3-copy-2" fill="#95C006" sketch:type="MSShapeGroup"></path>
            </g>
        </g>
    </g>
</svg>