<?xml version="1.0" encoding="UTF-8" standalone="no"?>
<svg width="40px" height="40px" viewBox="0 0 40 40" version="1.1" xmlns="http://www.w3.org/2000/svg" xmlns:xlink="http://www.w3.org/1999/xlink" xmlns:sketch="http://www.bohemiancoding.com/sketch/ns">
    <!-- Generator: Sketch 3.3.2 (12043) - http://www.bohemiancoding.com/sketch -->
    <title>negociate</title>
    <desc>Created with Sketch.</desc>
    <defs></defs>
    <g id="Style" stroke="none" stroke-width="1" fill="none" fill-rule="evenodd" sketch:type="MSPage">
        <g id="negociate" sketch:type="MSArtboardGroup">
            <g id="Negociate-+-Fill-18" sketch:type="MSLayerGroup">
                <circle id="Reward-Bg" sketch:type="MSShapeGroup" cx="20" cy="20" r="20"></circle>
                <g id="Negociate-Copy" transform="translate(5.000000, 10.000000)" fill="#FFFFFF" sketch:type="MSShapeGroup">
                    <g id="Group">
                        <path d="M0.5,2.5 C1.7,2.9 2.8,3.3 4,3.6 C4.7,3.8 5.3,3.6 5.9,3.2 C7.1,2.4 8.4,1.7 9.7,1.3 C10.9,0.9 12,1 13,1.7 C13.1,1.8 13.2,1.9 13.4,2 C12.8,2.3 12.3,2.6 11.7,2.9 C11.1,3.3 10.4,3.7 9.8,4.1 C8.6,4.9 8.2,6.1 8.6,7.4 C9,8.5 10.3,9.4 11.4,9.2 C11.8,9.1 12.1,9 12.5,8.9 C13.4,8.5 14.2,8.1 15.1,7.7 C15.9,7.3 16.6,7.4 17.3,8.1 C19,9.8 20.7,11.5 22.4,13.2 C22.9,13.7 22.9,14.5 22.5,15 C22,15.5 21.3,15.5 20.7,14.9 C20.2,14.4 19.6,13.8 19,13.3 C18.9,13.2 18.8,13 18.6,13.1 C18.6,13.1 18.7,13.4 18.8,13.5 C19.3,14.1 19.8,14.6 20.4,15.2 C21,15.9 20.9,16.8 20.1,17.2 C19.6,17.4 19.1,17.3 18.6,16.9 C17.9,16.2 17.2,15.6 16.6,14.9 C16.5,14.8 16.4,14.8 16.3,14.7 C16.2,15 16.4,15.1 16.5,15.3 C17,15.8 17.5,16.4 18,16.9 C18.2,17.1 18.4,17.4 18.4,17.8 C18.4,18.3 18.1,18.8 17.7,19 C17.2,19.2 16.7,19.1 16.3,18.7 C15.7,18.1 15.1,17.5 14.5,16.9 C14.4,16.8 14.3,16.7 14.2,16.6 L14,16.6 L14,16.8 C14,16.9 14.1,17 14.2,17.1 C14.7,17.6 15.1,18 15.6,18.5 C16,18.9 16,19.6 15.7,20 C15.3,20.6 14.5,20.7 14,20.2 L13.3,19.5 L13.3,19.3 C13.4,18 12.8,16.9 11.6,16.4 C11.5,16.4 11.4,16.2 11.4,16.1 C11.1,15.3 10.6,14.7 9.8,14.4 C9.7,14.4 9.6,14.2 9.6,14.1 C9.3,13.3 8.8,12.8 8.1,12.5 C8,12.5 7.9,12.4 7.9,12.3 C7.4,10.9 6,10.3 4.5,10.6 C3.5,10.8 2.8,11.5 2.4,12.4 C2.4,12.4 2.4,12.4 2.4,12.5 C2.4,12.5 2.4,12.5 2.4,12.6 C1.9,12.4 1.4,12.3 0.9,12.1 C0.5,8.8 0.5,5.7 0.5,2.5 L0.5,2.5 Z" id="Shape"></path>
                        <path d="M28.1,3.4 L28.1,11.7 C27.4,11.8 26.8,12 26.1,12.1 C25.6,12.2 25.1,12.2 24.6,12.2 C24.1,12.2 23.8,11.9 23.5,11.6 C21.6,9.8 19.8,7.9 17.9,6.1 C17.3,5.5 16.7,5.4 15.9,5.7 C14.8,6.2 13.8,6.8 12.7,7.3 C12.4,7.4 12.1,7.6 11.9,7.7 C11.1,8.1 10.2,7.8 9.8,7 C9.4,6.2 9.7,5.3 10.4,4.9 C12.6,3.7 14.8,2.4 17,1.2 C17.4,1 17.7,0.8 18.2,0.8 C18.7,0.8 19.2,1 19.5,1.4 C20.5,2.2 21.4,3 22.4,3.8 C22.8,4.2 23.3,4.3 23.9,4.2 C25.2,3.9 26.5,3.6 27.8,3.3 C27.9,3.5 28,3.5 28.1,3.4 L28.1,3.4 Z" id="Shape"></path>
                        <path d="M5,14.9 C4.7,15 4.6,15 4.4,15.1 C3.6,15.3 2.9,14.8 2.9,14 C2.9,13.2 3.5,12.2 4.3,11.9 C4.9,11.7 5.4,11.7 5.9,12.1 C6.4,12.5 6.5,13 6.4,13.5 L6.4,13.6 C6.9,13.5 7.4,13.6 7.8,14 C8.2,14.4 8.2,14.9 8.1,15.5 C8.7,15.4 9.2,15.5 9.6,16 C10,16.5 10,17 9.8,17.6 C10,17.6 10.2,17.5 10.4,17.5 C11.4,17.5 12,18.4 11.8,19.4 C11.5,20.4 10.1,21.2 9.1,20.8 C8.5,20.6 8.2,20 8.4,19.4 C8.5,19.2 8.6,18.9 8.7,18.6 C8.4,18.7 8.2,18.7 8,18.8 C7.3,19 6.6,18.6 6.6,18 C6.6,17.7 6.7,17.5 6.7,17.2 C6.7,17.1 6.8,17 6.8,16.8 C6.2,16.9 5.6,17.3 5,16.7 C4.5,16.1 4.8,15.6 5,14.9 L5,14.9 Z" id="Shape"></path>
                    </g>
                </g>
            </g>
        </g>
    </g>
</svg>