<?xml version="1.0" encoding="UTF-8" standalone="no"?>
<svg width="60px" height="60px" viewBox="0 0 60 60" version="1.1" xmlns="http://www.w3.org/2000/svg" xmlns:xlink="http://www.w3.org/1999/xlink" xmlns:sketch="http://www.bohemiancoding.com/sketch/ns">
    <!-- Generator: Sketch 3.3.2 (12043) - http://www.bohemiancoding.com/sketch -->
    <title>new</title>
    <desc>Created with Sketch.</desc>
    <defs></defs>
    <g id="Style" stroke="none" stroke-width="1" fill="none" fill-rule="evenodd" sketch:type="MSPage">
        <g id="new" sketch:type="MSArtboardGroup">
            <g id="Icon-/-more-Copy" sketch:type="MSLayerGroup">
                <rect id="Rectangle-30-Copy-2" sketch:type="MSShapeGroup" x="0" y="0" width="60" height="60"></rect>
                <path d="M30,56.25 C15.5025,56.25 3.75,44.49375 3.75,30 C3.75,15.50625 15.5025,3.75 30,3.75 C44.4975,3.75 56.25,15.50625 56.25,30 C56.25,44.49375 44.4975,56.25 30,56.25 L30,56.25 Z M30,0 C13.430625,0 0,13.425 0,30 C0,46.575 13.430625,60 30,60 C46.569375,60 60,46.575 60,30 C60,13.425 46.569375,0 30,0 L30,0 Z M41.25,28.125 L31.875,28.125 L31.875,18.75 C31.875,17.71875 31.036875,16.875 30,16.875 C28.963125,16.875 28.125,17.71875 28.125,18.75 L28.125,28.125 L18.75,28.125 C17.713125,28.125 16.875,28.96875 16.875,30 C16.875,31.03125 17.713125,31.875 18.75,31.875 L28.125,31.875 L28.125,41.25 C28.125,42.28125 28.963125,43.125 30,43.125 C31.036875,43.125 31.875,42.28125 31.875,41.25 L31.875,31.875 L41.25,31.875 C42.286875,31.875 43.125,31.03125 43.125,30 C43.125,28.96875 42.286875,28.125 41.25,28.125 L41.25,28.125 Z" id="Fill-25" fill="#D3D3D3" sketch:type="MSShapeGroup"></path>
            </g>
        </g>
    </g>
</svg>