<?xml version="1.0" encoding="UTF-8" standalone="no"?>
<svg width="40px" height="40px" viewBox="0 0 40 40" version="1.1" xmlns="http://www.w3.org/2000/svg" xmlns:xlink="http://www.w3.org/1999/xlink" xmlns:sketch="http://www.bohemiancoding.com/sketch/ns">
    <!-- Generator: Sketch 3.3.2 (12043) - http://www.bohemiancoding.com/sketch -->
    <title>ok</title>
    <desc>Created with Sketch.</desc>
    <defs></defs>
    <g id="Style" stroke="none" stroke-width="1" fill="none" fill-rule="evenodd" sketch:type="MSPage">
        <g id="ok" sketch:type="MSArtboardGroup">
            <g id="LETS-DO-IT" sketch:type="MSLayerGroup">
                <circle id="Reward-Bg" sketch:type="MSShapeGroup" cx="20" cy="20" r="20"></circle>
                <g id="Group-Copy" transform="translate(8.000000, 8.000000)" fill="#FFFFFF" sketch:type="MSShapeGroup">
                    <path d="M14.5,0.7 L15,0.7 C15.3,0.8 15.5,0.9 15.8,1 C16.8,1.5 17.2,2.4 17.3,3.5 C17.4,4.6 17.1,5.7 16.6,6.7 C16.3,7.4 16,8.1 15.7,8.8 C15.6,9.1 15.5,9.5 15.6,9.8 C15.6,9.9 15.7,10 15.8,10 L16.7,10 C18.2,10 19.7,9.9 21.2,10.1 C21.5,10.1 21.8,10.2 22.1,10.4 C22.7,10.9 23.1,11.5 23.3,12.2 C23.4,12.5 23.4,12.7 23.2,13 C23.1,13.2 23,13.3 22.8,13.5 C22.5,13.8 22.5,14.1 22.7,14.5 C22.8,14.7 23,14.9 23.1,15.2 C23.4,15.7 23.4,15.9 23,16.3 C22.9,16.5 22.7,16.7 22.5,16.8 C22.2,17.1 22.2,17.4 22.3,17.7 C22.4,18 22.5,18.3 22.7,18.6 C22.8,18.9 22.8,19.1 22.6,19.3 C22.4,19.5 22.3,19.7 22,19.9 C21.5,20.3 21.3,20.7 21.4,21.4 L21.4,21.7 C21.4,21.8 21.4,22 21.3,22.1 C20.7,22.9 20,23.6 18.9,23.8 C18.5,23.8 18.2,23.9 17.8,23.9 L15.2,23.9 L14.9,23.9 C13.7,23.8 12.6,23.8 11.4,23.7 C10.4,23.6 9.4,23.4 8.5,23.2 C7.9,23.1 7.2,23 6.6,22.9 L6.6,13.5 C7,13.5 7.3,13.5 7.6,13.3 C7.9,13.1 8.1,12.9 8.4,12.6 C8.6,12.4 8.7,12.3 8.8,12.1 C9.5,11.1 10.1,10 10.5,8.8 C10.8,8 11.3,7.4 12,6.9 C12.7,6.4 13.1,5.8 13.4,5 C13.8,3.9 13.9,2.8 14,1.6 C14.2,1 14.2,0.7 14.5,0.7 L14.5,0.7 Z" id="Shape"></path>
                    <path d="M5.1,17.9 L5.1,22.1 C5.1,22.8 4.7,23.2 4,23.2 L1.5,23.2 C0.8,23.2 0.4,22.8 0.4,22.1 L0.4,13.7 C0.4,13 0.8,12.6 1.5,12.6 L4,12.6 C4.7,12.6 5.1,13 5.1,13.7 L5.1,17.9 L5.1,17.9 Z" id="Shape"></path>
                </g>
            </g>
        </g>
    </g>
</svg>