<?xml version="1.0" encoding="UTF-8" standalone="no"?>
<svg width="40px" height="40px" viewBox="0 0 40 40" version="1.1" xmlns="http://www.w3.org/2000/svg" xmlns:xlink="http://www.w3.org/1999/xlink" xmlns:sketch="http://www.bohemiancoding.com/sketch/ns">
    <!-- Generator: Sketch 3.3.2 (12043) - http://www.bohemiancoding.com/sketch -->
    <title>other</title>
    <desc>Created with Sketch.</desc>
    <defs></defs>
    <g id="Style" stroke="none" stroke-width="1" fill="none" fill-rule="evenodd" sketch:type="MSPage">
        <g id="other" sketch:type="MSArtboardGroup">
            <g id="Icon-/-Category-/-Other" sketch:type="MSLayerGroup">
                <rect id="Rectangle-139" sketch:type="MSShapeGroup" x="0" y="0" width="40" height="40"></rect>
                <g id="Other" transform="translate(9.000000, 6.000000)" fill="#00B2BE" sketch:type="MSShapeGroup">
                    <path d="M22.4395,9.125 C22.2735,9.04 22.0705,9.056 21.9185,9.166 L12.3915,16.095 C12.2615,16.189 12.1855,16.339 12.1855,16.5 L12.1855,26.5 C12.1855,26.688 12.2925,26.861 12.4605,26.946 C12.5315,26.982 12.6085,27 12.6855,27 C12.7905,27 12.8945,26.967 12.9815,26.903 L22.5085,19.895 C22.6375,19.8 22.7125,19.651 22.7125,19.492 L22.7125,9.57 C22.7125,9.382 22.6075,9.21 22.4395,9.125" id="Fill-4"></path>
                    <path d="M0.791,9.0649 C0.638,8.9549 0.437,8.9409 0.271,9.0269 C0.104,9.1129 0,9.2839 0,9.4719 L0,19.3929 C0,19.5529 0.077,19.7039 0.207,19.7979 L9.892,26.8069 C9.979,26.8699 10.081,26.9019 10.185,26.9019 C10.263,26.9019 10.34,26.8839 10.412,26.8469 C10.579,26.7619 10.685,26.5899 10.685,26.4019 L10.685,16.4009 C10.685,16.2399 10.606,16.0879 10.476,15.9939 L0.791,9.0649 Z" id="Fill-6"></path>
                    <path d="M21.4375,7.5142 C21.4355,7.3522 21.3545,7.2012 21.2205,7.1092 L11.6145,0.4942 C11.4445,0.3762 11.2175,0.3762 11.0475,0.4942 L1.4405,7.1092 C1.3055,7.2012 1.2255,7.3532 1.2235,7.5162 C1.2225,7.6792 1.2995,7.8322 1.4325,7.9272 L11.1185,14.8572 C11.2055,14.9192 11.3075,14.9502 11.4095,14.9502 C11.5125,14.9502 11.6155,14.9182 11.7035,14.8542 L21.2315,7.9252 C21.3635,7.8292 21.4395,7.6762 21.4375,7.5142" id="Fill-1"></path>
                </g>
            </g>
        </g>
    </g>
</svg>