<?xml version="1.0" encoding="UTF-8" standalone="no"?>
<svg width="60px" height="60px" viewBox="0 0 60 60" version="1.1" xmlns="http://www.w3.org/2000/svg" xmlns:xlink="http://www.w3.org/1999/xlink" xmlns:sketch="http://www.bohemiancoding.com/sketch/ns">
    <!-- Generator: Sketch 3.3.2 (12043) - http://www.bohemiancoding.com/sketch -->
    <title>personalinfo</title>
    <desc>Created with Sketch.</desc>
    <defs></defs>
    <g id="Style" stroke="none" stroke-width="1" fill="none" fill-rule="evenodd" sketch:type="MSPage">
        <g id="personalinfo" sketch:type="MSArtboardGroup" fill="#0E777F">
            <g id="Icon-/-personalinfo" sketch:type="MSLayerGroup" transform="translate(13.000000, 10.000000)">
                <g id="Avatar-Copy-12" sketch:type="MSShapeGroup">
                    <path d="M16.5633803,1.77635684e-15 C21.256338,1.77635684e-15 24.8450704,3.58873239 24.8450704,8.28169014 C24.8450704,12.9746479 21.256338,16.5633803 16.5633803,16.5633803 C11.8704225,16.5633803 8.28169014,12.9746479 8.28169014,8.28169014 C8.28169014,3.58873239 11.8704225,1.77635684e-15 16.5633803,1.77635684e-15 L16.5633803,1.77635684e-15 Z M16.5633803,39.2 C9.66197183,39.2 3.58873239,35.6112676 3.55271368e-15,30.3661972 C3.55271368e-15,24.8450704 11.0422535,21.8084507 16.5633803,21.8084507 C22.084507,21.8084507 33.1267606,24.8450704 33.1267606,30.3661972 C29.5380282,35.6112676 23.4647887,39.2 16.5633803,39.2 L16.5633803,39.2 Z" id="Shape"></path>
                </g>
            </g>
        </g>
    </g>
</svg>