<?xml version="1.0" encoding="UTF-8" standalone="no"?>
<svg width="40px" height="40px" viewBox="0 0 40 40" version="1.1" xmlns="http://www.w3.org/2000/svg" xmlns:xlink="http://www.w3.org/1999/xlink" xmlns:sketch="http://www.bohemiancoding.com/sketch/ns">
    <!-- Generator: Sketch 3.3.2 (12043) - http://www.bohemiancoding.com/sketch -->
    <title>plane</title>
    <desc>Created with Sketch.</desc>
    <defs></defs>
    <g id="Style" stroke="none" stroke-width="1" fill="none" fill-rule="evenodd" sketch:type="MSPage">
        <g id="plane" sketch:type="MSArtboardGroup">
            <g id="Icon-/-Trip-/-Plane" sketch:type="MSLayerGroup">
                <rect id="Rectangle-139" sketch:type="MSShapeGroup" x="0" y="0" width="40" height="40"></rect>
                <g id="Avion" transform="translate(5.000000, 8.000000)" fill="#0E777F" sketch:type="MSShapeGroup">
                    <path d="M23.7331781,4.45781573 C24.2494824,4.31030021 24.6059783,3.8451087 24.6059783,3.30680642 C24.6059783,2.64751553 24.071558,2.12085921 23.4122671,2.12085921 L18.2945135,2.12085921 C18.7797619,3.12111801 19.2844203,4.3128882 19.7735507,5.5945911 L23.7331781,4.45781573 L23.7331781,4.45781573 Z" id="Shape"></path>
                    <path d="M5.85597826,4.45716874 L9.81495859,5.59588509 C10.304089,4.31418219 10.8093944,3.12047101 11.2939959,2.12021222 L6.17624224,2.12021222 C5.51695135,2.12021222 4.98253106,2.64492754 4.98253106,3.30421843 C4.98317805,3.84187371 5.33967391,4.30965321 5.85597826,4.45716874 L5.85597826,4.45716874 Z" id="Shape"></path>
                    <path d="M29.389881,11.2719979 C29.2520704,11.1367754 29.067676,11.0610766 28.8755176,11.0630176 L20.297619,11.1206004 C19.1174948,7.18103002 17.3149586,2.47735507 16.0973085,0.815217391 C15.7932195,0.39984472 15.308618,0.154632505 14.7942547,0.154632505 C14.2798913,0.154632505 13.7952899,0.39984472 13.4918478,0.815217391 C12.2735507,2.47735507 10.4703675,7.18232402 9.29024327,11.1225414 L0.711050725,11.0617236 C0.518245342,11.0604296 0.342261905,11.1361284 0.205098344,11.2713509 C0.0679347826,11.4072205 0,11.5916149 0,11.7837733 L0,12.2224379 C0,12.9328416 0.388845756,13.5837215 1.02096273,13.9085145 L8.17805383,17.5860507 C8.6555383,21.0604296 11.4356884,24.8900104 14.7968427,24.8900104 C18.1638199,24.8900104 20.947205,21.0481366 21.4182195,17.5705228 L28.5934265,13.9136905 C29.2145445,13.5856625 29.6008023,12.9399586 29.6008023,12.2373188 L29.6008023,11.7863613 C29.6008023,11.5929089 29.5270445,11.4078675 29.389881,11.2719979 L29.389881,11.2719979 Z M18.1961698,17.9218427 C18.0376553,18.1618789 17.7697981,18.2964545 17.4818841,18.2964545 L12.1124482,18.2964545 C11.8251812,18.2964545 11.556677,18.1618789 11.3981625,17.9211957 C11.240295,17.6811594 11.2131211,17.3822464 11.3263458,17.1182712 L12.0865683,15.3493789 C12.2211439,15.0349379 12.5304089,14.8356625 12.8726708,14.8356625 L16.7223085,14.8356625 C17.0639234,14.8356625 17.3738354,15.0375259 17.508411,15.3519669 L18.2686335,17.1195652 C18.3818582,17.3841874 18.3546843,17.6818064 18.1961698,17.9218427 L18.1961698,17.9218427 Z" id="Shape"></path>
                </g>
            </g>
        </g>
    </g>
</svg>