<?xml version="1.0" encoding="UTF-8" standalone="no"?>
<svg width="40px" height="40px" viewBox="0 0 40 40" version="1.1" xmlns="http://www.w3.org/2000/svg" xmlns:xlink="http://www.w3.org/1999/xlink" xmlns:sketch="http://www.bohemiancoding.com/sketch/ns">
    <!-- Generator: Sketch 3.3 (11970) - http://www.bohemiancoding.com/sketch -->
    <title>rocket</title>
    <desc>Created with Sketch.</desc>
    <defs></defs>
    <g id="Style" stroke="none" stroke-width="1" fill="none" fill-rule="evenodd" sketch:type="MSPage">
        <g id="train" sketch:type="MSArtboardGroup">
            <g id="Icon-/-Trip-/-Train" sketch:type="MSLayerGroup">
                <rect id="Rectangle-139" sketch:type="MSShapeGroup" x="0" y="0" width="40" height="40"></rect>
                <g id="Rocket" transform="translate(11.000000, 4.000000)" fill="#0E777F" sketch:type="MSShapeGroup">                        <path d="M16.7898862,22.8475825 L13.9812641,21.1451999 L15.3116287,12.4291408 C15.7694247,9.43126952 15.2975116,6.28727997 14.0296655,3.87947476 C12.7624916,1.47306782 10.8378662,0.0699130431 8.80299327,0.0699130431 C6.76744813,0.0699130431 4.84215048,1.47306782 3.57564881,3.87947476 C2.30847491,6.28658084 1.83656186,9.43057039 2.29503009,12.4291408 L3.62405015,21.1277216 L0.816772571,22.8294051 C0.494096988,23.0244625 0.292424748,23.3838155 0.292424748,23.7732312 L0.292424748,28.526619 C0.292424748,28.918132 0.497458192,29.2795825 0.823494979,29.4739407 C1.14885953,29.6689981 1.55220401,29.6669007 1.87756855,29.4704451 L5.03978927,27.5527303 L12.5352742,27.5527303 L15.7264013,29.4886225 C16.0517658,29.6857773 16.4577993,29.6871755 16.783836,29.4928173 C17.1098728,29.298459 17.3155785,28.9363094 17.3155785,28.5454955 L17.3155785,23.7914086 C17.3155785,23.4026921 17.1125618,23.043339 16.7898862,22.8475825 L16.7898862,22.8475825 Z M8.80299327,6.07684171 C9.63926082,6.07684171 10.3175518,6.78226432 10.3175518,7.65198257 C10.3175518,8.52170083 9.63926082,9.22782256 8.80299327,9.22782256 C7.96672571,9.22782256 7.28776251,8.52170083 7.28776251,7.65198257 C7.28776251,6.78226432 7.96672571,6.07684171 8.80299327,6.07684171 L8.80299327,6.07684171 Z M8.80299327,16.9287443 C7.50556853,16.9287443 6.45485616,15.8353043 6.45485616,14.4859825 C6.45485616,13.1373599 7.50556853,12.0446191 8.80299327,12.0446191 C10.0997458,12.0446191 11.1511304,13.1373599 11.1511304,14.4859825 C11.1511304,15.8346051 10.0990735,16.9287443 8.80299327,16.9287443 L8.80299327,16.9287443 Z" id="Shape"></path>
                        <path d="M5.42632773,30.4988659 C5.42632773,31.3168485 6.0501672,31.9971025 6.83668893,31.9971025 L10.7679531,31.9971025 C11.5544749,31.9971025 12.1810033,31.3168485 12.1810033,30.4988659 L12.1810033,29.1656242 L5.42632773,29.1656242 L5.42632773,30.4988659 L5.42632773,30.4988659 Z" id="Shape"></path>
                </g>
            </g>
        </g>
    </g>
</svg>