<?xml version="1.0" encoding="UTF-8" standalone="no"?>
<svg width="40px" height="40px" viewBox="0 0 40 40" version="1.1" xmlns="http://www.w3.org/2000/svg" xmlns:xlink="http://www.w3.org/1999/xlink" xmlns:sketch="http://www.bohemiancoding.com/sketch/ns">
    <!-- Generator: Sketch 3.3.2 (12043) - http://www.bohemiancoding.com/sketch -->
    <title>settings</title>
    <desc>Created with Sketch.</desc>
    <defs></defs>
    <g id="Style" stroke="none" stroke-width="1" fill="none" fill-rule="evenodd" sketch:type="MSPage">
        <g id="settings" sketch:type="MSArtboardGroup">
            <g id="Settings" sketch:type="MSLayerGroup">
                <rect id="Rectangle-118" sketch:type="MSShapeGroup" x="0" y="0" width="40" height="40"></rect>
                <path d="M19.9998835,25.3341793 C17.0781677,25.3341793 14.7111405,22.9468846 14.7111405,20.0006345 C14.7111405,17.0543843 17.0781677,14.6670896 19.9998835,14.6670896 C22.9215994,14.6670896 25.2896933,17.0543843 25.2896933,20.0006345 C25.2896933,22.9468846 22.9215994,25.3341793 19.9998835,25.3341793 L19.9998835,25.3341793 Z M34.9423427,23.7725174 L32.4643778,22.3303268 C32.6030499,21.5729635 32.6947869,20.7995995 32.6947869,20.0006345 C32.6947869,19.2027362 32.6030499,18.4283055 32.4643778,17.6709421 L34.9423427,16.2287516 C35.9546495,15.6399282 36.3002632,14.3342764 35.7157067,13.3145027 L33.6004228,9.61942282 C33.016933,8.59964905 31.7219483,8.24870181 30.7107082,8.83859186 L28.2071423,10.2946496 C27.0380293,9.29194317 25.7089099,8.47164398 24.231518,7.94362304 L24.231518,6.13341793 C24.231518,4.95577123 23.2842804,4 22.1151674,4 L17.8845996,4 C16.7154866,4 15.7682491,4.95577123 15.7682491,6.13341793 L15.7682491,7.94362304 C14.2908571,8.47164398 12.9617378,9.29194317 11.7926247,10.2946496 L9.28905881,8.83859186 C8.27781871,8.24870181 6.98283403,8.59964905 6.39934422,9.61942282 L4.28406035,13.3145027 C3.69950383,14.3342764 4.04618425,15.6399282 5.05742435,16.2287516 L7.53538927,17.6709421 C7.39671711,18.4283055 7.30498013,19.2027362 7.30498013,20.0006345 C7.30498013,20.7995995 7.39671711,21.5729635 7.53538927,22.3303268 L5.05742435,23.7725174 C4.04618425,24.3613407 3.69950383,25.6669925 4.28406035,26.6867663 L6.39934422,30.3818461 C6.98283403,31.4016199 8.27781871,31.7525671 9.28905881,31.1626771 L11.7926247,29.7066193 C12.9617378,30.7093258 14.2908571,31.5306917 15.7682491,32.0576459 L15.7682491,33.867851 C15.7682491,35.0454977 16.7154866,36.0012689 17.8845996,36.0012689 L22.1151674,36.0012689 C23.2842804,36.0012689 24.231518,35.0454977 24.231518,33.867851 L24.231518,32.0576459 C25.7089099,31.5306917 27.0380293,30.7093258 28.2071423,29.7066193 L30.7107082,31.1626771 C31.7219483,31.7525671 33.016933,31.4016199 33.6004228,30.3818461 L35.7157067,26.6867663 C36.3002632,25.6669925 35.9546495,24.3613407 34.9423427,23.7725174 Z" id="Fill-171" fill="#0E777F" sketch:type="MSShapeGroup"></path>
            </g>
        </g>
    </g>
</svg>