<?xml version="1.0" encoding="UTF-8" standalone="no"?>
<svg width="40px" height="40px" viewBox="0 0 40 40" version="1.1" xmlns="http://www.w3.org/2000/svg" xmlns:xlink="http://www.w3.org/1999/xlink" xmlns:sketch="http://www.bohemiancoding.com/sketch/ns">
    <!-- Generator: Sketch 3.3.2 (12043) - http://www.bohemiancoding.com/sketch -->
    <title>tour</title>
    <desc>Created with Sketch.</desc>
    <defs></defs>
    <g id="Style" stroke="none" stroke-width="1" fill="none" fill-rule="evenodd" sketch:type="MSPage">
        <g id="tour" sketch:type="MSArtboardGroup">
            <g id="Icon-/-Volunteer-/-city-tips" sketch:type="MSLayerGroup">
                <rect id="Rectangle-139" sketch:type="MSShapeGroup" x="0" y="0" width="40" height="40"></rect>
                <g id="sun" transform="translate(5.000000, 5.000000)" fill="#95C006" sketch:type="MSShapeGroup">
                    <path d="M4.62483871,15 C4.62483871,14.3503226 4.68774194,13.8709677 4.80354839,12.9032258 L0.678709677,12.9032258 C0.663225806,12.9248387 0.650967742,12.9441935 0.636451613,12.9651613 C0.265806452,13.1009677 0,13.4535484 0,13.8709677 L0,16.1290323 C0,16.5516129 0.272903226,16.9074194 0.650645161,17.0390323 C0.660645161,17.0590323 0.668064516,17.0764516 0.678709677,17.0967742 L4.80354839,17.0967742 C4.68774194,16.1290323 4.62483871,15.65 4.62483871,15" id="Fill-1"></path>
                    <path d="M14.9490323,6.42612903 C10.2606452,6.42612903 6.44612903,10.2403226 6.44612903,14.9290323 C6.44612903,19.6177419 10.2606452,23.4319355 14.9490323,23.4319355 C19.6374194,23.4319355 23.4516129,19.6177419 23.4516129,14.9290323 C23.4516129,10.2403226 19.6374194,6.42612903 14.9490323,6.42612903" id="Fill-2"></path>
                    <path d="M17.0967742,4.78322581 L17.0967742,0.658709677 C17.0906452,0.658064516 17.0858065,0.738387097 17.08,0.738064516 C17,0.273548387 16.5977419,0 16.1103226,0 L13.8896774,0 C13.4022581,0 13,0.273548387 12.92,0.738064516 C12.9141935,0.738387097 12.9093548,0.658064516 12.9032258,0.658709677 L12.9032258,4.78322581 C13.8709677,4.66774194 14.3503226,4.60451613 15,4.60451613 C15.65,4.60451613 16.1290323,4.66774194 17.0967742,4.78322581" id="Fill-3"></path>
                    <path d="M6.40387097,20.716129 L4.53032258,22.6035484 C4.44193548,22.6467742 4.35741935,22.7016129 4.28387097,22.7751613 L3.46064516,23.5983871 C3.10258065,23.9564516 3.10258065,24.5367742 3.46064516,24.8948387 L4.92,26.3541935 C5.27774194,26.7119355 5.85806452,26.7119355 6.21612903,26.3541935 L7.03967742,25.5303226 C7.1316129,25.4383871 7.19903226,25.3316129 7.24354839,25.2180645 L9.05935484,23.4012903 C8.01870968,22.6758065 7.11677419,21.7658065 6.40387097,20.716129" id="Fill-4"></path>
                    <path d="M23.4480645,9.07645161 L25.3806452,7.16032258 C25.433871,7.12580645 25.4841935,7.08612903 25.5306452,7.03967742 L26.3541935,6.21580645 C26.7119355,5.85806452 26.7119355,5.27774194 26.3541935,4.91967742 L24.8948387,3.46064516 C24.5435484,3.10967742 23.98,3.10483871 23.6209677,3.44225806 C23.6193548,3.44129032 23.6180645,3.43967742 23.6164516,3.43870968 L20.6977419,6.35806452 C21.776129,7.08354839 22.7093548,8.00774194 23.4480645,9.07645161" id="Fill-5"></path>
                    <path d="M12.9032258,25.0741935 L12.9032258,29.1993548 C12.9093548,29.1996774 12.9141935,29.2003226 12.9203226,29.2006452 C13.0003226,29.6545161 13.3941935,30 13.8709677,30 L16.1290323,30 C16.6058065,30 16.9996774,29.6545161 17.0796774,29.2006452 C17.0858065,29.2003226 17.0906452,29.1996774 17.0967742,29.1993548 L17.0967742,25.0741935 C16.1290323,25.19 15.65,25.2532258 15,25.2532258 C14.3503226,25.2532258 13.8709677,25.19 12.9032258,25.0741935" id="Fill-6"></path>
                    <path d="M29.2209677,12.9222581 C29.2206452,12.9154839 29.22,12.91 29.2193548,12.9032258 L25.0945161,12.9032258 C25.21,13.8709677 25.2732258,14.3503226 25.2732258,15 C25.2732258,15.65 25.21,16.1290323 25.0945161,17.0967742 L29.2193548,17.0967742 C29.22,17.09 29.2206452,17.0845161 29.2209677,17.0777419 C29.6648387,16.9896774 30,16.5987097 30,16.1290323 L30,13.8709677 C30,13.4012903 29.6648387,13.0103226 29.2209677,12.9222581" id="Fill-7"></path>
                    <path d="M25.4832258,22.7058065 C25.4590323,22.6816129 25.4312903,22.6629032 25.4051613,22.6419355 L23.493871,20.7167742 C22.7809677,21.7658065 21.8787097,22.6758065 20.8383871,23.4012903 L22.7551613,25.3190323 C22.7725806,25.34 22.7870968,25.3625806 22.8067742,25.3822581 L23.6303226,26.2058065 C23.6490323,26.2245161 23.6706452,26.2383871 23.6906452,26.2551613 L23.75,26.3141935 C23.7522581,26.3125806 23.7545161,26.3103226 23.7567742,26.3087097 C24.0964516,26.5409677 24.563871,26.5074194 24.8658065,26.2058065 L26.3067742,24.7645161 C26.6477419,24.4235484 26.6477419,23.8703226 26.3067742,23.5293548 L25.4832258,22.7058065" id="Fill-8"></path>
                    <path d="M4.3283871,6.98419355 C4.34709677,7.00322581 4.36903226,7.01677419 4.38870968,7.03354839 L6.44967742,9.07709677 C7.1883871,8.0083871 8.12129032,7.08354839 9.19967742,6.3583871 L7.15741935,4.31516129 C7.13419355,4.28548387 7.11258065,4.25483871 7.08516129,4.22709677 L6.23709677,3.37903226 C5.88580645,3.02774194 5.31580645,3.02774194 4.96451613,3.37903226 L3.48,4.86354839 C3.12870968,5.21516129 3.12870968,5.78451613 3.48,6.13612903 L4.3283871,6.98419355" id="Fill-9"></path>
                </g>
            </g>
        </g>
    </g>
</svg>