<?xml version="1.0" encoding="UTF-8" standalone="no"?>
<svg width="40px" height="40px" viewBox="0 0 40 40" version="1.1" xmlns="http://www.w3.org/2000/svg" xmlns:xlink="http://www.w3.org/1999/xlink" xmlns:sketch="http://www.bohemiancoding.com/sketch/ns">
    <!-- Generator: Sketch 3.3.2 (12043) - http://www.bohemiancoding.com/sketch -->
    <title>train</title>
    <desc>Created with Sketch.</desc>
    <defs></defs>
    <g id="Style" stroke="none" stroke-width="1" fill="none" fill-rule="evenodd" sketch:type="MSPage">
        <g id="train" sketch:type="MSArtboardGroup">
            <g id="Icon-/-Trip-/-Train" sketch:type="MSLayerGroup">
                <rect id="Rectangle-139" sketch:type="MSShapeGroup" x="0" y="0" width="40" height="40"></rect>
                <g id="Tren" transform="translate(10.000000, 7.000000)" fill="#0E777F" sketch:type="MSShapeGroup">
                    <path d="M0.467217391,25.2643696 C0.240065217,25.8489783 0.530021739,26.5063696 1.11404348,26.7341087 C1.24904348,26.7863478 1.38815217,26.811587 1.52491304,26.811587 C1.97921739,26.811587 2.40886957,26.5357174 2.58319565,26.0872826 L3.726,23.1460435 L1.50495652,22.5937174 L0.467217391,25.2643696 L0.467217391,25.2643696 Z" id="Shape"></path>
                    <path d="M4.428,4.01830435 C4.428,3.78058696 4.60056522,3.56693478 4.82947826,3.5006087 L8.6763913,2.38363043 L8.6763913,5.07130435 L9.15065217,4.93571739 C9.48521739,4.84180435 9.84267391,4.84121739 10.1778261,4.93454348 L10.6720435,5.07130435 L10.6720435,2.38363043 L14.5189565,3.5006087 C14.7478696,3.56693478 14.9198478,3.78058696 14.9198478,4.01830435 L14.9198478,6.25167391 L16.5938478,6.72769565 L16.5938478,4.01830435 C16.5938478,3.02752174 15.9253043,2.14297826 14.9744348,1.86534783 L10.1619783,0.461934783 C10.0087826,0.417326087 9.7875,0.376826087 9.6618913,0.376826087 C9.52571739,0.376826087 9.31323913,0.41673913 9.16063043,0.461934783 L4.35521739,1.86534783 C3.40376087,2.14297826 2.754,3.02752174 2.754,4.01830435 L2.754,6.7271087 L4.42741304,6.25108696 L4.42741304,4.01830435 L4.428,4.01830435 Z" id="Shape"></path>
                    <path d="M1.94047826,18.3987391 L9.66306522,19.6759565 L17.3921087,18.3987391 C17.9638043,18.3042391 18.3952174,17.8094348 18.3952174,17.2301087 L18.3952174,9.45704348 C18.3952174,8.8331087 17.9673261,8.28547826 17.3662826,8.11819565 L10.2071739,6.12078261 C9.8508913,6.02158696 9.47347826,6.02158696 9.11719565,6.12078261 L1.96806522,8.11819565 C1.36702174,8.28547826 0.952630435,8.83369565 0.952630435,9.45704348 L0.952630435,17.2295217 C0.952630435,17.8094348 1.36936957,18.3042391 1.94047826,18.3987391 L1.94047826,18.3987391 Z M9.65426087,8.5725 C12.0355435,8.5725 13.9654565,10.502413 13.9654565,12.8831087 C13.9654565,15.2649783 12.0355435,17.1948913 9.65426087,17.1948913 C7.27356522,17.1948913 5.34365217,15.2649783 5.34365217,12.8831087 C5.34365217,10.503 7.27356522,8.5725 9.65426087,8.5725 L9.65426087,8.5725 Z" id="Shape"></path>
                    <path d="M18.8418913,25.2643696 L17.8041522,22.5931304 L15.5825217,23.1454565 L16.7253261,26.0866957 C16.8996522,26.5357174 17.3293043,26.811 17.7836087,26.811 C17.9203696,26.811 18.0594783,26.7857609 18.1944783,26.7335217 C18.779087,26.5063696 19.0684565,25.8489783 18.8418913,25.2643696 L18.8418913,25.2643696 Z" id="Shape"></path>
                    <path d="M18.7550217,19.9952609 L18.5542826,19.0983913 C18.2678478,19.3085217 17.9297609,19.4564348 17.5570435,19.5180652 L9.94480435,20.7835435 C9.84795652,20.7993913 9.7511087,20.8123043 9.65484783,20.8123043 C9.55858696,20.8123043 9.46173913,20.7999783 9.3648913,20.7835435 L1.75265217,19.5180652 C1.37993478,19.4570217 1.04184783,19.3091087 0.755413043,19.0983913 L0.554673913,19.9952609 C0.413804348,20.6221304 0.800021739,21.2478261 1.42454348,21.4027826 L9.17530435,23.3133261 C9.49343478,23.3919783 9.82565217,23.3919783 10.1443696,23.3133261 L17.8851522,21.4027826 C18.509087,21.2478261 18.8947174,20.6227174 18.7550217,19.9952609 L18.7550217,19.9952609 Z" id="Shape"></path>
                    <circle id="Oval" cx="9.65426087" cy="12.8836957" r="2.46345652"></circle>
                </g>
            </g>
        </g>
    </g>
</svg>