<?xml version="1.0" encoding="UTF-8" standalone="no"?>
<svg width="102px" height="102px" viewBox="0 0 102 102" version="1.1" xmlns="http://www.w3.org/2000/svg" xmlns:xlink="http://www.w3.org/1999/xlink" xmlns:sketch="http://www.bohemiancoding.com/sketch/ns">
    <!-- Generator: Sketch 3.3.2 (12043) - http://www.bohemiancoding.com/sketch -->
    <title>trip_board</title>
    <desc>Created with Sketch.</desc>
    <defs>
        <filter x="-50%" y="-50%" width="200%" height="200%" filterUnits="objectBoundingBox" id="filter-1">
            <feOffset dx="1" dy="1" in="SourceAlpha" result="shadowOffsetInner1"></feOffset>
            <feGaussianBlur stdDeviation="1" in="shadowOffsetInner1" result="shadowBlurInner1"></feGaussianBlur>
            <feComposite in="shadowBlurInner1" in2="SourceAlpha" operator="arithmetic" k2="-1" k3="1" result="shadowInnerInner1"></feComposite>
            <feColorMatrix values="0 0 0 0 0   0 0 0 0 0   0 0 0 0 0  0 0 0 0.175 0" in="shadowInnerInner1" type="matrix" result="shadowMatrixInner1"></feColorMatrix>
            <feMerge>
                <feMergeNode in="SourceGraphic"></feMergeNode>
                <feMergeNode in="shadowMatrixInner1"></feMergeNode>
            </feMerge>
        </filter>
    </defs>
    <g id="Style" stroke="none" stroke-width="1" fill="none" fill-rule="evenodd" sketch:type="MSPage">
        <g id="trip_board" sketch:type="MSArtboardGroup">
            <g id="Icon-/-trip-Copy" sketch:type="MSLayerGroup">
                <rect id="Rectangle-118" sketch:type="MSShapeGroup" x="0" y="0" width="102" height="102"></rect>
                <g id="Trip" transform="translate(21.934191, 14.275000)" sketch:type="MSShapeGroup">
                    <path d="M33.3386366,55.0441424 C25.7297179,55.0441424 18.580806,52.0902618 13.2140591,46.7206218 C7.84441912,41.3567681 4.8905385,34.2078562 4.8905385,26.5960443 C4.8905385,19.8434906 7.24843537,13.3831424 11.5591916,8.27099055 L13.396326,10.1110181 C13.4281504,10.1399493 13.4802266,10.1312699 13.512051,10.1544149 C9.81174412,14.6156137 7.58403787,20.3440012 7.58403787,26.5960443 C7.58403787,40.8215399 19.113141,52.3506431 33.3386366,52.3506431 C39.5791072,52.3506431 45.3046016,50.1316162 49.7600141,46.4370956 C49.7860522,46.4689199 49.7947316,46.5065306 49.8236629,46.5354618 L51.6636904,48.3754893 C46.5486454,52.6862456 40.0882972,55.0441424 33.3386366,55.0441424 L33.3386366,55.0441424 Z M53.2838404,43.0781774 C53.2549091,43.0492462 53.2144054,43.0405668 53.182581,43.0145287 C56.8771016,38.5562231 59.0961285,32.8336218 59.0961285,26.5960443 C59.0961285,12.3676556 47.5670254,0.838552426 33.3386366,0.838552426 C27.098166,0.838552426 21.3784579,3.0575793 16.9201522,6.7492068 C16.8941141,6.71738243 16.8825416,6.6797718 16.8565035,6.65084055 L12.3027247,2.09995493 C11.8513972,1.64862743 11.1165435,1.64862743 10.665216,2.09995493 L9.75677475,3.0112893 C3.467121,9.30094305 0.00115725,17.6765399 0.00115725,26.5960443 C0.00115725,35.5155487 3.467121,43.8911456 9.75677475,50.1779062 C15.4388722,55.8628968 22.9118141,59.2709981 30.9084116,59.8438368 L30.9084116,70.2214762 L20.4758029,70.2214762 C19.6744072,70.2214762 19.0292404,70.8695362 19.0292404,71.6680387 L19.0292404,75.5332537 C19.0292404,76.3317562 19.6744072,76.9798162 20.4758029,76.9798162 L46.2332947,76.9798162 C47.0317972,76.9798162 47.6798572,76.3317562 47.6798572,75.5332537 L47.6798572,71.6680387 C47.6798572,70.8695362 47.0317972,70.2214762 46.2332947,70.2214762 L35.800686,70.2214762 L35.800686,59.8380506 C43.7828179,59.2594256 51.2470804,55.8542174 56.9204985,50.1779062 L57.834726,49.2694649 C58.0517104,49.0524806 58.1761147,48.7573818 58.1761147,48.4507106 C58.1761147,48.1411462 58.0517104,47.8489406 57.8376191,47.6290631 L53.2838404,43.0781774 Z" id="Fill-1" fill="#D3D3D3" filter="url(#filter-1)"></path>
                    <path d="M19.1727394,11.1499392 C21.0359119,14.8589255 22.9569469,20.5959924 26.7932306,22.0656999 C28.6592962,22.7831949 30.3835987,22.5112411 32.1512981,23.3791786 C32.3422444,23.4717586 32.6170912,23.6858499 32.7357094,23.8623305 C33.6325781,25.1758092 33.1176019,27.1026305 34.0086844,27.5742099 C34.7146069,27.947423 35.1167512,28.7083149 34.8129731,29.4489549 C33.583395,32.460698 34.648065,35.9208755 37.5093656,38.2816655 C39.5229806,39.9538917 37.8478612,43.8133205 36.15249,46.8482086 C35.5478269,47.9331305 36.6269625,49.1858536 37.7986781,48.7692436 C39.647385,48.1125042 41.1778481,47.157773 42.9542269,45.6330961 C45.5233219,43.4169624 46.081695,41.0098824 48.6334312,39.1351374 C48.6594694,39.1119924 48.6797212,39.0830611 48.6941869,39.057023 C49.34514,37.1388811 51.3703275,32.969888 49.3277812,31.9081111 C47.4183187,30.9186624 46.70661,28.0515755 44.8434375,26.095823 C44.6322394,25.8701592 44.3255681,25.7573274 44.0188969,25.7197167 C41.7391144,25.424618 40.7091619,23.688743 39.1786987,24.8430999 C38.027235,25.7081442 36.7340081,25.1815955 36.3347569,23.8015749 C36.2045662,23.3502474 35.9731162,22.9509961 35.1456825,22.693508 C34.5178744,22.4996686 34.20831,21.7879599 34.4339737,21.1688311 C34.43976,21.1630449 34.4426531,21.1514724 34.4455462,21.142793 C34.7493244,20.3182524 33.0423806,20.4455499 32.1744431,20.5902061 C31.9343137,20.6278167 32.7588544,19.6470474 32.4869006,19.8090624 C31.4193375,20.4368705 30.0942862,19.3490555 30.1521487,18.1136911 C30.2100112,16.860968 30.4443544,16.9188305 32.5968394,16.6729149 C34.9084462,15.5937792 36.0309787,16.3807092 35.9586506,19.0279186 C37.3878544,19.2391167 37.8912581,18.6055224 37.4601825,17.1300286 C37.3299919,16.698953 37.4341444,16.2158011 37.7060981,15.8599467 C40.3446281,12.4315936 42.21648,11.2627711 46.2523894,9.87696424 C46.8512662,9.67444549 47.1897619,9.07556861 47.1087544,8.46222611 C43.0583794,5.80344424 38.5479975,3.91712674 33.3374794,3.91712674 C27.9794119,3.91712674 23.2115419,6.26634424 19.0917319,9.06688924 C18.2266875,9.83067424 18.9644344,10.7333292 19.1727394,11.1499392" id="Fill-3" fill="#FFFFFF"></path>
                </g>
            </g>
        </g>
    </g>
</svg>