<?xml version="1.0" encoding="UTF-8" standalone="no"?>
<svg width="60px" height="60px" viewBox="0 0 60 60" version="1.1" xmlns="http://www.w3.org/2000/svg" xmlns:xlink="http://www.w3.org/1999/xlink" xmlns:sketch="http://www.bohemiancoding.com/sketch/ns">
    <!-- Generator: Sketch 3.3.2 (12043) - http://www.bohemiancoding.com/sketch -->
    <title>trips</title>
    <desc>Created with Sketch.</desc>
    <defs></defs>
    <g id="Style" stroke="none" stroke-width="1" fill="none" fill-rule="evenodd" sketch:type="MSPage">
        <g id="trips" sketch:type="MSArtboardGroup">
            <g id="Icon-/-trip" sketch:type="MSLayerGroup" transform="translate(19.000000, 15.000000)">
                <g id="Trip" sketch:type="MSShapeGroup">
                    <path d="M12.6208667,21.2673333 C9.74039048,21.2673333 7.03405714,20.1490952 5.00239048,18.1163333 C2.96962857,16.0857619 1.85139048,13.3794286 1.85139048,10.4978571 C1.85139048,7.94157143 2.74400952,5.49590476 4.37591429,3.56061905 L5.07139048,4.25719048 C5.0834381,4.26814286 5.10315238,4.26485714 5.1152,4.27361905 C3.71439048,5.96247619 2.87105714,8.13104762 2.87105714,10.4978571 C2.87105714,15.8831429 7.23558095,20.2476667 12.6208667,20.2476667 C14.9832952,20.2476667 17.1507714,19.407619 18.8374381,18.009 C18.8472952,18.0210476 18.850581,18.0352857 18.8615333,18.0462381 L19.5581048,18.7428095 C17.6217238,20.3747143 15.1760571,21.2673333 12.6208667,21.2673333 L12.6208667,21.2673333 Z M20.1714381,16.7374286 C20.1604857,16.7264762 20.1451524,16.7231905 20.1331048,16.7133333 C21.5317238,15.0255714 22.3717714,12.8591905 22.3717714,10.4978571 C22.3717714,5.11147619 18.0072476,0.746952381 12.6208667,0.746952381 C10.2584381,0.746952381 8.09315238,1.587 6.40539048,2.98452381 C6.39553333,2.97247619 6.39115238,2.9582381 6.38129524,2.94728571 L4.65739048,1.22447619 C4.48653333,1.05361905 4.20834286,1.05361905 4.03748571,1.22447619 L3.69358095,1.56947619 C1.31253333,3.95052381 0.000438095238,7.1212381 0.000438095238,10.4978571 C0.000438095238,13.8744762 1.31253333,17.0451905 3.69358095,19.4251429 C5.84462857,21.5772857 8.67362857,22.8674762 11.7008667,23.0843333 L11.7008667,27.0129524 L7.7514381,27.0129524 C7.44805714,27.0129524 7.20381905,27.2582857 7.20381905,27.5605714 L7.20381905,29.0238095 C7.20381905,29.3260952 7.44805714,29.5714286 7.7514381,29.5714286 L17.5023429,29.5714286 C17.8046286,29.5714286 18.0499619,29.3260952 18.0499619,29.0238095 L18.0499619,27.5605714 C18.0499619,27.2582857 17.8046286,27.0129524 17.5023429,27.0129524 L13.5529143,27.0129524 L13.5529143,23.0821429 C16.5746762,22.8630952 19.4003905,21.574 21.5481524,19.4251429 L21.8942476,19.0812381 C21.9763905,18.9990952 22.0234857,18.887381 22.0234857,18.7712857 C22.0234857,18.6540952 21.9763905,18.5434762 21.8953429,18.4602381 L20.1714381,16.7374286 Z" id="Fill-1" fill="#00B2BE"></path>
                    <path d="M7.25814286,4.65049048 C7.96347619,6.05458571 8.69071429,8.22644286 10.143,8.78282381 C10.8494286,9.05444286 11.5021905,8.95149048 12.171381,9.2800619 C12.2436667,9.31510952 12.3477143,9.39615714 12.392619,9.46296667 C12.7321429,9.96020476 12.5371905,10.6896333 12.8745238,10.8681571 C13.1417619,11.0094429 13.294,11.2974905 13.179,11.5778714 C12.7135238,12.7180143 13.1165714,14.027919 14.1997619,14.9216333 C14.9620476,15.554681 14.3279048,17.0157286 13.6860952,18.1646333 C13.4571905,18.5753476 13.8657143,19.0495857 14.3092857,18.8918714 C15.0091429,18.6432524 15.5885238,18.2818238 16.261,17.7046333 C17.2335714,16.865681 17.4449524,15.9544429 18.4109524,15.2447286 C18.4208095,15.2359667 18.4284762,15.2250143 18.4339524,15.2151571 C18.680381,14.4890143 19.4470476,12.9107762 18.6738095,12.5088238 C17.9509524,12.1342524 17.6815238,11.0488714 16.9761905,10.3084905 C16.8962381,10.2230619 16.7801429,10.1803476 16.6640476,10.1661095 C15.801,10.0543952 15.4110952,9.39725238 14.8317143,9.83425238 C14.3958095,10.1617286 13.9062381,9.96239524 13.7550952,9.43996667 C13.7058095,9.26910952 13.6181905,9.11796667 13.3049524,9.02049048 C13.0672857,8.94710952 12.9500952,8.67768095 13.0355238,8.4433 C13.0377143,8.44110952 13.0388095,8.43672857 13.0399048,8.43344286 C13.1549048,8.1213 12.5087143,8.16949048 12.1801429,8.22425238 C12.0892381,8.23849048 12.401381,7.86720476 12.2984286,7.9285381 C11.8942857,8.16620476 11.3926667,7.75439524 11.4145714,7.28672857 C11.4364762,6.81249048 11.5251905,6.83439524 12.3400476,6.7413 C13.2151429,6.33277619 13.6400952,6.63068095 13.6127143,7.63282381 C14.1537619,7.71277619 14.3443333,7.47291905 14.1811429,6.91434762 C14.1318571,6.75115714 14.1712857,6.56825238 14.2742381,6.4335381 C15.2730952,5.13568095 15.9817143,4.69320476 17.5095714,4.16858571 C17.7362857,4.09191905 17.8644286,3.86520476 17.8337619,3.63301429 C16.3004286,2.62649048 14.5929524,1.91239524 12.6204286,1.91239524 C10.5920476,1.91239524 8.78709524,2.80172857 7.22747619,3.86191905 C6.9,4.1510619 7.17928571,4.49277619 7.25814286,4.65049048" id="Fill-3" fill="#FFFFFF"></path>
                </g>
            </g>
        </g>
    </g>
</svg>