<?xml version="1.0" encoding="UTF-8" standalone="no"?>
<svg width="42px" height="42px" viewBox="0 0 42 42" version="1.1" xmlns="http://www.w3.org/2000/svg" xmlns:xlink="http://www.w3.org/1999/xlink" xmlns:sketch="http://www.bohemiancoding.com/sketch/ns">
    <!-- Generator: Sketch 3.3.2 (12043) - http://www.bohemiancoding.com/sketch -->
    <title>tw</title>
    <desc>Created with Sketch.</desc>
    <defs></defs>
    <g id="Style" stroke="none" stroke-width="1" fill="none" fill-rule="evenodd" sketch:type="MSPage">
        <g id="tw" sketch:type="MSArtboardGroup">
            <g id="Icon-/-SMtwitter" sketch:type="MSLayerGroup" transform="translate(1.000000, 1.000000)">
                <path d="M31.000105,13.0202 C30.227515,13.36292 29.39707,13.594445 28.525675,13.698605 C29.41513,13.165415 30.098365,12.32111 30.41998,11.315 C29.587435,11.808815 28.66543,12.167285 27.683995,12.360485 C26.898175,11.52311 25.778455,11 24.539245,11 C22.159945,11 20.23078,12.928955 20.23078,15.308255 C20.23078,15.645935 20.268895,15.974795 20.34229,16.29011 C16.76158,16.110455 13.58701,14.395175 11.462125,11.78855 C11.091265,12.42485 10.878745,13.16489 10.878745,13.95449 C10.878745,15.44927 11.639365,16.767965 12.795415,17.540555 C12.08908,17.51819 11.42485,17.32436 10.84399,17.001695 C10.84357,17.01965 10.84357,17.03771 10.84357,17.055875 C10.84357,19.143275 12.32869,20.884595 14.299645,21.280445 C13.93813,21.378935 13.557505,21.43154 13.16449,21.43154 C12.886765,21.43154 12.616915,21.40445 12.353785,21.35426 C12.9022,23.065865 14.49316,24.311585 16.37854,24.346235 C14.904025,25.501865 13.046365,26.19056 11.02774,26.19056 C10.67998,26.19056 10.33705,26.17019 10,26.13029 C11.906695,27.352805 14.17144,28.066175 16.604395,28.066175 C24.52906,28.066175 28.86262,21.501155 28.86262,15.80774 C28.86262,15.620945 28.85842,15.4352 28.850125,15.250295 C29.69212,14.642975 30.4225,13.88414 31.000105,13.0202 L31.000105,13.0202 Z" id="twitter" fill="#FFFFFF" sketch:type="MSShapeGroup"></path>
                <ellipse id="Oval-10-Copy" stroke="#8D8D8D" sketch:type="MSShapeGroup" cx="20" cy="20" rx="20" ry="20"></ellipse>
            </g>
        </g>
    </g>
</svg>