<?xml version="1.0" encoding="UTF-8" standalone="no"?>
<svg width="42px" height="42px" viewBox="0 0 42 42" version="1.1" xmlns="http://www.w3.org/2000/svg" xmlns:xlink="http://www.w3.org/1999/xlink" xmlns:sketch="http://www.bohemiancoding.com/sketch/ns">
    <!-- Generator: Sketch 3.3.2 (12043) - http://www.bohemiancoding.com/sketch -->
<title>tw</title>
<desc>Created with Sketch.</desc>
<g id="Style" sketch:type="MSPage">
	<g id="tw" sketch:type="MSArtboardGroup">
		<g id="Icon-_x2F_-SMtwitter" transform="translate(1.000000, 1.000000)" sketch:type="MSLayerGroup">
			<path id="twitter" sketch:type="MSShapeGroup" fill="#FFFFFF" d="M32,12c-0.8,0.3-1.6,0.6-2.5,0.7c0.9-0.5,1.6-1.4,1.9-2.4
				c-0.8,0.5-1.8,0.9-2.7,1c-0.8-0.8-1.9-1.4-3.1-1.4c-2.4,0-4.3,1.9-4.3,4.3c0,0.3,0,0.7,0.1,1c-3.6-0.2-6.8-1.9-8.9-4.5
				c-0.4,0.6-0.6,1.4-0.6,2.2c0,1.5,0.8,2.8,1.9,3.6c-0.7,0-1.4-0.2-2-0.5c0,0,0,0,0,0.1c0,2.1,1.5,3.8,3.5,4.2
				c-0.4,0.1-0.7,0.2-1.1,0.2c-0.3,0-0.5,0-0.8-0.1c0.5,1.7,2.1,3,4,3c-1.5,1.2-3.3,1.8-5.4,1.8c-0.3,0-0.7,0-1-0.1
				c1.9,1.2,4.2,1.9,6.6,1.9c7.9,0,12.3-6.6,12.3-12.3c0-0.2,0-0.4,0-0.6C30.7,13.6,31.4,12.9,32,12L32,12z"/>
		</g>
	</g>
</g>
</svg>
