<?xml version="1.0" encoding="UTF-8" standalone="no"?>
<svg width="40px" height="40px" viewBox="0 0 40 40" version="1.1" xmlns="http://www.w3.org/2000/svg" xmlns:xlink="http://www.w3.org/1999/xlink" xmlns:sketch="http://www.bohemiancoding.com/sketch/ns">
    <!-- Generator: Sketch 3.3.2 (12043) - http://www.bohemiancoding.com/sketch -->
    <title>upload_chat1</title>
    <desc>Created with Sketch.</desc>
    <defs></defs>
    <g id="Style" stroke="none" stroke-width="1" fill="none" fill-rule="evenodd" sketch:type="MSPage">
        <g id="upload_chat1" sketch:type="MSArtboardGroup" fill="#C8C8C8">
            <g id="image-" sketch:type="MSLayerGroup" transform="translate(10.000000, 12.000000)">
                <path d="M17.8846154,15 L1.73076923,15 C0.776538462,15 0,14.2234615 0,13.2692308 L0,1.73076923 C0,0.776538462 0.776538462,0 1.73076923,0 L17.8846154,0 C18.8388462,0 19.6153846,0.776538462 19.6153846,1.73076923 L19.6153846,13.2692308 C19.6153846,14.2234615 18.8388462,15 17.8846154,15 L17.8846154,15 Z M1.73076923,1.15384615 C1.41230769,1.15384615 1.15384615,1.41288462 1.15384615,1.73076923 L1.15384615,13.2692308 C1.15384615,13.5871154 1.41230769,13.8461538 1.73076923,13.8461538 L17.8846154,13.8461538 C18.2030769,13.8461538 18.4615385,13.5871154 18.4615385,13.2692308 L18.4615385,1.73076923 C18.4615385,1.41288462 18.2030769,1.15384615 17.8846154,1.15384615 L1.73076923,1.15384615 L1.73076923,1.15384615 Z" id="Fill-12" sketch:type="MSShapeGroup"></path>
                <path d="M12.6923077,6.88269231 C11.4421154,6.88269231 10.425,5.86557692 10.425,4.61538462 C10.425,3.36519231 11.4421154,2.34807692 12.6923077,2.34807692 C13.9425,2.34807692 14.9596154,3.36519231 14.9596154,4.61538462 C14.9596154,5.86557692 13.9425,6.88269231 12.6923077,6.88269231 L12.6923077,6.88269231 Z M12.6923077,3.42115385 C12.0334615,3.42115385 11.4980769,3.95653846 11.4980769,4.61538462 C11.4980769,5.27423077 12.0334615,5.80961538 12.6923077,5.80961538 C13.3511538,5.80961538 13.8865385,5.27423077 13.8865385,4.61538462 C13.8865385,3.95653846 13.3511538,3.42115385 12.6923077,3.42115385 L12.6923077,3.42115385 Z" id="Fill-13" sketch:type="MSShapeGroup"></path>
                <path d="M15.7857692,14.8136538 L6.34384615,5.92673077 L0.942115385,10.9425 L0.211730769,10.1561538 L6.34846154,4.45788462 L16.5219231,14.0325 L15.7857692,14.8136538" id="Fill-14" sketch:type="MSShapeGroup"></path>
                <path d="M18.7015385,11.8846154 L15.5769231,9.345 L12.9351923,11.4917308 L12.2578846,10.6592308 L15.5769231,7.96269231 L19.3788462,11.0515385 L18.7015385,11.8846154" id="Fill-15" sketch:type="MSShapeGroup"></path>
            </g>
        </g>
    </g>
</svg>