<?xml version="1.0" encoding="UTF-8" standalone="no"?>
<svg width="40px" height="40px" viewBox="0 0 40 40" version="1.1" xmlns="http://www.w3.org/2000/svg" xmlns:xlink="http://www.w3.org/1999/xlink" xmlns:sketch="http://www.bohemiancoding.com/sketch/ns">
    <!-- Generator: Sketch 3.3.2 (12043) - http://www.bohemiancoding.com/sketch -->
    <title>upload_chat2</title>
    <desc>Created with Sketch.</desc>
    <defs></defs>
    <g id="Style" stroke="none" stroke-width="1" fill="none" fill-rule="evenodd" sketch:type="MSPage">
        <g id="upload_chat2" sketch:type="MSArtboardGroup" fill="#C8C8C8">
            <g id="share-apple-" sketch:type="MSLayerGroup" transform="translate(13.000000, 10.000000)">
                <path d="M10.4518519,4.93333333 L7.40740741,1.88888889 L4.36296296,4.93333333 L3.61424501,4.18347578 L7.40740741,0.39031339 L11.2005698,4.18347578 L10.4518519,4.93333333" id="Fill-74" sketch:type="MSShapeGroup"></path>
                <path d="M6.83760684,1.13960114 L7.97720798,1.13960114 L7.97720798,13.1054131 L6.83760684,13.1054131 L6.83760684,1.13960114 Z" id="Fill-75" sketch:type="MSShapeGroup"></path>
                <path d="M13.1054131,19.9430199 L1.70940171,19.9430199 C0.766951567,19.9430199 0,19.1760684 0,18.2336182 L0,7.97720798 C0,7.03475783 0.766951567,6.26780627 1.70940171,6.26780627 L5.6980057,6.26780627 L5.6980057,7.40740741 L1.70940171,7.40740741 C1.39487179,7.40740741 1.13960114,7.66324786 1.13960114,7.97720798 L1.13960114,18.2336182 C1.13960114,18.5475783 1.39487179,18.8034188 1.70940171,18.8034188 L13.1054131,18.8034188 C13.419943,18.8034188 13.6752137,18.5475783 13.6752137,18.2336182 L13.6752137,7.97720798 C13.6752137,7.66324786 13.419943,7.40740741 13.1054131,7.40740741 L9.11680912,7.40740741 L9.11680912,6.26780627 L13.1054131,6.26780627 C14.0478632,6.26780627 14.8148148,7.03475783 14.8148148,7.97720798 L14.8148148,18.2336182 C14.8148148,19.1760684 14.0478632,19.9430199 13.1054131,19.9430199" id="Fill-76" sketch:type="MSShapeGroup"></path>
            </g>
        </g>
    </g>
</svg>