<?xml version="1.0" encoding="UTF-8" standalone="no"?>
<svg width="40px" height="40px" viewBox="0 0 40 40" version="1.1" xmlns="http://www.w3.org/2000/svg" xmlns:xlink="http://www.w3.org/1999/xlink" xmlns:sketch="http://www.bohemiancoding.com/sketch/ns">
    <!-- Generator: Sketch 3.3.2 (12043) - http://www.bohemiancoding.com/sketch -->
    <title>user</title>
    <desc>Created with Sketch.</desc>
    <defs></defs>
    <g id="Style" stroke="none" stroke-width="1" fill="none" fill-rule="evenodd" sketch:type="MSPage">
        <g id="user" sketch:type="MSArtboardGroup" fill="#FFFFFF">
            <g id="Icon-/-avatar" sketch:type="MSLayerGroup">
                <g id="Avatar-Copy-12" transform="translate(3.000000, 3.000000)" sketch:type="MSShapeGroup">
                    <path d="M17.5,0 C7.875,0 0,7.875 0,17.5 C0,27.125 7.875,35 17.5,35 C27.125,35 35,27.125 35,17.5 C35,7.875 27.125,0 17.5,0 L17.5,0 Z M17.5,5.25 C20.475,5.25 22.75,7.525 22.75,10.5 C22.75,13.475 20.475,15.75 17.5,15.75 C14.525,15.75 12.25,13.475 12.25,10.5 C12.25,7.525 14.525,5.25 17.5,5.25 L17.5,5.25 Z M17.5,30.1 C13.125,30.1 9.275,27.825 7,24.5 C7,21 14,19.075 17.5,19.075 C21,19.075 28,21 28,24.5 C25.725,27.825 21.875,30.1 17.5,30.1 L17.5,30.1 Z" id="Shape"></path>
                </g>
            </g>
        </g>
    </g>
</svg>