<?xml version="1.0" encoding="utf-8"?>
<!-- Generator: Adobe Illustrator 18.1.1, SVG Export Plug-In . SVG Version: 6.00 Build 0)  -->
<svg version="1.1" id="Capa_1" xmlns:sketch="http://www.bohemiancoding.com/sketch/ns"
	 xmlns="http://www.w3.org/2000/svg" xmlns:xlink="http://www.w3.org/1999/xlink" x="0px" y="0px" viewBox="10 -10 60 60"
	 enable-background="new 10 -10 60 60" xml:space="preserve">
<title>verification1</title>
<desc>Created with Sketch.</desc>
<g id="Style" sketch:type="MSPage">
	<g id="verification" sketch:type="MSArtboardGroup">
		<g id="Icon-_x2F_-personalinfo-Copy" transform="translate(14.000000, 18.000000)" sketch:type="MSLayerGroup">
			<path id="Shape" sketch:type="MSShapeGroup" fill="#FFFFFF" d="M10,1c-0.7,0.8-0.7,2.4,0,3.1l9.1,9.2c0.8,0.8,2.3,0.8,3.1,0.1
				l1.4-1.4l3.1-3L41.9-5.5c0.8-0.7,0.8-2.3,0-3l-1.8-1.8c-0.8-0.8-2.3-0.8-3.1,0L22.3,4.4c-0.8,0.8-2.3,0.7-3,0l-4.9-5
				c-0.7-0.8-2.2-0.8-3,0L10,1L10,1z"/>
		</g>
	</g>
</g>
</svg>
