<?xml version="1.0" encoding="UTF-8" standalone="no"?>
<svg width="60px" height="60px" viewBox="0 0 60 60" version="1.1" xmlns="http://www.w3.org/2000/svg" xmlns:xlink="http://www.w3.org/1999/xlink" xmlns:sketch="http://www.bohemiancoding.com/sketch/ns">
    <!-- Generator: Sketch 3.3.2 (12043) - http://www.bohemiancoding.com/sketch -->
    <title>verification</title>
    <desc>Created with Sketch.</desc>
    <defs></defs>
    <g id="Style" stroke="none" stroke-width="1" fill="none" fill-rule="evenodd" sketch:type="MSPage">
        <g id="verification" sketch:type="MSArtboardGroup" fill="#0E777F">
            <g id="Icon-/-personalinfo-Copy" sketch:type="MSLayerGroup" transform="translate(14.000000, 18.000000)">
                <path d="M0.536626786,11.8553755 C-0.20580033,12.6390298 -0.164554379,14.2063384 0.577872737,14.9693702 L9.63135896,24.1463744 C10.394409,24.9300287 11.9205092,24.9506512 12.7041823,24.2082418 L14.1477906,22.8265356 L17.2618599,19.8362758 L32.3991239,5.4005388 C33.1827969,4.65812947 33.2034199,3.13206585 32.4403698,2.36903404 L30.6874169,0.574878154 C29.9243668,-0.188153658 28.3982666,-0.188153658 27.6352165,0.554255673 L12.8279202,15.3405748 C12.0648701,16.1036066 10.5387699,16.0829842 9.79634276,15.3199524 L4.86745163,10.3499343 C4.12502451,9.56628005 2.64017028,9.58690253 1.89774317,10.3911793 L0.536626786,11.8553755 L0.536626786,11.8553755 Z" id="Shape" sketch:type="MSShapeGroup"></path>
            </g>
        </g>
    </g>
</svg>