<?xml version="1.0" encoding="UTF-8" standalone="no"?>
<svg width="40px" height="40px" viewBox="0 0 40 40" version="1.1" xmlns="http://www.w3.org/2000/svg" xmlns:xlink="http://www.w3.org/1999/xlink" xmlns:sketch="http://www.bohemiancoding.com/sketch/ns">
    <!-- Generator: Sketch 3.3.2 (12043) - http://www.bohemiancoding.com/sketch -->
    <title>volunteer</title>
    <desc>Created with Sketch.</desc>
    <defs></defs>
    <g id="Style" stroke="none" stroke-width="1" fill="none" fill-rule="evenodd" sketch:type="MSPage">
        <g id="volunteer" sketch:type="MSArtboardGroup">
            <g id="Icon-/-Reward-/-Volunteer" sketch:type="MSLayerGroup">
                <rect id="Rectangle-139" sketch:type="MSShapeGroup" x="0" y="0" width="40" height="40"></rect>
                <g id="Volunteer" transform="translate(4.000000, 5.000000)" fill="#95C006" sketch:type="MSShapeGroup">
                    <path d="M30.3213,21.2812 C29.8703,20.8302 29.4203,20.4122 28.9683,19.9932 C28.5253,19.5812 28.0823,19.1692 27.6383,18.7262 C26.8683,17.9552 26.0963,17.2162 25.3263,16.4762 C24.5643,15.7472 23.8023,15.0172 23.0413,14.2562 C22.3293,13.5432 21.5903,13.2392 20.5723,13.2392 L11.2503,13.2392 C10.2273,13.2392 9.1703,13.9472 9.1703,15.1342 C9.1703,16.3312 10.0643,17.2332 11.2503,17.2332 L18.7493,17.2332 L18.7493,17.8222 L11.1813,17.8222 C10.0033,17.8222 9.3453,17.1652 8.9003,16.7192 L3.6003,11.8042 C2.6953,11.0482 1.3953,11.0362 0.5823,11.8572 C-0.2017,12.7962 -0.1917,14.0532 0.5993,14.8422 C2.9003,17.2712 5.2033,19.5752 7.6323,21.8752 C8.4003,22.6452 9.2913,23.0192 10.3543,23.0192 L21.3363,23.0192 C22.9333,23.0322 24.3513,23.1302 25.5263,24.1872 C26.2343,24.8322 26.9423,25.4422 27.6503,26.0532 C28.3473,26.6552 29.0453,27.2572 29.7423,27.8902 C29.8203,27.9632 29.9223,28.0002 30.0243,28.0002 C30.0823,28.0002 30.1393,27.9882 30.1943,27.9642 C30.3463,27.8972 30.4443,27.7462 30.4443,27.5802 L30.4443,21.5782 C30.4443,21.4672 30.4003,21.3592 30.3213,21.2812" id="Fill-1"></path>
                    <path d="M9.9805,7.3428 L13.5585,10.5898 C13.6385,10.6628 13.7395,10.6988 13.8405,10.6988 C13.9405,10.6988 14.0415,10.6638 14.1205,10.5928 L17.7625,7.3438 C18.5405,6.6378 19.0735,5.7478 19.3025,4.7708 C19.4785,4.0288 19.4025,3.5918 19.3995,3.5878 C19.2365,1.7568 17.9335,0.4268 16.2995,0.4268 C15.3245,0.4268 14.4225,0.8968 13.8435,1.6688 C13.2755,0.8878 12.4065,0.4268 11.4435,0.4268 C9.8105,0.4268 8.5065,1.7558 8.3495,3.5448 C8.3395,3.5918 8.2645,4.0288 8.4405,4.7698 C8.6705,5.7498 9.2035,6.6398 9.9805,7.3428" id="Fill-4"></path>
                </g>
            </g>
        </g>
    </g>
</svg>