<?xml version="1.0" encoding="UTF-8" standalone="no"?>
<svg width="60px" height="60px" viewBox="0 0 60 60" version="1.1" xmlns="http://www.w3.org/2000/svg" xmlns:xlink="http://www.w3.org/1999/xlink" xmlns:sketch="http://www.bohemiancoding.com/sketch/ns">
    <!-- Generator: Sketch 3.3.2 (12043) - http://www.bohemiancoding.com/sketch -->
    <title>wishes</title>
    <desc>Created with Sketch.</desc>
    <defs></defs>
    <g id="Style" stroke="none" stroke-width="1" fill="none" fill-rule="evenodd" sketch:type="MSPage">
        <g id="wishes" sketch:type="MSArtboardGroup">
            <g id="Icon-/-wishes" sketch:type="MSLayerGroup" transform="translate(15.000000, 12.000000)">
                <g id="Wish-Copy" sketch:type="MSShapeGroup">
                    <path d="M22.7084756,0.330348995 L23.5114552,1.60873505 C23.5678233,1.69700962 23.6614156,1.75231418 23.766707,1.75656838 L25.2737561,1.82038132 C25.5375163,1.83208036 25.6736505,2.14050961 25.5045462,2.34258395 L24.5377801,3.4997254 C24.4707765,3.58055513 24.4473784,3.68903714 24.4760942,3.78901076 L24.8802429,5.24288242 C24.9504371,5.49600711 24.6994395,5.72254308 24.4548232,5.62363301 L23.0551926,5.06207907 C22.9573461,5.02272775 22.8488641,5.03336324 22.761653,5.09185844 L21.504538,5.92568096 C21.2843833,6.07245074 20.9929708,5.90228288 21.0110512,5.63852269 L21.1120883,4.13466423 C21.1195332,4.03043641 21.0748641,3.9283357 20.9929708,3.8634592 L19.8103042,2.92647242 C19.6039757,2.76268585 19.6741699,2.43298562 19.9315488,2.36810912 L21.3939288,2.00012113 C21.4939025,1.97459595 21.5779228,1.90121106 21.6140835,1.80230099 L22.1394768,0.388844197 C22.2330691,0.142100799 22.5680871,0.108067227 22.7084756,0.330348995" id="Fill-1" fill="#FFFFFF"></path>
                    <path d="M27.4788125,16.5457508 L28.4742945,17.3146968 C28.5434252,17.3657472 28.6338268,17.3827639 28.7157201,17.3561752 L29.9122129,16.9732975 C30.1206685,16.9052304 30.315298,17.1062412 30.2429767,17.3146968 L29.8196841,18.4962999 C29.7909683,18.5781932 29.8037309,18.6685948 29.8547812,18.7398526 L30.5886301,19.7587327 C30.716256,19.9363454 30.5843759,20.1852159 30.3652848,20.1788346 L29.1102968,20.1426739 C29.0230858,20.1394833 28.9411925,20.1798982 28.8901422,20.2500924 L28.1477849,21.2636547 C28.0180319,21.442331 27.7415091,21.3912806 27.6787597,21.1796343 L27.3256614,19.9767603 C27.3011998,19.8916763 27.2373868,19.8267998 27.15443,19.7991476 L25.9611279,19.4056344 C25.7537358,19.3386308 25.7143845,19.0610445 25.8951878,18.9366092 L26.9310847,18.2282855 C27.0044696,18.1804258 27.0470115,18.097469 27.0480751,18.0102579 L27.0512657,16.75527 C27.0544564,16.5351153 27.305454,16.4117436 27.4788125,16.5457508" id="Fill-3" fill="#FFFFFF"></path>
                    <path d="M7.87483681,4.31185151 L10.5496629,4.80108411 C10.7347204,4.83299058 10.9261593,4.77555893 11.0569758,4.64155174 L12.9788091,2.71971847 C13.3106364,2.38150984 13.8838894,2.57507579 13.950893,3.0472916 L14.3103726,5.73913444 C14.3369613,5.92525554 14.4507611,6.08691501 14.6198654,6.17093539 L17.0436938,7.40358883 C17.4637958,7.6194893 17.4552874,8.22677585 17.0288042,8.43204084 L14.5805141,9.60726262 C14.4103462,9.68809236 14.2912287,9.84656118 14.26464,10.0326823 L13.8402839,12.7160167 C13.7700896,13.1903596 13.1872647,13.3647817 12.8575645,13.0212553 L10.985718,11.0568801 C10.8549015,10.9196822 10.6666533,10.8590599 10.4805322,10.8856487 L7.79613418,11.3153225 C7.32817256,11.3918981 6.98039199,10.8973477 7.20161021,10.4793729 L8.49275886,8.08957802 C8.58635118,7.9247279 8.58316053,7.72265357 8.4980766,7.5546128 L7.26223251,5.13929273 C7.05058624,4.71280953 7.40900229,4.22676758 7.87483681,4.31185151" id="Fill-5" fill="#FFFFFF"></path>
                    <path d="M26.3103974,11.4232728 L23.9716529,9.08346468 C23.8099934,8.92286876 23.5919658,8.83246708 23.3643663,8.83246708 C23.1378304,8.83246708 22.9198028,8.92286876 22.7581433,9.08346468 L0.251316659,31.5902913 C0.0907207407,31.7508873 0.000319064739,31.9689148 0.000319064739,32.1965143 C0.000319064739,32.4241138 0.0907207407,32.6421414 0.251316659,32.8038009 L2.59112474,35.143609 C2.75278421,35.3042049 2.97081178,35.3946066 3.19841129,35.3946066 C3.42494726,35.3946066 3.64297483,35.3042049 3.8046343,35.143609 L26.3103974,12.6378459 C26.6454154,12.3017643 26.6454154,11.7582907 26.3103974,11.4232728" id="Fill-7" fill="#00B2BE"></path>
                    <path d="M25.173038,11.6673573 L23.7287382,10.221994 C23.6351459,10.1273381 23.5085836,10.0752242 23.3756399,10.0752242 C23.2437598,10.0752242 23.1150704,10.1273381 23.0225416,10.2209305 L19.3905214,13.8508236 C19.2979926,13.944416 19.2448151,14.0709783 19.2448151,14.203922 C19.2448151,14.335802 19.2979926,14.4623644 19.3905214,14.5570203 L20.8380117,16.0034471 C20.9358582,16.1002301 21.0634841,16.1491533 21.19111,16.1491533 C21.3187359,16.1491533 21.4463618,16.1002301 21.5442083,16.0023835 L25.173038,12.3724904 C25.3676675,12.1778609 25.3676675,11.8619868 25.173038,11.6673573" id="Fill-9" fill="#FFFFFF"></path>
                </g>
            </g>
        </g>
    </g>
</svg>