<?xml version="1.0" encoding="utf-8"?>
<!-- Generator: Adobe Illustrator 18.1.1, SVG Export Plug-In . SVG Version: 6.00 Build 0)  -->
<svg version="1.1" id="Layer_1" xmlns="http://www.w3.org/2000/svg" xmlns:xlink="http://www.w3.org/1999/xlink" x="0px" y="0px"
	 viewBox="0 0 300 100" enable-background="new 0 0 300 100" xml:space="preserve">
<path fill="#04B4BF" d="M45.8,44.8c-1.3,0.9-1.9,0.7-2.3,0.2c-1-1.3-3.7-4-8.4-3.9c-3.1-0.1-5,1.3-5.1,3.4
	c0.1,7.9,22.7,2.7,22.7,20.4c0,6.6-4.9,13.8-18.1,13.8c-12.2,0-17.5-6.2-19.1-8.9c-0.5-0.7-0.2-1.8,0.4-2.3l4.7-4.3
	c0.5-0.5,1.7-0.9,2.3-0.1c1.7,2,5.7,5.9,11.7,5.9c3.3,0,5.2-1.4,5.2-3.7c0-9.1-23.1-2.3-23.1-20.6C16.7,37.3,23,31,34.1,31
	c11.4,0,16.1,5.6,17.6,8.2c0.2,0.3,0.5,1.3-0.7,2L45.8,44.8z"/>
<path fill="#04B4BF" d="M56.8,31.4c0-1.1,0.5-1.7,1.7-1.7h8c1.1,0,1.7,0.6,1.7,1.7V48c1.4-1.4,3.5-2.4,7.4-2.4
	c8.2,0,11.5,5.8,11.5,12.9v8.3c0,2,0.8,2.2,1.5,2.5c0.5,0.3,1.1,0.5,1.1,1.6v5c0,1.3-1,2.7-4.9,2.7c-6,0-9-3.1-9-9.7V60
	c0-2.7-1.6-4.1-3.6-4.1c-3,0-3.9,2.3-3.9,3.9v16.7c0,1.1-0.6,1.7-1.7,1.7h-8c-1.2,0-1.7-0.6-1.7-1.7V31.4z"/>
<path fill="#04B4BF" d="M106.9,75.9c0,1.1-0.5,2.6-4.9,2.7c-5.9,0.1-9-3.1-9-9.7V47.7c0-1.1,0.5-1.7,1.7-1.7h8
	c1.1,0,1.7,0.6,1.7,1.7v19c0,2.4,1.4,2.6,1.9,2.6c0.7,0,0.7,0.5,0.7,1.5V75.9z"/>
<path fill="#04B4BF" d="M109,48.2c0-1.1,0.6-2.7,4.9-2.7c4.3,0,6.6,1.5,7.6,4.7v0.1c1.1-2.1,3.4-4.8,9.2-4.8c6.1,0,13,5.1,13,16.4
	c0,12-7.3,16.6-14.3,16.6c-5.2,0-6.5-2.1-6.5-2.1v16.3c0,1.1-0.5,1.7-1.7,1.7h-8c-1.1,0-1.7-0.6-1.7-1.7V57.4c0-2.1-0.9-2.3-1.7-2.6
	c-0.5-0.2-0.9-0.5-0.9-1.5V48.2z M123,63.9c0.1,1.9,1.5,4.5,4.6,4.5c2.9,0,4.9-2.1,4.9-6.3c0-4.7-2.7-6.5-4.9-6.5
	c-3.7,0-4.5,3.7-4.6,4.2V63.9z"/>
<path fill="#04B4BF" d="M180.2,78.2c-3.1,0-3.9-0.9-5-4.4l-3.3-11.1l-3.8,11.1c-1.2,3.5-2.5,4.4-5.5,4.4h-3.8
	c-3.2,0-3.9-0.9-5.1-4.4l-9-25.6c-0.4-1.1-0.1-2.1,1.1-2.1h9.1c1.5,0,1.4,1.1,1.7,2l4.4,17.1l5.4-17C166.6,47,167,46,168,46h8.5
	c1.1,0,1.3,1,1.5,2.1l4,17l4.3-17.1c0.3-0.9,0.4-2,1.8-2h8.7c1.3,0,1.7,1.1,1.3,2l-8.9,25.8c-1.2,3.4-2.4,4.3-5.5,4.3H180.2z"/>
<path fill="#04B4BF" d="M215.4,75.9c0,1.1-0.5,2.6-4.9,2.7c-5.9,0.1-9-3.1-9-9.7V47.7c0-1.1,0.5-1.7,1.7-1.7h8
	c1.1,0,1.7,0.6,1.7,1.7v19c0,2.4,1.4,2.6,1.9,2.6c0.7,0,0.7,0.5,0.7,1.5V75.9z"/>
<path fill="#04B4BF" d="M239.7,58.1c-0.9,0-1.7-0.2-1.7-0.9c0-0.3,0.1-0.7,0.1-1.2c0-1.5-0.9-2.3-3.4-2.3c-2.1,0-3.3,0.7-3.3,2.2
	c0,5.2,17.8,0.9,17.8,12c0,6.4-4.9,10.6-15.4,10.6c-9.1,0-13.2-3.6-14.9-5.7c-0.3-0.4-0.7-1.5,0.2-2.4l3.8-3.6c1.1-1,1.5-1,2.1-0.5
	c1.3,1.3,4.2,3.7,8.3,3.7c2.5,0,3-0.6,3-1.5c0-3.7-16.4-0.8-16.4-12.4c0-5.4,3.8-10.6,14.7-10.6c10.6,0,13.8,4.5,13.8,9.3
	c0,1.1-0.1,1.9-0.5,2.3c-0.4,0.6-1,0.8-1.8,0.8H239.7z"/>
<path fill="#04B4BF" d="M252.2,31.4c0-1.1,0.5-1.7,1.7-1.7h8c1.1,0,1.7,0.6,1.7,1.7V48c1.4-1.4,3.5-2.4,7.4-2.4
	c8.2,0,11.5,5.8,11.5,12.9v8.3c0,2,0.8,2.2,1.5,2.5c0.5,0.3,1.1,0.5,1.1,1.6v5c0,1.3-1,2.7-4.9,2.7c-6,0-9-3.1-9-9.7V60
	c0-2.7-1.6-4.1-3.6-4.1c-3,0-3.9,2.3-3.9,3.9v16.7c0,1.1-0.6,1.7-1.7,1.7h-8c-1.2,0-1.7-0.6-1.7-1.7V31.4z"/>
<path fill="#FAA51A" d="M207.9,22.6l0.1-0.1c-3.1,0-9.9-3.5-14.1-5.9c-13.3-7.3-27.5-9.7-40.2-9.7c-23.3,0-44,10.7-60.9,31.7
	c4.2,0,7.2-2.7,11.5-5.9c17.2-12.7,32.8-18.4,49.4-17.8c11.3,0.4,23.5,3.7,35,9.6c3.1,1.6,8.8,4.4,10.2,7.7c0.5,4.2,4.1,7.5,8.5,7.5
	c4.7,0,8.6-3.8,8.6-8.6C215.9,26.6,212.4,22.9,207.9,22.6z"/>
</svg>
