<?xml version="1.0" standalone="no"?>
<!DOCTYPE svg PUBLIC "-//W3C//DTD SVG 1.1//EN" "http://www.w3.org/Graphics/SVG/1.1/DTD/svg11.dtd" >
<svg xmlns="http://www.w3.org/2000/svg">
<metadata></metadata>
<defs>
<font id="andes_rounded_extralightXLt" horiz-adv-x="494" >
<font-face units-per-em="1000" ascent="750" descent="-250" />
<missing-glyph horiz-adv-x="250" />
<glyph unicode="&#xfb01;" horiz-adv-x="527" d="M458 627q0 -14 -11 -24.5t-25 -10.5q-15 0 -25.5 10.5t-10.5 24.5q0 15 10.5 25.5t25.5 10.5q14 0 25 -10.5t11 -25.5zM402 450h-261v-440q0 -10 -9 -10h-20q-9 0 -9 9v441h-62q-8 0 -8 8v14q0 10 9 10h61v99q0 67 35 107t100 40q70 0 112 -45q6 -7 2 -14l-9 -14 q-5 -6 -11 1q-32 38 -93 38q-44 0 -71 -30.5t-27 -83.5v-98h290q9 0 9 -10v-388q0 -51 34 -53q8 0 8 -9v-14q0 -10 -18 -10q-62 0 -62 83v369z" />
<glyph unicode="&#xfb02;" horiz-adv-x="558" d="M103 450h-62q-8 0 -8 8v14q0 10 9 10h61v99q0 67 36 107t102 40q70 0 112 -45q6 -8 1 -14l-9 -14q-4 -7 -10 1q-32 38 -93 38q-46 0 -73.5 -30.5t-27.5 -83.5v-98h183q9 0 9 -10v-14q0 -8 -8 -8h-184v-440q0 -10 -9 -10h-20q-9 0 -9 9v441zM469 716v-632q0 -51 34 -53 q9 0 9 -9v-14q0 -10 -19 -10q-28 0 -45 20t-17 63v636q0 9 9 9h20q9 0 9 -10z" />
<glyph unicode="&#xfb03;" horiz-adv-x="801" d="M732 627q0 -14 -11 -24.5t-26 -10.5q-14 0 -25 10.5t-11 24.5q0 15 11 25.5t25 10.5q15 0 26 -10.5t11 -25.5zM714 472v-388q0 -52 33 -53q9 0 9 -9v-14q0 -10 -18 -10q-63 0 -63 83v369h-260v-440q0 -10 -9 -10h-20q-9 0 -9 9v441h-236v-440q0 -10 -9 -10h-20q-9 0 -9 9 v441h-62q-8 0 -8 8v14q0 10 9 10h61v99q0 67 36 107t102 40q70 0 112 -45q6 -8 1 -14l-9 -14q-4 -7 -10 1q-32 38 -93 38q-46 0 -73.5 -30.5t-27.5 -83.5v-98h236v99q0 67 36 107t101 40q70 0 112 -45q6 -7 2 -14l-9 -14q-4 -7 -10 1q-32 38 -93 38q-46 0 -73.5 -30.5 t-27.5 -83.5v-98h289q10 0 10 -10z" />
<glyph unicode="&#xfb04;" horiz-adv-x="832" d="M377 450h-236v-440q0 -10 -9 -10h-20q-9 0 -9 9v441h-62q-8 0 -8 8v14q0 10 9 10h61v99q0 67 36 107t102 40q70 0 112 -45q6 -8 1 -14l-9 -14q-4 -7 -10 1q-32 38 -93 38q-46 0 -73.5 -30.5t-27.5 -83.5v-98h236v99q0 67 36 107t101 40q74 0 112 -45q7 -7 2 -14l-9 -14 q-4 -7 -10 1q-32 38 -93 38q-46 0 -73.5 -30.5t-27.5 -83.5v-98h182q10 0 10 -10v-14q0 -8 -9 -8h-183v-440q0 -10 -9 -10h-20q-9 0 -9 9v441zM786 22v-14q0 -10 -19 -10q-28 0 -45 20t-17 63v636q0 9 9 9h20q9 0 9 -10v-632q0 -51 34 -53q9 0 9 -9z" />
<glyph horiz-adv-x="0" />
<glyph horiz-adv-x="333" />
<glyph unicode=" "  horiz-adv-x="250" />
<glyph unicode="&#x09;" horiz-adv-x="250" />
<glyph unicode="&#xa0;" horiz-adv-x="250" />
<glyph unicode="!" horiz-adv-x="228" d="M98 189l-5 522q0 9 9 9h25q9 0 9 -9l-5 -522q0 -8 -9 -8h-16q-8 0 -8 8zM114 61q14 0 24 -10t10 -24t-10 -24.5t-24 -10.5t-24.5 10.5t-10.5 24.5t10.5 24t24.5 10z" />
<glyph unicode="&#x22;" horiz-adv-x="264" d="M105 589l-2 121q0 9 8 9h17q2 0 3 -1q1 1 4 1h17q9 0 9 -9l-3 -121q0 -9 -8 -9h-12q-5 0 -7 2q-1 -2 -5 -2h-12q-9 0 -9 9z" />
<glyph unicode="#" horiz-adv-x="615" d="M367 186l35 157h-154l-35 -157h154zM182 186l34 157h-109q-10 0 -6 9l2 11q1 7 10 7h109l25 112q1 8 10 8h13q11 0 8 -9l-24 -111h154l25 112q1 8 10 8h13q11 0 8 -9l-25 -111h116q7 0 6 -7l-3 -13q-3 -7 -10 -7h-115l-35 -157h110q8 0 7 -9l-3 -11q-2 -8 -10 -8h-110 l-24 -109q-2 -8 -10 -8h-13q-11 0 -8 10l24 107h-154l-24 -109q-3 -8 -10 -8h-13q-10 0 -9 10l24 107h-113q-9 0 -7 10l2 10q3 8 11 8h114z" />
<glyph unicode="$" horiz-adv-x="580" d="M279 -108v114q-54 2 -98.5 17.5t-71 37.5t-40.5 37t-21 28q-4 6 3 11l15 12q6 6 10 0q7 -12 21 -26.5t40 -35t68.5 -33.5t92.5 -13q90 0 142 38.5t52 104.5q0 47 -24 76.5t-62 43t-84 22t-92 18t-84 25.5t-62 51t-24 88q0 76 58 127t161 53v102q0 9 9 9h17q9 0 9 -9v-103 q48 -3 87 -17.5t62 -35.5t34 -34.5t17 -26.5q5 -8 -3 -12l-16 -10q-7 -4 -11 2q-59 100 -196 100q-91 0 -139.5 -42t-48.5 -102q0 -45 24 -74.5t62 -42.5t84 -21.5t92 -18.5t84 -26.5t62 -52t24 -88.5q0 -75 -57.5 -125t-160.5 -53v-115q0 -9 -9 -9h-17q-9 0 -9 9z" />
<glyph unicode="%" horiz-adv-x="556" d="M144 424q-47 0 -73.5 34.5t-26.5 104.5q0 139 100 139q101 0 101 -139q0 -70 -27 -104.5t-74 -34.5zM144 449q71 0 71 114q0 113 -71 113t-71 -113q0 -114 71 -114zM411 -2q-47 0 -73 34.5t-26 104.5q0 139 99 139q101 0 101 -139q0 -70 -27 -104.5t-74 -34.5zM411 23 q71 0 71 114q0 113 -71 113q-70 0 -70 -113q0 -114 70 -114zM397 691l-206 -683q-3 -8 -11 -8h-14q-11 0 -7 9l206 683q3 8 11 8h14q11 0 7 -9z" />
<glyph unicode="&#x26;" horiz-adv-x="659" d="M547 -97h-21q-9 0 -9 9q0 63 -20 133q-1 0 -16.5 -11t-34 -21.5t-54.5 -19.5t-77 -9q-111 0 -179.5 68t-68.5 179q0 45 13 83t29 60t37.5 40t31 23t17.5 9l-3 4q-3 4 -6.5 9.5t-7.5 13t-8 17.5t-7.5 21t-5.5 25t-2 29q0 72 48 119.5t131 47.5q92 0 135.5 -49t43.5 -110 q0 -27 -6.5 -61.5t-18.5 -34.5h-20q-9 0 -6 13q12 39 12 79q0 50 -34 89.5t-105 39.5q-64 0 -102.5 -38t-38.5 -97q0 -42 23 -81.5t61 -76.5t79 -76t85.5 -97t72.5 -121q46 83 48 202q0 9 8 9h22q9 0 9 -9q0 -91 -24 -154t-48 -88q25 -83 25 -159q0 -9 -8 -9zM319 19 q30 0 57 5.5t46 14.5t31.5 16.5t21.5 15.5t10 8q-21 55 -57.5 107.5t-69.5 86t-76.5 77t-65.5 70.5l-1 -1q-68 -34 -95 -107q-13 -36 -13 -78q0 -99 62 -157t150 -58z" />
<glyph unicode="'" horiz-adv-x="173" d="M72 589l-2 121q0 9 8 9h17q9 0 9 -9l-3 -121q0 -9 -8 -9h-12q-9 0 -9 9z" />
<glyph unicode="(" horiz-adv-x="268" d="M94 241q0 -78 12.5 -151.5t29 -122t39 -92.5t34.5 -61.5t23 -32.5q6 -6 -3 -11l-17 -10q-7 -4 -11 2q-16 20 -33.5 50t-46.5 91t-47 150.5t-18 187.5q0 81 13.5 157.5t30.5 127t40.5 97t36 64.5t23.5 33q6 6 12 2l17 -10q8 -5 3 -10q-14 -18 -31.5 -47t-44.5 -87 t-44.5 -144.5t-17.5 -182.5z" />
<glyph unicode=")" horiz-adv-x="268" d="M211 241q0 -98 -18 -187.5t-46.5 -150.5t-46.5 -91t-33 -50q-4 -6 -12 -2l-17 10q-8 4 -3 11q11 15 23 32.5t34.5 61.5t39 92.5t29 122t12.5 151.5q0 96 -17.5 182.5t-44.5 144.5t-44.5 87t-31.5 47q-4 6 4 10l16 10q8 4 12 -2q11 -15 23.5 -33t36 -64.5t40.5 -97 t30.5 -127t13.5 -157.5z" />
<glyph unicode="*" horiz-adv-x="426" d="M108 500l83 96l-125 18q-8 1 -8 9l2 12q0 9 11 5l122 -22l-50 111q-4 8 3 10l12 6q7 3 10 -5l46 -116l80 106q6 8 12 2l10 -8q6 -6 0 -12l-86 -100l130 -18q8 -2 8 -9l-1 -10q-2 -9 -11 -7l-128 23l54 -117q3 -7 -3 -10l-13 -6q-7 -3 -10 5l-49 118l-77 -99q-7 -8 -13 -3 l-9 8q-7 6 0 13z" />
<glyph unicode="+" horiz-adv-x="452" d="M383 260h-141v-155q0 -9 -8 -9h-16q-9 0 -9 10v154h-140q-9 0 -9 9v14q0 9 9 9h140v152q0 10 8 10h16q9 0 9 -10v-152h141q9 0 9 -9v-14q0 -9 -9 -9z" />
<glyph unicode="," horiz-adv-x="210" d="M68 29q0 14 10.5 25t24.5 11q18 0 28.5 -13t10.5 -33q0 -43 -17.5 -66t-36.5 -30q-6 -2 -10 4l-7 12q-3 5 3 9q29 17 29 46q-14 0 -24.5 10t-10.5 25z" />
<glyph unicode="-" horiz-adv-x="402" d="M85 290h233q9 0 9 -10v-13q0 -8 -9 -8h-234q-9 0 -9 8v13q0 10 10 10z" />
<glyph unicode="." horiz-adv-x="206" d="M68 29q0 14 10.5 25t24.5 11t24.5 -11t10.5 -25t-10.5 -24.5t-24.5 -10.5t-24.5 10.5t-10.5 24.5z" />
<glyph unicode="/" horiz-adv-x="387" d="M64 -225h-21q-10 0 -8 9l278 914q3 8 11 8h20q10 0 8 -9l-277 -914q-3 -8 -11 -8z" />
<glyph unicode="0" horiz-adv-x="610" d="M305 -6q-238 0 -238 355q0 357 238 357q239 0 239 -357q0 -355 -239 -355zM305 29q102 0 150 79t48 241t-48 242t-150 80q-101 0 -149.5 -80t-48.5 -242t48.5 -241t149.5 -79z" />
<glyph unicode="1" horiz-adv-x="369" d="M272 691v-682q0 -9 -9 -9h-22q-9 0 -9 9v603q-17 -46 -67.5 -88t-115.5 -45q-8 0 -9 8l-3 22q-1 8 6 8q70 3 123.5 56t63.5 117q0 10 10 10h23q9 0 9 -9z" />
<glyph unicode="2" horiz-adv-x="546" d="M476 0h-405q-9 0 -9 9v42q0 51 20.5 91t54 66t73.5 48t79.5 43.5t73 46t54 63t20.5 87.5q0 81 -45 128t-119 47q-45 0 -79.5 -15.5t-52 -39.5t-26 -42t-11.5 -34q-2 -9 -10 -7l-24 7q-9 2 -7 9q3 15 9 30.5t22 39.5t37 42t58 31.5t83 13.5q97 0 151.5 -58.5t54.5 -151.5 q0 -72 -38.5 -124t-93 -82t-109 -58t-93 -70.5t-38.5 -100.5v-26h370q10 0 10 -9v-17q0 -9 -10 -9z" />
<glyph unicode="3" horiz-adv-x="564" d="M243 374h45q56 0 103.5 41t47.5 110q0 63 -44.5 104.5t-122.5 41.5q-36 0 -66 -10.5t-47.5 -26.5t-26.5 -29t-14 -24q-3 -7 -12 -4l-21 9q-8 3 -5 9q7 14 17 28t32 35.5t60 34.5t86 13q100 0 152.5 -53t52.5 -125q0 -37 -12.5 -67t-29.5 -47.5t-37.5 -30.5t-32 -17 t-16.5 -6h-1h2q89 -21 126 -89q21 -38 21 -87q0 -94 -60.5 -142t-168.5 -48q-54 0 -97 14.5t-67.5 37t-35.5 37.5t-18 30q-4 7 3 11l16 10q8 5 11 -1q6 -11 17 -25t33 -33.5t58 -32.5t79 -13q89 0 139 40.5t50 117.5q0 51 -29.5 88t-67 52t-74.5 15h-45q-9 0 -9 8v16 q0 8 9 8z" />
<glyph unicode="4" horiz-adv-x="556" d="M419 175v-166q0 -9 -9 -9h-21q-10 0 -10 9v166h-331q-10 0 -10 9v15q0 12 5 20l240 473q3 8 11 8h26q10 0 5 -9l-245 -482h299v174q0 9 9 9h22q9 0 9 -9v-174h90q10 0 10 -10v-15q0 -9 -10 -9h-90z" />
<glyph unicode="5" horiz-adv-x="560" d="M126 665v-270q6 4 17 11t50.5 18t85.5 11q98 0 161 -60.5t63 -152.5q0 -98 -57 -163t-172 -65q-61 0 -110.5 21.5t-68.5 39.5t-30 35q-3 7 2 11l19 15q6 4 10 -1q7 -10 18 -21.5t32.5 -27.5t55 -26.5t72.5 -10.5q88 0 138 50.5t50 142.5q0 76 -51.5 127t-135.5 51 q-86 0 -142 -41q-10 -6 -17 -6h-21q-9 0 -9 10v328q0 9 10 9h374q9 0 9 -9v-17q0 -9 -10 -9h-343z" />
<glyph unicode="6" horiz-adv-x="589" d="M310 -6q-113 0 -178.5 80.5t-65.5 244.5q0 387 261 387q116 0 169 -72q6 -6 0 -11l-19 -16q-5 -5 -11 2q-44 62 -139 62q-218 0 -221 -341q3 4 8.5 11t25.5 24.5t41.5 30.5t56.5 24t71 11q95 0 160.5 -54t65.5 -159q0 -107 -61.5 -165.5t-163.5 -58.5zM107 289 q3 -128 59 -194t144 -66q85 0 134.5 50.5t49.5 138.5q0 86 -50.5 132t-137.5 46q-26 0 -51 -6t-44 -15t-36 -20.5t-29 -23t-20.5 -20.5t-13.5 -15z" />
<glyph unicode="7" horiz-adv-x="499" d="M37 674v16q0 10 10 10h413q9 0 9 -10v-15q0 -52 -28 -110.5t-68 -116t-79.5 -121t-68 -147t-28.5 -172.5q0 -8 -8 -8h-25q-7 0 -7 8q0 89 28 173.5t67.5 148t79.5 121t67.5 113t27.5 101.5h-381q-9 0 -9 9z" />
<glyph unicode="8" horiz-adv-x="593" d="M195 375q-4 1 -12.5 4.5t-24.5 14.5t-29.5 27t-23.5 44.5t-10 63.5q0 79 54 128t146 49q102 0 155 -55.5t53 -131.5q0 -37 -11 -68t-26.5 -49t-30.5 -31t-26 -18l-11 -5q134 -46 134 -167q0 -87 -60 -137t-170 -50q-107 0 -174 50t-67 148q0 38 14 70.5t30.5 51 t39.5 34.5t32 20t18 7zM357 329l-125 32q-5 -2 -14 -5t-31.5 -16.5t-39.5 -30t-31 -47t-14 -66.5q0 -77 54.5 -122t145.5 -45t140 40.5t49 116.5q0 51 -34 88.5t-100 54.5zM242 390l117 -30q4 1 11 4t25 15t31.5 27.5t24.5 44.5t11 64q0 65 -44 110t-123 45q-73 0 -116 -41 t-43 -102q0 -109 106 -137z" />
<glyph unicode="9" horiz-adv-x="583" d="M274 706q117 0 179.5 -87.5t62.5 -251.5q0 -194 -65.5 -283.5t-190.5 -89.5q-45 0 -85.5 15.5t-58.5 29.5t-30 28q-4 4 1 7l20 18q4 4 7 1q10 -12 25.5 -24t49.5 -26t71 -14q108 0 161 80t55 244q-3 -4 -8.5 -10t-24.5 -21.5t-41 -27.5t-57 -21.5t-73 -9.5q-97 0 -156 54 t-59 162q0 104 59 165.5t158 61.5zM475 393q-2 130 -55 204t-146 74q-79 0 -127.5 -51.5t-48.5 -140.5q0 -90 45.5 -135.5t131.5 -45.5q27 0 52.5 5t44.5 13.5t36 18.5t29 20t20 18t13 14z" />
<glyph unicode=":" horiz-adv-x="221" d="M75 29q0 14 10.5 25t24.5 11t24.5 -11t10.5 -25t-10.5 -24.5t-24.5 -10.5t-24.5 10.5t-10.5 24.5zM75 447q0 14 10.5 25t24.5 11t24.5 -11t10.5 -25t-10.5 -24.5t-24.5 -10.5t-24.5 10.5t-10.5 24.5z" />
<glyph unicode=";" horiz-adv-x="229" d="M78 447q0 14 10.5 25t24.5 11t24.5 -11t10.5 -25t-10.5 -24.5t-24.5 -10.5t-24.5 10.5t-10.5 24.5zM79 29q0 14 10.5 25t24.5 11q18 0 28.5 -13t10.5 -33q0 -43 -17.5 -66t-36.5 -30q-6 -2 -10 4l-7 12q-3 5 3 9q29 17 29 46q-14 0 -24.5 10t-10.5 25z" />
<glyph unicode="&#x3c;" horiz-adv-x="410" d="M53 296l280 190q9 4 9 -5v-18q0 -9 -9 -14l-253 -175l254 -174q8 -5 8 -14v-18q0 -9 -9 -4l-280 189q-7 5 -7 13v18q0 8 7 12z" />
<glyph unicode="=" horiz-adv-x="516" d="M88 381h340q9 0 9 -8v-15q0 -8 -9 -8h-340q-9 0 -9 8v15q0 8 9 8zM88 196h340q9 0 9 -8v-15q0 -8 -9 -8h-340q-9 0 -9 8v15q0 8 9 8z" />
<glyph unicode="&#x3e;" horiz-adv-x="410" d="M76 486l281 -190q7 -4 7 -12v-18q0 -7 -7 -13l-281 -189q-3 -2 -6 -1t-3 5v18q0 8 9 14l254 174l-254 175q-9 6 -9 14v18q0 9 9 5z" />
<glyph unicode="?" horiz-adv-x="438" d="M190 61q14 0 24.5 -10.5t10.5 -24.5t-10.5 -24t-24.5 -10t-24 10t-10 24t10 24.5t24 10.5zM70 543l-20 4q-7 2 -7 11q1 69 51 114.5t122 45.5q88 0 132.5 -49t44.5 -119q0 -50 -18.5 -86.5t-45.5 -61t-53.5 -50t-45.5 -67.5t-20 -99q0 -8 -9 -8h-19q-9 0 -9 8 q1 54 14.5 95t33.5 64t43.5 45.5t43 40.5t32.5 48t13 69q0 58 -35.5 96.5t-101.5 38.5q-59 0 -97 -37t-40 -95q0 -10 -9 -8z" />
<glyph unicode="@" horiz-adv-x="824" d="M777 350q0 -130 -68.5 -216t-147.5 -86q-54 0 -56 47q0 25 13 54q-7 -12 -16.5 -24.5t-28 -31t-45.5 -30t-58 -11.5q-127 0 -127 145q0 102 63.5 181t153.5 79q25 0 46 -6.5t33 -14.5t22 -19t12.5 -15t4.5 -8l11 41q2 8 11 8h16q7 0 7 -8q-12 -39 -49.5 -175t-38.5 -155 q-1 -14 7.5 -22t24.5 -8q64 0 121 78.5t57 196.5q0 109 -74.5 179.5t-193.5 70.5q-167 0 -275 -120.5t-108 -298.5q0 -138 76 -213t200 -75q178 0 289 98q7 7 11 0l8 -11q5 -8 -1 -13q-13 -13 -33 -26.5t-58 -33.5t-95 -32.5t-121 -12.5q-137 0 -223.5 82t-86.5 237 q0 200 119 325t298 125q132 0 216 -78.5t84 -202.5zM530 216l39 148q-1 3 -3 7t-11 15t-20.5 19t-32 15t-44.5 7q-76 0 -129 -68.5t-53 -157.5q0 -118 100 -118q33 0 61.5 15t47 38t29 43t16.5 37z" />
<glyph unicode="A" horiz-adv-x="635" d="M560 8l-80 212h-325l-80 -212q-3 -8 -11 -8h-23q-11 0 -7 8l259 682q3 10 10 10h28q7 0 11 -10l259 -682q1 -3 -1 -5.5t-7 -2.5h-23q-7 0 -10 8zM317 650l-149 -396h299z" />
<glyph unicode="B" horiz-adv-x="618" d="M319 0h-214q-9 0 -9 9v682q0 9 9 9h209q100 0 154 -44t54 -132q0 -38 -9.5 -68t-23 -47t-31 -28t-30.5 -14.5t-24 -3.5v-2q16 0 34.5 -4t42 -16t41.5 -30.5t30.5 -51t12.5 -73.5q0 -51 -20.5 -89t-56.5 -58t-78 -29.5t-91 -9.5zM136 35h182q39 0 72 6.5t65 22.5t50.5 48 t18.5 77q0 81 -49.5 118t-131.5 37h-207v-309zM136 376h205q140 0 140 145q0 67 -42 105.5t-129 38.5h-174v-289z" />
<glyph unicode="C" horiz-adv-x="629" d="M563 130l14 -16q5 -5 1 -11q-7 -10 -20.5 -24t-41 -35.5t-70.5 -35.5t-91 -14q-131 0 -212 85.5t-81 267.5q0 183 78 271t204 88q41 0 75 -9.5t57 -23.5t41.5 -34t28.5 -37t17.5 -37t9.5 -29l4 -18q1 -9 -7 -11l-20 -4q-10 -1 -11 7q-3 15 -7.5 30.5t-18.5 40.5t-34 43.5 t-55.5 32.5t-79.5 14q-105 0 -173 -78t-68 -246q0 -88 21.5 -152t58.5 -99t80 -51t94 -16q121 0 195 99q6 7 11 2z" />
<glyph unicode="D" horiz-adv-x="656" d="M301 0h-196q-9 0 -9 9v682q0 9 9 9h158q149 0 240 -88.5t91 -266.5q0 -171 -77.5 -258t-215.5 -87zM136 35h165q119 0 185.5 77.5t66.5 232.5q0 163 -80 241.5t-210 78.5h-127v-630z" />
<glyph unicode="E" horiz-adv-x="554" d="M485 0h-380q-9 0 -9 9v682q0 9 9 9h380q9 0 9 -9v-17q0 -9 -9 -9h-349v-298h305q9 0 9 -10v-16q0 -9 -10 -9h-304v-297h349q9 0 9 -9v-17q0 -9 -9 -9z" />
<glyph unicode="F" horiz-adv-x="535" d="M136 331v-322q0 -9 -9 -9h-22q-9 0 -9 9v682q0 9 9 9h380q9 0 9 -9v-17q0 -9 -9 -9h-349v-299h305q9 0 9 -9v-17q0 -9 -10 -9h-304z" />
<glyph unicode="G" horiz-adv-x="646" d="M586 331v-73q0 -126 -60.5 -195t-181.5 -69q-123 0 -202.5 86t-79.5 267q0 183 78 271t204 88q96 0 156.5 -52.5t76.5 -135.5q2 -8 -7 -9l-21 -4q-8 -2 -10 6q-16 73 -65 116.5t-130 43.5q-105 0 -173 -78t-68 -246q0 -87 21.5 -151.5t57.5 -99.5t76.5 -51t86.5 -16 q101 0 151 59t50 170v49h-185q-10 0 -10 9v15q0 9 10 9h215q10 0 10 -9z" />
<glyph unicode="H" horiz-adv-x="674" d="M578 691v-682q0 -9 -9 -9h-22q-9 0 -9 9v321h-402v-321q0 -9 -9 -9h-22q-9 0 -9 9v682q0 9 9 9h22q9 0 9 -9v-326h402v326q0 9 9 9h22q9 0 9 -9z" />
<glyph unicode="I" horiz-adv-x="232" d="M136 691v-682q0 -9 -9 -9h-22q-9 0 -9 9v682q0 9 9 9h22q9 0 9 -9z" />
<glyph unicode="J" horiz-adv-x="443" d="M311 178v513q0 9 9 9h22q9 0 9 -9v-508q0 -97 -47.5 -143t-127.5 -46q-14 0 -28 2t-25.5 4.5t-22.5 7t-19.5 9t-17.5 10t-14.5 9.5t-12 10t-9.5 8.5t-7 7.5l-4 4q-5 5 0 10l17 18q4 6 10 0q9 -11 21 -22.5t44.5 -27t67.5 -15.5q135 0 135 149z" />
<glyph unicode="K" horiz-adv-x="662" d="M136 355h167q79 0 144.5 84.5t67.5 251.5q0 9 9 9h21q10 0 10 -10q0 -79 -16.5 -144t-44.5 -105.5t-58 -65.5t-62 -37q31 -10 59.5 -45.5t49.5 -78.5t42 -84.5t47.5 -69.5t55.5 -28h16q9 0 9 -9v-14q0 -7 -11 -9q-2 -1 -22 -1q-43 0 -76.5 33t-57 80.5t-46.5 95t-57 80.5 t-77 33h-170v-312q0 -9 -9 -9h-22q-9 0 -9 9v682q0 9 9 9h22q9 0 9 -9v-336z" />
<glyph unicode="L" horiz-adv-x="524" d="M136 691v-656h366q10 0 10 -9v-17q0 -9 -10 -9h-397q-9 0 -9 9v682q0 9 9 9h22q9 0 9 -9z" />
<glyph unicode="M" horiz-adv-x="806" d="M96 9v682q0 9 9 9h32q9 0 14 -10l252 -535h2l252 535q3 10 14 10h30q9 0 9 -9v-682q0 -9 -9 -9h-22q-9 0 -9 9v625l-245 -518q-5 -14 -22 -14q-16 0 -22 14l-245 518v-625q0 -9 -9 -9h-22q-9 0 -9 9z" />
<glyph unicode="N" horiz-adv-x="673" d="M568 0h-34q-9 0 -15 11l-383 631v-633q0 -9 -9 -9h-22q-9 0 -9 9v682q0 9 9 9h34q7 0 14 -10l384 -635v636q0 9 9 9h22q9 0 9 -9v-682q0 -9 -9 -9z" />
<glyph unicode="O" horiz-adv-x="696" d="M348 -6q-57 0 -106.5 19t-90.5 59.5t-65 111t-24 165.5t24 166t65 111.5t90.5 60t106.5 19.5t106.5 -19.5t90.5 -60t65 -111.5t24 -166t-24 -165.5t-65 -111t-90.5 -59.5t-106.5 -19zM348 29q49 0 91 17.5t77.5 53.5t56 100t20.5 149t-20.5 149.5t-56 101t-78 54 t-90.5 17.5q-104 0 -174.5 -78.5t-70.5 -243.5q0 -85 20.5 -149t56 -100t77.5 -53.5t91 -17.5z" />
<glyph unicode="P" horiz-adv-x="575" d="M127 0h-22q-9 0 -9 9v682q0 9 9 9h198q110 0 170.5 -54t60.5 -158q0 -103 -60 -154.5t-168 -51.5h-170v-273q0 -9 -9 -9zM136 317h165q192 0 192 171q0 84 -48 130.5t-144 46.5h-165v-348z" />
<glyph unicode="Q" horiz-adv-x="696" d="M558 -186v-18q0 -9 -12 -9q-82 4 -139 60t-79 148q-115 7 -190.5 93t-75.5 261q0 95 24 166t65 111.5t90.5 60t106.5 19.5t106.5 -19.5t90.5 -60t65 -111.5t24 -166q0 -91 -22 -160t-61 -109.5t-85.5 -61t-100.5 -23.5q23 -83 72 -126t112 -46q9 0 9 -9zM348 29 q49 0 91 17.5t77.5 53.5t56 100t20.5 149t-20.5 149.5t-56 101t-78 54t-90.5 17.5q-104 0 -174.5 -78.5t-70.5 -243.5q0 -85 20.5 -149t56 -100t77.5 -53.5t91 -17.5z" />
<glyph unicode="R" horiz-adv-x="660" d="M653 23v-13q0 -11 -32 -11q-44 0 -78 32t-56.5 77t-45.5 90.5t-57 77.5t-79 32h-169v-299q0 -9 -9 -9h-22q-9 0 -9 9v681q0 10 9 10h206q103 0 161 -49t58 -149q0 -75 -40 -121.5t-109 -60.5q30 -10 56.5 -43t46.5 -73.5t40.5 -79.5t47 -65.5t56.5 -26.5h16q9 0 9 -9z M136 341h172q79 0 130.5 42.5t51.5 117.5t-47.5 119.5t-134.5 44.5h-172v-324z" />
<glyph unicode="S" horiz-adv-x="600" d="M528 575l-18 -11q-7 -4 -10 2q-5 10 -15.5 23.5t-33.5 34t-63.5 34t-90.5 13.5q-94 0 -144 -43t-50 -105q0 -48 24.5 -79t64 -44.5t87 -22.5t95 -19t87 -27.5t64 -54.5t24.5 -94q0 -82 -63.5 -135t-178.5 -53q-175 0 -257 123q-3 5 3 11l15 14q6 6 10 -1q6 -9 12.5 -17.5 t27 -27.5t44 -32t62.5 -24t83 -11q93 0 147 41t54 111q0 49 -24.5 80.5t-64 45.5t-87 22.5t-95 18.5t-87 27t-64 54t-24.5 93q0 79 61.5 131.5t171.5 52.5q49 0 91 -11.5t65.5 -25.5t43 -34t25.5 -29t11 -19q3 -8 -3 -12z" />
<glyph unicode="T" horiz-adv-x="580" d="M24 700h532q9 0 9 -9v-17q0 -9 -9 -9h-245v-656q0 -9 -10 -9h-21q-9 0 -9 9v656h-247q-10 0 -10 9v17q0 9 10 9z" />
<glyph unicode="U" horiz-adv-x="677" d="M547 283v408q0 9 9 9h22q9 0 9 -9v-406q0 -158 -65.5 -224.5t-183.5 -66.5t-183 66.5t-65 224.5v406q0 9 9 9h22q9 0 9 -9v-408q0 -136 54.5 -195t153.5 -59q100 0 154.5 59t54.5 195z" />
<glyph unicode="V" horiz-adv-x="624" d="M312 46l229 646q3 8 11 8h27q11 0 7 -9l-249 -681q-4 -10 -11 -10h-28q-6 0 -11 10l-249 681q-4 9 7 9h29q7 0 10 -8z" />
<glyph unicode="W" horiz-adv-x="960" d="M503 690l186 -644l181 646q4 8 11 8h28q10 0 8 -9l-202 -681q-4 -10 -11 -10h-29q-9 0 -12 10l-183 627l-183 -627q-4 -10 -11 -10h-29q-8 0 -12 10l-201 681q-4 9 7 9h29q8 0 10 -8l181 -646l186 644q3 10 12 10h22q8 0 12 -10z" />
<glyph unicode="X" horiz-adv-x="576" d="M537 0h-26q-6 0 -12 8l-211 314l-211 -314q-6 -8 -12 -8h-26q-12 0 -7 9l230 340l-230 342q-5 9 7 9h27q7 0 12 -8l210 -314l210 314q5 8 12 8h27q12 0 7 -9l-230 -341l230 -341q5 -9 -7 -9z" />
<glyph unicode="Y" horiz-adv-x="605" d="M313 0h-21q-10 0 -10 9v303l-244 379q-5 9 7 9h27q7 0 12 -8l219 -344l218 344q5 8 12 8h27q12 0 7 -9l-244 -379v-303q0 -9 -10 -9z" />
<glyph unicode="Z" horiz-adv-x="578" d="M526 0h-474q-9 0 -9 9v18q0 8 5 16l439 622h-435q-9 0 -9 9v17q0 9 9 9h475q9 0 9 -9v-18q0 -7 -6 -16l-438 -622h435q9 0 9 -9v-17q0 -9 -10 -9z" />
<glyph unicode="[" horiz-adv-x="265" d="M217 -244h-119q-9 0 -9 9v952q0 9 9 9h119q9 0 9 -9v-17q0 -8 -9 -8h-90v-902h90q9 0 9 -8v-17q0 -9 -9 -9z" />
<glyph unicode="\" horiz-adv-x="387" d="M344 -225h-21q-8 0 -11 8l-277 914q-4 9 7 9h21q8 0 11 -8l277 -914q1 -4 -1 -6.5t-6 -2.5z" />
<glyph unicode="]" horiz-adv-x="265" d="M167 -244h-119q-10 0 -10 9v17q0 8 10 8h90v902h-90q-10 0 -10 8v17q0 9 10 9h119q9 0 9 -9v-952q0 -9 -9 -9z" />
<glyph unicode="^" horiz-adv-x="378" d="M95 529h-19q-9 0 -6 8l91 168q5 9 14 9h29q8 0 13 -9l91 -168q5 -8 -5 -8h-20q-10 0 -13 8l-81 143l-81 -143q-3 -8 -13 -8z" />
<glyph unicode="_" horiz-adv-x="402" d="M44 0h315q9 0 9 -9v-14q0 -8 -10 -8h-315q-9 0 -9 8v14q0 9 10 9z" />
<glyph unicode="`" horiz-adv-x="241" d="M178 566h-23q-8 0 -12 7l-88 137q-5 7 4 7h34q8 0 11 -6l78 -139q4 -6 -4 -6z" />
<glyph unicode="a" d="M456 23v-15q0 -9 -18 -9q-26 0 -43 18t-17 55v46q-20 -49 -63.5 -86.5t-115.5 -37.5q-73 0 -112 31.5t-39 89.5q0 122 176 122h152v87q0 130 -133 130q-65 0 -100 -29.5t-35 -77.5q0 -22 6 -38q3 -9 -5 -9h-17q-20 0 -20 53q0 59 45.5 97t125.5 38q171 0 171 -165v-239 q0 -51 35 -54q7 0 7 -7zM376 176v32h-152q-65 0 -100.5 -23.5t-35.5 -66.5t31.5 -67.5t86.5 -24.5q38 0 69 15.5t49 37.5t30.5 44t17.5 37z" />
<glyph unicode="b" horiz-adv-x="530" d="M106 0h-16q-10 0 -10 9v708q0 9 10 9h19q9 0 9 -10v-329l2 3q1 4 4.5 10t8.5 13.5t12.5 16t16.5 16.5t21.5 15.5t26.5 13.5t32 9.5t38 3.5q85 0 139.5 -59.5t54.5 -183.5q0 -127 -54.5 -189t-140.5 -62q-25 0 -47.5 5t-38.5 13t-29.5 17.5t-22 19.5t-14 18t-9.5 13l-3 6 v-77q0 -9 -9 -9zM118 329v-187q0 -3 4 -13.5t15 -28.5t27.5 -34t45.5 -27.5t64 -11.5q73 0 117.5 55t44.5 163q0 106 -46.5 158t-116.5 52q-34 0 -62.5 -13t-44.5 -31.5t-28 -37t-16 -31.5z" />
<glyph unicode="c" horiz-adv-x="475" d="M56 242q0 127 55 186.5t148 59.5q80 0 119.5 -40t39.5 -99q0 -46 -15 -46h-12q-13 0 -12 9q3 24 3 32q0 47 -30.5 79t-92.5 32q-75 0 -120.5 -52t-45.5 -161q0 -50 11.5 -89t29 -62.5t41 -38t44.5 -20t43 -5.5q82 0 131 62q7 10 13 4l12 -11q5 -5 1 -12q-55 -76 -160 -76 q-38 0 -71.5 12t-64.5 38.5t-49 77.5t-18 120z" />
<glyph unicode="d" horiz-adv-x="537" d="M412 159v187q-1 4 -5 13t-16 27t-28 32.5t-45 25.5t-63 11q-70 0 -116 -55.5t-46 -160.5q0 -102 46 -157t116 -55q21 0 40 4.5t33 12t26 17.5t20.5 21t15 21.5t10.5 20.5l7 17.5t4 12.5zM492 22v-14q0 -10 -18 -10q-26 0 -43 18t-17 55v32q-15 -31 -19 -35 q-49 -74 -146 -74q-82 0 -137.5 61t-55.5 183q0 127 54.5 188.5t140.5 61.5q34 0 63 -9t45.5 -20t30 -26t17 -20.5t5.5 -10.5v315q0 9 9 9h19q10 0 10 -10v-631q0 -52 33 -54q9 0 9 -9z" />
<glyph unicode="e" horiz-adv-x="480" d="M414 254h-320v-16q0 -61 17 -105t44 -65.5t53.5 -31t54.5 -9.5q78 0 130 62q8 9 14 3l11 -10q6 -6 1 -12q-10 -15 -25 -29t-52 -30.5t-82 -16.5q-38 0 -72 12t-65 38.5t-49 77.5t-18 120q0 127 53 186.5t145 59.5q170 0 170 -217q0 -11 -1.5 -14t-8.5 -3zM95 283h293 q0 172 -135 172q-67 0 -109 -42t-49 -130z" />
<glyph unicode="f" horiz-adv-x="354" d="M103 450h-62q-8 0 -8 8v14q0 10 9 10h61v99q0 67 36 107t102 40q70 0 112 -45q5 -7 1 -14l-9 -14q-4 -7 -10 1q-32 38 -93 38q-46 0 -73.5 -30.5t-27.5 -83.5v-98h183q9 0 9 -10v-14q0 -8 -8 -8h-184v-440q0 -10 -9 -10h-20q-9 0 -9 9v441z" />
<glyph unicode="g" horiz-adv-x="504" d="M300 11h-92q-60 0 -96 -29.5t-36 -82.5q0 -113 174 -113q184 0 184 120q0 50 -36.5 77.5t-97.5 27.5zM400 311q0 63 -43 103.5t-106 40.5t-105 -40t-42 -104t42 -103.5t105 -39.5q64 0 106.5 39.5t42.5 103.5zM212 42h88q77 0 124 -35t47 -101q0 -73 -54.5 -113 t-164.5 -40q-213 0 -213 145q0 92 93 125q-56 17 -68 52q-4 11 -4 25q0 63 68 77q-62 50 -62 134q0 79 53.5 128t131.5 49q15 0 29.5 -2.5t25 -5.5t18.5 -6t12 -6l5 -2q99 -3 106 61q1 9 10 9l15 -2q9 -1 9 -10q-6 -74 -103 -81q60 -51 60 -132q0 -79 -54.5 -127.5 t-132.5 -48.5q-15 0 -29 2t-25 5.5t-19 7t-14 6.5l-5 2q-26 0 -45 -15t-19 -42q0 -34 30 -46.5t87 -12.5z" />
<glyph unicode="h" horiz-adv-x="525" d="M80 9v708q0 9 10 9h19q9 0 9 -10v-353q14 54 56 89.5t104 35.5q85 0 126.5 -52t41.5 -134v-218q0 -51 33 -53q9 0 9 -9v-14q0 -10 -18 -10q-63 0 -63 83v223q0 66 -35 108.5t-101 42.5q-71 0 -112 -57t-41 -123v-265q0 -10 -9 -10h-19q-10 0 -10 9z" />
<glyph unicode="i" horiz-adv-x="204" d="M135 627q0 -14 -11 -24.5t-25 -10.5q-15 0 -25.5 10.5t-10.5 24.5q0 15 10.5 25.5t25.5 10.5q14 0 25 -10.5t11 -25.5zM159 22v-14q0 -10 -19 -10q-28 0 -45 20t-17 63v393q0 9 9 9h20q9 0 9 -9v-390q0 -51 34 -53q9 0 9 -9z" />
<glyph unicode="j" horiz-adv-x="199" d="M131 632q0 -13 -9 -22t-23 -9t-23 9t-9 22t9 22t23 9t23 -9t9 -22zM119 472v-564q0 -155 -135 -155q-46 0 -77 20q-6 4 -3 10l7 17q3 7 7 3l6 -3q7 -4 13.5 -6.5t18.5 -5t25 -2.5q50 0 74.5 29.5t24.5 94.5v563q0 9 10 9h19q10 0 10 -10z" />
<glyph unicode="k" horiz-adv-x="520" d="M501 22v-14q0 -10 -18 -10q-41 0 -65.5 26t-37 63.5t-26.5 75t-44 63.5t-78 26h-114v-243q0 -9 -9 -9h-19q-10 0 -10 9v708q0 9 10 9h19q9 0 9 -9v-435h113q75 0 119 53.5t46 137.5q0 9 9 9h19q9 0 9 -10q-2 -72 -34 -128.5t-99 -76.5q33 -10 55.5 -38.5t33.5 -61 t22.5 -64t31 -52t49.5 -20.5q9 0 9 -9z" />
<glyph unicode="l" horiz-adv-x="207" d="M160 22v-14q0 -10 -18 -10q-62 0 -62 83v635q0 10 9 10h20q9 0 9 -10v-632q0 -51 34 -53q8 0 8 -9z" />
<glyph unicode="m" horiz-adv-x="853" d="M773 302v-218q0 -53 34 -53q9 0 9 -10v-12q0 -11 -19 -11q-28 0 -45 20t-17 63v221q0 67 -34 110t-101 43t-107 -54t-42 -123v-194q0 -53 34 -53q8 0 8 -10v-12q0 -11 -18 -11q-62 0 -62 83v221q0 67 -34.5 110t-100.5 43q-72 0 -112 -57t-40 -124v-265q0 -9 -9 -9h-19 q-10 0 -10 10v390q0 47 -34 51q-8 0 -8 10v13q0 10 19 10q24 0 41 -18.5t17 -53.5v-52q14 56 55 92t106 36q134 0 161 -133q13 56 54 94.5t108 38.5q86 0 126 -51.5t40 -134.5z" />
<glyph unicode="n" horiz-adv-x="533" d="M88 10v390q0 47 -34 51q-8 0 -8 10v13q0 10 19 10q24 0 41 -18.5t17 -53.5v-52q14 55 55.5 91.5t107.5 36.5q85 0 126.5 -52t41.5 -134v-218q0 -51 33 -53q9 0 9 -10v-12q0 -11 -18 -11q-63 0 -63 83v221q0 67 -34.5 110t-101.5 43q-72 0 -112.5 -57.5t-40.5 -123.5v-265 q0 -9 -9 -9h-19q-10 0 -10 10z" />
<glyph unicode="o" horiz-adv-x="517" d="M258 -6q-91 0 -146.5 64t-55.5 183t55.5 183t146.5 64q92 0 147.5 -64t55.5 -183t-56 -183t-147 -64zM258 27q71 0 118 54.5t47 159.5t-47 159.5t-118 54.5t-118 -54.5t-47 -159.5t47 -159.5t118 -54.5z" />
<glyph unicode="p" horiz-adv-x="538" d="M126 329v-187q1 -5 4.5 -14t15 -28t27.5 -34t45 -27t64 -12q73 0 118 55.5t45 162.5q0 106 -46.5 158t-117.5 52q-34 0 -62.5 -13t-44.5 -31.5t-28 -37t-16 -31.5zM46 460v14q0 10 19 10q25 0 42 -18t17 -53v-28q32 64 88 88q34 15 76 15q85 0 139.5 -59.5t54.5 -183.5 q0 -127 -54.5 -189t-140.5 -62q-35 0 -64.5 9.5t-46.5 22.5t-29 26.5t-17 23.5l-4 9v-320q0 -9 -9 -9h-19q-10 0 -10 10v634q0 46 -33 51q-9 0 -9 9z" />
<glyph unicode="q" horiz-adv-x="530" d="M412 160v186q-1 4 -5 13t-16 26.5t-28.5 32.5t-45 26t-62.5 11q-72 0 -117 -55.5t-45 -160.5q0 -102 46.5 -157t116.5 -55q21 0 39.5 4.5t32.5 12t26 17.5t20.5 21t15 22t10.5 21t6.5 17.5t3.5 12.5zM424 487h16q10 0 10 -10v-711q0 -10 -10 -10h-19q-9 0 -9 9v336l-2 -3 q-1 -4 -4 -10.5t-7.5 -14.5t-12 -16.5t-16.5 -17.5t-21 -17t-26.5 -14.5t-33 -10t-39.5 -3.5q-82 0 -138 61t-56 183q0 127 54 188.5t140 61.5q25 0 47 -4.5t38 -12.5t29.5 -17t22.5 -18.5t15 -17l10 -12.5l3 -6v77q0 10 9 10z" />
<glyph unicode="r" horiz-adv-x="354" d="M88 9v390q0 48 -34 52q-8 0 -8 8v15q0 10 19 10q24 0 41 -18t17 -55v-52q14 56 54.5 92.5t104.5 36.5q28 0 46 -6q7 -3 5 -9l-10 -22q-3 -6 -10 -4q-30 6 -38 6q-69 0 -108.5 -56.5t-40.5 -122.5v-264q0 -10 -9 -10h-19q-10 0 -10 9z" />
<glyph unicode="s" horiz-adv-x="456" d="M378 312h-16q-9 0 -7 8q4 14 4 35q0 42 -32.5 71t-99.5 29q-63 0 -97 -29t-34 -77q0 -44 32 -66.5t77 -29t90.5 -14.5t77.5 -35.5t32 -79.5q0 -62 -44 -96t-128 -34q-42 0 -77 10.5t-57 27.5t-33.5 29t-19.5 24q-4 5 2 10l14 13q6 6 10 0q11 -16 27 -32t53 -32.5 t80 -16.5q65 0 100.5 25t35.5 70q0 40 -32 61t-77.5 28t-90.5 16t-77 38.5t-32 83.5q0 59 41.5 99t126.5 40q88 0 128 -38.5t40 -92.5q0 -24 -5 -37q-3 -8 -12 -8z" />
<glyph unicode="t" horiz-adv-x="387" d="M152 482h192q10 0 10 -9v-15q0 -8 -10 -8h-192v-300q0 -61 25 -91.5t81 -30.5q11 0 22 2t20 5.5t16 7t14 8.5t10.5 8t7.5 7l5 4q6 5 9 -1l8 -15q3 -5 -1 -10q-46 -50 -114 -50q-73 0 -107.5 38.5t-34.5 116.5v301h-69q-9 0 -9 8v15q0 9 9 9h69v141q0 9 10 9h19 q10 0 10 -10v-140z" />
<glyph unicode="u" horiz-adv-x="524" d="M479 21v-13q0 -10 -19 -10q-59 0 -59 75v37q-20 -51 -64.5 -83.5t-107.5 -32.5q-153 0 -153 165v314q0 9 10 9h19q9 0 9 -10v-310q0 -135 124 -135q71 0 115.5 55t44.5 108v283q0 9 9 9h20q10 0 10 -10v-388q0 -50 33 -53q9 -2 9 -10z" />
<glyph unicode="v" horiz-adv-x="485" d="M259 0h-34q-7 0 -10 10l-175 463q-2 9 8 9h24q9 0 10 -7l161 -434l161 434q3 7 10 7h23q11 0 7 -9l-174 -463q-4 -10 -11 -10z" />
<glyph unicode="w" horiz-adv-x="721" d="M524 0h-32q-8 0 -11 10l-119 391l-121 -389q-3 -12 -11 -12h-32q-7 0 -11 10l-143 463q-2 9 7 9h25q7 0 9 -8l129 -433l131 426q1 6 8 6h19q6 0 9 -7l127 -425l129 433q2 8 10 8h23q4 0 6.5 -3t0.5 -6l-142 -461q-3 -12 -11 -12z" />
<glyph unicode="x" horiz-adv-x="457" d="M412 0h-25q-7 0 -11 5l-148 211l-147 -210q-3 -6 -11 -6h-26q-11 0 -6 8l165 235l-165 231q-5 8 6 8h28q6 0 11 -6l145 -207l148 207q4 6 11 6h25q10 0 7 -7l-166 -233l166 -235q3 -7 -7 -7z" />
<glyph unicode="y" horiz-adv-x="485" d="M445 474l-236 -621q-18 -48 -44.5 -74t-74.5 -26q-26 0 -50 8q-6 1 -4 8l4 21q1 6 6 4q24 -7 43 -7q33 0 51 17.5t33 55.5l50 133l-182 479q-5 10 6 10h23q10 0 11 -6l163 -434l160 432q3 8 11 8h22q11 0 8 -8z" />
<glyph unicode="z" horiz-adv-x="440" d="M387 0h-335q-9 0 -9 9v13q0 11 7 19l301 409h-299q-9 0 -9 8v15q0 9 10 9h334q9 0 9 -9v-13q0 -8 -7 -20l-300 -408h298q9 0 9 -9v-14q0 -9 -9 -9z" />
<glyph unicode="{" horiz-adv-x="289" d="M113 324v259q0 75 37 108t91 35q10 0 10 -9v-18q0 -8 -9 -8q-93 -6 -93 -112v-260q0 -66 -49 -78q49 -18 49 -78v-260q0 -55 25 -82.5t65 -29.5q12 0 12 -9v-17q0 -9 -9 -9q-56 3 -92.5 36.5t-36.5 106.5v259q0 33 -19 50t-49 17q-6 0 -6 7v18q0 7 6 7q29 0 48.5 17 t19.5 50z" />
<glyph unicode="|" horiz-adv-x="213" d="M125 727v-972q0 -9 -10 -9h-17q-9 0 -9 9v972q0 9 9 9h17q10 0 10 -9z" />
<glyph unicode="}" horiz-adv-x="289" d="M177 583v-259q0 -33 19 -50t48 -17q7 0 7 -7v-18q0 -7 -7 -7q-30 0 -48.5 -16.5t-18.5 -50.5v-259q0 -73 -36.5 -106.5t-92.5 -36.5q-10 0 -10 9v17q0 10 11 10q42 0 66.5 29t24.5 82v260q0 60 49 78q-49 12 -49 78v260q0 106 -92 112q-10 0 -10 8v18q0 9 10 9 q55 -2 92 -35t37 -108z" />
<glyph unicode="~" horiz-adv-x="417" d="M114 222h-21q-7 0 -9 6q-5 15 -5 29q0 27 16.5 44t46.5 17q26 0 68 -18.5t65 -18.5q28 0 28 24q0 15 -5 25q-1 2 0.5 3t5.5 1h21q6 0 8 -5q5 -10 5 -28q0 -24 -15 -39t-45 -15q-33 0 -74 18.5t-58 18.5q-14 0 -23.5 -8.5t-9.5 -22.5t6 -26q3 -5 -5 -5z" />
<glyph unicode="&#xa1;" horiz-adv-x="208" d="M104 428q-14 0 -24 10.5t-10 24.5q0 13 10 23.5t24 10.5t24.5 -10t10.5 -24t-10.5 -24.5t-24.5 -10.5zM83 -240l4 540q0 8 9 8h16q9 0 9 -8l4 -540q0 -8 -8 -8h-26q-8 0 -8 8z" />
<glyph unicode="&#xa2;" horiz-adv-x="485" d="M100 243q0 -101 42.5 -152.5t100.5 -60.5v432q-66 -6 -104.5 -58.5t-38.5 -160.5zM243 -93v88q-75 7 -127.5 68.5t-52.5 179.5q0 123 48 185t132 68v72q0 9 10 9h14q9 0 9 -9v-71q59 -2 96 -30.5t51 -55.5q3 -6 -2 -9l-21 -13q-6 -5 -8 2q-4 8 -10.5 16.5t-20 22t-36 23 t-49.5 10.5v-435q34 1 60 12t40 27.5t21 28t10 22.5q3 6 8 3l15 -12q4 -3 3 -8q-38 -102 -157 -106v-88q0 -9 -9 -9h-14q-10 0 -10 9z" />
<glyph unicode="&#xa3;" horiz-adv-x="584" d="M64 288h105q-3 5 -20.5 30.5t-24 37.5t-18.5 36t-16.5 48.5t-4.5 51.5q0 93 57 153.5t161 60.5q55 0 99 -12t69.5 -31.5t38 -33t19.5 -25.5q3 -5 -1 -8l-25 -12q-6 -2 -8 3q-5 9 -15.5 19.5t-32.5 27t-60 27t-84 10.5q-86 0 -130.5 -52t-46.5 -128q-1 -32 9 -64 t20.5 -50.5t30.5 -48t26 -40.5h217q10 0 10 -10v-16q0 -10 -10 -10h-203q13 -24 13 -49q0 -36 -12 -68.5t-30.5 -54t-28 -30.5t-17.5 -15h343q9 0 9 -9v-17q0 -9 -9 -9h-393q-9 0 -9 9v12q0 8 7 13q18 12 37 29t40.5 57t21.5 83q0 23 -14 49h-121q-9 0 -9 10v16q0 10 10 10z " />
<glyph unicode="&#xa4;" horiz-adv-x="588" d="M456 377q0 -48 -26 -86l75 -74q6 -6 0 -12l-10 -10q-5 -5 -11 0l-74 73q-45 -51 -115 -51q-72 -2 -117 52l-74 -75q-7 -7 -12 0l-10 10q-5 5 0 12l76 76q-25 40 -24 86q0 47 24 85l-75 76q-7 7 -1 12l10 10q7 7 12 0l74 -74q47 52 116 52q67 0 116 -52l74 74q6 6 12 0 l10 -10q5 -5 0 -12l-76 -76q26 -41 26 -86zM424 377q0 55 -38 93t-92 38q-53 0 -91 -38.5t-38 -91.5q0 -54 37.5 -92t92.5 -38q53 0 91.5 38t37.5 91z" />
<glyph unicode="&#xa5;" horiz-adv-x="599" d="M94 408h118l-172 267q-5 9 7 9h26q7 0 12 -8l215 -335l213 335q6 8 13 8h26q12 0 7 -9l-174 -267h121q9 0 9 -9v-14q0 -9 -10 -9h-140l-45 -70v-26h150q9 0 9 -10v-13q0 -9 -9 -9h-150v-239q0 -9 -10 -9h-21q-10 0 -10 9v239h-150q-10 0 -10 9v13q0 10 10 10h150v26 l-45 70h-141q-9 0 -9 9v14q0 9 10 9z" />
<glyph unicode="&#xa6;" horiz-adv-x="215" d="M90 364v363q0 9 9 9h17q10 0 10 -10v-363q0 -9 -10 -9h-17q-9 0 -9 10zM90 -244v431q0 9 9 9h17q10 0 10 -10v-431q0 -9 -10 -9h-17q-9 0 -9 10z" />
<glyph unicode="&#xa7;" horiz-adv-x="622" d="M559 182q0 -70 -47 -119q47 -44 47 -121q0 -81 -63 -134t-177 -53q-176 0 -258 123q-4 6 3 11l15 13q7 5 10 0q7 -11 19 -24.5t39 -36t72.5 -37t99.5 -14.5q93 0 146.5 41t53.5 111q0 49 -24.5 79.5t-64 44.5t-87 22.5t-95.5 19t-87.5 27.5t-64 54t-24.5 94q0 64 51 116 q-51 43 -51 123q0 79 61.5 131.5t171.5 52.5q49 0 91 -11.5t65.5 -25.5t43 -34t25.5 -29t11 -19q3 -7 -3 -12l-18 -11q-7 -4 -10 2q-5 10 -15.5 23.5t-33.5 34t-63.5 34t-90.5 13.5q-93 0 -143.5 -43t-50.5 -105q0 -48 24.5 -79t64 -44.5t87 -22.5t95 -19t87 -27.5t64 -54.5 t24.5 -94zM518 181q0 50 -25 81.5t-68 46t-88 22t-96.5 19t-82.5 28.5q-45 -42 -45 -94q0 -50 25.5 -81.5t69 -45t89.5 -21.5t98.5 -20t84.5 -31q38 41 38 96z" />
<glyph unicode="&#xa8;" horiz-adv-x="323" d="M83 600q-13 0 -23 10t-10 24t10 23.5t23 9.5t23 -9.5t10 -23.5t-10 -24t-23 -10zM240 600q-13 0 -23 10t-10 24t9.5 23.5t23.5 9.5t24 -9.5t10 -23.5t-10 -24t-24 -10z" />
<glyph unicode="&#xa9;" horiz-adv-x="868" d="M433 -11q-165 0 -269 104t-104 270t104 270t269 104t269.5 -104t104.5 -270t-104 -270t-270 -104zM433 23q149 0 243.5 95.5t94.5 244.5t-95 245t-243 96q-149 0 -243 -95t-94 -246q0 -150 93.5 -245t243.5 -95zM229 353q0 138 57 202t145 64q47 0 82.5 -15t53.5 -39 t26 -41.5t11 -33.5q2 -8 -9 -10l-14 -2q-9 -2 -11 7q-3 13 -9.5 26.5t-21 32t-42.5 30t-65 11.5q-70 0 -118.5 -54t-48.5 -177q0 -59 16.5 -102.5t43 -66t54 -32.5t56.5 -10q102 0 148 50q6 6 11 0l9 -12q4 -5 -1 -12q-55 -60 -169 -60q-36 0 -70 12.5t-65 39t-50 76.5 t-19 116z" />
<glyph unicode="&#xaa;" horiz-adv-x="355" d="M62 495q0 69 101 69h76v42q0 70 -69 70q-31 0 -48.5 -13.5t-17.5 -34.5v-12l1 -6q0 -5 -5 -5h-13q-9 0 -10 6q-2 8 -2 19q0 30 24.5 51t70.5 21q98 0 98 -95v-129q0 -24 17 -25q7 -2 7 -6v-12q0 -8 -12 -8q-16 0 -28 9.5t-12 31.5v9q-21 -52 -92 -52q-38 0 -62 18t-24 52 zM239 530v12h-75q-74 0 -74 -45q0 -47 62 -47q43 0 65 25t22 55z" />
<glyph unicode="&#xab;" horiz-adv-x="420" d="M60 241q-6 7 -6 16v13q0 10 6 17l119 120q5 5 12 0l10 -13q7 -5 0 -12l-116 -118l116 -118q7 -7 0 -12l-10 -13q-7 -5 -12 0zM205 241q-7 7 -7 16v13q0 10 7 17l119 120q4 5 11 0l11 -13q6 -6 -1 -12l-116 -118l116 -118q7 -6 1 -12l-11 -13q-7 -5 -11 0z" />
<glyph unicode="&#xac;" horiz-adv-x="452" d="M339 157v104h-240q-9 0 -9 9v14q0 9 9 9h265q9 0 9 -9v-127q0 -10 -9 -10h-16q-9 0 -9 10z" />
<glyph unicode="&#xad;" horiz-adv-x="402" d="M85 290h233q9 0 9 -10v-13q0 -8 -9 -8h-234q-9 0 -9 8v13q0 10 10 10z" />
<glyph unicode="&#xae;" horiz-adv-x="868" d="M661 147v-16q0 -10 -21 -10q-29 0 -52 22t-38.5 53t-31.5 62t-38.5 53t-51.5 22h-126v-202q0 -9 -9 -9h-18q-9 0 -9 9v466q0 8 9 8h158q70 0 109 -35t39 -103q0 -36 -12 -62t-30 -38t-30.5 -17t-19.5 -7h-2q24 -11 45.5 -43t34.5 -63.5t33.5 -57t43.5 -25.5h10q7 0 7 -7z M302 364h126q117 0 117 102q0 107 -115 107h-128v-209zM433 -11q-165 0 -269 104t-104 270t104 270t269 104t269.5 -104t104.5 -270t-104 -270t-270 -104zM433 23q149 0 243.5 95.5t94.5 244.5t-95 245t-243 96q-149 0 -243 -95t-94 -246q0 -150 93.5 -245t243.5 -95z" />
<glyph unicode="&#xaf;" horiz-adv-x="353" d="M67 642h219q10 0 10 -8v-14q0 -9 -10 -9h-219q-10 0 -10 9v14q0 8 10 8z" />
<glyph unicode="&#xb0;" horiz-adv-x="351" d="M293 587q0 -49 -34.5 -83t-83.5 -34t-83 34t-34 83t34 83.5t83 34.5t83.5 -34.5t34.5 -83.5zM268 587q0 38 -27 65.5t-66 27.5q-38 0 -65 -27.5t-27 -65.5t27 -65t65 -27q39 0 66 27t27 65z" />
<glyph unicode="&#xb1;" horiz-adv-x="486" d="M400 277h-141v-155q0 -9 -8 -9h-16q-9 0 -9 10v154h-140q-9 0 -9 9v14q0 9 9 9h140v152q0 10 8 10h16q9 0 9 -10v-152h141q9 0 9 -9v-14q0 -9 -9 -9zM86 35h315q9 0 9 -9v-14q0 -8 -10 -8h-315q-9 0 -9 8v14q0 9 10 9z" />
<glyph unicode="&#xb2;" horiz-adv-x="245" d="M199 493h-153q-8 0 -8 8v12q0 27 14.5 46.5t35 31.5t40.5 23t34.5 29t14.5 43q0 27 -15.5 42t-40.5 15q-44 0 -55 -41q-2 -5 -8 -4l-15 3q-6 2 -4 8q15 60 83 60q40 0 61.5 -22.5t21.5 -59.5q0 -35 -21 -59.5t-45.5 -36t-45.5 -30t-21 -41.5v-3h126q9 0 9 -8v-8 q0 -8 -8 -8z" />
<glyph unicode="&#xb3;" horiz-adv-x="253" d="M126 620h-13q-7 0 -7 7v9q0 7 7 7h13q18 0 35 14.5t17 39.5q0 20 -15 33t-44 13q-19 0 -32.5 -8.5t-17.5 -15.5q-4 -6 -11 -3l-11 5q-4 2 -2 8q3 6 9.5 14t25 17t41.5 9q43 0 64.5 -20.5t21.5 -49.5q0 -31 -15 -47t-28 -18q52 -17 52 -68q0 -35 -27 -55t-69 -20 q-61 0 -85 44q-2 5 3 9l9 7q4 3 7 -2q23 -34 66 -34q30 0 49 14t19 38q0 28 -19 40.5t-43 12.5z" />
<glyph unicode="&#xb4;" horiz-adv-x="241" d="M85 566h-22q-9 0 -5 6l78 139q5 6 12 6h34q9 0 4 -7l-89 -137q-4 -7 -12 -7z" />
<glyph unicode="&#xb5;" horiz-adv-x="511" d="M124 164q0 -135 123 -135q71 0 115.5 54t45.5 108v282q0 9 9 9h19q10 0 10 -9v-464q0 -9 -10 -9h-16q-10 0 -10 9v105q-20 -53 -64 -86.5t-107 -33.5q-90 0 -118 61v-290q0 -9 -10 -9h-16q-9 0 -9 9v708q0 9 9 9h19q10 0 10 -9v-309z" />
<glyph unicode="&#xb6;" horiz-adv-x="559" d="M315 9v280h-70q-97 0 -149.5 56t-52.5 149t52.5 149.5t149.5 56.5h208q10 0 10 -9v-682q0 -9 -10 -9h-10q-9 0 -9 9v666h-90v-666q0 -9 -10 -9h-10q-9 0 -9 9z" />
<glyph unicode="&#xb7;" horiz-adv-x="219" d="M74 355q0 14 10.5 24.5t24.5 10.5q15 0 25.5 -10.5t10.5 -24.5t-10.5 -24.5t-25.5 -10.5q-14 0 -24.5 10.5t-10.5 24.5z" />
<glyph unicode="&#xb8;" horiz-adv-x="259" d="M145 -5l-14 -35q28 -2 49.5 -19.5t21.5 -46.5t-21.5 -47t-57.5 -18q-40 0 -62 22q-4 4 -1 9l6 12q2 5 7 2q25 -18 50 -18q23 0 36 10.5t13 27.5q0 19 -18.5 32t-53.5 13q-6 0 -3 7l19 49q4 7 11 7h14q7 0 4 -7z" />
<glyph unicode="&#xb9;" horiz-adv-x="188" d="M138 756v-255q0 -9 -9 -9h-12q-8 0 -8 9v211q-6 -15 -26 -30t-45 -17q-8 0 -9 5l-3 13q-1 7 6 7q28 2 48.5 22t26.5 45q0 8 10 8h12q9 0 9 -9z" />
<glyph unicode="&#xba;" horiz-adv-x="352" d="M176 426q-52 0 -83.5 35.5t-31.5 102.5t31.5 102.5t83.5 35.5t83.5 -35.5t31.5 -102.5t-31.5 -102.5t-83.5 -35.5zM176 452q38 0 62.5 28.5t24.5 83.5t-25 83.5t-62 28.5t-62 -28.5t-25 -83.5q0 -56 24.5 -84t62.5 -28z" />
<glyph unicode="&#xbb;" horiz-adv-x="330" d="M215 240l-118 -119q-7 -7 -10 0l-13 14q-5 5 1 10l116 119l-116 119q-6 5 -1 10l12 14q5 6 11 0l118 -119q7 -7 7 -17v-13q0 -11 -7 -18zM359 240l-118 -119q-6 -6 -10 0l-13 14q-4 5 1 10l117 119l-117 119q-5 5 -1 10l13 14q3 7 10 0l118 -119q8 -8 8 -17v-13 q0 -11 -8 -18z" />
<glyph unicode="&#xbc;" horiz-adv-x="483" d="M349 691l-206 -683q-3 -8 -11 -8h-14q-10 0 -8 9l207 683q3 8 11 8h14q11 0 7 -9zM151 691v-255q0 -9 -9 -9h-12q-9 0 -9 9v211q-5 -15 -25.5 -30t-45.5 -17q-7 0 -8 5l-3 13q-1 7 6 7q28 2 48 22t27 45q0 8 9 8h13q9 0 9 -9zM244 73v8q0 8 3 12l90 174q3 6 10 6h17 q8 0 5 -7l-92 -177h103v61q0 9 9 9h12q8 0 8 -9v-61h30q8 0 8 -8v-8q0 -8 -8 -8h-30v-56q0 -9 -8 -9h-12q-9 0 -9 9v56h-128q-8 0 -8 8z" />
<glyph unicode="&#xbd;" horiz-adv-x="485" d="M349 691l-206 -683q-3 -8 -11 -8h-14q-10 0 -8 9l207 683q3 8 11 8h14q11 0 7 -9zM151 691v-255q0 -9 -9 -9h-12q-9 0 -9 9v211q-5 -15 -25.5 -30t-45.5 -17q-7 0 -8 5l-3 13q-1 7 6 7q28 2 48 22t27 45q0 8 9 8h13q9 0 9 -9zM429 0h-152q-8 0 -8 8v12q0 33 21.5 56 t47.5 33.5t47.5 32t21.5 51.5q0 27 -15 42t-40 15q-44 0 -55 -41q-2 -7 -9 -4l-14 3q-5 1 -5 8q3 12 9 23.5t26 24t48 12.5q40 0 62 -22.5t22 -59.5q0 -35 -21 -59.5t-45.5 -36t-45.5 -30t-21 -41.5v-3h126q8 0 8 -8v-8q0 -8 -8 -8z" />
<glyph unicode="&#xbe;" horiz-adv-x="532" d="M399 691l-206 -683q-3 -8 -11 -8h-14q-10 0 -8 9l207 683q3 8 11 8h14q11 0 7 -9zM139 553h-13q-7 0 -7 7v9q0 7 7 7h13q18 0 35 14.5t17 39.5q0 20 -15 33t-44 13q-19 0 -32.5 -8.5t-17.5 -15.5q-4 -6 -11 -3l-11 5q-4 2 -2 8q3 6 9.5 14t25 17t41.5 9q43 0 64.5 -20.5 t21.5 -49.5q0 -31 -15 -47t-28 -18q52 -17 52 -68q0 -35 -27 -55t-69 -20q-61 0 -85 44q-2 5 3 9l9 7q4 3 7 -2q23 -34 66 -34q30 0 49 14t19 38q0 28 -19 40.5t-43 12.5zM293 73v8q0 6 3 12l90 174q3 6 10 6h17q9 0 5 -7l-92 -177h103v61q0 9 9 9h12q8 0 8 -9v-61h30 q8 0 8 -8v-8q0 -8 -8 -8h-30v-56q0 -9 -8 -9h-12q-9 0 -9 9v56h-128q-8 0 -8 8z" />
<glyph unicode="&#xbf;" horiz-adv-x="429" d="M243 428q-14 0 -24.5 10.5t-10.5 24.5t10.5 24t24.5 10q13 0 23.5 -10.5t10.5 -23.5q0 -14 -10 -24.5t-24 -10.5zM362 -70l21 -5q7 -2 7 -11q-2 -70 -51.5 -115t-122.5 -45q-87 0 -131.5 49.5t-44.5 119.5q0 50 18.5 86.5t45.5 61t53.5 49.5t45.5 67t20 99q0 9 8 9h20 q8 0 8 -9q-1 -63 -20 -108.5t-45.5 -71t-52.5 -48t-44 -55.5t-18 -79q0 -58 36 -96.5t102 -38.5q58 0 96 37.5t40 94.5v3.5t1 3.5t3 2.5t5 -0.5z" />
<glyph unicode="&#xc0;" horiz-adv-x="635" d="M560 8l-80 212h-325l-80 -212q-3 -8 -11 -8h-23q-11 0 -7 8l259 682q3 10 10 10h28q7 0 11 -10l259 -682q1 -3 -1 -5.5t-7 -2.5h-23q-7 0 -10 8zM317 650l-149 -396h299zM309 784h-23q-8 0 -12 7l-88 137q-5 7 4 7h34q8 0 11 -6l78 -139q4 -6 -4 -6z" />
<glyph unicode="&#xc1;" horiz-adv-x="635" d="M560 8l-80 212h-325l-80 -212q-3 -8 -11 -8h-23q-11 0 -7 8l259 682q3 10 10 10h28q7 0 11 -10l259 -682q1 -3 -1 -5.5t-7 -2.5h-23q-7 0 -10 8zM317 650l-149 -396h299zM333 784h-22q-9 0 -5 6l78 139q4 6 12 6h34q9 0 4 -7l-89 -137q-4 -7 -12 -7z" />
<glyph unicode="&#xc2;" horiz-adv-x="635" d="M560 8l-80 212h-325l-80 -212q-3 -8 -11 -8h-23q-11 0 -7 8l259 682q3 10 10 10h28q7 0 11 -10l259 -682q1 -3 -1 -5.5t-7 -2.5h-23q-7 0 -10 8zM317 650l-149 -396h299zM237 781h-19q-11 0 -6 8l78 135q5 8 13 8h30q8 0 13 -8l78 -135q5 -8 -6 -8h-20q-9 0 -13 7 l-68 110l-67 -110q-4 -7 -13 -7z" />
<glyph unicode="&#xc3;" horiz-adv-x="635" d="M560 8l-80 212h-325l-80 -212q-3 -8 -11 -8h-23q-11 0 -7 8l259 682q3 10 10 10h28q7 0 11 -10l259 -682q1 -3 -1 -5.5t-7 -2.5h-23q-7 0 -10 8zM317 650l-149 -396h299zM226 799h-21q-7 0 -9 6q-5 15 -5 29q0 27 16.5 44t46.5 17q26 0 68 -18.5t65 -18.5q28 0 28 24 q0 15 -5 25q-1 2 0.5 3t5.5 1h21q6 0 8 -5q5 -10 5 -28q0 -24 -15 -39t-45 -15q-33 0 -74 18.5t-58 18.5q-14 0 -23.5 -8.5t-9.5 -22.5t6 -26q3 -5 -5 -5z" />
<glyph unicode="&#xc4;" horiz-adv-x="635" d="M560 8l-80 212h-325l-80 -212q-3 -8 -11 -8h-23q-11 0 -7 8l259 682q3 10 10 10h28q7 0 11 -10l259 -682q1 -3 -1 -5.5t-7 -2.5h-23q-7 0 -10 8zM317 650l-149 -396h299zM241 818q-13 0 -23 10t-10 24t10 23.5t23 9.5t23 -9.5t10 -23.5t-10 -24t-23 -10zM398 818 q-13 0 -23 10t-10 24t9.5 23.5t23.5 9.5t24 -9.5t10 -23.5t-10 -24t-24 -10z" />
<glyph unicode="&#xc5;" horiz-adv-x="635" d="M560 8l-80 212h-325l-80 -212q-3 -8 -11 -8h-23q-11 0 -7 8l259 682q3 10 10 10h28q7 0 11 -10l259 -682q1 -3 -1 -5.5t-7 -2.5h-23q-7 0 -10 8zM317 650l-149 -396h299zM318 783q-28 0 -46 18t-18 46t18 46.5t46 18.5t46.5 -18.5t18.5 -46.5t-18.5 -46t-46.5 -18z M358 847q0 18 -10.5 29t-29.5 11q-18 0 -28.5 -11t-10.5 -29q0 -17 10.5 -28t28.5 -11t29 11t11 28z" />
<glyph unicode="&#xc6;" horiz-adv-x="813" d="M320 647l-153 -394h303zM561 8l-78 211h-329l-79 -211q-2 -8 -10 -8h-24q-11 0 -7 8l261 682q5 10 11 10h446q9 0 9 -9v-17q0 -10 -9 -10h-397l108 -289h234q10 0 10 -9v-17q0 -9 -10 -9h-220l115 -304h160q9 0 9 -10v-17q0 -9 -9 -9h-180q-8 0 -11 8z" />
<glyph unicode="&#xc7;" horiz-adv-x="629" d="M563 130l14 -16q5 -5 1 -11q-7 -10 -20.5 -24t-40.5 -35t-69 -35.5t-90 -14.5l-13 -34q27 -2 48.5 -19.5t21.5 -46.5t-21.5 -47t-57.5 -18q-37 0 -62 22q-3 3 -1 9l6 12q3 6 8 2q25 -18 49 -18q23 0 36.5 10.5t13.5 27.5q0 18 -18.5 31.5t-54.5 13.5q-7 0 -4 7l20 49 q-121 8 -194 93t-73 259q0 183 78 271t204 88q56 0 100 -18.5t66.5 -40t39.5 -54.5t20 -45t7 -30q1 -9 -7 -11l-20 -4q-10 -1 -11 7q-3 15 -7.5 30.5t-18.5 40.5t-34 43.5t-55.5 32.5t-79.5 14q-105 0 -173 -78t-68 -246q0 -88 21.5 -152t58.5 -99t80 -51t94 -16 q120 0 195 100q5 7 11 1z" />
<glyph unicode="&#xc8;" horiz-adv-x="554" d="M485 0h-380q-9 0 -9 9v682q0 9 9 9h380q9 0 9 -9v-17q0 -9 -9 -9h-349v-298h305q9 0 9 -10v-16q0 -9 -10 -9h-304v-297h349q9 0 9 -9v-17q0 -9 -9 -9zM328 784h-23q-8 0 -12 7l-88 137q-5 7 4 7h34q8 0 11 -6l78 -139q4 -6 -4 -6z" />
<glyph unicode="&#xc9;" horiz-adv-x="554" d="M326 784h-22q-9 0 -5 6l78 139q5 6 12 6h34q9 0 4 -7l-89 -137q-4 -7 -12 -7zM485 0h-380q-9 0 -9 9v682q0 9 9 9h380q9 0 9 -9v-17q0 -9 -9 -9h-349v-298h305q9 0 9 -10v-16q0 -9 -10 -9h-304v-297h349q9 0 9 -9v-17q0 -9 -9 -9z" />
<glyph unicode="&#xca;" horiz-adv-x="554" d="M244 781h-19q-11 0 -6 8l78 135q5 8 13 8h30q8 0 13 -8l78 -135q5 -8 -6 -8h-20q-9 0 -13 7l-68 110l-67 -110q-4 -7 -13 -7zM485 0h-380q-9 0 -9 9v682q0 9 9 9h380q9 0 9 -9v-17q0 -9 -9 -9h-349v-298h305q9 0 9 -10v-16q0 -9 -10 -9h-304v-297h349q9 0 9 -9v-17 q0 -9 -9 -9z" />
<glyph unicode="&#xcb;" horiz-adv-x="554" d="M249 818q-13 0 -23 10t-10 24t10 23.5t23 9.5t23 -9.5t10 -23.5t-10 -24t-23 -10zM406 818q-13 0 -23 10t-10 24t9.5 23.5t23.5 9.5t24 -9.5t10 -23.5t-10 -24t-24 -10zM485 0h-380q-9 0 -9 9v682q0 9 9 9h380q9 0 9 -9v-17q0 -9 -9 -9h-349v-298h305q9 0 9 -10v-16 q0 -9 -10 -9h-304v-297h349q9 0 9 -9v-17q0 -9 -9 -9z" />
<glyph unicode="&#xcc;" horiz-adv-x="232" d="M136 691v-682q0 -9 -9 -9h-22q-9 0 -9 9v682q0 9 9 9h22q9 0 9 -9zM130 784h-23q-8 0 -12 7l-88 137q-5 7 4 7h34q8 0 11 -6l78 -139q4 -6 -4 -6z" />
<glyph unicode="&#xcd;" horiz-adv-x="232" d="M136 691v-682q0 -9 -9 -9h-22q-9 0 -9 9v682q0 9 9 9h22q9 0 9 -9zM129 784h-22q-9 0 -5 6l78 139q4 6 12 6h34q9 0 4 -7l-89 -137q-4 -7 -12 -7z" />
<glyph unicode="&#xce;" horiz-adv-x="232" d="M136 691v-682q0 -9 -9 -9h-22q-9 0 -9 9v682q0 9 9 9h22q9 0 9 -9zM34 781h-19q-11 0 -6 8l78 135q5 8 13 8h30q8 0 13 -8l78 -135q5 -8 -6 -8h-20q-9 0 -13 7l-68 110l-67 -110q-4 -7 -13 -7z" />
<glyph unicode="&#xcf;" horiz-adv-x="232" d="M136 691v-682q0 -9 -9 -9h-22q-9 0 -9 9v682q0 9 9 9h22q9 0 9 -9zM36 812q-13 0 -23 10t-10 24t9.5 23.5t23.5 9.5t23.5 -9.5t9.5 -23.5t-10 -24t-23 -10zM193 812q-13 0 -23 10t-10 24t10 23.5t23 9.5q14 0 24 -9.5t10 -23.5t-10 -24t-24 -10z" />
<glyph unicode="&#xd0;" horiz-adv-x="656" d="M301 0h-196q-9 0 -9 9v682q0 9 9 9h158q149 0 240 -88.5t91 -266.5q0 -171 -77.5 -258t-215.5 -87zM136 35h165q119 0 185.5 77.5t66.5 232.5q0 163 -80 241.5t-210 78.5h-127v-299h228q9 0 9 -9v-15q0 -8 -10 -8h-227v-299z" />
<glyph unicode="&#xd1;" horiz-adv-x="673" d="M568 0h-34q-9 0 -15 11l-383 631v-633q0 -9 -9 -9h-22q-9 0 -9 9v682q0 9 9 9h34q7 0 14 -10l384 -635v636q0 9 9 9h22q9 0 9 -9v-682q0 -9 -9 -9zM249 799h-21q-7 0 -9 6q-5 15 -5 29q0 27 16.5 44t46.5 17q27 0 68 -18.5t65 -18.5q28 0 28 24q0 15 -5 25q-1 2 0.5 3 t5.5 1h21q6 0 8 -5q5 -10 5 -28q0 -24 -15 -39t-45 -15q-33 0 -74 18.5t-58 18.5q-14 0 -23.5 -8.5t-9.5 -22.5t6 -26q3 -5 -5 -5z" />
<glyph unicode="&#xd2;" horiz-adv-x="696" d="M348 -6q-57 0 -106.5 19t-90.5 59.5t-65 111t-24 165.5t24 166t65 111.5t90.5 60t106.5 19.5t106.5 -19.5t90.5 -60t65 -111.5t24 -166t-24 -165.5t-65 -111t-90.5 -59.5t-106.5 -19zM348 29q49 0 91 17.5t77.5 53.5t56 100t20.5 149t-20.5 149.5t-56 101t-78 54 t-90.5 17.5q-104 0 -174.5 -78.5t-70.5 -243.5q0 -85 20.5 -149t56 -100t77.5 -53.5t91 -17.5zM363 784h-23q-8 0 -12 7l-88 137q-5 7 4 7h34q8 0 11 -6l78 -139q4 -6 -4 -6z" />
<glyph unicode="&#xd3;" horiz-adv-x="696" d="M345 784h-22q-9 0 -5 6l78 139q4 6 12 6h34q9 0 4 -7l-89 -137q-4 -7 -12 -7zM348 -6q-57 0 -106.5 19t-90.5 59.5t-65 111t-24 165.5t24 166t65 111.5t90.5 60t106.5 19.5t106.5 -19.5t90.5 -60t65 -111.5t24 -166t-24 -165.5t-65 -111t-90.5 -59.5t-106.5 -19zM348 29 q49 0 91 17.5t77.5 53.5t56 100t20.5 149t-20.5 149.5t-56 101t-78 54t-90.5 17.5q-104 0 -174.5 -78.5t-70.5 -243.5q0 -85 20.5 -149t56 -100t77.5 -53.5t91 -17.5z" />
<glyph unicode="&#xd4;" horiz-adv-x="696" d="M273 781h-19q-11 0 -6 8l78 135q5 8 13 8h30q8 0 13 -8l78 -135q5 -8 -6 -8h-20q-9 0 -13 7l-68 110l-67 -110q-4 -7 -13 -7zM348 -6q-57 0 -106.5 19t-90.5 59.5t-65 111t-24 165.5t24 166t65 111.5t90.5 60t106.5 19.5t106.5 -19.5t90.5 -60t65 -111.5t24 -166 t-24 -165.5t-65 -111t-90.5 -59.5t-106.5 -19zM348 29q49 0 91 17.5t77.5 53.5t56 100t20.5 149t-20.5 149.5t-56 101t-78 54t-90.5 17.5q-104 0 -174.5 -78.5t-70.5 -243.5q0 -85 20.5 -149t56 -100t77.5 -53.5t91 -17.5z" />
<glyph unicode="&#xd5;" horiz-adv-x="696" d="M348 -6q-57 0 -106.5 19t-90.5 59.5t-65 111t-24 165.5t24 166t65 111.5t90.5 60t106.5 19.5t106.5 -19.5t90.5 -60t65 -111.5t24 -166t-24 -165.5t-65 -111t-90.5 -59.5t-106.5 -19zM348 29q49 0 91 17.5t77.5 53.5t56 100t20.5 149t-20.5 149.5t-56 101t-78 54 t-90.5 17.5q-104 0 -174.5 -78.5t-70.5 -243.5q0 -85 20.5 -149t56 -100t77.5 -53.5t91 -17.5zM260 799h-21q-7 0 -9 6q-5 15 -5 29q0 27 16.5 44t46.5 17q26 0 68 -18.5t65 -18.5q28 0 28 24q0 15 -5 25q-1 2 0.5 3t5.5 1h21q6 0 8 -5q5 -10 5 -28q0 -24 -15 -39t-45 -15 q-33 0 -74 18.5t-58 18.5q-14 0 -23.5 -8.5t-9.5 -22.5t6 -26q3 -5 -5 -5z" />
<glyph unicode="&#xd6;" horiz-adv-x="696" d="M270 818q-13 0 -23 10t-10 24t9.5 23.5t23.5 9.5t23.5 -9.5t9.5 -23.5t-10 -24t-23 -10zM427 818q-13 0 -23 10t-10 24t10 23.5t23 9.5q14 0 24 -9.5t10 -23.5t-10 -24t-24 -10zM348 -6q-57 0 -106.5 19t-90.5 59.5t-65 111t-24 165.5t24 166t65 111.5t90.5 60 t106.5 19.5t106.5 -19.5t90.5 -60t65 -111.5t24 -166t-24 -165.5t-65 -111t-90.5 -59.5t-106.5 -19zM348 29q49 0 91 17.5t77.5 53.5t56 100t20.5 149t-20.5 149.5t-56 101t-78 54t-90.5 17.5q-104 0 -174.5 -78.5t-70.5 -243.5q0 -85 20.5 -149t56 -100t77.5 -53.5 t91 -17.5z" />
<glyph unicode="&#xd7;" horiz-adv-x="440" d="M359 390l-116 -116l116 -115q6 -7 0 -13l-11 -11q-6 -5 -12 1l-116 116l-116 -116q-6 -6 -12 -1l-11 11q-5 5 1 13l116 115l-116 116q-7 7 -1 13l11 11q6 6 12 -1l116 -116l116 116q6 7 12 1l11 -11q7 -7 0 -13z" />
<glyph unicode="&#xd8;" horiz-adv-x="695" d="M348 -6q-107 0 -179 61l-43 -63q-4 -8 -13 -8h-24q-9 0 -4 9l59 87q-82 93 -82 269q0 95 24 166t65 111.5t90.5 60t106.5 19.5q103 0 177 -62l43 64q5 8 13 8h24q11 0 5 -8l-60 -88q84 -94 84 -271q0 -95 -24 -165.5t-65 -111t-90.5 -59.5t-106.5 -19zM348 29 q49 0 91 17.5t77.5 53.5t56 100t20.5 149q0 152 -66 236l-337 -497q62 -59 158 -59zM103 349q0 -151 64 -235l336 498q-63 59 -155 59q-104 0 -174.5 -78.5t-70.5 -243.5z" />
<glyph unicode="&#xd9;" horiz-adv-x="677" d="M547 283v408q0 9 9 9h22q9 0 9 -9v-406q0 -158 -65.5 -224.5t-183.5 -66.5t-183 66.5t-65 224.5v406q0 9 9 9h22q9 0 9 -9v-408q0 -136 54.5 -195t153.5 -59q100 0 154.5 59t54.5 195zM349 784h-23q-8 0 -12 7l-88 137q-5 7 4 7h34q8 0 11 -6l78 -139q4 -6 -4 -6z" />
<glyph unicode="&#xda;" horiz-adv-x="677" d="M335 784h-22q-9 0 -5 6l78 139q4 6 12 6h34q9 0 4 -7l-89 -137q-4 -7 -12 -7zM547 283v408q0 9 9 9h22q9 0 9 -9v-406q0 -158 -65.5 -224.5t-183.5 -66.5t-183 66.5t-65 224.5v406q0 9 9 9h22q9 0 9 -9v-408q0 -136 54.5 -195t153.5 -59q100 0 154.5 59t54.5 195z" />
<glyph unicode="&#xdb;" horiz-adv-x="677" d="M256 781h-19q-11 0 -6 8l78 135q5 8 13 8h30q8 0 13 -8l78 -135q5 -8 -6 -8h-20q-9 0 -13 7l-68 110l-67 -110q-4 -7 -13 -7zM547 283v408q0 9 9 9h22q9 0 9 -9v-406q0 -158 -65.5 -224.5t-183.5 -66.5t-183 66.5t-65 224.5v406q0 9 9 9h22q9 0 9 -9v-408 q0 -136 54.5 -195t153.5 -59q100 0 154.5 59t54.5 195z" />
<glyph unicode="&#xdc;" horiz-adv-x="677" d="M259 818q-13 0 -23 10t-10 24t10 23.5t23 9.5t23 -9.5t10 -23.5t-10 -24t-23 -10zM416 818q-13 0 -23 10t-10 24t9.5 23.5t23.5 9.5t24 -9.5t10 -23.5t-10 -24t-24 -10zM547 283v408q0 9 9 9h22q9 0 9 -9v-406q0 -158 -65.5 -224.5t-183.5 -66.5t-183 66.5t-65 224.5v406 q0 9 9 9h22q9 0 9 -9v-408q0 -136 54.5 -195t153.5 -59q100 0 154.5 59t54.5 195z" />
<glyph unicode="&#xdd;" horiz-adv-x="605" d="M313 0h-21q-10 0 -10 9v303l-244 379q-5 9 7 9h27q7 0 12 -8l219 -344l218 344q5 8 12 8h27q12 0 7 -9l-244 -379v-303q0 -9 -10 -9zM307 784h-22q-9 0 -5 6l78 139q4 6 12 6h34q9 0 4 -7l-89 -137q-4 -7 -12 -7z" />
<glyph unicode="&#xde;" horiz-adv-x="582" d="M136 192h165q192 0 192 171q0 84 -48 130.5t-144 46.5h-165v-348zM136 575h167q110 0 170.5 -54t60.5 -158q0 -103 -60 -154.5t-168 -51.5h-170v-148q0 -9 -9 -9h-22q-9 0 -9 9v682q0 9 9 9h22q9 0 9 -9v-116z" />
<glyph unicode="&#xdf;" horiz-adv-x="509" d="M177 9l5 18q1 7 9 4q48 -12 88 -12q71 0 110.5 31.5t39.5 92.5q0 48 -28.5 85.5t-62 56t-62 40t-28.5 41.5q0 18 18 38t39.5 38t39.5 52.5t18 77.5q0 53 -31.5 91.5t-91.5 38.5q-57 0 -89.5 -36.5t-32.5 -107.5v-549q0 -9 -9 -9h-19q-10 0 -10 9v553q0 83 42.5 128 t117.5 45q77 0 119 -46t42 -111q0 -45 -18 -83t-39.5 -58t-39.5 -39t-18 -30t18.5 -24.5t45 -29.5t53.5 -37.5t45.5 -58t18.5 -81.5q0 -76 -50 -114t-133 -38q-48 0 -101 14q-7 3 -6 10z" />
<glyph unicode="&#xe0;" d="M249 566h-23q-8 0 -12 7l-88 137q-5 7 4 7h34q8 0 11 -6l78 -139q4 -6 -4 -6zM456 23v-15q0 -9 -18 -9q-26 0 -43 18t-17 55v46q-20 -49 -63.5 -86.5t-115.5 -37.5q-73 0 -112 31.5t-39 89.5q0 122 176 122h152v87q0 130 -133 130q-65 0 -100 -29.5t-35 -77.5 q0 -22 6 -38q3 -9 -5 -9h-17q-20 0 -20 53q0 59 45.5 97t125.5 38q171 0 171 -165v-239q0 -51 35 -54q7 0 7 -7zM376 176v32h-152q-65 0 -100.5 -23.5t-35.5 -66.5t31.5 -67.5t86.5 -24.5q38 0 69 15.5t49 37.5t30.5 44t17.5 37z" />
<glyph unicode="&#xe1;" d="M241 566h-22q-9 0 -5 6l78 139q4 6 12 6h34q9 0 4 -7l-89 -137q-4 -7 -12 -7zM456 23v-15q0 -9 -18 -9q-26 0 -43 18t-17 55v46q-20 -49 -63.5 -86.5t-115.5 -37.5q-73 0 -112 31.5t-39 89.5q0 122 176 122h152v87q0 130 -133 130q-65 0 -100 -29.5t-35 -77.5 q0 -22 6 -38q3 -9 -5 -9h-17q-20 0 -20 53q0 59 45.5 97t125.5 38q171 0 171 -165v-239q0 -51 35 -54q7 0 7 -7zM376 176v32h-152q-65 0 -100.5 -23.5t-35.5 -66.5t31.5 -67.5t86.5 -24.5q38 0 69 15.5t49 37.5t30.5 44t17.5 37z" />
<glyph unicode="&#xe2;" d="M168 563h-19q-11 0 -6 8l78 135q5 8 13 8h30q8 0 13 -8l78 -135q5 -8 -6 -8h-20q-9 0 -13 7l-68 110l-67 -110q-4 -7 -13 -7zM456 23v-15q0 -9 -18 -9q-26 0 -43 18t-17 55v46q-20 -49 -63.5 -86.5t-115.5 -37.5q-73 0 -112 31.5t-39 89.5q0 122 176 122h152v87 q0 130 -133 130q-65 0 -100 -29.5t-35 -77.5q0 -22 6 -38q3 -9 -5 -9h-17q-20 0 -20 53q0 59 45.5 97t125.5 38q171 0 171 -165v-239q0 -51 35 -54q7 0 7 -7zM376 176v32h-152q-65 0 -100.5 -23.5t-35.5 -66.5t31.5 -67.5t86.5 -24.5q38 0 69 15.5t49 37.5t30.5 44t17.5 37z " />
<glyph unicode="&#xe3;" d="M141 581h-21q-7 0 -9 6q-5 15 -5 29q0 27 16.5 44t46.5 17q27 0 68 -18.5t65 -18.5q28 0 28 24q0 15 -5 25q-1 2 0.5 3t5.5 1h21q6 0 8 -5q5 -10 5 -28q0 -24 -15 -39t-45 -15q-33 0 -74 18.5t-58 18.5q-14 0 -23.5 -8.5t-9.5 -22.5t6 -26q3 -5 -5 -5zM456 23v-15 q0 -9 -18 -9q-26 0 -43 18t-17 55v46q-20 -49 -63.5 -86.5t-115.5 -37.5q-73 0 -112 31.5t-39 89.5q0 122 176 122h152v87q0 130 -133 130q-65 0 -100 -29.5t-35 -77.5q0 -22 6 -38q3 -9 -5 -9h-17q-20 0 -20 53q0 59 45.5 97t125.5 38q171 0 171 -165v-239q0 -51 35 -54 q7 0 7 -7zM376 176v32h-152q-65 0 -100.5 -23.5t-35.5 -66.5t31.5 -67.5t86.5 -24.5q38 0 69 15.5t49 37.5t30.5 44t17.5 37z" />
<glyph unicode="&#xe4;" d="M169 600q-13 0 -23 10t-10 24t10 23.5t23 9.5t23 -9.5t10 -23.5t-10 -24t-23 -10zM326 600q-13 0 -23 10t-10 24t9.5 23.5t23.5 9.5t24 -9.5t10 -23.5t-10 -24t-24 -10zM456 23v-15q0 -9 -18 -9q-26 0 -43 18t-17 55v46q-20 -49 -63.5 -86.5t-115.5 -37.5 q-73 0 -112 31.5t-39 89.5q0 122 176 122h152v87q0 130 -133 130q-65 0 -100 -29.5t-35 -77.5q0 -22 6 -38q3 -9 -5 -9h-17q-20 0 -20 53q0 59 45.5 97t125.5 38q171 0 171 -165v-239q0 -51 35 -54q7 0 7 -7zM376 176v32h-152q-65 0 -100.5 -23.5t-35.5 -66.5t31.5 -67.5 t86.5 -24.5q38 0 69 15.5t49 37.5t30.5 44t17.5 37z" />
<glyph unicode="&#xe5;" d="M248 565q-28 0 -46 18t-18 46t18 46.5t46 18.5t46.5 -18.5t18.5 -46.5t-18.5 -46t-46.5 -18zM288 629q0 18 -10.5 29t-29.5 11q-18 0 -28.5 -11t-10.5 -29q0 -17 10.5 -28t28.5 -11t29 11t11 28zM456 23v-15q0 -9 -18 -9q-26 0 -43 18t-17 55v46q-20 -49 -63.5 -86.5 t-115.5 -37.5q-73 0 -112 31.5t-39 89.5q0 122 176 122h152v87q0 130 -133 130q-65 0 -100 -29.5t-35 -77.5q0 -22 6 -38q3 -9 -5 -9h-17q-20 0 -20 53q0 59 45.5 97t125.5 38q171 0 171 -165v-239q0 -51 35 -54q7 0 7 -7zM376 176v32h-152q-65 0 -100.5 -23.5t-35.5 -66.5 t31.5 -67.5t86.5 -24.5q38 0 69 15.5t49 37.5t30.5 44t17.5 37z" />
<glyph unicode="&#xe6;" horiz-adv-x="808" d="M734 254h-320v-16q0 -61 17 -105t44 -65.5t53.5 -31t54.5 -9.5q78 0 130 62q7 11 13 5l12 -12q6 -6 1 -12q-52 -76 -159 -76q-138 0 -188 141q-9 -22 -24 -44t-38 -45t-57.5 -37.5t-73.5 -14.5q-73 0 -112 31.5t-39 89.5q0 122 176 122h152v87q0 130 -133 130 q-65 0 -100 -29.5t-35 -77.5q0 -24 6 -38q3 -9 -5 -9h-17q-11 0 -13 8q-7 19 -7 45q0 59 45.5 97t125.5 38q136 0 161 -109q44 109 171 109q170 0 170 -217q0 -17 -11 -17zM376 176v32h-152q-65 0 -100.5 -23.5t-35.5 -66.5t31.5 -67.5t86.5 -24.5q38 0 69 15.5t49 37.5 t30.5 44t17.5 37zM415 283h293q0 172 -135 172q-67 0 -109 -42t-49 -130z" />
<glyph unicode="&#xe7;" horiz-adv-x="475" d="M55 242q0 126 55 186t149 60q80 0 119.5 -40t39.5 -99q0 -23 -4 -37q-3 -9 -11 -9h-12q-13 0 -12 9q3 24 3 32q0 47 -30.5 79t-92.5 32q-75 0 -120.5 -52t-45.5 -161q0 -50 11.5 -89t29 -62.5t41 -38t44.5 -20t43 -5.5q82 0 131 62q7 10 13 5l12 -12q5 -5 1 -12 q-50 -73 -151 -76q-11 -26 -14 -34q28 -2 49 -19.5t21 -46.5t-21.5 -47t-57.5 -18t-61 22q-6 4 -2 9l7 12q3 5 7 2q25 -18 50 -18q23 0 36 10.5t13 27.5q0 18 -18.5 31.5t-53.5 13.5q-7 0 -4 7l19 49q-77 6 -130 64.5t-53 182.5z" />
<glyph unicode="&#xe8;" horiz-adv-x="480" d="M414 254h-320v-16q0 -61 17 -105t44 -65.5t53.5 -31t54.5 -9.5q78 0 130 62q8 9 14 3l11 -10q6 -6 1 -12q-10 -15 -25 -29t-52 -30.5t-82 -16.5q-38 0 -72 12t-65 38.5t-49 77.5t-18 120q0 127 53 186.5t145 59.5q170 0 170 -217q0 -11 -1.5 -14t-8.5 -3zM95 283h293 q0 172 -135 172q-67 0 -109 -42t-49 -130zM250 566h-23q-8 0 -12 7l-88 137q-5 7 4 7h34q8 0 11 -6l78 -139q4 -6 -4 -6z" />
<glyph unicode="&#xe9;" horiz-adv-x="480" d="M256 566h-22q-9 0 -5 6l78 139q5 6 12 6h34q9 0 4 -7l-89 -137q-4 -7 -12 -7zM414 254h-320v-16q0 -61 17 -105t44 -65.5t53.5 -31t54.5 -9.5q78 0 130 62q8 9 14 3l11 -10q6 -6 1 -12q-10 -15 -25 -29t-52 -30.5t-82 -16.5q-38 0 -72 12t-65 38.5t-49 77.5t-18 120 q0 127 53 186.5t145 59.5q170 0 170 -217q0 -11 -1.5 -14t-8.5 -3zM95 283h293q0 172 -135 172q-67 0 -109 -42t-49 -130z" />
<glyph unicode="&#xea;" horiz-adv-x="480" d="M174 563h-19q-11 0 -6 8l78 135q5 8 13 8h30q8 0 13 -8l78 -135q5 -8 -6 -8h-20q-9 0 -13 7l-68 110l-67 -110q-4 -7 -13 -7zM414 254h-320v-16q0 -61 17 -105t44 -65.5t53.5 -31t54.5 -9.5q78 0 130 62q8 9 14 3l11 -10q6 -6 1 -12q-10 -15 -25 -29t-52 -30.5t-82 -16.5 q-38 0 -72 12t-65 38.5t-49 77.5t-18 120q0 127 53 186.5t145 59.5q170 0 170 -217q0 -11 -1.5 -14t-8.5 -3zM95 283h293q0 172 -135 172q-67 0 -109 -42t-49 -130z" />
<glyph unicode="&#xeb;" horiz-adv-x="480" d="M178 600q-13 0 -23 10t-10 24t9.5 23.5t23.5 9.5t23.5 -9.5t9.5 -23.5t-10 -24t-23 -10zM335 600q-13 0 -23 10t-10 24t10 23.5t23 9.5q14 0 24 -9.5t10 -23.5t-10 -24t-24 -10zM414 254h-320v-16q0 -61 17 -105t44 -65.5t53.5 -31t54.5 -9.5q78 0 130 62q8 9 14 3 l11 -10q6 -6 1 -12q-10 -15 -25 -29t-52 -30.5t-82 -16.5q-38 0 -72 12t-65 38.5t-49 77.5t-18 120q0 127 53 186.5t145 59.5q170 0 170 -217q0 -11 -1.5 -14t-8.5 -3zM95 283h293q0 172 -135 172q-67 0 -109 -42t-49 -130z" />
<glyph unicode="&#xec;" horiz-adv-x="204" d="M159 22v-14q0 -10 -19 -10q-28 0 -45 20t-17 63v393q0 9 9 9h20q9 0 9 -9v-390q0 -51 34 -53q9 0 9 -9zM108 566h-23q-8 0 -12 7l-88 137q-5 7 4 7h34q8 0 11 -6l78 -139q4 -6 -4 -6z" />
<glyph unicode="&#xed;" horiz-adv-x="204" d="M108 566h-22q-9 0 -5 6l78 139q5 6 12 6h34q9 0 4 -7l-89 -137q-4 -7 -12 -7zM159 22v-14q0 -10 -19 -10q-28 0 -45 20t-17 63v393q0 9 9 9h20q9 0 9 -9v-390q0 -51 34 -53q9 0 9 -9z" />
<glyph unicode="&#xee;" horiz-adv-x="204" d="M17 563h-19q-11 0 -6 8l78 135q5 8 13 8h30q8 0 13 -8l78 -135q5 -8 -6 -8h-20q-9 0 -13 7l-68 110l-67 -110q-4 -7 -13 -7zM159 22v-14q0 -10 -19 -10q-28 0 -45 20t-17 63v393q0 9 9 9h20q9 0 9 -9v-390q0 -51 34 -53q9 0 9 -9z" />
<glyph unicode="&#xef;" horiz-adv-x="204" d="M20 600q-13 0 -23 10t-10 24t9.5 23.5t23.5 9.5t23.5 -9.5t9.5 -23.5t-10 -24t-23 -10zM177 600q-13 0 -23 10t-10 24t10 23.5t23 9.5q14 0 24 -9.5t10 -23.5t-10 -24t-24 -10zM159 22v-14q0 -10 -19 -10q-28 0 -45 20t-17 63v393q0 9 9 9h20q9 0 9 -9v-390q0 -51 34 -53 q9 0 9 -9z" />
<glyph unicode="&#xf0;" horiz-adv-x="563" d="M464 302l-10 12t-24 24t-39.5 30t-53 22.5t-66.5 10.5q-78 0 -127.5 -50t-49.5 -140q0 -83 47.5 -133.5t126.5 -50.5q90 0 142.5 67t53.5 208zM236 528l-8 13q-4 7 3 12l107 67q-1 0 -14.5 8t-30 16t-44 15t-54.5 7q-7 0 -7 7v20q0 7 7 7q27 0 53 -5.5t46.5 -14t35.5 -16 t27 -15.5t14 -9l99 62q8 5 13 -3l7 -11q5 -7 -3 -12l-89 -57q12 -11 25.5 -29t33.5 -53t33 -90.5t13 -119.5q0 -333 -236 -333q-95 0 -153 59t-58 158q0 106 60 164.5t152 58.5q26 0 50.5 -4.5t43.5 -12t35.5 -16.5t28.5 -18t20.5 -16.5t13.5 -12.5l5 -5q0 57 -12.5 105.5 t-31 78t-31.5 45t-23 22.5l-119 -75q-8 -5 -12 3z" />
<glyph unicode="&#xf1;" horiz-adv-x="533" d="M169 581h-21q-7 0 -9 6q-5 15 -5 29q0 27 16.5 44t46.5 17q27 0 68 -18.5t65 -18.5q28 0 28 24q0 15 -5 25q-1 2 0.5 3t5.5 1h21q6 0 8 -5q5 -10 5 -28q0 -24 -15 -39t-45 -15q-33 0 -74 18.5t-58 18.5q-14 0 -23.5 -8.5t-9.5 -22.5t6 -26q3 -5 -5 -5zM88 10v390 q0 47 -34 51q-8 0 -8 10v13q0 10 19 10q24 0 41 -18.5t17 -53.5v-52q14 55 55.5 91.5t107.5 36.5q85 0 126.5 -52t41.5 -134v-218q0 -51 33 -53q9 0 9 -10v-12q0 -11 -18 -11q-63 0 -63 83v221q0 67 -34.5 110t-101.5 43q-72 0 -112.5 -57.5t-40.5 -123.5v-265q0 -9 -9 -9 h-19q-10 0 -10 10z" />
<glyph unicode="&#xf2;" horiz-adv-x="517" d="M258 -6q-91 0 -146.5 64t-55.5 183t55.5 183t146.5 64q92 0 147.5 -64t55.5 -183t-56 -183t-147 -64zM258 27q71 0 118 54.5t47 159.5t-47 159.5t-118 54.5t-118 -54.5t-47 -159.5t47 -159.5t118 -54.5zM266 566h-23q-8 0 -12 7l-88 137q-5 7 4 7h34q8 0 11 -6l78 -139 q4 -6 -4 -6z" />
<glyph unicode="&#xf3;" horiz-adv-x="517" d="M266 566h-22q-9 0 -5 6l78 139q5 6 12 6h34q9 0 4 -7l-89 -137q-4 -7 -12 -7zM258 -6q-91 0 -146.5 64t-55.5 183t55.5 183t146.5 64q92 0 147.5 -64t55.5 -183t-56 -183t-147 -64zM258 27q71 0 118 54.5t47 159.5t-47 159.5t-118 54.5t-118 -54.5t-47 -159.5t47 -159.5 t118 -54.5z" />
<glyph unicode="&#xf4;" horiz-adv-x="517" d="M177 563h-19q-11 0 -6 8l78 135q5 8 13 8h30q8 0 13 -8l78 -135q5 -8 -6 -8h-20q-9 0 -13 7l-68 110l-67 -110q-4 -7 -13 -7zM258 -6q-91 0 -146.5 64t-55.5 183t55.5 183t146.5 64q92 0 147.5 -64t55.5 -183t-56 -183t-147 -64zM258 27q71 0 118 54.5t47 159.5 t-47 159.5t-118 54.5t-118 -54.5t-47 -159.5t47 -159.5t118 -54.5z" />
<glyph unicode="&#xf5;" horiz-adv-x="517" d="M258 -6q-91 0 -146.5 64t-55.5 183t55.5 183t146.5 64q92 0 147.5 -64t55.5 -183t-56 -183t-147 -64zM258 27q71 0 118 54.5t47 159.5t-47 159.5t-118 54.5t-118 -54.5t-47 -159.5t47 -159.5t118 -54.5zM159 581h-21q-7 0 -9 6q-5 15 -5 29q0 27 16.5 44t46.5 17 q27 0 68 -18.5t65 -18.5q28 0 28 24q0 15 -5 25q-1 2 0.5 3t5.5 1h21q6 0 8 -5q5 -10 5 -28q0 -24 -15 -39t-45 -15q-33 0 -74 18.5t-58 18.5q-14 0 -23.5 -8.5t-9.5 -22.5t6 -26q3 -5 -5 -5z" />
<glyph unicode="&#xf6;" horiz-adv-x="517" d="M182 600q-13 0 -23 10t-10 24t9.5 23.5t23.5 9.5t23.5 -9.5t9.5 -23.5t-10 -24t-23 -10zM339 600q-13 0 -23 10t-10 24t10 23.5t23 9.5q14 0 24 -9.5t10 -23.5t-10 -24t-24 -10zM258 -6q-91 0 -146.5 64t-55.5 183t55.5 183t146.5 64q92 0 147.5 -64t55.5 -183t-56 -183 t-147 -64zM258 27q71 0 118 54.5t47 159.5t-47 159.5t-118 54.5t-118 -54.5t-47 -159.5t47 -159.5t118 -54.5z" />
<glyph unicode="&#xf7;" horiz-adv-x="483" d="M85 293h314q9 0 9 -8v-14q0 -9 -10 -9h-313q-9 0 -9 9v14q0 8 9 8zM207 150q0 16 12 27.5t27 11.5q16 0 27.5 -11.5t11.5 -27.5t-11.5 -27.5t-27.5 -11.5q-15 0 -27 11.5t-12 27.5zM207 401q0 14 11 25t26 11t25.5 -11t10.5 -25q0 -15 -10.5 -26t-25.5 -11t-26 11t-11 26 z" />
<glyph unicode="&#xf8;" horiz-adv-x="517" d="M258 -6q-69 0 -118 36l-27 -42q-5 -8 -13 -8h-18q-9 0 -3 9l39 61q-62 65 -62 191q0 119 55.5 183t146.5 64q71 0 118 -37l29 44q6 7 13 7h17q9 0 4 -8l-40 -63q62 -65 62 -190q0 -119 -56 -183t-147 -64zM93 241q0 -101 46 -159l218 338q-43 35 -99 35q-71 0 -118 -54.5 t-47 -159.5zM258 27q71 0 118 54.5t47 159.5q0 101 -46 158l-217 -338q40 -34 98 -34z" />
<glyph unicode="&#xf9;" horiz-adv-x="524" d="M479 21v-13q0 -10 -19 -10q-59 0 -59 75v37q-20 -51 -64.5 -83.5t-107.5 -32.5q-153 0 -153 165v314q0 9 10 9h19q9 0 9 -10v-310q0 -135 124 -135q71 0 115.5 55t44.5 108v283q0 9 9 9h20q10 0 10 -10v-388q0 -50 33 -53q9 -2 9 -10zM276 566h-23q-8 0 -12 7l-88 137 q-5 7 4 7h34q8 0 11 -6l78 -139q4 -6 -4 -6z" />
<glyph unicode="&#xfa;" horiz-adv-x="524" d="M247 566h-22q-9 0 -5 6l78 139q4 6 12 6h34q9 0 4 -7l-89 -137q-4 -7 -12 -7zM479 21v-13q0 -10 -19 -10q-59 0 -59 75v37q-20 -51 -64.5 -83.5t-107.5 -32.5q-153 0 -153 165v314q0 9 10 9h19q9 0 9 -10v-310q0 -135 124 -135q71 0 115.5 55t44.5 108v283q0 9 9 9h20 q10 0 10 -10v-388q0 -50 33 -53q9 -2 9 -10z" />
<glyph unicode="&#xfb;" horiz-adv-x="524" d="M180 563h-19q-11 0 -6 8l78 135q5 8 13 8h30q8 0 13 -8l78 -135q5 -8 -6 -8h-20q-9 0 -13 7l-68 110l-67 -110q-4 -7 -13 -7zM479 21v-13q0 -10 -19 -10q-59 0 -59 75v37q-20 -51 -64.5 -83.5t-107.5 -32.5q-153 0 -153 165v314q0 9 10 9h19q9 0 9 -10v-310 q0 -135 124 -135q71 0 115.5 55t44.5 108v283q0 9 9 9h20q10 0 10 -10v-388q0 -50 33 -53q9 -2 9 -10z" />
<glyph unicode="&#xfc;" horiz-adv-x="524" d="M187 600q-13 0 -23 10t-10 24t10 23.5t23 9.5t23 -9.5t10 -23.5t-10 -24t-23 -10zM344 600q-13 0 -23 10t-10 24t9.5 23.5t23.5 9.5t24 -9.5t10 -23.5t-10 -24t-24 -10zM479 21v-13q0 -10 -19 -10q-59 0 -59 75v37q-20 -51 -64.5 -83.5t-107.5 -32.5q-153 0 -153 165v314 q0 9 10 9h19q9 0 9 -10v-310q0 -135 124 -135q71 0 115.5 55t44.5 108v283q0 9 9 9h20q10 0 10 -10v-388q0 -50 33 -53q9 -2 9 -10z" />
<glyph unicode="&#xfd;" horiz-adv-x="485" d="M445 474l-236 -621q-18 -48 -44.5 -74t-74.5 -26q-26 0 -50 8q-6 1 -4 8l4 21q1 6 6 4q24 -7 43 -7q33 0 51 17.5t33 55.5l50 133l-182 479q-5 10 6 10h23q10 0 11 -6l163 -434l160 432q3 8 11 8h22q11 0 8 -8zM231 566h-22q-9 0 -5 6l78 139q4 6 12 6h34q9 0 4 -7 l-89 -137q-4 -7 -12 -7z" />
<glyph unicode="&#xfe;" horiz-adv-x="530" d="M118 329v-187q1 -5 4.5 -14t15 -28t27.5 -34t45 -27t64 -12q73 0 118 55.5t45 162.5q0 106 -46.5 158t-117.5 52q-34 0 -62.5 -13t-44.5 -31.5t-28 -37t-16 -31.5zM109 -244h-19q-10 0 -10 9v952q0 9 9 9h20q9 0 9 -9v-327l4 6q3 6 7 12.5t12 15.5t16.5 17.5t21.5 17 t27.5 15t33.5 10.5t40 4q85 0 139.5 -59.5t54.5 -183.5q0 -127 -54.5 -189t-140.5 -62q-35 0 -64.5 9.5t-46.5 22.5t-29 26.5t-17 23.5l-4 9v-320q0 -9 -9 -9z" />
<glyph unicode="&#xff;" horiz-adv-x="485" d="M445 474l-236 -621q-18 -48 -44.5 -74t-74.5 -26q-26 0 -50 8q-6 1 -4 8l4 21q1 6 6 4q24 -7 43 -7q33 0 51 17.5t33 55.5l50 133l-182 479q-5 10 6 10h23q10 0 11 -6l163 -434l160 432q3 8 11 8h22q11 0 8 -8zM164 600q-13 0 -23 10t-10 24t9.5 23.5t23.5 9.5t23.5 -9.5 t9.5 -23.5t-10 -24t-23 -10zM321 600q-13 0 -23 10t-10 24t10 23.5t23 9.5q14 0 24 -9.5t10 -23.5t-10 -24t-24 -10z" />
<glyph unicode="&#x152;" horiz-adv-x="1052" d="M348 29q49 0 91 17.5t77.5 53.5t56 100t20.5 149t-20.5 149.5t-56 101t-78 54t-90.5 17.5q-104 0 -174.5 -78.5t-70.5 -243.5q0 -85 20.5 -149t56 -100t77.5 -53.5t91 -17.5zM634 665v-298h304q10 0 10 -10v-16q0 -9 -10 -9h-304v-297h349q9 0 9 -9v-17q0 -9 -10 -9h-379 q-9 0 -9 9v161q-25 -82 -87.5 -129t-158.5 -47q-57 0 -106.5 19t-90.5 59.5t-65 111t-24 165.5t24 166t65 111.5t90.5 60t106.5 19.5q92 0 157 -47t89 -128v160q0 9 9 9h380q9 0 9 -9v-17q0 -9 -10 -9h-348z" />
<glyph unicode="&#x153;" horiz-adv-x="849" d="M784 254h-320v-16q0 -61 17 -105t44 -65.5t53.5 -31t54.5 -9.5q77 0 129 62q9 10 14 5l12 -12q6 -6 1 -12q-10 -15 -25 -29t-52.5 -30.5t-82.5 -16.5q-63 0 -114 33.5t-72 110.5q-21 -70 -69.5 -107t-115.5 -37q-91 0 -146.5 64t-55.5 183t55.5 183t146.5 64 q66 0 114.5 -36.5t69.5 -105.5q36 142 182 142q170 0 170 -217q0 -17 -10 -17zM258 27q71 0 118 54.5t47 159.5t-47 159.5t-118 54.5t-118 -54.5t-47 -159.5t47 -159.5t118 -54.5zM465 283h292q0 172 -134 172q-67 0 -109 -42t-49 -130z" />
<glyph unicode="&#x178;" horiz-adv-x="605" d="M313 0h-21q-10 0 -10 9v303l-244 379q-5 9 7 9h27q7 0 12 -8l219 -344l218 344q5 8 12 8h27q12 0 7 -9l-244 -379v-303q0 -9 -10 -9zM223 818q-13 0 -23 10t-10 24t10 23.5t23 9.5t23 -9.5t10 -23.5t-10 -24t-23 -10zM380 818q-13 0 -23 10t-10 24t9.5 23.5t23.5 9.5 t24 -9.5t10 -23.5t-10 -24t-24 -10z" />
<glyph unicode="&#x2c6;" horiz-adv-x="319" d="M79 563h-19q-11 0 -6 8l78 135q5 8 13 8h30q8 0 13 -8l78 -135q5 -8 -6 -8h-20q-9 0 -13 7l-68 110l-67 -110q-4 -7 -13 -7z" />
<glyph unicode="&#x2dc;" horiz-adv-x="369" d="M90 581h-21q-7 0 -9 6q-5 15 -5 29q0 27 16.5 44t46.5 17q26 0 68 -18.5t65 -18.5q28 0 28 24q0 15 -5 25q-1 2 0.5 3t5.5 1h21q6 0 8 -5q5 -10 5 -28q0 -24 -15 -39t-45 -15q-33 0 -74 18.5t-58 18.5q-14 0 -23.5 -8.5t-9.5 -22.5t6 -26q3 -5 -5 -5z" />
<glyph unicode="&#x2000;" horiz-adv-x="467" />
<glyph unicode="&#x2001;" horiz-adv-x="935" />
<glyph unicode="&#x2002;" horiz-adv-x="467" />
<glyph unicode="&#x2003;" horiz-adv-x="935" />
<glyph unicode="&#x2004;" horiz-adv-x="311" />
<glyph unicode="&#x2005;" horiz-adv-x="233" />
<glyph unicode="&#x2006;" horiz-adv-x="155" />
<glyph unicode="&#x2007;" horiz-adv-x="155" />
<glyph unicode="&#x2008;" horiz-adv-x="116" />
<glyph unicode="&#x2009;" horiz-adv-x="187" />
<glyph unicode="&#x200a;" horiz-adv-x="51" />
<glyph unicode="&#x2010;" horiz-adv-x="402" d="M85 290h233q9 0 9 -10v-13q0 -8 -9 -8h-234q-9 0 -9 8v13q0 10 10 10z" />
<glyph unicode="&#x2011;" horiz-adv-x="402" d="M85 290h233q9 0 9 -10v-13q0 -8 -9 -8h-234q-9 0 -9 8v13q0 10 10 10z" />
<glyph unicode="&#x2012;" horiz-adv-x="402" d="M85 290h233q9 0 9 -10v-13q0 -8 -9 -8h-234q-9 0 -9 8v13q0 10 10 10z" />
<glyph unicode="&#x2013;" horiz-adv-x="543" d="M85 290h374q9 0 9 -8v-15q0 -8 -9 -8h-375q-9 0 -9 8v15q0 8 10 8z" />
<glyph unicode="&#x2014;" horiz-adv-x="899" d="M85 290h729q10 0 10 -8v-15q0 -8 -10 -8h-730q-9 0 -9 8v15q0 8 10 8z" />
<glyph unicode="&#x2018;" horiz-adv-x="165" d="M119 684q0 -14 -10.5 -24.5t-24.5 -10.5q-17 0 -28 12.5t-11 32.5q0 72 55 96q5 2 9 -4l7 -12q3 -5 -2 -9q-10 -4 -20 -16t-10 -30q14 0 24.5 -10t10.5 -25z" />
<glyph unicode="&#x2019;" horiz-adv-x="200" d="M67 679q0 14 10.5 24.5t24.5 10.5q18 0 28.5 -12.5t10.5 -32.5q0 -73 -54 -96q-6 -2 -9 4l-8 12q-2 6 2 9q10 4 20 16t10 30q-14 0 -24.5 10t-10.5 25z" />
<glyph unicode="&#x201a;" horiz-adv-x="210" d="M68 29q0 14 10.5 25t24.5 11q18 0 28.5 -13t10.5 -33q0 -70 -55 -96q-5 -2 -9 4l-7 12q-3 5 2 9q30 18 30 46q-14 0 -24.5 10t-10.5 25z" />
<glyph unicode="&#x201c;" horiz-adv-x="271" d="M225 685q0 -15 -10.5 -25.5t-24.5 -10.5q-18 0 -28.5 13t-10.5 33q0 73 55 95q5 3 9 -4l7 -12q4 -6 -2 -8q-30 -15 -30 -46q14 0 24.5 -10t10.5 -25zM119 685q0 -15 -10.5 -25.5t-24.5 -10.5q-17 0 -28 13t-11 33q0 71 55 95q5 3 9 -4l7 -12q4 -6 -2 -8q-30 -15 -30 -46 q14 0 24.5 -10t10.5 -25z" />
<glyph unicode="&#x201d;" horiz-adv-x="307" d="M67 677q0 15 10.5 25.5t24.5 10.5q17 0 28 -13t11 -33q0 -71 -55 -95q-5 -3 -9 4l-7 12q-4 6 2 8q30 15 30 46q-14 0 -24.5 10t-10.5 25zM172 677q0 15 10.5 25.5t25.5 10.5q17 0 27.5 -13t10.5 -33q0 -72 -54 -95q-6 -3 -9 4l-8 12q-3 6 2 8q30 15 31 46q-15 0 -25.5 10 t-10.5 25z" />
<glyph unicode="&#x201e;" horiz-adv-x="311" d="M68 29q0 14 10.5 25t24.5 11q18 0 28.5 -13t10.5 -33q0 -70 -55 -96q-5 -2 -9 4l-7 12q-3 5 2 9q30 15 30 46q-14 0 -24.5 10t-10.5 25zM168 29q0 14 10.5 25t25.5 11q17 0 28 -13t11 -33q0 -69 -55 -96q-5 -1 -9 4l-7 12q-4 6 2 9q30 17 30 46q-15 0 -25.5 10t-10.5 25z " />
<glyph unicode="&#x2022;" horiz-adv-x="330" d="M234 289q0 -29 -20 -49t-49 -20t-49 20t-20 49t20 49t49 20t49 -20t20 -49z" />
<glyph unicode="&#x2026;" d="M102 -6q-14 0 -24 10t-10 23t10 23.5t24 10.5q13 0 23 -10t10 -24q0 -13 -9.5 -23t-23.5 -10zM246 -6q-14 0 -23.5 10t-9.5 23q0 14 10 24t23 10q14 0 24 -10t10 -24t-10 -23.5t-24 -9.5zM392 -6q-14 0 -23.5 10t-9.5 23q0 14 10 24t23 10q14 0 24 -10.5t10 -23.5 t-10 -23t-24 -10z" />
<glyph unicode="&#x202f;" horiz-adv-x="187" />
<glyph unicode="&#x2039;" horiz-adv-x="276" d="M61 240q-7 7 -7 18v13q0 10 7 17l118 119q6 6 11 0l12 -14q5 -5 -1 -10l-116 -119l116 -119q6 -5 1 -10l-13 -14q-3 -7 -10 0z" />
<glyph unicode="&#x203a;" horiz-adv-x="276" d="M215 240l-118 -119q-7 -7 -10 0l-13 14q-5 5 1 10l116 119l-116 119q-6 5 -1 10l12 14q5 6 11 0l118 -119q7 -7 7 -17v-13q0 -11 -7 -18z" />
<glyph unicode="&#x205f;" horiz-adv-x="233" />
<glyph unicode="&#x20ac;" horiz-adv-x="662" d="M61 416h82q15 124 80 197.5t187 73.5q112 0 175 -60q6 -6 0 -11l-19 -15q-6 -4 -12 2q-54 49 -144 49q-87 0 -148.5 -55.5t-77.5 -180.5h270q10 0 10 -10v-17q0 -8 -9 -8h-275q-2 -26 0 -87h274q10 0 10 -10v-17q0 -9 -9 -9h-270q16 -103 75.5 -160t157.5 -57 q80 0 152 52q9 6 13 1l14 -15q4 -6 -2 -12q-73 -62 -178 -62q-110 0 -183.5 62t-90.5 191h-83q-9 0 -9 9v17q0 10 10 10h78q-3 38 0 87h-79q-9 0 -9 8v17q0 10 10 10z" />
<glyph unicode="&#x2122;" horiz-adv-x="775" d="M69 703h268q9 0 9 -9v-11q0 -8 -9 -8h-117v-318q0 -10 -9 -10h-15q-9 0 -9 10v318h-118q-9 0 -9 8v11q0 9 9 9zM660 357v302l-110 -248q-5 -8 -17 -8q-13 0 -18 8l-110 248v-302q0 -10 -9 -10h-12q-9 0 -9 10v337q0 9 10 9h23q8 0 12 -9l113 -257l114 257q5 9 12 9h22 q9 0 9 -9v-337q0 -10 -9 -10h-11q-10 0 -10 10z" />
<glyph unicode="&#x25fc;" horiz-adv-x="480" d="M0 480h480v-480h-480v480z" />
</font>
</defs>
</svg>
