<?xml version="1.0" standalone="no"?>
<!DOCTYPE svg PUBLIC "-//W3C//DTD SVG 1.1//EN" "http://www.w3.org/Graphics/SVG/1.1/DTD/svg11.dtd" >
<svg xmlns="http://www.w3.org/2000/svg">
<metadata></metadata>
<defs>
<font id="andes_rounded_ultraligultraLt" horiz-adv-x="692" >
<font-face units-per-em="1000" ascent="750" descent="-250" />
<missing-glyph horiz-adv-x="256" />
<glyph unicode="&#xfb01;" horiz-adv-x="500" d="M429 623q0 -11 -7.5 -18.5t-18.5 -7.5t-18.5 7.5t-7.5 18.5t7.5 18.5t18.5 7.5t18.5 -7.5t7.5 -18.5zM393 465h-271v-458q0 -7 -7 -7h-4q-7 0 -7 7v458h-64q-6 0 -6 6v4q0 7 7 7h63v110q0 61 33.5 98t92.5 37q77 0 112 -49q5 -6 1 -10l-5 -5q-3 -3 -8 3q-35 44 -101 44 q-48 0 -77.5 -31.5t-29.5 -86.5v-110h282q7 0 7 -7v-403q0 -55 36 -55q7 0 7 -7v-4q0 -7 -10 -7q-22 0 -36.5 17.5t-14.5 55.5v393z" />
<glyph unicode="&#xfb02;" horiz-adv-x="535" d="M104 465h-64q-6 0 -6 6v4q0 7 7 7h63v110q0 61 33.5 98t92.5 37q77 0 112 -49q5 -6 1 -10l-5 -5q-3 -3 -8 3q-35 44 -101 44q-48 0 -77.5 -31.5t-29.5 -86.5v-110h193q7 0 7 -7v-4q0 -6 -6 -6h-194v-458q0 -7 -7 -7h-4q-7 0 -7 7v458zM444 719v-647q0 -55 36 -55 q7 0 7 -7v-4q0 -7 -10 -7q-22 0 -36.5 17.5t-14.5 55.5v647q0 7 7 7h4q7 0 7 -7z" />
<glyph unicode="&#xfb03;" horiz-adv-x="763" d="M692 623q0 -11 -8 -18.5t-18 -7.5t-18 7.5t-8 18.5t8 18.5t18 7.5t18 -7.5t8 -18.5zM674 475v-403q0 -55 36 -55q7 0 7 -7v-4q0 -7 -10 -7q-22 0 -36.5 17.5t-14.5 55.5v393h-271v-458q0 -7 -7 -7h-4q-7 0 -7 7v458h-245v-458q0 -7 -7 -7h-4q-7 0 -7 7v458h-64q-6 0 -6 6 v4q0 7 7 7h63v110q0 61 33.5 98t92.5 37q77 0 112 -49q5 -6 1 -10l-5 -5q-3 -3 -8 3q-35 44 -101 44q-48 0 -77.5 -31.5t-29.5 -86.5v-110h245v110q0 61 33.5 98t92.5 37q77 0 112 -49q5 -6 1 -10l-5 -5q-3 -3 -8 3q-35 44 -101 44q-48 0 -77.5 -31.5t-29.5 -86.5v-110h282 q7 0 7 -7z" />
<glyph unicode="&#xfb04;" horiz-adv-x="798" d="M367 465h-245v-458q0 -7 -7 -7h-4q-7 0 -7 7v458h-64q-6 0 -6 6v4q0 7 7 7h63v110q0 61 33.5 98t92.5 37q77 0 112 -49q5 -6 1 -10l-5 -5q-3 -3 -8 3q-35 44 -101 44q-48 0 -77.5 -31.5t-29.5 -86.5v-110h245v110q0 61 33.5 98t92.5 37q77 0 112 -49q5 -6 1 -10l-5 -5 q-3 -3 -8 3q-35 44 -101 44q-48 0 -77.5 -31.5t-29.5 -86.5v-110h193q7 0 7 -7v-4q0 -6 -6 -6h-194v-458q0 -7 -7 -7h-4q-7 0 -7 7v458zM750 10v-4q0 -7 -10 -7q-22 0 -36.5 17.5t-14.5 55.5v647q0 7 7 7h4q7 0 7 -7v-647q0 -55 36 -55q7 0 7 -7z" />
<glyph horiz-adv-x="0" />
<glyph horiz-adv-x="333" />
<glyph unicode=" "  horiz-adv-x="256" />
<glyph unicode="&#x09;" horiz-adv-x="256" />
<glyph unicode="&#xa0;" horiz-adv-x="256" />
<glyph unicode="!" horiz-adv-x="218" d="M101 180l-2 520q0 6 6 6h8q6 0 6 -6l-2 -520q0 -6 -6 -6h-4q-6 0 -6 6zM109 46q11 0 18.5 -8t7.5 -18t-7.5 -18t-18.5 -8t-18.5 8t-7.5 18t7.5 18t18.5 8z" />
<glyph unicode="&#x22;" horiz-adv-x="248" d="M155 586l-2 114q0 6 6 6h10q6 0 6 -6l-2 -114q0 -6 -6 -6h-6q-6 0 -6 6zM75 586l-2 114q0 6 6 6h10q6 0 6 -6l-2 -114q0 -6 -6 -6h-6q-6 0 -6 6z" />
<glyph unicode="#" horiz-adv-x="612" d="M369 184l36 162h-162l-36 -162h162zM189 184l36 162h-118q-6 0 -5 5l2 8q2 5 7 5h118l27 120q2 6 7 6h6q7 0 5 -6l-27 -120h162l27 120q2 6 7 6h6q7 0 5 -6l-27 -120h122q6 0 5 -5l-2 -8q-2 -5 -7 -5h-122l-36 -162h118q6 0 5 -5l-2 -8q-2 -5 -7 -5h-118l-27 -120 q-2 -6 -7 -6h-6q-7 0 -5 6l27 120h-162l-27 -120q-2 -6 -7 -6h-6q-7 0 -5 6l27 120h-122q-7 0 -5 5l2 8q2 5 7 5h122z" />
<glyph unicode="$" horiz-adv-x="572" d="M281 -114v119q-44 1 -82.5 12t-62.5 25t-43.5 32t-27.5 28.5t-13 19.5q-2 4 2 7l7 5q4 2 6 -1q5 -9 13.5 -20t28 -28t43.5 -30t62 -23t81 -10q96 0 151.5 43.5t55.5 116.5q0 51 -24 83t-63 46t-86 22.5t-93.5 17t-85.5 24t-63 51t-24 89.5q0 74 57.5 122.5t160.5 49.5 v103q0 7 7 7h4q7 0 7 -7v-103q51 -2 92 -17t63.5 -36.5t33.5 -36.5t16 -27q1 -4 -2 -6l-6 -3q-5 -3 -8 2q-61 107 -206 107q-97 0 -148.5 -45t-51.5 -109q0 -50 24 -82t63 -46.5t86 -22.5t93.5 -17.5t85.5 -25t63 -51t24 -89.5q0 -77 -59.5 -126.5t-162.5 -50.5v-119 q0 -7 -7 -7h-4q-7 0 -7 7z" />
<glyph unicode="%" horiz-adv-x="541" d="M143 424q-95 0 -95 139t95 139t95 -139t-95 -139zM143 439q77 0 77 124t-77 124t-77 -124t77 -124zM398 -2q-95 0 -95 139t95 139t95 -139t-95 -139zM398 13q77 0 77 124t-77 124t-77 -124t77 -124zM383 694l-208 -688q-1 -6 -8 -6h-7q-6 0 -4 6l208 688q2 6 8 6h7 q6 0 4 -6z" />
<glyph unicode="&#x26;" horiz-adv-x="643" d="M538 -98h-6q-6 0 -6 6q0 37 -6 74.5t-12 56.5l-5 19q-2 -3 -6.5 -8t-21 -17.5t-36.5 -22t-54.5 -17.5t-74.5 -8q-108 0 -174 67.5t-66 178.5q0 48 13.5 88t32.5 63.5t38 40t32 22.5l14 6q-4 5 -11 14.5t-18 40t-11 63.5q0 71 45.5 117t124.5 46q46 0 80.5 -15t52.5 -39 t26.5 -49t8.5 -51q0 -47 -14 -89q-2 -7 -9 -7h-6q-5 0 -4 6q15 42 15 90q0 52 -36.5 94.5t-113.5 42.5q-69 0 -110.5 -41.5t-41.5 -104.5q0 -47 24 -89.5t63.5 -81t82.5 -79t89 -100t74 -127.5q6 8 14.5 24.5t22.5 73.5t14 123q0 6 6 6h6q6 0 6 -6q0 -71 -15.5 -131 t-30.5 -84l-16 -25q26 -73 26 -165q0 -6 -6 -6zM310 2q38 0 71 7.5t53.5 18.5t35.5 21.5t21 18.5l6 7q-21 57 -58.5 111t-73 89.5l-83 83t-74.5 80.5q-5 -2 -13 -6.5t-28.5 -21.5t-36.5 -38.5t-29 -59.5t-13 -82q0 -105 65.5 -167t156.5 -62z" />
<glyph unicode="'" horiz-adv-x="168" d="M75 586l-2 114q0 6 6 6h10q6 0 6 -6l-2 -114q0 -6 -6 -6h-6q-6 0 -6 6z" />
<glyph unicode="(" horiz-adv-x="255" d="M77 241q0 -81 13.5 -157t30.5 -125t40 -94t35.5 -62t22.5 -30q5 -5 0 -8l-7 -6q-4 -2 -7 1q-11 14 -23.5 32t-36 64.5t-41 97t-31.5 128t-14 159.5q0 102 19.5 194t48.5 152.5t47 89.5t31 45q3 3 7 1l7 -6q3 -3 1 -6q-13 -16 -30.5 -44t-46 -87t-47.5 -149t-19 -190z" />
<glyph unicode=")" horiz-adv-x="255" d="M196 241q0 -82 -14 -159.5t-31.5 -128t-41 -97t-36 -64.5t-23.5 -32q-3 -3 -7 -1l-7 6q-5 3 0 8q10 13 22.5 30t35.5 62t40 94t30.5 125t13.5 157q0 100 -19 190t-47.5 149t-46 87t-30.5 44q-3 3 1 6l7 6q4 2 7 -1q13 -16 31 -45t47 -89.5t48.5 -152.5t19.5 -194z" />
<glyph unicode="*" horiz-adv-x="423" d="M110 499l84 98l-127 20q-6 1 -6 6l2 9q0 6 7 4l125 -22l-51 114q-2 4 2 6l10 5q4 2 6 -3l49 -118l83 108q4 6 9 1l7 -6q4 -5 0 -9l-88 -102l134 -20q5 -1 5 -7l-1 -6q-2 -6 -7 -5l-132 22l56 -120q2 -4 -2 -6l-11 -5q-4 -2 -6 3l-52 121l-81 -102q-4 -6 -9 -1l-6 5 q-5 5 0 10z" />
<glyph unicode="+" horiz-adv-x="448" d="M377 266h-143v-158q0 -7 -6 -7h-8q-6 0 -6 7v158h-143q-7 0 -7 6v6q0 6 7 6h143v159q0 7 6 7h8q6 0 6 -7v-159h143q7 0 7 -6v-6q0 -6 -7 -6z" />
<glyph unicode="," horiz-adv-x="197" d="M71 20q0 10 7.5 18t18.5 8q29 0 29 -36q0 -57 -44 -73q-4 -1 -7 4l-4 7q-3 5 2 7q24 9 24 39q-10 0 -18 7.5t-8 18.5z" />
<glyph unicode="-" horiz-adv-x="401" d="M85 284h231q7 0 7 -8v-4q0 -6 -6 -6h-233q-6 0 -6 6v4q0 8 7 8z" />
<glyph unicode="." horiz-adv-x="194" d="M71 20q0 10 7.5 18t18.5 8t18.5 -8t7.5 -18t-7.5 -18t-18.5 -8t-18.5 8t-7.5 18z" />
<glyph unicode="/" horiz-adv-x="374" d="M50 -224h-8q-6 0 -4 6l279 918q1 6 8 6h8q6 0 4 -6l-279 -918q-2 -6 -8 -6z" />
<glyph unicode="0" horiz-adv-x="600" d="M300 -6q-117 0 -173.5 87.5t-56.5 267.5q0 357 230 357t230 -357q0 -179 -56.5 -267t-173.5 -88zM300 12q108 0 159 83t51 254t-51 255t-159 84t-159 -84t-51 -255t51 -254t159 -83z" />
<glyph unicode="1" horiz-adv-x="344" d="M244 693v-686q0 -7 -7 -7h-6q-7 0 -7 7v633q-16 -49 -65 -93.5t-111 -47.5q-6 0 -7 6l-1 6q-1 6 4 6q67 2 118 56t61 120q0 7 7 7h7q7 0 7 -7z" />
<glyph unicode="2" horiz-adv-x="535" d="M466 0h-394q-7 0 -7 7v41q0 52 21 92t54 65.5t73.5 47l81 43t73.5 47t54 66t21 93.5q0 87 -48 136.5t-128 49.5q-40 0 -72 -12t-50.5 -28t-32.5 -37t-18.5 -34.5t-7.5 -25.5q-2 -7 -7 -5l-8 3q-6 2 -5 7q4 14 8.5 26.5t19.5 37t35.5 42t56.5 31t81 13.5q94 0 145 -57 t51 -147q0 -55 -21 -97.5t-54 -69.5t-73.5 -49t-81 -43t-73.5 -45t-54 -62t-21 -88v-30h381q7 0 7 -7v-4q0 -7 -7 -7z" />
<glyph unicode="3" horiz-adv-x="553" d="M243 369h41q60 0 111 44.5t51 119.5q0 66 -47 110.5t-129 44.5q-40 0 -72.5 -11.5t-51.5 -29.5t-29 -30.5t-14 -23.5q-2 -5 -7 -2l-7 4q-5 3 -3 8q5 12 15 25t30.5 33t57 32.5t81.5 12.5q95 0 145.5 -51.5t50.5 -121.5q0 -39 -13.5 -71.5t-33 -50.5t-39 -30.5 t-32.5 -16.5l-14 -4q6 -1 16.5 -3.5t36.5 -15t46 -30t36.5 -51.5t16.5 -77q0 -94 -58 -141.5t-162 -47.5q-52 0 -93.5 14.5t-65.5 38t-34 37t-17 27.5q-3 5 3 8l6 4q5 4 7 -1q5 -11 16 -25t33.5 -35.5t61 -35.5t83.5 -14q95 0 147.5 44t52.5 127q0 81 -59 124.5t-123 43.5 h-41q-6 0 -6 6v6q0 6 6 6z" />
<glyph unicode="4" horiz-adv-x="549" d="M411 182v-175q0 -7 -7 -7h-6q-7 0 -7 7v175h-344q-8 0 -8 7v5q0 7 3 12l247 488q3 6 9 6h10q6 0 3 -6l-250 -494h330v183q0 7 7 7h6q7 0 7 -7v-183h91q8 0 8 -8v-3q0 -7 -8 -7h-91z" />
<glyph unicode="5" horiz-adv-x="548" d="M109 682v-298q6 5 17.5 12t52 19t88.5 12q97 0 158.5 -59.5t61.5 -148.5q0 -96 -54.5 -160.5t-165.5 -64.5q-46 0 -84.5 11.5t-62 28.5t-35.5 29t-18 22q-2 3 1 6l8 8q3 3 5 0q6 -10 17 -21t33 -27.5t58 -27.5t78 -11q93 0 146.5 54.5t53.5 152.5q0 81 -55.5 135.5 t-144.5 54.5q-95 0 -154 -42q-4 -3 -10 -3h-7q-7 0 -7 7v322q0 7 7 7h364q7 0 7 -7v-4q0 -7 -7 -7h-351z" />
<glyph unicode="6" horiz-adv-x="580" d="M305 -6q-107 0 -171.5 78.5t-64.5 241.5q0 392 255 392q32 0 60.5 -7t45 -15.5t30.5 -20t18.5 -17t7.5 -10.5q3 -4 0 -7l-8 -8q-3 -3 -6 1q-48 66 -148 66q-235 0 -235 -370q3 4 8.5 11.5t25.5 26.5t42.5 33t59 26t75.5 12q94 0 158.5 -52.5t64.5 -158.5 q0 -109 -61 -165.5t-157 -56.5zM89 294q1 -140 61 -211t155 -71q91 0 144.5 54.5t53.5 149.5q0 94 -55 143.5t-148 49.5q-39 0 -75 -12t-59.5 -28.5t-41.5 -33.5t-26 -29z" />
<glyph unicode="7" horiz-adv-x="493" d="M40 688v4q0 8 7 8h407q7 0 7 -8v-10q0 -50 -28.5 -109t-69.5 -117.5t-81.5 -123.5t-69 -150.5t-28.5 -174.5q0 -7 -6 -7h-8q-6 0 -6 7q0 89 28.5 174.5t69 150.5t81.5 124t69.5 117.5t28.5 108.5h-395q-6 0 -6 6z" />
<glyph unicode="8" horiz-adv-x="584" d="M201 378q-4 1 -13 4.5t-25.5 14.5t-30 27t-24 44.5t-10.5 63.5q0 78 52 126t140 48q98 0 149 -55.5t51 -131.5q0 -38 -11 -69.5t-26.5 -50t-31 -32t-26.5 -18.5l-11 -5q135 -45 135 -163q0 -87 -57 -137t-163 -50q-104 0 -169.5 50t-65.5 148q0 38 14 71.5t31.5 52.5 t40 34.5t33.5 20.5t18 7zM356 335l-132 34q-6 -2 -15.5 -5.5t-33.5 -18t-42.5 -32.5t-33.5 -50.5t-15 -70.5q0 -83 58.5 -131.5t156.5 -48.5q96 0 148 43.5t52 125.5q0 54 -36 95t-107 59zM234 384l126 -32q4 1 11.5 4.5t26.5 16.5t33.5 30t26.5 48t12 68q0 71 -47.5 119.5 t-132.5 48.5q-79 0 -125.5 -44.5t-46.5 -110.5q0 -64 33.5 -100t82.5 -48z" />
<glyph unicode="9" horiz-adv-x="571" d="M268 706q114 0 173.5 -88.5t59.5 -251.5q0 -197 -63.5 -284.5t-184.5 -87.5q-43 0 -82.5 15.5t-56 28.5t-27.5 24q-3 4 0 7l5 6q3 4 6 1q69 -64 155 -64q118 0 173 86t55 261q-3 -4 -8.5 -10.5t-24.5 -22.5t-41.5 -28.5t-60 -23t-78.5 -10.5q-95 0 -151 52.5t-56 163.5 q0 104 57.5 165t149.5 61zM481 381q0 143 -55.5 225t-157.5 82q-82 0 -134.5 -56t-52.5 -152q0 -198 187 -198q65 0 118 25t74 49z" />
<glyph unicode=":" horiz-adv-x="208" d="M78 20q0 10 8 18t18 8t18 -8t8 -18t-8 -18t-18 -8t-18 8t-8 18zM78 438q0 10 8 18t18 8t18 -8t8 -18t-8 -18t-18 -8t-18 8t-8 18z" />
<glyph unicode=";" horiz-adv-x="215" d="M81 20q0 10 7.5 18t18.5 8q29 0 29 -36q0 -57 -44 -73q-4 -1 -7 4l-4 7q-3 5 2 7q24 9 24 39q-10 0 -18 7.5t-8 18.5zM81 438q0 10 7.5 18t18.5 8t18.5 -8t7.5 -18t-7.5 -18t-18.5 -8t-18.5 8t-7.5 18z" />
<glyph unicode="&#x3c;" horiz-adv-x="404" d="M52 287l276 194q6 4 6 -2v-8q0 -6 -6 -10l-263 -186l263 -186q6 -4 6 -10v-8q0 -6 -6 -2l-276 194q-4 3 -4 8v8q0 5 4 8z" />
<glyph unicode="=" horiz-adv-x="514" d="M89 374h336q7 0 7 -6v-6q0 -6 -7 -6h-336q-7 0 -7 6v6q0 6 7 6zM89 194h336q7 0 7 -6v-6q0 -6 -7 -6h-336q-7 0 -7 6v6q0 6 7 6z" />
<glyph unicode="&#x3e;" horiz-adv-x="404" d="M76 481l276 -194q4 -3 4 -8v-8q0 -5 -4 -8l-276 -194q-6 -4 -6 2v8q0 6 6 10l263 186l-263 186q-6 4 -6 10v8q0 6 6 2z" />
<glyph unicode="?" horiz-adv-x="426" d="M185 46q11 0 18.5 -8t7.5 -18t-7.5 -18t-18.5 -8t-18.5 8t-7.5 18t7.5 18t18.5 8zM59 544l-7 1q-5 1 -5 7q0 66 47 110t116 44q83 0 125 -47t42 -112q0 -50 -19 -86t-46 -60t-54 -49.5t-45.5 -68.5t-18.5 -103q0 -6 -6 -6h-6q-6 0 -6 6q1 64 20 109.5t46 71t53.5 48 t45 56.5t18.5 82q0 61 -39 101.5t-110 40.5q-63 0 -104 -40t-41 -100q0 -6 -6 -5z" />
<glyph unicode="@" horiz-adv-x="817" d="M765 353q0 -133 -66 -218.5t-140 -85.5q-51 0 -51 45q0 26 15 62q-6 -12 -15.5 -25t-28 -32.5t-46.5 -32t-60 -12.5q-126 0 -126 145q0 99 61.5 178.5t150.5 79.5q42 0 73 -17t42 -34l10 -17l12 45q1 6 8 6h7l5 -6q-88 -310 -90 -336q-1 -15 8.5 -23.5t26.5 -8.5 q69 0 128 81.5t59 205.5q0 112 -77 185t-197 73q-171 0 -281.5 -123.5t-110.5 -306.5q0 -143 77 -220.5t207 -77.5q55 0 105.5 10t81.5 23t58 30.5t37 26t16 15.5q3 3 5 0l5 -7q3 -4 0 -7q-11 -11 -30 -25t-56.5 -35t-96 -34.5t-125.5 -13.5q-135 0 -218.5 80t-83.5 235 q0 200 117 323.5t293 123.5q128 0 209.5 -76.5t81.5 -198.5zM537 216l41 152q-1 3 -3.5 8t-12 17t-21.5 21.5t-34 17.5t-48 8q-82 0 -138 -73t-56 -168q0 -128 108 -128q36 0 67 16.5t50.5 41.5t30.5 46.5t16 40.5z" />
<glyph unicode="A" horiz-adv-x="628" d="M572 5l-86 225h-344l-86 -225q-2 -5 -7 -5h-9q-6 0 -4 5l264 687q3 8 8 8h12q5 0 8 -8l264 -687q2 -5 -4 -5h-9q-5 0 -7 5zM314 680l-165 -432h330z" />
<glyph unicode="B" horiz-adv-x="612" d="M311 0h-204q-7 0 -7 7v686q0 7 7 7h206q96 0 148.5 -44t52.5 -130q0 -48 -14.5 -83t-36.5 -51.5t-40 -23.5t-32 -7v-2q21 0 45.5 -7.5t53 -24.5t47 -54.5t18.5 -88.5q0 -41 -14 -73.5t-37 -53t-55.5 -33.5t-66 -18.5t-71.5 -5.5zM120 18h191q41 0 77 7t71 24t55.5 51.5 t20.5 83.5q0 87 -52 127t-138 40h-225v-333zM120 369h225q149 0 149 157q0 72 -45 114t-138 42h-191v-313z" />
<glyph unicode="C" horiz-adv-x="624" d="M564 116l6 -7q3 -4 0 -8q-3 -5 -11 -14.5t-27.5 -26.5t-43 -31t-60 -24.5t-76.5 -10.5q-61 0 -110.5 18.5t-90 58.5t-63 110.5t-22.5 165.5q0 184 77 271.5t199 87.5q55 0 98.5 -18.5t65.5 -41t38 -53.5t19 -44t5 -24q1 -6 -3 -7l-8 -2q-7 -1 -8 5q-2 14 -7 30.5t-20 42 t-36 45.5t-59 34.5t-85 14.5q-52 0 -96.5 -18t-81 -56.5t-57.5 -106.5t-21 -160q0 -93 22.5 -161t61.5 -104.5t84 -53t98 -16.5q46 0 86 14t65.5 35.5t36.5 33t18 21.5q2 4 6 0z" />
<glyph unicode="D" horiz-adv-x="653" d="M300 0h-193q-7 0 -7 7v686q0 7 7 7h153q148 0 237.5 -89t89.5 -265q0 -170 -75 -258t-212 -88zM120 18h180q127 0 197 81.5t70 246.5q0 89 -24.5 155.5t-68 105t-97 57t-117.5 18.5h-140v-664z" />
<glyph unicode="E" horiz-adv-x="555" d="M483 0h-376q-7 0 -7 7v686q0 7 7 7h376q7 0 7 -7v-4q0 -7 -7 -7h-363v-323h323q7 0 7 -7v-4q0 -7 -7 -7h-323v-323h363q7 0 7 -7v-4q0 -7 -7 -7z" />
<glyph unicode="F" horiz-adv-x="536" d="M120 341v-334q0 -7 -7 -7h-6q-7 0 -7 7v686q0 7 7 7h376q7 0 7 -7v-4q0 -7 -7 -7h-363v-323h323q7 0 7 -7v-4q0 -7 -7 -7h-323z" />
<glyph unicode="G" horiz-adv-x="642" d="M578 328v-67q0 -131 -59 -199t-177 -68q-56 0 -104 19t-87.5 58.5t-62 110t-22.5 165.5q0 184 77 271.5t199 87.5q85 0 146.5 -45.5t79.5 -135.5q1 -6 -3 -7l-8 -2q-7 -1 -8 6q-38 166 -207 166q-52 0 -96.5 -18t-81 -56.5t-57.5 -106.5t-21 -160q0 -93 22.5 -161 t61 -104.5t81.5 -53t91 -16.5q216 0 216 249v56h-196q-7 0 -7 7v4q0 7 7 7h209q7 0 7 -7z" />
<glyph unicode="H" horiz-adv-x="670" d="M570 693v-686q0 -7 -7 -7h-6q-7 0 -7 7v334h-430v-334q0 -7 -7 -7h-6q-7 0 -7 7v686q0 7 7 7h6q7 0 7 -7v-334h430v334q0 7 7 7h6q7 0 7 -7z" />
<glyph unicode="I" horiz-adv-x="220" d="M120 693v-686q0 -7 -7 -7h-6q-7 0 -7 7v686q0 7 7 7h6q7 0 7 -7z" />
<glyph unicode="J" horiz-adv-x="434" d="M318 166v527q0 7 7 7h6q7 0 7 -7v-523q0 -176 -162 -176q-95 0 -158 76q-4 4 0 7l8 8q3 3 6 -1q7 -10 20 -23t49 -31t75 -18q142 0 142 154z" />
<glyph unicode="K" horiz-adv-x="660" d="M120 346h190q28 0 57 12t58 39.5t51.5 66.5t36.5 98.5t14 130.5q0 7 7 7h6q7 0 7 -7q0 -154 -56.5 -242.5t-131.5 -114.5q32 -8 61.5 -44.5t52.5 -81.5t46 -89t50.5 -73.5t57.5 -29.5h18q7 0 7 -7v-4q0 -7 -10 -7h-15q-40 0 -72.5 34t-56 82t-48.5 96t-60.5 82t-79.5 34 h-190v-321q0 -7 -7 -7h-6q-7 0 -7 7v686q0 7 7 7h6q7 0 7 -7v-347z" />
<glyph unicode="L" horiz-adv-x="523" d="M120 693v-675h383q7 0 7 -7v-4q0 -7 -7 -7h-396q-7 0 -7 7v686q0 7 7 7h6q7 0 7 -7z" />
<glyph unicode="M" horiz-adv-x="800" d="M100 7v686q0 7 7 7h19q6 0 9 -7l264 -562h2l264 562q3 7 9 7h19q7 0 7 -7v-686q0 -7 -7 -7h-6q-7 0 -7 7v673l-267 -566q-4 -9 -13 -9t-13 9l-267 566v-673q0 -7 -7 -7h-6q-7 0 -7 7z" />
<glyph unicode="N" horiz-adv-x="670" d="M563 0h-19q-5 0 -10 8l-414 674v-675q0 -7 -7 -7h-6q-7 0 -7 7v686q0 7 7 7h19q5 0 9 -7l415 -675v675q0 7 7 7h6q7 0 7 -7v-686q0 -7 -7 -7z" />
<glyph unicode="O" d="M346 -6q-55 0 -103 18.5t-89 58.5t-64.5 111t-23.5 167t23.5 167.5t64.5 111.5t89 59t103 19t103 -19t89 -59t64.5 -111.5t23.5 -167.5t-23.5 -167t-64.5 -111t-89 -58.5t-103 -18.5zM346 12q51 0 96 18t82.5 56t59.5 105.5t22 157.5t-22 158t-59.5 106t-82.5 56.5 t-96 18.5t-96 -18.5t-82.5 -56.5t-59.5 -106t-22 -158t22 -157.5t59.5 -105.5t82.5 -56t96 -18z" />
<glyph unicode="P" horiz-adv-x="567" d="M113 0h-6q-7 0 -7 7v686q0 7 7 7h193q107 0 164.5 -52.5t57.5 -153.5q0 -100 -57 -150t-165 -50h-180v-287q0 -7 -7 -7zM120 312h180q202 0 202 182q0 89 -50 138.5t-152 49.5h-180v-370z" />
<glyph unicode="Q" d="M553 -197v-4q0 -7 -10 -7q-73 4 -127 57.5t-79 144.5q-54 2 -100.5 21.5t-86 59t-62 110t-22.5 164.5q0 96 23.5 167.5t64.5 111.5t89 59t103 19t103 -19t89 -59t64.5 -111.5t23.5 -167.5q0 -94 -22.5 -164t-62 -110t-85.5 -59.5t-100 -21.5q26 -89 76.5 -135.5 t113.5 -48.5q7 0 7 -7zM346 12q51 0 96 18t82.5 56t59.5 105.5t22 157.5t-22 158t-59.5 106t-82.5 56.5t-96 18.5t-96 -18.5t-82.5 -56.5t-59.5 -106t-22 -158t22 -157.5t59.5 -105.5t82.5 -56t96 -18z" />
<glyph unicode="R" horiz-adv-x="657" d="M652 11v-4q0 -7 -10 -7h-14q-41 0 -73.5 33t-55.5 79.5t-47.5 93t-60.5 79.5t-81 33h-190v-311q0 -7 -7 -7h-6q-7 0 -7 7v686q0 7 7 7h202q97 0 153.5 -48.5t56.5 -144.5q0 -76 -41 -122.5t-114 -60.5q32 -8 61 -43t50.5 -78t44 -85.5t50.5 -71t59 -28.5h16q7 0 7 -7z M120 336h190q82 0 135.5 45.5t53.5 125.5q0 79 -50 127t-142 48h-187v-346z" />
<glyph unicode="S" horiz-adv-x="597" d="M523 578l-9 -5q-4 -1 -6 3q-2 6 -8.5 16t-23.5 28t-39.5 32t-60.5 25t-83 11q-101 0 -155 -47t-54 -113q0 -53 25.5 -86.5t66 -48t89.5 -23t97.5 -17.5t89 -25.5t66 -53.5t25.5 -95q0 -82 -63 -133.5t-174 -51.5q-53 0 -98.5 12.5t-71.5 28.5t-47 36.5t-27 30t-9 14.5 q-2 4 2 7l7 6q4 3 6 -1q4 -7 10 -16t26.5 -28.5t45 -34t66.5 -26t90 -11.5q101 0 159 45t58 122q0 53 -25.5 86.5t-66 48t-89 23.5t-97.5 18t-89.5 25.5t-66 53t-25.5 93.5q0 77 60.5 128t168.5 51q51 0 93 -12t66 -28t42 -35.5t23.5 -30t7.5 -16.5q1 -4 -2 -6z" />
<glyph unicode="T" horiz-adv-x="568" d="M21 700h526q7 0 7 -7v-4q0 -7 -7 -7h-253v-675q0 -7 -7 -7h-6q-7 0 -7 7v675h-253q-7 0 -7 7v4q0 7 7 7z" />
<glyph unicode="U" horiz-adv-x="678" d="M564 284v409q0 7 7 7h6q7 0 7 -7v-409q0 -159 -63.5 -224.5t-181.5 -65.5t-181.5 65.5t-63.5 224.5v409q0 7 7 7h6q7 0 7 -7v-409q0 -148 59 -210t166 -62t166 62t59 210z" />
<glyph unicode="V" horiz-adv-x="614" d="M307 20l243 674q2 6 7 6h11q7 0 4 -6l-251 -686q-3 -8 -8 -8h-12q-5 0 -8 8l-251 686q-3 6 4 6h11q5 0 7 -6z" />
<glyph unicode="W" horiz-adv-x="950" d="M488 693l195 -673l198 673q2 7 7 7h11q7 0 4 -6l-206 -687q-2 -7 -8 -7h-12q-7 0 -8 7l-194 663l-194 -663q-2 -7 -8 -7h-12q-6 0 -8 7l-206 687q-3 6 4 6h11q5 0 7 -7l198 -673l195 673q1 7 8 7h10q6 0 8 -7z" />
<glyph unicode="X" horiz-adv-x="558" d="M520 0h-8q-5 0 -10 6l-223 328l-223 -328q-4 -6 -10 -6h-8q-8 0 -4 6l233 343l-233 345q-4 6 4 6h8q6 0 10 -6l223 -330l223 330q5 6 10 6h8q8 0 4 -6l-233 -345l233 -343q4 -6 -4 -6z" />
<glyph unicode="Y" horiz-adv-x="592" d="M299 0h-6q-7 0 -7 7v309l-245 378q-4 6 4 6h8q5 0 10 -6l233 -360l233 360q5 6 10 6h8q8 0 4 -6l-245 -378v-309q0 -7 -7 -7z" />
<glyph unicode="Z" horiz-adv-x="569" d="M520 0h-471q-7 0 -7 7v5q0 6 5 13l456 657h-454q-7 0 -7 7v4q0 7 7 7h471q7 0 7 -7v-5q0 -7 -5 -13l-456 -657h454q7 0 7 -7v-4q0 -7 -7 -7z" />
<glyph unicode="[" horiz-adv-x="239" d="M193 -244h-94q-7 0 -7 7v956q0 7 7 7h94q7 0 7 -6v-5q0 -6 -7 -6h-83v-936h83q7 0 7 -6v-5q0 -6 -7 -6z" />
<glyph unicode="\" horiz-adv-x="374" d="M332 -224h-8q-6 0 -8 6l-279 918q-2 6 4 6h8q7 0 8 -6l279 -918q2 -6 -4 -6z" />
<glyph unicode="]" horiz-adv-x="239" d="M140 -244h-94q-7 0 -7 6v5q0 6 7 6h83v936h-83q-7 0 -7 6v5q0 6 7 6h94q7 0 7 -7v-956q0 -7 -7 -7z" />
<glyph unicode="^" horiz-adv-x="367" d="M85 533h-10q-6 0 -3 5l95 167q3 5 9 5h15q6 0 9 -5l95 -167q3 -5 -3 -5h-10q-6 0 -9 5l-90 151l-89 -151q-2 -5 -9 -5z" />
<glyph unicode="_" horiz-adv-x="394" d="M44 0h306q7 0 7 -6v-6q0 -6 -7 -6h-306q-7 0 -7 6v6q0 6 7 6z" />
<glyph unicode="`" horiz-adv-x="228" d="M162 568h-10q-6 0 -10 6l-84 131q-3 5 3 5h15q6 0 9 -5l80 -132q3 -5 -3 -5z" />
<glyph unicode="a" horiz-adv-x="487" d="M447 11v-5q0 -6 -10 -6q-22 0 -36.5 17t-14.5 55v63q-9 -24 -22.5 -46t-35 -45t-54.5 -36.5t-73 -13.5q-72 0 -111 30.5t-39 88.5q0 119 171 119h164v94q0 144 -146 144q-71 0 -109.5 -33t-38.5 -86q0 -23 8 -44q2 -6 -3 -6h-6q-7 0 -9 6q-8 21 -8 47q0 57 45 95.5 t121 38.5q164 0 164 -162v-254q0 -54 38 -56q5 0 5 -5zM386 178v37h-164q-72 0 -111.5 -26t-39.5 -75t34.5 -76t95.5 -27q41 0 75 17t53.5 41.5t33 49.5t18.5 42z" />
<glyph unicode="b" horiz-adv-x="524" d="M95 0h-4q-7 0 -7 7v712q0 7 7 7h4q7 0 7 -7v-340q2 4 5 11.5t17 26.5t31 33t48 26t67 12q87 0 141 -59t54 -183q0 -128 -54.5 -190t-139.5 -62q-37 0 -68 10t-49 24.5t-30.5 29t-17.5 24.5l-4 10v-85q0 -7 -7 -7zM102 338v-207q1 -5 4 -13t16 -28.5t30 -36.5t49 -29 t70 -13q79 0 127.5 59.5t48.5 175.5q0 114 -50 169.5t-127 55.5q-36 0 -67 -13.5t-48.5 -33.5t-30.5 -39.5t-18 -32.5z" />
<glyph unicode="c" horiz-adv-x="468" d="M59 242q0 129 54 187.5t143 58.5q79 0 115.5 -39t36.5 -97q0 -16 -3 -37q-1 -5 -7 -5h-6q-7 0 -5 7q3 24 3 35q0 49 -31.5 84t-102.5 35q-80 0 -129.5 -56t-49.5 -173q0 -67 18 -115.5t47 -72t57.5 -33.5t57.5 -10q51 0 85.5 22t51.5 45q5 7 9 3l6 -5q3 -3 0 -8 q-49 -74 -152 -74q-35 0 -67 11t-63 37t-49.5 77t-18.5 123z" />
<glyph unicode="d" horiz-adv-x="529" d="M422 152v206l-5 12.5t-16.5 27t-31 34.5t-49 27t-68.5 12q-76 0 -125.5 -60t-49.5 -173q0 -110 49.5 -168.5t125.5 -58.5q40 0 72.5 14.5t49.5 35.5t29 41.5t15 35.5zM483 10v-4q0 -7 -10 -7q-22 0 -36.5 17.5t-14.5 55.5v40q-1 -5 -4.5 -13t-16.5 -28t-30.5 -35.5 t-49 -28.5t-69.5 -13q-82 0 -137.5 60.5t-55.5 183.5q0 126 53.5 188t139.5 62q36 0 66.5 -9.5t49 -23t31.5 -27.5t18 -24l5 -9v324q0 7 7 7h4q7 0 7 -7v-647q0 -55 36 -55q7 0 7 -7z" />
<glyph unicode="e" horiz-adv-x="473" d="M408 261h-331v-19q0 -67 18 -115.5t47 -72t57.5 -33.5t57.5 -10q85 0 137 67q6 7 10 3l5 -5q3 -3 0 -8q-9 -14 -22.5 -27.5t-49.5 -30t-80 -16.5q-35 0 -67 11t-63 37t-49.5 77t-18.5 123q0 129 52 187.5t140 58.5q87 0 125.5 -58t38.5 -152q0 -12 -1 -14.5t-6 -2.5z M78 278h319q0 193 -146 193q-74 0 -120 -47.5t-53 -145.5z" />
<glyph unicode="f" horiz-adv-x="343" d="M104 465h-64q-6 0 -6 6v4q0 7 7 7h63v110q0 61 33.5 98t92.5 37q77 0 112 -49q5 -6 1 -10l-5 -5q-3 -3 -8 3q-35 44 -101 44q-48 0 -77.5 -31.5t-29.5 -86.5v-110h193q7 0 7 -7v-4q0 -6 -6 -6h-194v-458q0 -7 -7 -7h-4q-7 0 -7 7v458z" />
<glyph unicode="g" horiz-adv-x="498" d="M295 20h-86q-68 -1 -108.5 -33.5t-40.5 -90.5q0 -61 47 -93.5t140 -32.5q96 0 146 34.5t50 99.5q0 55 -41 85.5t-107 30.5zM408 313q0 70 -46.5 114t-114.5 44t-113.5 -43.5t-45.5 -114.5q0 -70 45.5 -113.5t113.5 -43.5t114.5 43.5t46.5 113.5zM214 37h81 q75 0 120.5 -34.5t45.5 -98.5q0 -151 -214 -151q-104 0 -154.5 37.5t-50.5 105.5q0 35 13 62t33 40.5t32 19t22 7.5q-12 1 -26 5t-33.5 23t-19.5 49q0 63 69 75q-3 2 -7 5.5t-14.5 16t-19 26.5t-15 38t-6.5 50q0 78 51 126.5t126 48.5q26 0 50 -6t35 -12l11 -7 q56 0 80.5 12.5t26.5 41.5q0 7 6 7h6q6 0 6 -7q-2 -35 -26.5 -51.5t-74.5 -19.5q2 -2 6 -5t14.5 -15.5t18 -26.5t14 -37.5t6.5 -48.5q0 -78 -51.5 -126t-127.5 -48q-25 0 -49 6.5t-36 12.5l-11 6q-27 0 -48.5 -16.5t-21.5 -45.5q0 -38 34 -51.5t99 -13.5z" />
<glyph unicode="h" horiz-adv-x="518" d="M84 7v712q0 7 7 7h4q7 0 7 -7v-370q14 60 58 99.5t109 39.5q85 0 126 -51t41 -134v-231q0 -55 36 -55q7 0 7 -7v-4q0 -7 -10 -7q-22 0 -36.5 17.5t-14.5 55.5v231q0 73 -38 120.5t-111 47.5q-53 0 -92.5 -32.5t-57 -76t-17.5 -88.5v-267q0 -7 -7 -7h-4q-7 0 -7 7z" />
<glyph unicode="i" horiz-adv-x="189" d="M118 623q0 -11 -8 -18.5t-18 -7.5t-18 7.5t-8 18.5t8 18.5t18 7.5t18 -7.5t8 -18.5zM143 10v-4q0 -7 -10 -7q-22 0 -36.5 17.5t-14.5 55.5v403q0 7 7 7h4q7 0 7 -7v-403q0 -55 36 -55q7 0 7 -7z" />
<glyph unicode="j" horiz-adv-x="186" d="M114 628q0 -9 -6 -15t-15 -6t-15 6t-6 15t6 15t15 6t15 -6t6 -15zM102 475v-578q0 -144 -123 -144q-45 0 -75 20q-4 2 -3 6l4 10q2 3 4 1q30 -20 70 -20q53 0 79 30t26 97v578q0 7 7 7h4q7 0 7 -7z" />
<glyph unicode="k" horiz-adv-x="511" d="M493 11v-5q0 -7 -11 -7q-33 0 -55.5 19.5t-32.5 48.5t-22.5 62.5t-25.5 62.5t-42 48.5t-72 19.5h-130v-253q0 -7 -7 -7h-4q-7 0 -7 7v712q0 7 7 7h4q7 0 7 -7v-442h129q75 0 122.5 53t49.5 145q0 7 6 7h6q6 0 6 -7q-2 -73 -34 -130.5t-101 -76.5q35 -10 58.5 -39.5 t35 -64.5t22.5 -68.5t31 -56t51 -22.5q9 0 9 -6z" />
<glyph unicode="l" horiz-adv-x="193" d="M145 10v-4q0 -7 -10 -7q-22 0 -36.5 17.5t-14.5 55.5v647q0 7 7 7h4q7 0 7 -7v-647q0 -55 36 -55q7 0 7 -7z" />
<glyph unicode="m" horiz-adv-x="850" d="M768 303v-231q0 -55 36 -55q7 0 7 -7v-4q0 -7 -10 -7q-22 0 -36.5 17.5t-14.5 55.5v231q0 73 -37 120.5t-110 47.5q-75 0 -120 -61.5t-45 -140.5v-197q0 -55 36 -55q7 0 7 -7v-4q0 -7 -10 -7q-22 0 -36.5 17.5t-14.5 55.5v231q0 73 -37 120.5t-110 47.5q-77 0 -121 -62.5 t-44 -134.5v-267q0 -7 -7 -7h-4q-7 0 -7 7v405q0 49 -36 53q-7 0 -7 6v5q0 7 11 7q21 0 35.5 -17.5t14.5 -53.5v-63q14 61 56 100t109 39q75 0 114.5 -40t48.5 -108q9 59 54 103.5t113 44.5q85 0 125 -51t40 -134z" />
<glyph unicode="n" horiz-adv-x="524" d="M90 7v405q0 49 -36 53q-7 0 -7 6v5q0 7 11 7q21 0 35.5 -17.5t14.5 -53.5v-63q14 60 57 99.5t110 39.5q85 0 126 -51t41 -134v-231q0 -55 36 -55q7 0 7 -7v-4q0 -7 -10 -7q-22 0 -36.5 17.5t-14.5 55.5v231q0 73 -38 120.5t-111 47.5q-78 0 -122.5 -62.5t-44.5 -134.5 v-267q0 -7 -7 -7h-4q-7 0 -7 7z" />
<glyph unicode="o" horiz-adv-x="514" d="M257 -6q-88 0 -143 63.5t-55 183.5t55 183.5t143 63.5t143 -63.5t55 -183.5t-55 -183.5t-143 -63.5zM257 11q76 0 128 58.5t52 171.5t-52 171.5t-128 58.5t-128 -58.5t-52 -171.5t52 -171.5t128 -58.5z" />
<glyph unicode="p" horiz-adv-x="530" d="M108 338v-207q1 -5 4 -13t16 -28.5t30 -36.5t49 -29t70 -13q79 0 127.5 59.5t48.5 175.5q0 114 -50 169.5t-127 55.5q-36 0 -67 -13.5t-48.5 -33.5t-30.5 -39.5t-18 -32.5zM47 471v5q0 7 11 7q21 0 35.5 -17.5t14.5 -53.5v-33q2 4 5 11.5t17 26.5t31 33t48 26t67 12 q87 0 141 -59t54 -183q0 -128 -54.5 -190t-139.5 -62q-37 0 -68 10t-49 24.5t-30.5 29t-17.5 24.5l-4 10v-329q0 -7 -7 -7h-4q-7 0 -7 7v649q0 49 -36 53q-7 0 -7 6z" />
<glyph unicode="q" horiz-adv-x="524" d="M422 153v205l-5 12.5t-17 27t-31 34.5t-48.5 27t-68.5 12q-78 0 -126.5 -59.5t-48.5 -173.5q0 -110 50 -168.5t126 -58.5q39 0 71 14.5t49.5 35.5t29.5 42t15 35zM429 482h4q7 0 7 -7v-712q0 -7 -7 -7h-4q-7 0 -7 7v349q-1 -5 -4 -13t-16 -28t-30.5 -35.5t-49 -28.5 t-69.5 -13q-83 0 -138.5 60.5t-55.5 183.5q0 126 53.5 188t139.5 62q36 0 66.5 -9.5t49 -23t31.5 -27.5t18 -24l5 -9v80q0 7 7 7z" />
<glyph unicode="r" horiz-adv-x="340" d="M90 7v405q0 49 -36 53q-7 0 -7 6v5q0 7 11 7q21 0 35.5 -17.5t14.5 -53.5v-63q14 60 56 99.5t106 39.5q23 0 43 -5q6 -1 4 -6l-4 -9q-2 -3 -7 -2q-20 5 -36 5q-75 0 -118.5 -62.5t-43.5 -134.5v-267q0 -7 -7 -7h-4q-7 0 -7 7z" />
<glyph unicode="s" horiz-adv-x="448" d="M369 314h-6q-6 0 -4 7q5 18 5 37q0 47 -35.5 80t-107.5 33q-68 0 -105 -33t-37 -86q0 -42 23.5 -66t58.5 -31.5t76.5 -15t76.5 -15.5t58.5 -34.5t23.5 -70.5q0 -59 -43 -92t-123 -33q-73 0 -118.5 31t-61.5 60q-3 6 2 9l4 3q6 4 9 -2q10 -16 26 -32t54.5 -34t84.5 -18 q70 0 109 28.5t39 79.5q0 45 -32.5 68t-79.5 30t-93.5 15.5t-79 37t-32.5 82.5q0 58 40 97t120 39q84 0 122.5 -38.5t38.5 -91.5q0 -17 -5 -37q-2 -7 -8 -7z" />
<glyph unicode="t" horiz-adv-x="375" d="M134 482h203q7 0 7 -7v-4q0 -6 -7 -6h-203v-328q0 -63 26.5 -94.5t85.5 -31.5q28 0 53.5 12.5t34.5 21t15 15.5q4 4 6 0l4 -6q3 -4 1 -7q-11 -15 -42 -34t-72 -19q-67 0 -98.5 35t-31.5 108v328h-73q-7 0 -7 6v4q0 7 7 7h73v143q0 7 7 7h4q7 0 7 -7v-143z" />
<glyph unicode="u" horiz-adv-x="515" d="M469 10v-4q0 -7 -10 -7q-22 0 -36.5 17.5t-14.5 55.5v49q-22 -56 -67 -91.5t-108 -35.5q-153 0 -153 162v319q0 7 7 7h4q7 0 7 -7v-319q0 -145 135 -145q76 0 125.5 58.5t49.5 116.5v289q0 7 7 7h4q7 0 7 -7v-403q0 -55 36 -55q7 0 7 -7z" />
<glyph unicode="v" horiz-adv-x="472" d="M245 0h-18q-5 0 -8 8l-176 469q-3 5 4 5h9q5 0 7 -5l173 -460l173 460q2 5 7 5h9q7 0 4 -5l-176 -469q-3 -8 -8 -8z" />
<glyph unicode="w" horiz-adv-x="702" d="M504 0h-16q-5 0 -8 7l-129 420l-128 -417q-3 -10 -9 -10h-16q-5 0 -8 7l-142 469q-2 6 3 6h10q5 0 7 -6l138 -459l138 452q2 3 5 3h4q3 0 5 -3l138 -452l138 459q2 6 8 6h9q6 0 3 -6l-141 -466q-3 -10 -9 -10z" />
<glyph unicode="x" horiz-adv-x="439" d="M397 0h-11q-6 0 -8 3l-159 225l-157 -224q-3 -4 -9 -4h-11q-5 0 -3 4l167 238l-167 236q-2 4 3 4h11q6 0 9 -4l157 -222l158 222q3 4 9 4h11q5 0 3 -4l-168 -236l168 -238q2 -4 -3 -4z" />
<glyph unicode="y" horiz-adv-x="473" d="M430 477l-240 -634q-17 -44 -39 -67t-64 -23q-22 0 -43 6q-5 2 -4 8l1 6q1 6 6 4q19 -7 40 -7q33 0 50.5 17t32.5 56l56 149l-182 485q-2 5 4 5h8q6 0 8 -5l173 -460l173 460q2 5 8 5h8q6 0 4 -5z" />
<glyph unicode="z" horiz-adv-x="429" d="M379 0h-330q-6 0 -6 6v5q0 6 2 9l318 445h-314q-6 0 -6 6v4q0 7 7 7h328q7 0 7 -7v-4q0 -5 -3 -10l-317 -444h313q7 0 7 -7v-4q0 -6 -6 -6z" />
<glyph unicode="{" horiz-adv-x="272" d="M114 316v280q0 70 34 100t81 30q5 0 5 -5v-8q0 -5 -5 -5q-97 -3 -97 -112v-280q0 -27 -10.5 -45t-20 -23t-18.5 -7q49 -18 49 -75v-280q0 -109 97 -112q5 0 5 -5v-8q0 -5 -5 -5q-50 2 -82.5 32t-32.5 98v280q0 33 -19 50t-50 17q-5 0 -5 5v6q0 5 5 5q31 0 50 17t19 50z " />
<glyph unicode="|" horiz-adv-x="204" d="M112 729v-976q0 -7 -7 -7h-6q-7 0 -7 7v976q0 7 7 7h6q7 0 7 -7z" />
<glyph unicode="}" horiz-adv-x="272" d="M158 596v-280q0 -33 19 -50t50 -17q5 0 5 -5v-6q0 -5 -5 -5q-31 0 -50 -17t-19 -50v-280q0 -68 -32.5 -98t-82.5 -32q-5 0 -5 5v8q0 5 5 5q97 3 97 112v280q0 57 49 75q-9 2 -18.5 7t-20 23t-10.5 45v280q0 109 -97 112q-5 0 -5 5v8q0 5 5 5q47 0 81 -30t34 -100z" />
<glyph unicode="~" horiz-adv-x="398" d="M104 231h-10q-5 0 -7 4q-5 13 -5 25q0 23 14.5 38t40.5 15q25 0 64 -19.5t63 -19.5q31 0 31 26q0 14 -4 22q-2 4 4 4h10q6 0 7 -4q4 -12 4 -22q0 -46 -52 -46q-30 0 -69 19.5t-58 19.5q-15 0 -25 -9t-10 -24q0 -10 6 -25q1 -4 -4 -4z" />
<glyph unicode="&#xa1;" horiz-adv-x="196" d="M98 436q-10 0 -18 8t-8 18t8 18t18 8t18 -8t8 -18t-8 -18t-18 -8zM88 -238l2 540q0 6 6 6h4q6 0 6 -6l2 -540q0 -6 -6 -6h-8q-6 0 -6 6z" />
<glyph unicode="&#xa2;" horiz-adv-x="480" d="M84 242q0 -60 15 -105t40 -71t52 -39t56 -16v469q-163 -9 -163 -238zM247 -96v90q-74 5 -127.5 66t-53.5 182q0 127 49 189t132 66v70q0 7 7 7h4q7 0 7 -7v-70q43 0 79 -19t50 -35.5t21 -30.5q2 -3 -2 -7l-6 -5q-4 -4 -7 2q-6 12 -16.5 25.5t-43.5 32.5t-75 20v-469 q38 1 67 13t44 30t21.5 31t9.5 24q1 5 6 3l7 -3q4 -1 3 -6q-3 -11 -9.5 -23.5t-23 -34.5t-49 -36t-76.5 -15v-90q0 -7 -7 -7h-4q-7 0 -7 7z" />
<glyph unicode="&#xa3;" horiz-adv-x="566" d="M63 281h113l-27 40.5t-33.5 53t-19.5 51.5t-11 71q0 91 53.5 150t150.5 59q53 0 95.5 -11t67 -29t36 -29.5t18.5 -22.5q2 -4 -1 -6l-10 -5q-4 -2 -6 2q-3 5 -9 12.5t-23 21t-37.5 23.5t-55.5 18t-75 8q-90 0 -136 -54.5t-48 -135.5q-1 -35 9.5 -69.5t22 -53.5t33 -51 t28.5 -43h217q7 0 7 -7v-4q0 -7 -7 -7h-207q16 -30 16 -59q0 -33 -10 -64t-22.5 -51t-28.5 -37t-24.5 -24t-13.5 -10h351q7 0 7 -7v-4q0 -7 -7 -7h-377q-7 0 -7 7v5q0 6 6 10q13 8 27 21t34 36t32.5 56t12.5 69q0 26 -18 59h-123q-7 0 -7 7v4q0 7 7 7z" />
<glyph unicode="&#xa4;" horiz-adv-x="584" d="M446 377q0 -47 -25 -84l78 -78q4 -4 0 -8l-4 -4q-4 -4 -8 0l-76 76q-45 -55 -118 -55q-74 -2 -120 56l-76 -77q-4 -4 -8 0l-4 4q-4 4 0 8l78 79q-25 38 -24 84q0 45 24 83l-78 79q-4 4 0 8l4 4q4 4 8 0l76 -77q47 57 119 57q70 0 119 -57l76 77q4 4 8 0l4 -4q4 -4 0 -8 l-78 -79q25 -42 25 -84zM429 377q0 58 -40 98t-97 40q-56 0 -96 -40.5t-40 -96.5q0 -57 39.5 -97t97.5 -40q56 -1 96.5 39.5t39.5 96.5z" />
<glyph unicode="&#xa5;" horiz-adv-x="578" d="M91 405h124l-174 270q-4 6 4 6h7q6 0 10 -6l227 -350l227 350q4 6 10 6h7q8 0 4 -6l-175 -270h125q7 0 7 -7v-4q0 -7 -7 -7h-136l-52 -80v-22h158q7 0 7 -7v-4q0 -7 -7 -7h-158v-260q0 -7 -7 -7h-6q-7 0 -7 7v260h-158q-7 0 -7 7v4q0 7 7 7h158v22l-52 80h-136q-7 0 -7 7 v4q0 7 7 7z" />
<glyph unicode="&#xa6;" horiz-adv-x="206" d="M93 361v368q0 7 7 7h6q7 0 7 -7v-368q0 -7 -7 -7h-6q-7 0 -7 7zM93 -247v436q0 7 7 7h6q7 0 7 -7v-436q0 -7 -7 -7h-6q-7 0 -7 7z" />
<glyph unicode="&#xa7;" horiz-adv-x="620" d="M554 179q0 -70 -47 -119q21 -19 34 -52t13 -67q0 -82 -63 -133.5t-173 -51.5q-53 0 -98.5 12.5t-71.5 28.5t-47 36.5t-27 30t-9 14.5q-2 4 2 7l7 6q4 3 6 -1q4 -7 10 -16t26.5 -28.5t45 -34t66.5 -26t90 -11.5q100 0 158 45.5t58 121.5q0 52 -25.5 85.5t-66 48t-89.5 23 t-97.5 18t-89 26t-66 53.5t-25.5 94q0 62 52 114q-52 44 -52 124q0 77 60.5 128t168.5 51q51 0 93 -12t66 -28t42 -35.5t23.5 -30t7.5 -16.5q1 -4 -2 -6l-9 -5q-5 -1 -6 3q-2 6 -8.5 16t-23.5 28t-39.5 32t-60.5 25t-83 11q-101 0 -155 -47t-54 -113q0 -53 25.5 -86.5 t66 -48t89 -23t97.5 -17.5t89.5 -25.5t66 -53.5t25.5 -95zM534 179q0 56 -28 90.5t-75 49t-96.5 22.5t-104 19.5t-85.5 31.5q-50 -47 -50 -102q0 -57 29 -91t76.5 -48.5t98 -22t105.5 -20.5t87 -35q43 46 43 106z" />
<glyph unicode="&#xa8;" horiz-adv-x="309" d="M81 607q-11 0 -18.5 7.5t-7.5 18.5t7.5 18.5t18.5 7.5t18.5 -7.5t7.5 -18.5t-7.5 -18.5t-18.5 -7.5zM228 607q-10 0 -18 7.5t-8 18.5t8 18.5t18 7.5t18 -7.5t8 -18.5t-8 -18.5t-18 -7.5z" />
<glyph unicode="&#xa9;" horiz-adv-x="865" d="M432 -6q-165 0 -266.5 101.5t-101.5 267.5t102 267.5t266 101.5t266.5 -101.5t102.5 -267.5t-102 -267.5t-267 -101.5zM432 12q155 0 252 98t97 253t-97.5 253t-251.5 98q-155 0 -251.5 -97.5t-96.5 -253.5t96 -253.5t252 -97.5zM226 352q0 142 58 206.5t145 64.5 q46 0 80.5 -15t52 -39t25 -40t11.5 -32q1 -6 -4 -7l-8 -2q-4 -1 -6 5q-3 14 -9.5 28.5t-22.5 36t-47 35t-72 13.5q-78 0 -131.5 -60t-53.5 -194q0 -65 18.5 -113t48.5 -72t59.5 -34.5t60.5 -10.5q48 0 85.5 12.5t52 23t22.5 21.5q3 4 6 1l6 -5q3 -3 0 -7q-6 -9 -21 -21 t-57 -27t-94 -15q-34 0 -67.5 12t-65.5 38t-52 77t-20 120z" />
<glyph unicode="&#xaa;" horiz-adv-x="351" d="M65 495q0 66 99 66h79v47q0 79 -75 79q-34 0 -53.5 -15.5t-19.5 -40.5q0 -14 2 -20q2 -5 -4 -5h-4q-7 0 -9 6q-2 8 -2 19q0 29 23.5 50t66.5 21q93 0 93 -94v-136q0 -15 4 -20.5t15 -6.5q5 0 5 -5v-6q0 -6 -5 -6q-37 0 -37 41v13q-21 -56 -93 -56q-38 0 -61.5 17.5 t-23.5 51.5zM243 533v13h-79q-82 0 -82 -51q0 -27 18.5 -40.5t49.5 -13.5q46 0 69.5 28.5t23.5 63.5z" />
<glyph unicode="&#xab;" horiz-adv-x="390" d="M55 252q-3 3 -3 9v6q0 6 3 9l119 124q3 3 6 0l6 -7q4 -3 0 -7l-118 -122l118 -122q4 -4 0 -7l-6 -7q-3 -3 -6 0zM181 252q-3 3 -3 9v6q0 6 3 9l119 124q3 3 6 0l6 -7q4 -3 0 -7l-118 -122l118 -122q4 -4 0 -7l-6 -7q-3 -3 -6 0z" />
<glyph unicode="&#xac;" horiz-adv-x="444" d="M342 164v102h-238q-7 0 -7 6v6q0 6 7 6h251q7 0 7 -6v-114q0 -7 -6 -7h-7q-7 0 -7 7z" />
<glyph unicode="&#xad;" horiz-adv-x="401" d="M85 284h231q7 0 7 -8v-4q0 -6 -6 -6h-233q-6 0 -6 6v4q0 8 7 8z" />
<glyph unicode="&#xae;" horiz-adv-x="865" d="M666 129v-5q0 -7 -17 -7q-27 0 -49 23t-38.5 55.5t-33 64.5t-40.5 55t-53 23h-151v-215q0 -6 -6 -6h-6q-6 0 -6 6v479q0 6 6 6h162q68 0 106 -35t38 -103q0 -32 -10 -57.5t-25 -38t-29.5 -20t-24.5 -9.5l-10 -2q25 -11 48.5 -46t38.5 -70.5t37 -63.5t46 -28h10q7 0 7 -6z M284 355h151q126 0 126 115q0 121 -126 121h-151v-236zM432 -6q-165 0 -266.5 101.5t-101.5 267.5t102 267.5t266 101.5t266.5 -101.5t102.5 -267.5t-102 -267.5t-267 -101.5zM432 12q155 0 252 98t97 253t-97.5 253t-251.5 98q-155 0 -251.5 -97.5t-96.5 -253.5t96 -253.5 t252 -97.5z" />
<glyph unicode="&#xaf;" horiz-adv-x="340" d="M67 637h206q7 0 7 -6v-6q0 -6 -7 -6h-206q-7 0 -7 6v6q0 6 7 6z" />
<glyph unicode="&#xb0;" horiz-adv-x="351" d="M290 587q0 -47 -34 -80.5t-81 -33.5t-80.5 33.5t-33.5 80.5t33.5 81t80.5 34t81 -34t34 -81zM275 587q0 41 -29.5 70.5t-70.5 29.5t-70 -29.5t-29 -70.5t29 -70t70 -29t70.5 29t29.5 70z" />
<glyph unicode="&#xb1;" horiz-adv-x="482" d="M394 266h-143v-158q0 -7 -6 -7h-8q-6 0 -6 7v158h-143q-7 0 -7 6v6q0 6 7 6h143v159q0 7 6 7h8q6 0 6 -7v-159h143q7 0 7 -6v-6q0 -6 -7 -6zM88 18h306q7 0 7 -6v-6q0 -6 -7 -6h-306q-7 0 -7 6v6q0 6 7 6z" />
<glyph unicode="&#xb2;" horiz-adv-x="240" d="M195 493h-150q-5 0 -5 5v13q0 28 14.5 47.5t35 30.5t41.5 22.5t35.5 30.5t14.5 47q0 31 -17.5 48t-44.5 17q-48 0 -60 -47q-2 -5 -8 -3l-5 2q-5 2 -4 7q17 56 77 56q38 0 58.5 -22t20.5 -58q0 -30 -14.5 -51.5t-35 -34t-41.5 -23.5t-35.5 -28t-14.5 -41v-3h138q5 0 5 -5 v-5q0 -5 -5 -5z" />
<glyph unicode="&#xb3;" horiz-adv-x="251" d="M125 625h-12q-6 0 -6 6v3q0 6 6 6h12q21 0 40.5 16t19.5 45q0 22 -17.5 37.5t-47.5 15.5q-18 0 -32.5 -7.5t-20 -14t-7.5 -10.5t-7 0l-5 3q-3 2 -1 6q25 38 73 38q42 0 62 -20t20 -48q0 -22 -9.5 -38t-18.5 -22t-17 -7q54 -18 54 -69q0 -34 -26 -54t-66 -20q-59 0 -81 44 q-2 3 2 6l5 3q3 2 5 -2q24 -36 69 -36q33 0 54 16t21 43q0 32 -21.5 46t-47.5 14z" />
<glyph unicode="&#xb4;" horiz-adv-x="228" d="M76 568h-10q-6 0 -3 5l80 132q3 5 9 5h15q6 0 3 -5l-85 -132q-3 -5 -9 -5z" />
<glyph unicode="&#xb5;" horiz-adv-x="504" d="M107 156q0 -145 135 -145q76 0 125.5 58.5t49.5 116.5v289q0 7 7 7h4q7 0 7 -7v-468q0 -7 -7 -7h-4q-7 0 -7 7v114q-22 -56 -67 -91.5t-108 -35.5q-101 0 -135 70v-301q0 -7 -7 -7h-4q-7 0 -7 7v712q0 7 7 7h4q7 0 7 -7v-319z" />
<glyph unicode="&#xb6;" horiz-adv-x="540" d="M314 7v293h-70q-96 0 -147 54.5t-51 144.5q0 91 51.5 146t146.5 55h189q7 0 7 -7v-686q0 -7 -7 -7h-4q-7 0 -7 7v676h-90v-676q0 -7 -7 -7h-4q-7 0 -7 7z" />
<glyph unicode="&#xb7;" horiz-adv-x="208" d="M78 355q0 11 8 18.5t18 7.5t18 -7.5t8 -18.5t-8 -18.5t-18 -7.5t-18 7.5t-8 18.5z" />
<glyph unicode="&#xb8;" horiz-adv-x="253" d="M137 -4l-15 -39q28 -2 49.5 -18.5t21.5 -45.5q0 -27 -19.5 -43.5t-54.5 -16.5q-37 0 -56 19q-3 3 -1 7l4 8q2 4 6 1q26 -17 48 -17q25 0 39 11t14 31q0 19 -18 34t-53 15q-7 0 -4 6l19 48q2 5 8 5h8q6 0 4 -5z" />
<glyph unicode="&#xb9;" horiz-adv-x="175" d="M122 759v-261q0 -6 -6 -6h-6q-6 0 -6 6v225q-5 -16 -25 -31.5t-44 -16.5q-4 0 -5 4l-2 6q-1 4 4 4q27 2 46.5 23t24.5 47q0 6 7 6h6q6 0 6 -6z" />
<glyph unicode="&#xba;" horiz-adv-x="352" d="M176 426q-50 0 -81 35t-31 103t31 103t81 35t81 -35t31 -103t-31 -103t-81 -35zM176 441q40 0 67.5 31.5t27.5 91.5t-27.5 91.5t-67.5 31.5t-67.5 -31t-27.5 -92t27 -92t68 -31z" />
<glyph unicode="&#xbb;" horiz-adv-x="264" d="M209 252l-119 -124q-3 -3 -6 0l-6 7q-4 3 0 7l118 122l-118 122q-4 4 0 7l6 7q3 3 6 0l119 -124q3 -3 3 -9v-6q0 -6 -3 -9zM335 252l-119 -124q-3 -3 -6 0l-6 7q-4 3 0 7l118 122l-118 122q-4 4 0 7l6 7q3 3 6 0l119 -124q3 -3 3 -9v-6q0 -6 -3 -9z" />
<glyph unicode="&#xbc;" horiz-adv-x="458" d="M330 694l-208 -688q-2 -6 -8 -6h-7q-6 0 -4 6l208 688q1 6 8 6h7q6 0 4 -6zM136 694v-261q0 -6 -6 -6h-6q-6 0 -6 6v225q-5 -16 -25 -31.5t-44 -16.5q-4 0 -5 4l-2 6q-1 4 4 4q27 2 46.5 23t24.5 47q0 6 7 6h6q6 0 6 -6zM226 72v7q0 6 2 9l94 181q1 4 7 4h11q5 0 3 -4 l-97 -187h116v68q0 6 6 6h6q6 0 6 -6v-68h34q5 0 5 -5v-5q0 -5 -5 -5h-34v-61q0 -6 -6 -6h-6q-6 0 -6 6v61h-131q-5 0 -5 5z" />
<glyph unicode="&#xbd;" horiz-adv-x="464" d="M330 694l-208 -688q-2 -6 -8 -6h-7q-6 0 -4 6l208 688q1 6 8 6h7q6 0 4 -6zM136 694v-261q0 -6 -6 -6h-6q-6 0 -6 6v225q-5 -16 -25 -31.5t-44 -16.5q-4 0 -5 4l-2 6q-1 4 4 4q27 2 46.5 23t24.5 47q0 6 7 6h6q6 0 6 -6zM408 0h-150q-5 0 -5 5v13q0 28 14.5 47.5 t35.5 30.5t41.5 22.5t35 30.5t14.5 47q0 31 -17.5 48t-44.5 17q-48 0 -60 -47q-2 -5 -8 -3l-5 2q-5 2 -4 7q17 56 77 56q38 0 58.5 -22t20.5 -58q0 -30 -14.5 -51.5t-35.5 -34t-41.5 -23.5t-35 -28t-14.5 -41v-3h138q5 0 5 -5v-5q0 -5 -5 -5z" />
<glyph unicode="&#xbe;" horiz-adv-x="517" d="M388 694l-208 -688q-2 -6 -8 -6h-7q-6 0 -4 6l208 688q1 6 8 6h7q6 0 4 -6zM139 558h-12q-6 0 -6 6v3q0 6 6 6h12q21 0 40.5 16t19.5 45q0 22 -17.5 37.5t-47.5 15.5q-18 0 -32.5 -7.5t-20 -14t-7.5 -10.5q-2 -3 -7 0l-5 3q-3 2 -1 6q25 38 73 38q42 0 62 -20t20 -48 q0 -22 -9.5 -38t-18.5 -22t-17 -7q54 -18 54 -69q0 -34 -26 -54t-66 -20q-59 0 -81 44q-2 4 2 6l5 3q3 2 5 -2q24 -36 69 -36q33 0 54 16t21 43q0 32 -21.5 46t-47.5 14zM285 72v7q0 6 2 9l94 181q1 4 7 4h11q5 0 3 -4l-97 -187h116v68q0 6 6 6h6q6 0 6 -6v-68h34q5 0 5 -5 v-5q0 -5 -5 -5h-34v-61q0 -6 -6 -6h-6q-6 0 -6 6v61h-131q-5 0 -5 5z" />
<glyph unicode="&#xbf;" horiz-adv-x="416" d="M236 436q-10 0 -18 8t-8 18t8 18t18 8t18 -8t8 -18t-8 -18t-18 -8zM361 -81l7 -1q5 -1 5 -7q0 -66 -47 -110t-116 -44q-83 0 -125 47t-42 112q0 50 19 86t46 60t54 49.5t45.5 68.5t18.5 103q0 6 6 6h6q6 0 6 -6q-1 -64 -20 -109.5t-46 -71t-53.5 -48t-45 -56.5t-18.5 -82 q0 -61 39 -101.5t110 -40.5q63 0 104 40t41 100q0 6 6 5z" />
<glyph unicode="&#xc0;" horiz-adv-x="628" d="M572 5l-86 225h-344l-86 -225q-2 -5 -7 -5h-9q-6 0 -4 5l264 687q3 8 8 8h12q5 0 8 -8l264 -687q2 -5 -4 -5h-9q-5 0 -7 5zM314 680l-165 -432h330zM293 786h-10q-5 0 -10 6l-84 131q-3 5 3 5h15q7 0 9 -5l80 -132q3 -5 -3 -5z" />
<glyph unicode="&#xc1;" horiz-adv-x="628" d="M572 5l-86 225h-344l-86 -225q-2 -5 -7 -5h-9q-6 0 -4 5l264 687q3 8 8 8h12q5 0 8 -8l264 -687q2 -5 -4 -5h-9q-5 0 -7 5zM314 680l-165 -432h330zM322 786h-10q-6 0 -3 5l80 132q3 5 9 5h15q6 0 3 -5l-85 -132q-3 -5 -9 -5z" />
<glyph unicode="&#xc2;" horiz-adv-x="628" d="M572 5l-86 225h-344l-86 -225q-2 -5 -7 -5h-9q-6 0 -4 5l264 687q3 8 8 8h12q5 0 8 -8l264 -687q2 -5 -4 -5h-9q-5 0 -7 5zM314 680l-165 -432h330zM230 786h-10q-6 0 -3 5l80 132q3 5 9 5h15q6 0 9 -5l80 -132q3 -5 -3 -5h-10q-7 0 -9 5l-75 116l-74 -116q-3 -5 -9 -5z " />
<glyph unicode="&#xc3;" horiz-adv-x="628" d="M572 5l-86 225h-344l-86 -225q-2 -5 -7 -5h-9q-6 0 -4 5l264 687q3 8 8 8h12q5 0 8 -8l264 -687q2 -5 -4 -5h-9q-5 0 -7 5zM314 680l-165 -432h330zM220 808h-10q-5 0 -7 4q-5 13 -5 25q0 23 14.5 38t40.5 15q25 0 64 -19.5t63 -19.5q31 0 31 26q0 14 -4 22q-2 4 4 4h10 q6 0 7 -4q4 -12 4 -22q0 -46 -52 -46q-30 0 -69 19.5t-58 19.5q-15 0 -25 -9t-10 -24q0 -10 6 -25q1 -4 -4 -4z" />
<glyph unicode="&#xc4;" horiz-adv-x="628" d="M572 5l-86 225h-344l-86 -225q-2 -5 -7 -5h-9q-6 0 -4 5l264 687q3 8 8 8h12q5 0 8 -8l264 -687q2 -5 -4 -5h-9q-5 0 -7 5zM314 680l-165 -432h330zM241 825q-11 0 -18.5 7.5t-7.5 18.5t7.5 18.5t18.5 7.5t18.5 -7.5t7.5 -18.5t-7.5 -18.5t-18.5 -7.5zM388 825 q-10 0 -18 7.5t-8 18.5t8 18.5t18 7.5t18 -7.5t8 -18.5t-8 -18.5t-18 -7.5z" />
<glyph unicode="&#xc5;" horiz-adv-x="628" d="M572 5l-86 225h-344l-86 -225q-2 -5 -7 -5h-9q-6 0 -4 5l264 687q3 8 8 8h12q5 0 8 -8l264 -687q2 -5 -4 -5h-9q-5 0 -7 5zM314 680l-165 -432h330zM314 786q-25 0 -41 16t-16 41t16 41t41 16t41 -16t16 -41t-16 -41t-41 -16zM354 843q0 18 -10.5 29t-29.5 11t-29.5 -11 t-10.5 -29t10.5 -29t29.5 -11t29.5 11t10.5 29z" />
<glyph unicode="&#xc6;" horiz-adv-x="802" d="M318 676l-170 -429h335zM574 5l-83 224h-350l-84 -224q-2 -5 -7 -5h-10q-6 0 -4 5l268 687q3 8 8 8h429q7 0 7 -7v-5q0 -7 -7 -7h-404l117 -310h235q7 0 7 -7v-5q0 -7 -7 -7h-227l127 -333h152q7 0 7 -7v-5q0 -7 -7 -7h-160q-6 0 -7 5z" />
<glyph unicode="&#xc7;" horiz-adv-x="624" d="M564 116l6 -7q3 -4 0 -8q-3 -5 -11 -14.5t-27.5 -26.5t-43 -31t-60 -24.5t-76.5 -10.5l-14 -37q28 -2 49.5 -18.5t21.5 -45.5q0 -27 -19.5 -43.5t-54.5 -16.5q-37 0 -56 19q-3 3 -1 7l4 8q2 4 6 1q26 -17 48 -17q25 0 39 11t14 31q0 19 -18 34t-53 15q-7 0 -4 6l18 47 q-120 6 -193 90t-73 262q0 184 77 271.5t199 87.5q38 0 71 -9.5t54.5 -21t40.5 -32.5t28 -34t17.5 -36t9.5 -27t4 -18q1 -2 1 -3q1 -6 -3 -7l-8 -2q-7 -1 -8 5q-2 14 -7 30.5t-20 42t-36 45.5t-59 34.5t-85 14.5q-52 0 -96.5 -18t-81 -56.5t-57.5 -106.5t-21 -160 q0 -93 22.5 -161t61.5 -104.5t84 -53t98 -16.5q46 0 86 14t65.5 35.5t36.5 33t18 21.5q2 4 6 0z" />
<glyph unicode="&#xc8;" horiz-adv-x="555" d="M483 0h-376q-7 0 -7 7v686q0 7 7 7h376q7 0 7 -7v-4q0 -7 -7 -7h-363v-323h323q7 0 7 -7v-4q0 -7 -7 -7h-323v-323h363q7 0 7 -7v-4q0 -7 -7 -7zM322 786h-10q-6 0 -10 6l-84 131q-3 5 3 5h15q6 0 9 -5l80 -132q3 -5 -3 -5z" />
<glyph unicode="&#xc9;" horiz-adv-x="555" d="M483 0h-376q-7 0 -7 7v686q0 7 7 7h376q7 0 7 -7v-4q0 -7 -7 -7h-363v-323h323q7 0 7 -7v-4q0 -7 -7 -7h-323v-323h363q7 0 7 -7v-4q0 -7 -7 -7zM324 786h-10q-6 0 -3 5l80 132q3 5 9 5h15q6 0 3 -5l-85 -132q-3 -5 -9 -5z" />
<glyph unicode="&#xca;" horiz-adv-x="555" d="M483 0h-376q-7 0 -7 7v686q0 7 7 7h376q7 0 7 -7v-4q0 -7 -7 -7h-363v-323h323q7 0 7 -7v-4q0 -7 -7 -7h-323v-323h363q7 0 7 -7v-4q0 -7 -7 -7zM244 786h-10q-6 0 -3 5l80 132q3 5 9 5h15q6 0 9 -5l80 -132q3 -5 -3 -5h-10q-7 0 -9 5l-75 116l-74 -116q-3 -5 -9 -5z" />
<glyph unicode="&#xcb;" horiz-adv-x="555" d="M483 0h-376q-7 0 -7 7v686q0 7 7 7h376q7 0 7 -7v-4q0 -7 -7 -7h-363v-323h323q7 0 7 -7v-4q0 -7 -7 -7h-323v-323h363q7 0 7 -7v-4q0 -7 -7 -7zM259 825q-11 0 -18.5 7.5t-7.5 18.5t7.5 18.5t18.5 7.5t18.5 -7.5t7.5 -18.5t-7.5 -18.5t-18.5 -7.5zM406 825 q-10 0 -18 7.5t-8 18.5t8 18.5t18 7.5t18 -7.5t8 -18.5t-8 -18.5t-18 -7.5z" />
<glyph unicode="&#xcc;" horiz-adv-x="220" d="M120 693v-686q0 -7 -7 -7h-6q-7 0 -7 7v686q0 7 7 7h6q7 0 7 -7zM117 786h-10q-5 0 -10 6l-84 131q-3 5 3 5h15q7 0 9 -5l80 -132q3 -5 -3 -5z" />
<glyph unicode="&#xcd;" horiz-adv-x="220" d="M120 693v-686q0 -7 -7 -7h-6q-7 0 -7 7v686q0 7 7 7h6q7 0 7 -7zM119 786h-10q-6 0 -3 5l80 132q2 5 9 5h15q6 0 3 -5l-85 -132q-3 -5 -9 -5z" />
<glyph unicode="&#xce;" horiz-adv-x="220" d="M120 693v-686q0 -7 -7 -7h-6q-7 0 -7 7v686q0 7 7 7h6q7 0 7 -7zM26 786h-10q-6 0 -3 5l80 132q3 5 9 5h15q6 0 9 -5l80 -132q3 -5 -3 -5h-10q-7 0 -9 5l-75 116l-74 -116q-3 -5 -9 -5z" />
<glyph unicode="&#xcf;" horiz-adv-x="220" d="M120 693v-686q0 -7 -7 -7h-6q-7 0 -7 7v686q0 7 7 7h6q7 0 7 -7zM36 825q-10 0 -18 7.5t-8 18.5t8 18.5t18 7.5t18 -7.5t8 -18.5t-8 -18.5t-18 -7.5zM183 825q-11 0 -18.5 7.5t-7.5 18.5t7.5 18.5t18.5 7.5t18.5 -7.5t7.5 -18.5t-7.5 -18.5t-18.5 -7.5z" />
<glyph unicode="&#xd0;" horiz-adv-x="653" d="M300 0h-193q-7 0 -7 7v686q0 7 7 7h153q148 0 237.5 -89t89.5 -265q0 -170 -75 -258t-212 -88zM120 18h180q127 0 197 81.5t70 246.5q0 89 -24.5 155.5t-68 105t-97 57t-117.5 18.5h-140v-323h243q7 0 7 -6v-6q0 -6 -7 -6h-243v-323z" />
<glyph unicode="&#xd1;" horiz-adv-x="670" d="M563 0h-19q-5 0 -10 8l-414 674v-675q0 -7 -7 -7h-6q-7 0 -7 7v686q0 7 7 7h19q5 0 9 -7l415 -675v675q0 7 7 7h6q7 0 7 -7v-686q0 -7 -7 -7zM246 808h-10q-5 0 -7 4q-5 13 -5 25q0 23 14.5 38t40.5 15q25 0 64 -19.5t63 -19.5q31 0 31 26q0 14 -4 22q-2 4 4 4h10 q6 0 7 -4q4 -12 4 -22q0 -46 -52 -46q-30 0 -69 19.5t-58 19.5q-15 0 -25 -9t-10 -24q0 -10 6 -25q1 -4 -4 -4z" />
<glyph unicode="&#xd2;" d="M346 -6q-55 0 -103 18.5t-89 58.5t-64.5 111t-23.5 167t23.5 167.5t64.5 111.5t89 59t103 19t103 -19t89 -59t64.5 -111.5t23.5 -167.5t-23.5 -167t-64.5 -111t-89 -58.5t-103 -18.5zM346 12q51 0 96 18t82.5 56t59.5 105.5t22 157.5t-22 158t-59.5 106t-82.5 56.5 t-96 18.5t-96 -18.5t-82.5 -56.5t-59.5 -106t-22 -158t22 -157.5t59.5 -105.5t82.5 -56t96 -18zM351 786h-10q-5 0 -10 6l-84 131q-3 5 3 5h15q7 0 9 -5l80 -132q3 -5 -3 -5z" />
<glyph unicode="&#xd3;" d="M346 -6q-55 0 -103 18.5t-89 58.5t-64.5 111t-23.5 167t23.5 167.5t64.5 111.5t89 59t103 19t103 -19t89 -59t64.5 -111.5t23.5 -167.5t-23.5 -167t-64.5 -111t-89 -58.5t-103 -18.5zM346 12q51 0 96 18t82.5 56t59.5 105.5t22 157.5t-22 158t-59.5 106t-82.5 56.5 t-96 18.5t-96 -18.5t-82.5 -56.5t-59.5 -106t-22 -158t22 -157.5t59.5 -105.5t82.5 -56t96 -18zM338 786h-10q-6 0 -3 5l80 132q3 5 9 5h15q6 0 3 -5l-85 -132q-3 -5 -9 -5z" />
<glyph unicode="&#xd4;" d="M346 -6q-55 0 -103 18.5t-89 58.5t-64.5 111t-23.5 167t23.5 167.5t64.5 111.5t89 59t103 19t103 -19t89 -59t64.5 -111.5t23.5 -167.5t-23.5 -167t-64.5 -111t-89 -58.5t-103 -18.5zM346 12q51 0 96 18t82.5 56t59.5 105.5t22 157.5t-22 158t-59.5 106t-82.5 56.5 t-96 18.5t-96 -18.5t-82.5 -56.5t-59.5 -106t-22 -158t22 -157.5t59.5 -105.5t82.5 -56t96 -18zM269 786h-10q-6 0 -3 5l80 132q3 5 9 5h15q6 0 9 -5l80 -132q3 -5 -3 -5h-10q-6 0 -9 5l-75 116l-74 -116q-2 -5 -9 -5z" />
<glyph unicode="&#xd5;" d="M346 -6q-55 0 -103 18.5t-89 58.5t-64.5 111t-23.5 167t23.5 167.5t64.5 111.5t89 59t103 19t103 -19t89 -59t64.5 -111.5t23.5 -167.5t-23.5 -167t-64.5 -111t-89 -58.5t-103 -18.5zM346 12q51 0 96 18t82.5 56t59.5 105.5t22 157.5t-22 158t-59.5 106t-82.5 56.5 t-96 18.5t-96 -18.5t-82.5 -56.5t-59.5 -106t-22 -158t22 -157.5t59.5 -105.5t82.5 -56t96 -18zM259 808h-10q-5 0 -7 4q-5 13 -5 25q0 23 14.5 38t40.5 15q24 0 63 -19.5t64 -19.5q31 0 31 26q0 14 -4 22q-2 4 4 4h10q6 0 7 -4q4 -12 4 -22q0 -46 -52 -46q-31 0 -70 19.5 t-57 19.5q-15 0 -25 -9t-10 -24q0 -10 6 -25q1 -4 -4 -4z" />
<glyph unicode="&#xd6;" d="M346 -6q-55 0 -103 18.5t-89 58.5t-64.5 111t-23.5 167t23.5 167.5t64.5 111.5t89 59t103 19t103 -19t89 -59t64.5 -111.5t23.5 -167.5t-23.5 -167t-64.5 -111t-89 -58.5t-103 -18.5zM346 12q51 0 96 18t82.5 56t59.5 105.5t22 157.5t-22 158t-59.5 106t-82.5 56.5 t-96 18.5t-96 -18.5t-82.5 -56.5t-59.5 -106t-22 -158t22 -157.5t59.5 -105.5t82.5 -56t96 -18zM273 825q-11 0 -18.5 7.5t-7.5 18.5t7.5 18.5t18.5 7.5t18.5 -7.5t7.5 -18.5t-7.5 -18.5t-18.5 -7.5zM420 825q-10 0 -18 7.5t-8 18.5t8 18.5t18 7.5t18 -7.5t8 -18.5t-8 -18.5 t-18 -7.5z" />
<glyph unicode="&#xd7;" horiz-adv-x="428" d="M342 390l-115 -115l115 -115q5 -5 1 -9l-5 -5q-4 -4 -9 1l-115 115l-115 -115q-5 -5 -9 -1l-5 5q-4 4 1 9l115 115l-115 115q-5 5 -1 9l5 5q4 4 9 -1l115 -115l115 115q5 5 9 1l5 -5q4 -4 -1 -9z" />
<glyph unicode="&#xd8;" d="M346 -6q-112 0 -184 69l-50 -73q-4 -6 -11 -6h-8q-7 0 -3 6l59 87q-83 93 -83 272q0 96 23.5 167.5t64.5 111.5t89 59t103 19q110 0 183 -70l51 74q4 6 11 6h8q7 0 3 -6l-60 -88q84 -94 84 -273q0 -96 -23.5 -167t-64.5 -111t-89 -58.5t-103 -18.5zM346 12q51 0 96 18 t82.5 56t59.5 105.5t22 157.5q0 168 -76 257l-358 -525q68 -69 174 -69zM86 349q0 -169 75 -255l357 525q-69 69 -172 69q-51 0 -96 -18.5t-82.5 -56.5t-59.5 -106t-22 -158z" />
<glyph unicode="&#xd9;" horiz-adv-x="678" d="M564 284v409q0 7 7 7h6q7 0 7 -7v-409q0 -159 -63.5 -224.5t-181.5 -65.5t-181.5 65.5t-63.5 224.5v409q0 7 7 7h6q7 0 7 -7v-409q0 -148 59 -210t166 -62t166 62t59 210zM344 786h-10q-6 0 -10 6l-84 131q-3 5 3 5h15q6 0 9 -5l80 -132q3 -5 -3 -5z" />
<glyph unicode="&#xda;" horiz-adv-x="678" d="M564 284v409q0 7 7 7h6q7 0 7 -7v-409q0 -159 -63.5 -224.5t-181.5 -65.5t-181.5 65.5t-63.5 224.5v409q0 7 7 7h6q7 0 7 -7v-409q0 -148 59 -210t166 -62t166 62t59 210zM331 786h-10q-6 0 -3 5l80 132q2 5 9 5h15q6 0 3 -5l-85 -132q-3 -5 -9 -5z" />
<glyph unicode="&#xdb;" horiz-adv-x="678" d="M564 284v409q0 7 7 7h6q7 0 7 -7v-409q0 -159 -63.5 -224.5t-181.5 -65.5t-181.5 65.5t-63.5 224.5v409q0 7 7 7h6q7 0 7 -7v-409q0 -148 59 -210t166 -62t166 62t59 210zM255 786h-10q-6 0 -3 5l80 132q3 5 9 5h15q6 0 9 -5l80 -132q3 -5 -3 -5h-10q-6 0 -9 5l-75 116 l-74 -116q-2 -5 -9 -5z" />
<glyph unicode="&#xdc;" horiz-adv-x="678" d="M564 284v409q0 7 7 7h6q7 0 7 -7v-409q0 -159 -63.5 -224.5t-181.5 -65.5t-181.5 65.5t-63.5 224.5v409q0 7 7 7h6q7 0 7 -7v-409q0 -148 59 -210t166 -62t166 62t59 210zM266 825q-10 0 -18 7.5t-8 18.5t8 18.5t18 7.5t18 -7.5t8 -18.5t-8 -18.5t-18 -7.5zM413 825 q-11 0 -18.5 7.5t-7.5 18.5t7.5 18.5t18.5 7.5t18.5 -7.5t7.5 -18.5t-7.5 -18.5t-18.5 -7.5z" />
<glyph unicode="&#xdd;" horiz-adv-x="592" d="M299 0h-6q-7 0 -7 7v309l-245 378q-4 6 4 6h8q5 0 10 -6l233 -360l233 360q5 6 10 6h8q8 0 4 -6l-245 -378v-309q0 -7 -7 -7zM296 786h-10q-6 0 -3 5l80 132q3 5 9 5h15q6 0 3 -5l-85 -132q-3 -5 -9 -5z" />
<glyph unicode="&#xde;" horiz-adv-x="574" d="M120 182h180q202 0 202 182q0 89 -50 138.5t-152 49.5h-180v-370zM120 570h180q107 0 164.5 -52.5t57.5 -153.5q0 -100 -57 -150t-165 -50h-180v-157q0 -7 -7 -7h-6q-7 0 -7 7v686q0 7 7 7h6q7 0 7 -7v-123z" />
<glyph unicode="&#xdf;" horiz-adv-x="496" d="M165 5l3 9q1 4 6 2q42 -14 97 -14q76 0 119 34t43 100q0 51 -29.5 91.5t-64.5 61t-64.5 42t-29.5 38.5q0 16 18.5 36t40 38.5t40 55t18.5 82.5q0 54 -33.5 94t-97.5 40q-61 0 -95 -37t-34 -111v-560q0 -7 -7 -7h-4q-7 0 -7 7v560q0 81 40 123t107 42q74 0 111.5 -44.5 t37.5 -106.5q0 -46 -18.5 -84.5t-40 -59t-40 -39t-18.5 -29.5q0 -12 29.5 -32t64.5 -41t64.5 -63.5t29.5 -96.5q0 -76 -48.5 -113.5t-131.5 -37.5q-53 0 -102 14q-5 1 -4 6z" />
<glyph unicode="&#xe0;" horiz-adv-x="487" d="M447 11v-5q0 -6 -10 -6q-22 0 -36.5 17t-14.5 55v63q-9 -24 -22.5 -46t-35 -45t-54.5 -36.5t-73 -13.5q-72 0 -111 30.5t-39 88.5q0 119 171 119h164v94q0 144 -146 144q-71 0 -109.5 -33t-38.5 -86q0 -23 8 -44q2 -6 -3 -6h-6q-7 0 -9 6q-8 21 -8 47q0 57 45 95.5 t121 38.5q164 0 164 -162v-254q0 -54 38 -56q5 0 5 -5zM386 178v37h-164q-72 0 -111.5 -26t-39.5 -75t34.5 -76t95.5 -27q41 0 75 17t53.5 41.5t33 49.5t18.5 42zM236 568h-10q-6 0 -10 6l-84 131q-3 5 3 5h15q6 0 9 -5l80 -132q3 -5 -3 -5z" />
<glyph unicode="&#xe1;" horiz-adv-x="487" d="M447 11v-5q0 -6 -10 -6q-22 0 -36.5 17t-14.5 55v63q-9 -24 -22.5 -46t-35 -45t-54.5 -36.5t-73 -13.5q-72 0 -111 30.5t-39 88.5q0 119 171 119h164v94q0 144 -146 144q-71 0 -109.5 -33t-38.5 -86q0 -23 8 -44q2 -6 -3 -6h-6q-7 0 -9 6q-8 21 -8 47q0 57 45 95.5 t121 38.5q164 0 164 -162v-254q0 -54 38 -56q5 0 5 -5zM386 178v37h-164q-72 0 -111.5 -26t-39.5 -75t34.5 -76t95.5 -27q41 0 75 17t53.5 41.5t33 49.5t18.5 42zM232 568h-10q-6 0 -3 5l80 132q3 5 9 5h15q6 0 3 -5l-85 -132q-3 -5 -9 -5z" />
<glyph unicode="&#xe2;" horiz-adv-x="487" d="M447 11v-5q0 -6 -10 -6q-22 0 -36.5 17t-14.5 55v63q-9 -24 -22.5 -46t-35 -45t-54.5 -36.5t-73 -13.5q-72 0 -111 30.5t-39 88.5q0 119 171 119h164v94q0 144 -146 144q-71 0 -109.5 -33t-38.5 -86q0 -23 8 -44q2 -6 -3 -6h-6q-7 0 -9 6q-8 21 -8 47q0 57 45 95.5 t121 38.5q164 0 164 -162v-254q0 -54 38 -56q5 0 5 -5zM386 178v37h-164q-72 0 -111.5 -26t-39.5 -75t34.5 -76t95.5 -27q41 0 75 17t53.5 41.5t33 49.5t18.5 42zM162 568h-10q-6 0 -3 5l80 132q3 5 9 5h15q6 0 9 -5l80 -132q3 -5 -3 -5h-10q-7 0 -9 5l-75 116l-74 -116 q-3 -5 -9 -5z" />
<glyph unicode="&#xe3;" horiz-adv-x="487" d="M447 11v-5q0 -6 -10 -6q-22 0 -36.5 17t-14.5 55v63q-9 -24 -22.5 -46t-35 -45t-54.5 -36.5t-73 -13.5q-72 0 -111 30.5t-39 88.5q0 119 171 119h164v94q0 144 -146 144q-71 0 -109.5 -33t-38.5 -86q0 -23 8 -44q2 -6 -3 -6h-6q-7 0 -9 6q-8 21 -8 47q0 57 45 95.5 t121 38.5q164 0 164 -162v-254q0 -54 38 -56q5 0 5 -5zM386 178v37h-164q-72 0 -111.5 -26t-39.5 -75t34.5 -76t95.5 -27q41 0 75 17t53.5 41.5t33 49.5t18.5 42zM138 590h-10q-5 0 -7 4q-5 12 -5 25q0 23 14.5 38t40.5 15q25 0 64 -19.5t63 -19.5q31 0 31 26q0 14 -4 22 q-2 4 4 4h10q6 0 7 -4q4 -12 4 -22q0 -46 -52 -46q-30 0 -69 19.5t-58 19.5q-15 0 -25 -9t-10 -24q0 -10 6 -25q1 -4 -4 -4z" />
<glyph unicode="&#xe4;" horiz-adv-x="487" d="M447 11v-5q0 -6 -10 -6q-22 0 -36.5 17t-14.5 55v63q-9 -24 -22.5 -46t-35 -45t-54.5 -36.5t-73 -13.5q-72 0 -111 30.5t-39 88.5q0 119 171 119h164v94q0 144 -146 144q-71 0 -109.5 -33t-38.5 -86q0 -23 8 -44q2 -6 -3 -6h-6q-7 0 -9 6q-8 21 -8 47q0 57 45 95.5 t121 38.5q164 0 164 -162v-254q0 -54 38 -56q5 0 5 -5zM386 178v37h-164q-72 0 -111.5 -26t-39.5 -75t34.5 -76t95.5 -27q41 0 75 17t53.5 41.5t33 49.5t18.5 42zM172 607q-10 0 -18 7.5t-8 18.5t8 18.5t18 7.5t18 -7.5t8 -18.5t-8 -18.5t-18 -7.5zM319 607q-11 0 -18.5 7.5 t-7.5 18.5t7.5 18.5t18.5 7.5t18.5 -7.5t7.5 -18.5t-7.5 -18.5t-18.5 -7.5z" />
<glyph unicode="&#xe5;" horiz-adv-x="487" d="M447 11v-5q0 -6 -10 -6q-22 0 -36.5 17t-14.5 55v63q-9 -24 -22.5 -46t-35 -45t-54.5 -36.5t-73 -13.5q-72 0 -111 30.5t-39 88.5q0 119 171 119h164v94q0 144 -146 144q-71 0 -109.5 -33t-38.5 -86q0 -23 8 -44q2 -6 -3 -6h-6q-7 0 -9 6q-8 21 -8 47q0 57 45 95.5 t121 38.5q164 0 164 -162v-254q0 -54 38 -56q5 0 5 -5zM386 178v37h-164q-72 0 -111.5 -26t-39.5 -75t34.5 -76t95.5 -27q41 0 75 17t53.5 41.5t33 49.5t18.5 42zM245 568q-25 0 -41 16t-16 41t16 41t41 16t41 -16t16 -41t-16 -41t-41 -16zM285 625q0 18 -10.5 29t-29.5 11 t-29.5 -11t-10.5 -29t10.5 -29t29.5 -11t29.5 11t10.5 29z" />
<glyph unicode="&#xe6;" horiz-adv-x="800" d="M735 261h-331v-19q0 -67 18 -115.5t47 -72t57.5 -33.5t57.5 -10q85 0 137 67q5 7 9 3l6 -5q3 -3 0 -8q-9 -14 -22.5 -27.5t-49.5 -30t-80 -16.5q-60 0 -115 36t-72 119q-10 -25 -25.5 -49t-39.5 -49.5t-58 -41t-73 -15.5q-72 0 -111 30.5t-39 88.5q0 119 171 119h164v94 q0 144 -146 144q-71 0 -109.5 -33t-38.5 -86q0 -23 8 -44q2 -6 -3 -6h-6q-7 0 -9 6q-8 16 -8 47q0 57 45 95.5t121 38.5q144 0 162 -127q40 127 176 127q87 0 125.5 -58t38.5 -152q0 -17 -7 -17zM386 178v37h-164q-72 0 -111.5 -26t-39.5 -75t34.5 -76t95.5 -27q41 0 75 17 t53.5 41.5t33 49.5t18.5 42zM405 278h319q0 193 -146 193q-74 0 -120 -47.5t-53 -145.5z" />
<glyph unicode="&#xe7;" horiz-adv-x="468" d="M59 242q0 129 54 187.5t143 58.5q79 0 115.5 -39t36.5 -97q0 -14 -3 -35q-2 -7 -7 -7h-6q-7 0 -5 7q3 24 3 35q0 49 -31.5 84t-102.5 35q-80 0 -129.5 -56t-49.5 -173q0 -67 18 -115.5t47 -72t57.5 -33.5t57.5 -10q51 0 85.5 22t51.5 45q5 7 9 3l6 -5q3 -3 0 -8 q-49 -73 -150 -74l-14 -37q28 -2 49.5 -18.5t21.5 -45.5q0 -27 -19.5 -43.5t-54.5 -16.5q-34 0 -56 19q-3 3 -1 7l4 8q2 4 6 1q25 -17 48 -17q25 0 39 11t14 31q0 19 -18 34t-53 15q-7 0 -4 6l18 47q-34 2 -63.5 15t-57 39.5t-43.5 76t-16 116.5z" />
<glyph unicode="&#xe8;" horiz-adv-x="473" d="M408 261h-331v-19q0 -67 18 -115.5t47 -72t57.5 -33.5t57.5 -10q85 0 137 67q6 7 10 3l5 -5q3 -3 0 -8q-9 -14 -22.5 -27.5t-49.5 -30t-80 -16.5q-35 0 -67 11t-63 37t-49.5 77t-18.5 123q0 129 52 187.5t140 58.5q87 0 125.5 -58t38.5 -152q0 -12 -1 -14.5t-6 -2.5z M78 278h319q0 193 -146 193q-74 0 -120 -47.5t-53 -145.5zM236 568h-10q-6 0 -10 6l-84 131q-3 5 3 5h15q6 0 9 -5l80 -132q3 -5 -3 -5z" />
<glyph unicode="&#xe9;" horiz-adv-x="473" d="M408 261h-331v-19q0 -67 18 -115.5t47 -72t57.5 -33.5t57.5 -10q85 0 137 67q6 7 10 3l5 -5q3 -3 0 -8q-9 -14 -22.5 -27.5t-49.5 -30t-80 -16.5q-35 0 -67 11t-63 37t-49.5 77t-18.5 123q0 129 52 187.5t140 58.5q87 0 125.5 -58t38.5 -152q0 -12 -1 -14.5t-6 -2.5z M78 278h319q0 193 -146 193q-74 0 -120 -47.5t-53 -145.5zM248 568h-10q-6 0 -3 5l80 132q3 5 9 5h15q6 0 3 -5l-85 -132q-3 -5 -9 -5z" />
<glyph unicode="&#xea;" horiz-adv-x="473" d="M408 261h-331v-19q0 -67 18 -115.5t47 -72t57.5 -33.5t57.5 -10q85 0 137 67q6 7 10 3l5 -5q3 -3 0 -8q-9 -14 -22.5 -27.5t-49.5 -30t-80 -16.5q-35 0 -67 11t-63 37t-49.5 77t-18.5 123q0 129 52 187.5t140 58.5q87 0 125.5 -58t38.5 -152q0 -12 -1 -14.5t-6 -2.5z M78 278h319q0 193 -146 193q-74 0 -120 -47.5t-53 -145.5zM170 568h-10q-6 0 -3 5l80 132q3 5 9 5h15q6 0 9 -5l80 -132q3 -5 -3 -5h-10q-7 0 -9 5l-75 116l-74 -116q-3 -5 -9 -5z" />
<glyph unicode="&#xeb;" horiz-adv-x="473" d="M408 261h-331v-19q0 -67 18 -115.5t47 -72t57.5 -33.5t57.5 -10q85 0 137 67q6 7 10 3l5 -5q3 -3 0 -8q-9 -14 -22.5 -27.5t-49.5 -30t-80 -16.5q-35 0 -67 11t-63 37t-49.5 77t-18.5 123q0 129 52 187.5t140 58.5q87 0 125.5 -58t38.5 -152q0 -12 -1 -14.5t-6 -2.5z M78 278h319q0 193 -146 193q-74 0 -120 -47.5t-53 -145.5zM180 607q-10 0 -18 7.5t-8 18.5t8 18.5t18 7.5t18 -7.5t8 -18.5t-8 -18.5t-18 -7.5zM327 607q-11 0 -18.5 7.5t-7.5 18.5t7.5 18.5t18.5 7.5t18.5 -7.5t7.5 -18.5t-7.5 -18.5t-18.5 -7.5z" />
<glyph unicode="&#xec;" horiz-adv-x="189" d="M96 568h-10q-6 0 -10 6l-84 131q-3 5 3 5h15q6 0 9 -5l80 -132q3 -5 -3 -5zM143 10v-4q0 -7 -10 -7q-22 0 -36.5 17.5t-14.5 55.5v403q0 7 7 7h4q7 0 7 -7v-403q0 -55 36 -55q7 0 7 -7z" />
<glyph unicode="&#xed;" horiz-adv-x="189" d="M98 568h-10q-6 0 -3 5l80 132q3 5 9 5h15q6 0 3 -5l-85 -132q-3 -5 -9 -5zM143 10v-4q0 -7 -10 -7q-22 0 -36.5 17.5t-14.5 55.5v403q0 7 7 7h4q7 0 7 -7v-403q0 -55 36 -55q7 0 7 -7z" />
<glyph unicode="&#xee;" horiz-adv-x="189" d="M9 568h-10q-6 0 -3 5l80 132q3 5 9 5h15q6 0 9 -5l80 -132q3 -5 -3 -5h-10q-6 0 -9 5l-75 116l-74 -116q-2 -5 -9 -5zM143 10v-4q0 -7 -10 -7q-22 0 -36.5 17.5t-14.5 55.5v403q0 7 7 7h4q7 0 7 -7v-403q0 -55 36 -55q7 0 7 -7z" />
<glyph unicode="&#xef;" horiz-adv-x="189" d="M18 607q-10 0 -18 7.5t-8 18.5t8 18.5t18 7.5t18 -7.5t8 -18.5t-8 -18.5t-18 -7.5zM165 607q-11 0 -18.5 7.5t-7.5 18.5t7.5 18.5t18.5 7.5t18.5 -7.5t7.5 -18.5t-7.5 -18.5t-18.5 -7.5zM143 10v-4q0 -7 -10 -7q-22 0 -36.5 17.5t-14.5 55.5v403q0 7 7 7h4q7 0 7 -7v-403 q0 -55 36 -55q7 0 7 -7z" />
<glyph unicode="&#xf0;" horiz-adv-x="553" d="M470 313q-3 4 -8.5 11t-25.5 24.5t-42 30.5t-57 24t-72 11q-81 0 -134 -55t-53 -153q0 -87 50.5 -141t134.5 -54q207 0 207 302zM238 535l-3 6q-3 5 2 8l118 74q-7 7 -20.5 16.5t-55.5 26t-85 16.5q-7 0 -7 7v4q0 7 7 7q47 0 91 -17t65 -34l20 -17l103 65q5 3 8 -2l3 -6 q2 -5 -2 -8l-98 -62q4 -3 11 -10t25 -33t32 -57t25 -83t11 -110q0 -177 -57 -254.5t-170 -77.5q-88 0 -144.5 58t-56.5 154q0 108 57.5 166.5t147.5 58.5q37 0 72 -9.5t58 -23.5t41 -27.5t26 -22.5l8 -10q0 54 -10.5 102t-25 77.5t-29.5 51.5t-25 31l-11 10l-123 -77 q-5 -3 -8 2z" />
<glyph unicode="&#xf1;" horiz-adv-x="524" d="M166 590h-10q-5 0 -7 4q-5 12 -5 25q0 23 14.5 38t40.5 15q25 0 64 -19.5t63 -19.5q31 0 31 26q0 14 -4 22q-2 4 4 4h10q6 0 7 -4q4 -12 4 -22q0 -46 -52 -46q-30 0 -69 19.5t-58 19.5q-15 0 -25 -9t-10 -24q0 -10 6 -25q1 -4 -4 -4zM90 7v405q0 49 -36 53q-7 0 -7 6v5 q0 7 11 7q21 0 35.5 -17.5t14.5 -53.5v-63q14 60 57 99.5t110 39.5q85 0 126 -51t41 -134v-231q0 -55 36 -55q7 0 7 -7v-4q0 -7 -10 -7q-22 0 -36.5 17.5t-14.5 55.5v231q0 73 -38 120.5t-111 47.5q-78 0 -122.5 -62.5t-44.5 -134.5v-267q0 -7 -7 -7h-4q-7 0 -7 7z" />
<glyph unicode="&#xf2;" horiz-adv-x="514" d="M257 -6q-88 0 -143 63.5t-55 183.5t55 183.5t143 63.5t143 -63.5t55 -183.5t-55 -183.5t-143 -63.5zM257 11q76 0 128 58.5t52 171.5t-52 171.5t-128 58.5t-128 -58.5t-52 -171.5t52 -171.5t128 -58.5zM255 568h-10q-5 0 -10 6l-84 131q-3 5 3 5h15q7 0 9 -5l80 -132 q3 -5 -3 -5z" />
<glyph unicode="&#xf3;" horiz-adv-x="514" d="M257 -6q-88 0 -143 63.5t-55 183.5t55 183.5t143 63.5t143 -63.5t55 -183.5t-55 -183.5t-143 -63.5zM257 11q76 0 128 58.5t52 171.5t-52 171.5t-128 58.5t-128 -58.5t-52 -171.5t52 -171.5t128 -58.5zM261 568h-10q-6 0 -3 5l80 132q2 5 9 5h15q6 0 3 -5l-85 -132 q-3 -5 -9 -5z" />
<glyph unicode="&#xf4;" horiz-adv-x="514" d="M257 -6q-88 0 -143 63.5t-55 183.5t55 183.5t143 63.5t143 -63.5t55 -183.5t-55 -183.5t-143 -63.5zM257 11q76 0 128 58.5t52 171.5t-52 171.5t-128 58.5t-128 -58.5t-52 -171.5t52 -171.5t128 -58.5zM173 568h-10q-6 0 -3 5l80 132q3 5 9 5h15q6 0 9 -5l80 -132 q3 -5 -3 -5h-10q-6 0 -9 5l-75 116l-74 -116q-2 -5 -9 -5z" />
<glyph unicode="&#xf5;" horiz-adv-x="514" d="M257 -6q-88 0 -143 63.5t-55 183.5t55 183.5t143 63.5t143 -63.5t55 -183.5t-55 -183.5t-143 -63.5zM257 11q76 0 128 58.5t52 171.5t-52 171.5t-128 58.5t-128 -58.5t-52 -171.5t52 -171.5t128 -58.5zM158 590h-10q-5 0 -7 4q-5 12 -5 25q0 23 14.5 38t40.5 15 q25 0 64 -19.5t63 -19.5q31 0 31 26q0 14 -4 22q-2 4 4 4h10q6 0 7 -4q4 -12 4 -22q0 -46 -52 -46q-30 0 -69 19.5t-58 19.5q-15 0 -25 -9t-10 -24q0 -10 6 -25q1 -4 -4 -4z" />
<glyph unicode="&#xf6;" horiz-adv-x="514" d="M257 -6q-88 0 -143 63.5t-55 183.5t55 183.5t143 63.5t143 -63.5t55 -183.5t-55 -183.5t-143 -63.5zM257 11q76 0 128 58.5t52 171.5t-52 171.5t-128 58.5t-128 -58.5t-52 -171.5t52 -171.5t128 -58.5zM185 607q-11 0 -18.5 7.5t-7.5 18.5t7.5 18.5t18.5 7.5t18.5 -7.5 t7.5 -18.5t-7.5 -18.5t-18.5 -7.5zM332 607q-10 0 -18 7.5t-8 18.5t8 18.5t18 7.5t18 -7.5t8 -18.5t-8 -18.5t-18 -7.5z" />
<glyph unicode="&#xf7;" horiz-adv-x="489" d="M90 284h310q7 0 7 -6v-6q0 -6 -7 -6h-310q-7 0 -7 6v6q0 6 7 6zM221 160q0 11 9 20t20 9t20 -9t9 -20t-9 -20t-20 -9t-20 9t-9 20zM221 386q0 10 7.5 18t18.5 8t18.5 -8t7.5 -18t-7.5 -18t-18.5 -8t-18.5 8t-7.5 18z" />
<glyph unicode="&#xf8;" horiz-adv-x="514" d="M257 -6q-73 0 -122 42l-32 -50q-4 -6 -10 -6h-8q-7 0 -2 6l40 61q-64 66 -64 194q0 120 55 183.5t143 63.5q72 0 121 -42l33 50q4 6 10 6h8q7 0 2 -6l-40 -62q64 -66 64 -193q0 -120 -55 -183.5t-143 -63.5zM257 11q76 0 128 58.5t52 171.5q0 115 -57 177l-235 -366 q45 -41 112 -41zM77 241q0 -114 56 -177l235 365q-46 42 -111 42q-76 0 -128 -58.5t-52 -171.5z" />
<glyph unicode="&#xf9;" horiz-adv-x="515" d="M469 10v-4q0 -7 -10 -7q-22 0 -36.5 17.5t-14.5 55.5v49q-22 -56 -67 -91.5t-108 -35.5q-153 0 -153 162v319q0 7 7 7h4q7 0 7 -7v-319q0 -145 135 -145q76 0 125.5 58.5t49.5 116.5v289q0 7 7 7h4q7 0 7 -7v-403q0 -55 36 -55q7 0 7 -7zM263 568h-10q-5 0 -10 6l-84 131 q-3 5 3 5h15q7 0 9 -5l80 -132q3 -5 -3 -5z" />
<glyph unicode="&#xfa;" horiz-adv-x="515" d="M469 10v-4q0 -7 -10 -7q-22 0 -36.5 17.5t-14.5 55.5v49q-22 -56 -67 -91.5t-108 -35.5q-153 0 -153 162v319q0 7 7 7h4q7 0 7 -7v-319q0 -145 135 -145q76 0 125.5 58.5t49.5 116.5v289q0 7 7 7h4q7 0 7 -7v-403q0 -55 36 -55q7 0 7 -7zM239 568h-10q-6 0 -3 5l80 132 q2 5 9 5h15q6 0 3 -5l-85 -132q-3 -5 -9 -5z" />
<glyph unicode="&#xfb;" horiz-adv-x="515" d="M469 10v-4q0 -7 -10 -7q-22 0 -36.5 17.5t-14.5 55.5v49q-22 -56 -67 -91.5t-108 -35.5q-153 0 -153 162v319q0 7 7 7h4q7 0 7 -7v-319q0 -145 135 -145q76 0 125.5 58.5t49.5 116.5v289q0 7 7 7h4q7 0 7 -7v-403q0 -55 36 -55q7 0 7 -7zM175 568h-10q-6 0 -3 5l80 132 q3 5 9 5h15q6 0 9 -5l80 -132q3 -5 -3 -5h-10q-6 0 -9 5l-75 116l-74 -116q-2 -5 -9 -5z" />
<glyph unicode="&#xfc;" horiz-adv-x="515" d="M469 10v-4q0 -7 -10 -7q-22 0 -36.5 17.5t-14.5 55.5v49q-22 -56 -67 -91.5t-108 -35.5q-153 0 -153 162v319q0 7 7 7h4q7 0 7 -7v-319q0 -145 135 -145q76 0 125.5 58.5t49.5 116.5v289q0 7 7 7h4q7 0 7 -7v-403q0 -55 36 -55q7 0 7 -7zM190 607q-10 0 -18 7.5t-8 18.5 t8 18.5t18 7.5t18 -7.5t8 -18.5t-8 -18.5t-18 -7.5zM337 607q-11 0 -18.5 7.5t-7.5 18.5t7.5 18.5t18.5 7.5t18.5 -7.5t7.5 -18.5t-7.5 -18.5t-18.5 -7.5z" />
<glyph unicode="&#xfd;" horiz-adv-x="473" d="M430 477l-240 -634q-17 -44 -39 -67t-64 -23q-22 0 -43 6q-5 2 -4 8l1 6q1 6 6 4q19 -7 40 -7q33 0 50.5 17t32.5 56l56 149l-182 485q-2 5 4 5h8q6 0 8 -5l173 -460l173 460q2 5 8 5h8q6 0 4 -5zM220 568h-10q-6 0 -3 5l80 132q3 5 9 5h15q6 0 3 -5l-85 -132 q-3 -5 -9 -5z" />
<glyph unicode="&#xfe;" horiz-adv-x="524" d="M102 338v-207q1 -5 4 -13t16 -28.5t30 -36.5t49 -29t70 -13q79 0 127.5 59.5t48.5 175.5q0 114 -50 169.5t-127 55.5q-36 0 -67 -13.5t-48.5 -33.5t-30.5 -39.5t-18 -32.5zM95 -244h-4q-7 0 -7 7v956q0 7 7 7h4q7 0 7 -7v-340q2 4 5.5 11.5t17.5 26.5t31 33t47.5 26 t66.5 12q87 0 141 -59t54 -183q0 -128 -54.5 -190t-139.5 -62q-37 0 -68 10t-49 24.5t-30.5 29t-17.5 24.5l-4 10v-329q0 -7 -7 -7z" />
<glyph unicode="&#xff;" horiz-adv-x="473" d="M430 477l-240 -634q-17 -44 -39 -67t-64 -23q-22 0 -43 6q-5 2 -4 8l1 6q1 6 6 4q19 -7 40 -7q33 0 50.5 17t32.5 56l56 149l-182 485q-2 5 4 5h8q6 0 8 -5l173 -460l173 460q2 5 8 5h8q6 0 4 -5zM162 607q-10 0 -18 7.5t-8 18.5t8 18.5t18 7.5t18 -7.5t8 -18.5t-8 -18.5 t-18 -7.5zM309 607q-11 0 -18.5 7.5t-7.5 18.5t7.5 18.5t18.5 7.5t18.5 -7.5t7.5 -18.5t-7.5 -18.5t-18.5 -7.5z" />
<glyph unicode="&#x152;" horiz-adv-x="1061" d="M346 12q51 0 96 18t82.5 56t59.5 105.5t22 157.5t-22 158t-59.5 106t-82.5 56.5t-96 18.5t-96 -18.5t-82.5 -56.5t-59.5 -106t-22 -158t22 -157.5t59.5 -105.5t82.5 -56t96 -18zM626 682v-323h323q7 0 7 -7v-4q0 -7 -7 -7h-323v-323h363q7 0 7 -7v-4q0 -7 -7 -7h-376 q-7 0 -7 7v194q-62 -207 -260 -207q-55 0 -103 18.5t-89 58.5t-64.5 111t-23.5 167t23.5 167.5t64.5 111.5t89 59t103 19q90 0 159.5 -50t100.5 -155v192q0 7 7 7h376q7 0 7 -7v-4q0 -7 -7 -7h-363z" />
<glyph unicode="&#x153;" horiz-adv-x="854" d="M789 261h-331v-19q0 -67 18 -115.5t47 -72t57.5 -33.5t57.5 -10q85 0 137 67q6 7 10 3l5 -5q3 -3 0 -8q-9 -14 -22.5 -27.5t-49.5 -30t-80 -16.5q-65 0 -119 38t-72 128q-17 -82 -68 -124t-122 -42q-88 0 -143 63.5t-55 183.5t55 183.5t143 63.5q71 0 122 -42t68 -123 q30 165 185 165q87 0 125.5 -58t38.5 -152q0 -17 -7 -17zM257 11q76 0 128 58.5t52 171.5t-52 171.5t-128 58.5t-128 -58.5t-52 -171.5t52 -171.5t128 -58.5zM459 278h319q0 193 -146 193q-74 0 -120 -47.5t-53 -145.5z" />
<glyph unicode="&#x178;" horiz-adv-x="592" d="M299 0h-6q-7 0 -7 7v309l-245 378q-4 6 4 6h8q5 0 10 -6l233 -360l233 360q5 6 10 6h8q8 0 4 -6l-245 -378v-309q0 -7 -7 -7zM222 825q-10 0 -18 7.5t-8 18.5t8 18.5t18 7.5t18 -7.5t8 -18.5t-8 -18.5t-18 -7.5zM369 825q-11 0 -18.5 7.5t-7.5 18.5t7.5 18.5t18.5 7.5 t18.5 -7.5t7.5 -18.5t-7.5 -18.5t-18.5 -7.5z" />
<glyph unicode="&#x2c6;" horiz-adv-x="306" d="M70 568h-10q-6 0 -3 5l80 132q3 5 9 5h15q6 0 9 -5l80 -132q3 -5 -3 -5h-10q-7 0 -9 5l-75 116l-74 -116q-3 -5 -9 -5z" />
<glyph unicode="&#x2dc;" horiz-adv-x="354" d="M82 590h-10q-5 0 -7 4q-5 12 -5 25q0 23 14.5 38t40.5 15q25 0 64 -19.5t63 -19.5q31 0 31 26q0 14 -4 22q-2 4 4 4h10q6 0 7 -4q4 -12 4 -22q0 -46 -52 -46q-30 0 -69 19.5t-58 19.5q-15 0 -25 -9t-10 -24q0 -10 6 -25q1 -4 -4 -4z" />
<glyph unicode="&#x2000;" horiz-adv-x="464" />
<glyph unicode="&#x2001;" horiz-adv-x="928" />
<glyph unicode="&#x2002;" horiz-adv-x="464" />
<glyph unicode="&#x2003;" horiz-adv-x="928" />
<glyph unicode="&#x2004;" horiz-adv-x="309" />
<glyph unicode="&#x2005;" horiz-adv-x="232" />
<glyph unicode="&#x2006;" horiz-adv-x="154" />
<glyph unicode="&#x2007;" horiz-adv-x="154" />
<glyph unicode="&#x2008;" horiz-adv-x="116" />
<glyph unicode="&#x2009;" horiz-adv-x="185" />
<glyph unicode="&#x200a;" horiz-adv-x="51" />
<glyph unicode="&#x2010;" horiz-adv-x="401" d="M85 284h231q7 0 7 -8v-4q0 -6 -6 -6h-233q-6 0 -6 6v4q0 8 7 8z" />
<glyph unicode="&#x2011;" horiz-adv-x="401" d="M85 284h231q7 0 7 -8v-4q0 -6 -6 -6h-233q-6 0 -6 6v4q0 8 7 8z" />
<glyph unicode="&#x2012;" horiz-adv-x="401" d="M85 284h231q7 0 7 -8v-4q0 -6 -6 -6h-233q-6 0 -6 6v4q0 8 7 8z" />
<glyph unicode="&#x2013;" horiz-adv-x="539" d="M85 284h369q7 0 7 -6v-6q0 -6 -7 -6h-369q-7 0 -7 6v6q0 6 7 6z" />
<glyph unicode="&#x2014;" horiz-adv-x="899" d="M85 284h729q7 0 7 -6v-6q0 -6 -7 -6h-729q-7 0 -7 6v6q0 6 7 6z" />
<glyph unicode="&#x2018;" horiz-adv-x="155" d="M105 676q0 -10 -7.5 -18t-18.5 -8q-29 0 -29 36q0 57 44 73q4 1 7 -4l4 -7q3 -5 -2 -7q-24 -9 -24 -39q10 0 18 -7.5t8 -18.5z" />
<glyph unicode="&#x2019;" horiz-adv-x="189" d="M71 687q0 11 7.5 18.5t18.5 7.5q29 0 29 -36q0 -57 -44 -73q-4 -1 -7 4l-4 7q-3 5 2 7q24 9 24 39q-10 0 -18 7.5t-8 18.5z" />
<glyph unicode="&#x201a;" horiz-adv-x="197" d="M71 20q0 10 7.5 18t18.5 8q29 0 29 -36q0 -57 -44 -73q-4 -1 -7 4l-4 7q-3 5 2 7q24 9 24 39q-10 0 -18 7.5t-8 18.5z" />
<glyph unicode="&#x201c;" horiz-adv-x="240" d="M190 676q0 -10 -8 -18t-18 -8q-29 0 -29 36q0 57 44 73q4 1 7 -4l4 -7q3 -5 -2 -7q-24 -9 -24 -39q10 0 18 -7.5t8 -18.5zM105 676q0 -10 -7.5 -18t-18.5 -8q-29 0 -29 36q0 57 44 73q4 1 7 -4l4 -7q3 -5 -2 -7q-24 -9 -24 -39q10 0 18 -7.5t8 -18.5z" />
<glyph unicode="&#x201d;" horiz-adv-x="275" d="M71 686q0 10 7.5 18t18.5 8q29 0 29 -36q0 -57 -44 -73q-4 -1 -7 4l-4 7q-3 5 2 7q24 9 24 39q-10 0 -18 7.5t-8 18.5zM156 686q0 10 8 18t18 8q29 0 29 -36q0 -57 -44 -73q-4 -1 -7 4l-4 7q-3 5 2 7q24 9 24 39q-10 0 -18 7.5t-8 18.5z" />
<glyph unicode="&#x201e;" horiz-adv-x="277" d="M71 20q0 10 7.5 18t18.5 8q29 0 29 -36q0 -57 -44 -73q-4 -1 -7 4l-4 7q-3 5 2 7q24 9 24 39q-10 0 -18 7.5t-8 18.5zM151 20q0 10 7.5 18t18.5 8q29 0 29 -36q0 -57 -44 -73q-4 -1 -7 4l-4 7q-3 5 2 7q24 9 24 39q-10 0 -18 7.5t-8 18.5z" />
<glyph unicode="&#x2022;" horiz-adv-x="316" d="M214 289q0 -23 -16.5 -39.5t-39.5 -16.5t-39.5 16.5t-16.5 39.5t16.5 39.5t39.5 16.5t39.5 -16.5t16.5 -39.5z" />
<glyph unicode="&#x2026;" horiz-adv-x="466" d="M97 -6q-11 0 -18.5 8t-7.5 18t7.5 18t18.5 8t18.5 -8t7.5 -18t-7.5 -18t-18.5 -8zM233 -6q-11 0 -18.5 8t-7.5 18t7.5 18t18.5 8t18.5 -8t7.5 -18t-7.5 -18t-18.5 -8zM369 -6q-11 0 -18.5 8t-7.5 18t7.5 18t18.5 8t18.5 -8t7.5 -18t-7.5 -18t-18.5 -8z" />
<glyph unicode="&#x202f;" horiz-adv-x="185" />
<glyph unicode="&#x2039;" horiz-adv-x="264" d="M55 252q-3 3 -3 9v6q0 6 3 9l119 124q3 3 6 0l6 -7q4 -3 0 -7l-118 -122l118 -122q4 -4 0 -7l-6 -7q-3 -3 -6 0z" />
<glyph unicode="&#x203a;" horiz-adv-x="264" d="M209 252l-119 -124q-3 -3 -6 0l-6 7q-4 3 0 7l118 122l-118 122q-4 4 0 7l6 7q3 3 6 0l119 -124q3 -3 3 -9v-6q0 -6 -3 -9z" />
<glyph unicode="&#x205f;" horiz-adv-x="232" />
<glyph unicode="&#x20ac;" horiz-adv-x="658" d="M60 405h88q6 59 22.5 107.5t46.5 89t79.5 63t115.5 22.5q104 0 166 -50q2 -3 0 -5l-8 -8q-4 -4 -7 0q-57 45 -151 45q-45 0 -83 -13t-72.5 -42t-57.5 -82t-31 -127h288q7 0 7 -8v-4q0 -6 -6 -6h-291q-4 -35 0 -102h290q7 0 7 -8v-4q0 -6 -6 -6h-289q13 -114 75 -179 t173 -65q86 0 159 53q4 4 7 -1l6 -7q2 -3 -1 -6q-70 -57 -171 -57q-110 0 -182 63.5t-86 198.5h-89q-6 0 -6 6v4q0 8 7 8h86q-4 49 0 102h-87q-6 0 -6 6v4q0 8 7 8z" />
<glyph unicode="&#x2122;" horiz-adv-x="758" d="M68 700h266q6 0 6 -6v-5q0 -6 -6 -6h-124v-326q0 -7 -7 -7h-4q-7 0 -7 7v326h-124q-6 0 -6 6v5q0 6 6 6zM652 357v326l-119 -269q-3 -7 -13 -7t-13 7l-119 269v-326q0 -7 -7 -7h-4q-7 0 -7 7v336q0 7 7 7h17q6 0 9 -7l117 -268l119 268q3 7 9 7h15q7 0 7 -7v-336 q0 -7 -7 -7h-4q-7 0 -7 7z" />
<glyph unicode="&#x25fc;" horiz-adv-x="480" d="M0 480h480v-480h-480v480z" />
</font>
</defs>
</svg>
