<?xml version="1.0" standalone="no"?>
<!DOCTYPE svg PUBLIC "-//W3C//DTD SVG 1.1//EN" "http://www.w3.org/Graphics/SVG/1.1/DTD/svg11.dtd" >
<svg xmlns="http://www.w3.org/2000/svg">
<metadata></metadata>
<defs>
<font id="andes_rounded_lightlight" horiz-adv-x="700" >
<font-face units-per-em="1000" ascent="750" descent="-250" />
<missing-glyph horiz-adv-x="243" />
<glyph unicode="&#xfb01;" horiz-adv-x="561" d="M493 633q0 -20 -14.5 -33.5t-34.5 -13.5t-34 13.5t-14 33.5q0 19 14 33t34 14t34.5 -14t14.5 -33zM412 431h-247v-418q0 -13 -12 -13h-39q-12 0 -12 12v419h-59q-11 0 -11 11v27q0 13 12 13h58v85q0 74 37 117.5t108 43.5q72 0 112 -40q9 -6 3 -17l-14 -27q-5 -9 -13 -1 q-35 32 -83 32q-40 0 -63.5 -29.5t-23.5 -80.5v-83h298q12 0 12 -13v-371q0 -46 31 -50q11 0 11 -11v-27q0 -12 -29 -12q-76 0 -76 94v339z" />
<glyph unicode="&#xfb02;" horiz-adv-x="587" d="M102 431h-59q-11 0 -11 11v27q0 13 12 13h58v85q0 73 39 117t113 44q72 0 112 -40q8 -6 3 -17l-14 -27q-6 -9 -14 -1q-32 32 -83 32q-43 0 -68 -29.5t-25 -80.5v-83h169q12 0 12 -13v-27q0 -11 -11 -11h-170v-418q0 -13 -12 -13h-39q-12 0 -12 12v419zM501 713v-615 q0 -46 31 -50q11 0 11 -11v-27q0 -12 -30 -12q-76 0 -76 94v622q0 12 13 12h39q12 0 12 -13z" />
<glyph unicode="&#xfb03;" horiz-adv-x="848" d="M781 633q0 -20 -14.5 -33.5t-34.5 -13.5t-34.5 13.5t-14.5 33.5q0 19 14.5 33t34.5 14t34.5 -14t14.5 -33zM763 469v-371q0 -46 31 -50q10 0 10 -11v-27q0 -12 -29 -12q-76 0 -76 94v339h-247v-418q0 -13 -12 -13h-39q-12 0 -12 12v419h-224v-418q0 -13 -12 -13h-39 q-12 0 -12 12v419h-59q-11 0 -11 11v27q0 13 12 13h58v85q0 73 39 117t113 44q72 0 112 -40q8 -6 3 -17l-14 -27q-6 -9 -14 -1q-32 32 -83 32q-43 0 -68 -29.5t-25 -80.5v-83h224v85q0 73 39 117t113 44q72 0 112 -40q8 -6 3 -17l-14 -27q-5 -9 -13 -1q-35 32 -83 32 q-43 0 -68.5 -29.5t-25.5 -80.5v-83l299 -1q12 0 12 -12z" />
<glyph unicode="&#xfb04;" horiz-adv-x="875" d="M389 431h-224v-418q0 -13 -12 -13h-39q-12 0 -12 12v419h-59q-11 0 -11 11v27q0 13 12 13h58v85q0 73 39 117t113 44q72 0 112 -40q8 -6 3 -17l-14 -27q-5 -10 -14 -1q-32 32 -83 32q-43 0 -68 -29.5t-25 -80.5v-83h224v85q0 73 39 117t113 44q72 0 112 -40q8 -6 3 -17 l-14 -27q-5 -9 -13 -1q-35 32 -83 32q-43 0 -68.5 -29.5t-25.5 -80.5v-83h169q13 0 13 -13v-27q0 -11 -12 -11h-170v-418q0 -13 -12 -13h-39q-12 0 -12 12v419zM830 37v-27q0 -12 -29 -12q-76 0 -76 94v622q0 12 12 12h39q12 0 12 -13v-615q0 -46 31 -50q11 0 11 -11z" />
<glyph horiz-adv-x="0" />
<glyph unicode="&#xd;" horiz-adv-x="1000" />
<glyph unicode=" "  horiz-adv-x="243" />
<glyph unicode="&#x09;" horiz-adv-x="243" />
<glyph unicode="&#xa0;" horiz-adv-x="243" />
<glyph unicode="!" horiz-adv-x="241" d="M93 200l-7 526q0 11 12 11h47q12 0 12 -11l-9 -526q0 -11 -12 -11h-31q-12 0 -12 11zM120 79q19 0 32 -13t13 -31q0 -19 -13 -32t-32 -13q-18 0 -31.5 13t-13.5 32q0 18 13.5 31t31.5 13z" />
<glyph unicode="&#x22;" horiz-adv-x="283" d="M69 592l-3 130q0 12 12 12h25q12 0 12 -12l-3 -130q0 -12 -12 -12h-20q-11 0 -11 12zM172 592l-3 130q0 12 12 12h25q12 0 12 -12l-3 -130q0 -12 -12 -12h-20q-11 0 -11 12z" />
<glyph unicode="#" horiz-adv-x="618" d="M365 188l32 150h-144l-33 -150h145zM172 188l33 150h-97q-13 0 -9 16l3 14q3 10 14 10h98l22 102q3 11 14 11h22q15 0 12 -14l-22 -99h144l23 102q3 11 13 11h22q16 0 12 -14l-22 -99h108q10 0 7 -10l-4 -20q-3 -10 -14 -10h-105l-33 -150h98q13 0 10 -13l-4 -16 q-3 -10 -14 -10h-99l-21 -96q-3 -10 -14 -10h-22q-15 0 -12 13l21 93h-144l-21 -96q-3 -10 -14 -10h-22q-15 0 -12 13l20 93h-103q-13 0 -9 15l3 14q3 10 14 10h104z" />
<glyph unicode="$" horiz-adv-x="590" d="M277 -100v108q-53 3 -97.5 18t-72 37t-41.5 37.5t-23 30.5q-5 8 3 15l25 22q10 9 15 1q8 -12 22.5 -26.5t40.5 -34t66.5 -32t86.5 -12.5q83 0 130.5 32.5t47.5 90.5q0 41 -23.5 68t-60.5 39.5t-82.5 21t-90.5 19t-82 27t-60.5 51.5t-23.5 87q0 78 58 131.5t162 57.5v100 q0 12 12 12h31q12 0 12 -12v-102q45 -4 82.5 -18t59.5 -33t34 -33t19 -27q6 -12 -4 -18l-28 -20q-10 -7 -15 2q-7 13 -18.5 25.5t-33 29.5t-56 27.5t-77.5 10.5q-83 0 -127.5 -38t-44.5 -94q0 -46 31.5 -73.5t78.5 -37.5t101.5 -22.5t101.5 -27t78.5 -52.5t31.5 -98 q0 -74 -55.5 -124.5t-158.5 -56.5v-109q0 -12 -12 -12h-31q-12 0 -12 12z" />
<glyph unicode="%" horiz-adv-x="575" d="M145 424q-50 0 -78 35t-28 104t28 104t78 35q52 0 80 -35t28 -104t-28.5 -104t-79.5 -35zM145 461q64 0 64 102q0 100 -64 100q-63 0 -63 -100q0 -102 63 -102zM428 -2q-50 0 -78 35t-28 104t28 104t78 35q52 0 80 -35t28 -104t-28.5 -104t-79.5 -35zM428 35q64 0 64 102 q0 100 -64 100q-63 0 -63 -100q0 -102 63 -102zM415 687l-204 -677q-4 -10 -16 -10h-22q-6 0 -9.5 4t-1.5 9l205 677q3 10 15 10h21q6 0 9.5 -4t2.5 -9z" />
<glyph unicode="&#x26;" horiz-adv-x="679" d="M557 -95h-39q-12 0 -12 11q0 33 -16 113q-4 -2 -19 -9t-27.5 -12t-31.5 -11t-42 -9.5t-48 -3.5q-116 0 -187 68t-71 178q0 43 13.5 81t28 59t38.5 40t29.5 22t16.5 8q-42 60 -42 121q0 73 51 122.5t140 49.5q100 0 146.5 -51.5t46.5 -125.5q0 -20 -7.5 -52.5t-21.5 -32.5 h-38q-12 0 -7 23q8 37 8 63q0 48 -30 83.5t-95 35.5q-59 0 -93.5 -33t-34.5 -87q0 -36 21.5 -71.5t57.5 -71.5t75.5 -73.5t82 -92t70.5 -113.5q39 68 43 179q2 12 12 12h42q12 0 12 -13q0 -154 -84 -243q25 -79 25 -153q0 -11 -13 -11zM329 40q16 0 30.5 1.5t27.5 5t23 6.5 t21 8.5l16 8t14 8t10 6.5q-27 67 -71.5 125t-102 114t-72.5 74l-3 -2q-4 -2 -9.5 -5.5t-12.5 -9t-15 -13t-15.5 -16.5t-14.5 -21t-12.5 -25.5t-8.5 -31t-3 -36.5q0 -90 57.5 -143.5t140.5 -53.5z" />
<glyph unicode="'" horiz-adv-x="180" d="M69 592l-3 130q0 12 12 12h25q12 0 12 -12l-3 -130q0 -12 -12 -12h-20q-11 0 -11 12z" />
<glyph unicode="(" horiz-adv-x="283" d="M115 241q0 -92 16 -174.5t42 -140t42.5 -86t32.5 -49.5q7 -9 -6 -15l-29 -14q-12 -6 -18 2q-17 21 -35 53t-45 92.5t-44.5 148t-17.5 183.5q0 97 17.5 184.5t44.5 148t45 91.5t35 53q6 8 18 2l28 -14q14 -7 6 -15q-16 -22 -32 -50.5t-42 -86t-42 -140t-16 -173.5z" />
<glyph unicode=")" horiz-adv-x="283" d="M230 241q0 -96 -17.5 -183.5t-44.5 -148t-45 -92.5t-35 -53q-6 -7 -18 -2l-29 14q-13 6 -6 15q16 21 32.5 49.5t42.5 86t42 140t16 174.5q0 91 -16 173.5t-41 139.5t-42 87t-33 50q-8 8 6 15l28 14q12 5 18 -2q17 -22 35 -53t45 -91.5t44.5 -148t17.5 -184.5z" />
<glyph unicode="*" horiz-adv-x="431" d="M106 501l82 93l-123 15q-12 1 -10 13l2 16q0 10 15 8l118 -24l-49 109q-5 10 4 15l15 7q10 5 15 -8l43 -114l76 103q8 12 17 4l12 -9q10 -8 1 -18l-84 -96l124 -15q14 -2 12 -13l-1 -14q-2 -13 -14 -9l-125 22l53 -111q5 -12 -4 -16l-17 -7q-9 -4 -14 8l-45 114l-74 -96 q-7 -13 -16 -4l-14 10q-9 7 1 17z" />
<glyph unicode="+" horiz-adv-x="458" d="M390 253h-137v-151q0 -12 -12 -12h-26q-12 0 -12 13v150h-136q-13 0 -13 12v24q0 12 13 12h136v145q0 12 11 12h26q13 0 13 -12v-145h137q13 0 13 -12v-24q0 -12 -13 -12z" />
<glyph unicode="," horiz-adv-x="226" d="M64 40q0 20 14 33.5t33 13.5q22 0 36.5 -15.5t14.5 -41.5q0 -90 -68 -124q-7 -3 -11 4l-12 19q-4 7 2 10q37 22 38 55q-19 0 -33 13.5t-14 32.5z" />
<glyph unicode="-" horiz-adv-x="404" d="M84 298h236q13 0 13 -12v-25q0 -12 -13 -12h-237q-11 0 -11 12v25q0 12 12 12z" />
<glyph unicode="." horiz-adv-x="221" d="M64 40q0 20 14 33.5t33 13.5t32.5 -13.5t13.5 -33.5q0 -19 -13.5 -32.5t-32.5 -13.5t-33 13.5t-14 32.5z" />
<glyph unicode="/" horiz-adv-x="402" d="M81 -225h-37q-15 0 -12 12l276 909q3 10 14 10h37q14 0 11 -12l-275 -909q-3 -10 -14 -10z" />
<glyph unicode="0" horiz-adv-x="622" d="M310 -6q-248 0 -248 355q0 174 62 265.5t186 91.5q125 0 188 -92t63 -265q0 -355 -251 -355zM310 51q94 0 139 73.5t45 224.5t-45 225.5t-139 74.5q-181 0 -181 -300q0 -150 44.5 -224t136.5 -74z" />
<glyph unicode="1" horiz-adv-x="399" d="M307 688v-676q0 -12 -13 -12h-41q-12 0 -12 12v565q-16 -42 -69.5 -81t-120.5 -42q-10 0 -11 11l-6 41q-1 11 8 11q73 4 129 55.5t68 114.5q3 13 13 13h42q13 0 13 -12z" />
<glyph unicode="2" horiz-adv-x="559" d="M488 0h-417q-12 0 -12 12v44q0 51 20.5 91t53 66t72 48t79 43t72 45t53 59.5t20.5 80.5q0 74 -40.5 117t-108.5 43q-40 0 -71 -14t-47.5 -35.5t-24.5 -40t-11 -34.5q-2 -12 -14 -8l-43 11q-11 3 -9 13q3 16 10 34t23.5 42.5t39 43.5t60.5 32t85 13q102 0 160 -60t58 -157 q0 -69 -37.5 -121t-91 -83t-107 -59t-91 -65t-37.5 -84v-21h357q12 0 12 -12v-32q0 -12 -13 -12z" />
<glyph unicode="3" horiz-adv-x="577" d="M243 381h49q52 0 95.5 36t43.5 98q0 58 -41.5 96t-114.5 38q-60 0 -94.5 -28t-44.5 -57q-4 -10 -15 -6l-42 15q-9 5 -6 13q6 16 18 32t35 38t63.5 36t91.5 14q105 0 161 -55t56 -130q0 -43 -17.5 -76.5t-42 -50.5t-41 -25t-25.5 -9q146 -40 146 -174q0 -93 -64 -142.5 t-177 -49.5q-46 0 -85.5 10.5t-62.5 24t-42 32.5t-26 30.5t-13 23.5q-3 9 5 14l31 21q9 6 14 -2q7 -13 18 -25.5t31.5 -30.5t54 -29.5t72.5 -11.5q84 0 130.5 36t46.5 105q0 67 -51.5 102.5t-107.5 35.5h-50q-11 0 -11 12v27q0 12 12 12z" />
<glyph unicode="4" horiz-adv-x="566" d="M430 165v-153q0 -12 -13 -12h-40q-12 0 -12 12v153h-317q-12 0 -12 13v27q0 17 7 30l232 455q4 10 13 10h47q14 0 7 -12l-238 -467h260v162q0 12 12 12h41q13 0 13 -12v-162h88q12 0 12 -12v-31q0 -13 -13 -13h-87z" />
<glyph unicode="5" horiz-adv-x="575" d="M147 644v-236q5 4 16 10t49 16.5t82 10.5q100 0 164.5 -62.5t64.5 -157.5q0 -99 -60 -165t-181 -66q-62 0 -114 22.5t-71.5 41.5t-34.5 39q-6 8 3 16l34 24q9 7 15 -2q60 -84 168 -84q83 0 128.5 45.5t45.5 128.5q0 69 -47 116t-124 47t-128 -39q-13 -9 -26 -9h-36 q-12 0 -12 12v336q0 12 12 12h387q12 0 12 -12v-32q0 -12 -13 -12h-334z" />
<glyph unicode="6" horiz-adv-x="600" d="M317 -6q-121 0 -188 82.5t-67 247.5q0 382 268 382q115 0 179 -74q7 -9 -1 -16l-33 -27q-8 -5 -16 3q-46 58 -129 58q-197 0 -203 -305q3 4 8.5 10t25 21.5t40.5 27.5t53.5 22t65.5 10q98 0 164 -56.5t66 -159.5q0 -106 -62.5 -166t-170.5 -60zM129 283q4 -112 55.5 -172 t131.5 -60q78 0 123 45t45 124q0 77 -45.5 118t-125.5 41q-32 0 -62 -9.5t-50.5 -23.5t-36 -27t-25.5 -25z" />
<glyph unicode="7" horiz-adv-x="507" d="M34 656v32q0 12 12 12h421q12 0 12 -12v-23q0 -54 -27 -112.5t-66 -114t-78 -116.5t-66.5 -142.5t-28.5 -170.5q0 -9 -10 -9h-46q-10 0 -10 9q1 89 28.5 172.5t66 146t77 117t65 106t26.5 93.5h-365q-11 0 -11 12z" />
<glyph unicode="8" horiz-adv-x="604" d="M188 372q-4 1 -12.5 4.5t-24 14.5t-28 27t-22.5 44.5t-10 63.5q0 80 57 130t153 50q107 0 162 -55t55 -132q0 -36 -10.5 -66t-26 -47.5t-30.5 -30t-25 -17.5l-11 -5q132 -47 132 -172q0 -87 -62.5 -137t-177.5 -50q-111 0 -180.5 50t-69.5 148q0 124 131 180zM359 322 l-118 28q-5 -1 -13 -4t-28 -15t-35.5 -27t-28 -42.5t-12.5 -60.5q0 -71 49.5 -111t133.5 -40q83 0 128 37t45 106q0 46 -31 80t-90 49zM252 397l106 -26q4 1 10 3.5t22 13t28.5 24.5t22.5 40t10 58q0 58 -40 98.5t-110 40.5q-65 0 -104 -37t-39 -92q0 -96 94 -123z" />
<glyph unicode="9" horiz-adv-x="597" d="M281 706q122 0 188 -86t66 -251q0 -375 -266 -375q-69 0 -115 25t-68 53q-4 4 1 9l39 32q5 3 8 0q9 -12 23 -24.5t45.5 -25.5t66.5 -13q195 0 201 296q-3 -3 -8.5 -9t-24.5 -20.5t-40 -26t-54 -20.5t-67 -9q-99 0 -162 56.5t-63 161.5q0 104 61.5 165.5t168.5 61.5z M468 408q-4 114 -54.5 177.5t-132.5 63.5q-74 0 -118.5 -45.5t-44.5 -124.5t43 -120t122 -41q33 0 63 8.5t51 22t36 25.5t25 23z" />
<glyph unicode=":" horiz-adv-x="237" d="M72 40q0 20 14 33.5t33 13.5t32.5 -13.5t13.5 -33.5q0 -19 -13.5 -32.5t-32.5 -13.5t-33 13.5t-14 32.5zM72 458q0 20 14 33.5t33 13.5t32.5 -13.5t13.5 -33.5q0 -19 -13.5 -32.5t-32.5 -13.5t-33 13.5t-14 32.5z" />
<glyph unicode=";" horiz-adv-x="247" d="M75 40q0 20 13.5 33.5t33.5 13.5q22 0 36.5 -15.5t14.5 -41.5q0 -90 -68 -124q-7 -3 -11 4l-12 19q-4 7 2 10q37 22 38 55q-19 0 -33 13.5t-14 32.5zM75 458q0 20 13.5 33.5t33.5 13.5q19 0 32.5 -13.5t13.5 -33.5q0 -19 -13.5 -32.5t-32.5 -13.5t-33 13.5t-14 32.5z" />
<glyph unicode="&#x3c;" horiz-adv-x="417" d="M55 307l285 184q13 7 13 -8v-30q0 -11 -13 -19l-242 -160l243 -161q12 -8 12 -18v-30q0 -6 -4 -8.5t-9 0.5l-286 184q-11 6 -11 18v31q0 10 12 17z" />
<glyph unicode="=" horiz-adv-x="518" d="M88 391h343q12 0 12 -12v-25q0 -12 -12 -12h-344q-12 0 -12 12v25q0 12 13 12zM88 199h343q12 0 12 -12v-24q0 -12 -12 -12h-344q-12 0 -12 12v24q0 12 13 12z" />
<glyph unicode="&#x3e;" horiz-adv-x="417" d="M77 491l285 -184q12 -7 12 -17v-31q0 -12 -11 -18l-286 -184q-5 -3 -9 -0.5t-4 8.5v30q0 10 11 18l244 161l-242 160q-13 8 -13 19v30q0 15 13 8z" />
<glyph unicode="?" horiz-adv-x="452" d="M197 79q19 0 32 -13t13 -32q0 -18 -13 -31t-32 -13q-18 0 -31 13t-13 31q0 19 13 32t31 13zM84 541l-36 9q-10 3 -10 16q4 74 56.5 120.5t129.5 46.5q94 0 141 -52t47 -128q0 -50 -18.5 -87.5t-45 -62.5l-53 -50t-46 -65.5t-20.5 -93.5q0 -12 -12 -12h-36q-11 0 -11 12 q1 62 20 107t44.5 71t51 48.5t43 54.5t17.5 75q0 55 -32 90.5t-91 35.5q-53 0 -87.5 -34.5t-38.5 -87.5q-3 -13 -8 -13q-2 -1 -5 0z" />
<glyph unicode="@" horiz-adv-x="834" d="M791 347q0 -127 -71 -214t-157 -87q-59 0 -61 51q0 19 10 44q-59 -92 -145 -92q-57 0 -93 35t-36 111q0 104 65.5 183t156.5 79q37 0 64.5 -14.5t35.5 -25t11 -17.5l10 37q2 9 13 9h27q7 0 9.5 -2.5t0.5 -6.5q0 -1 -21 -77t-42 -155t-22 -90q-2 -29 28 -29q58 0 112 74.5 t54 185.5q0 105 -70.5 172t-189.5 67q-161 0 -266 -116t-105 -287q0 -134 74.5 -205.5t192.5 -71.5q169 0 277 91q14 10 19 0l12 -18q7 -12 -4 -21q-23 -20 -53 -38.5t-101.5 -40.5t-150.5 -22q-139 0 -229 84t-90 240q0 200 121.5 327.5t304.5 127.5q136 0 222.5 -81 t86.5 -207zM520 215l38 145q-1 2 -3 5.5t-10 12.5t-18.5 16t-28.5 12.5t-40 5.5q-69 0 -118 -63t-49 -145q0 -106 88 -106q39 0 71.5 23.5t47.5 47.5t22 46z" />
<glyph unicode="A" horiz-adv-x="643" d="M545 11l-73 196h-302l-73 -196q-3 -11 -14 -11h-40q-6 0 -10 3.5t-2 8.5l252 675q7 13 15 13h47q8 0 14 -13l253 -675q2 -5 -2 -8.5t-10 -3.5h-41q-11 0 -14 11zM321 613l-131 -352h262z" />
<glyph unicode="B" horiz-adv-x="625" d="M329 0h-226q-12 0 -12 12v676q0 12 12 12h213q216 0 216 -178q0 -46 -12.5 -79.5t-32 -49t-36 -22t-30.5 -6.5v-2q15 0 33.5 -4.5t41 -16.5t40 -30.5t29.5 -51t12 -72.5q0 -99 -70.5 -143.5t-177.5 -44.5zM156 56h172q183 0 183 139q0 72 -46.5 106t-123.5 34h-185v-279z M156 385h179q130 0 130 130q0 61 -38.5 95t-118.5 34h-152v-259z" />
<glyph unicode="C" horiz-adv-x="635" d="M561 148l26 -27q7 -7 0 -16q-9 -13 -24 -28t-43 -35.5t-70 -34t-90 -13.5q-137 0 -220 87t-83 267q0 179 79.5 268.5t209.5 89.5q56 0 101 -17.5t69 -40.5t41 -54t22.5 -50t7.5 -36q2 -12 -11 -14l-36 -7q-12 -2 -14 9q-3 20 -11 40.5t-26.5 49t-55 46t-86.5 17.5 q-98 0 -160.5 -73.5t-62.5 -227.5q0 -156 68 -226.5t170 -70.5q107 0 183 93q9 12 16 4z" />
<glyph unicode="D" horiz-adv-x="659" d="M303 0h-200q-12 0 -12 12v676q0 12 12 12h164q149 0 242 -88.5t93 -268.5q0 -172 -80.5 -257.5t-218.5 -85.5zM156 56h147q109 0 171 72.5t62 214.5q0 151 -73 226t-197 75h-110v-588z" />
<glyph unicode="E" horiz-adv-x="553" d="M487 0h-384q-12 0 -12 12v676q0 12 12 12h384q13 0 13 -12v-32q0 -12 -13 -12h-331v-268h282q12 0 12 -12v-31q0 -12 -13 -12h-281v-265h331q13 0 13 -12v-32q0 -12 -13 -12z" />
<glyph unicode="F" horiz-adv-x="534" d="M156 319v-307q0 -12 -12 -12h-41q-12 0 -12 12v676q0 12 12 12h384q13 0 13 -12v-32q0 -12 -13 -12h-331v-270h282q12 0 12 -12v-31q0 -12 -13 -12h-281z" />
<glyph unicode="G" horiz-adv-x="652" d="M595 334v-79q0 -120 -62.5 -190.5t-185.5 -70.5q-128 0 -209 87.5t-81 266.5t79.5 268.5t209.5 89.5q59 0 105.5 -19t73.5 -50.5t42 -63t20 -63.5q2 -11 -12 -13l-36 -7q-11 -2 -13 8q-5 27 -16.5 51t-31.5 48t-54 38t-77 14q-98 0 -160.5 -73.5t-62.5 -227.5 q0 -80 19.5 -140t53 -93t71 -48.5t80.5 -15.5q93 0 138 53.5t45 150.5v40h-172q-12 0 -12 12v27q0 12 12 12h224q12 0 12 -12z" />
<glyph unicode="H" horiz-adv-x="679" d="M588 688v-676q0 -12 -12 -12h-41q-12 0 -12 12v304h-367v-304q0 -12 -12 -12h-41q-12 0 -12 12v676q0 12 12 12h41q12 0 12 -12v-316h367v316q0 12 12 12h41q12 0 12 -12z" />
<glyph unicode="I" horiz-adv-x="247" d="M156 688v-676q0 -12 -12 -12h-41q-12 0 -12 12v676q0 12 12 12h41q12 0 12 -12z" />
<glyph unicode="J" horiz-adv-x="454" d="M302 193v495q0 12 12 12h41q12 0 12 -12v-490q0 -102 -53 -153t-139 -51q-94 0 -161 67q-7 8 0 15l27 29q8 9 16 1q52 -56 118 -56q127 0 127 143z" />
<glyph unicode="K" horiz-adv-x="664" d="M156 366h139q79 0 139.5 78.5t65.5 243.5q0 12 12 12h40q12 0 12 -13q0 -103 -29 -180t-65 -113.5t-78 -53.5q30 -12 56.5 -47t45 -75t37.5 -79t43.5 -64.5t53.5 -25.5h15q12 0 12 -12v-25q0 -9 -12 -12q-12 -2 -32 -2q-47 0 -82 32t-57 78t-43.5 92.5t-53.5 78.5t-75 32 h-144v-299q0 -12 -12 -12h-41q-12 0 -12 12v676q0 12 12 12h41q12 0 12 -12v-322z" />
<glyph unicode="L" horiz-adv-x="526" d="M156 688v-632h346q12 0 12 -12v-32q0 -12 -13 -12h-398q-12 0 -12 12v676q0 12 12 12h41q12 0 12 -12z" />
<glyph unicode="M" horiz-adv-x="814" d="M91 12v676q0 12 12 12h48q13 0 20 -13l236 -503h2l237 503q7 13 20 13h45q12 0 12 -12v-676q0 -12 -12 -12h-41q-12 0 -12 12v565l-218 -459q-8 -20 -32 -20q-26 0 -34 20l-218 459v-565q0 -12 -12 -12h-41q-12 0 -12 12z" />
<glyph unicode="N" horiz-adv-x="677" d="M574 0h-52q-12 0 -21 14l-345 578v-580q0 -12 -12 -12h-41q-12 0 -12 12v676q0 12 12 12h52q13 0 20 -13l346 -587v588q0 12 12 12h41q12 0 12 -12v-676q0 -12 -12 -12z" />
<glyph unicode="O" d="M350 -6q-59 0 -110 20t-93 61t-66 111t-24 163q0 180 84 268.5t209 88.5t209 -88.5t84 -268.5q0 -93 -24 -163t-66 -111t-93 -61t-110 -20zM350 51q97 0 162 72.5t65 225.5q0 155 -65 227.5t-162 72.5t-161.5 -72.5t-64.5 -227.5q0 -153 65 -225.5t161 -72.5z" />
<glyph unicode="P" horiz-adv-x="586" d="M144 0h-41q-12 0 -12 12v676q0 12 12 12h203q116 0 179 -55.5t63 -163.5q0 -106 -62.5 -159.5t-172.5 -53.5h-157v-256q0 -12 -12 -12zM156 323h147q179 0 179 158q0 77 -45.5 120t-135.5 43h-145v-321z" />
<glyph unicode="Q" d="M564 -173v-34q0 -12 -13 -12q-94 4 -154 63.5t-80 151.5q-114 11 -187 98t-73 255q0 180 84 268.5t209 88.5t209 -88.5t84 -268.5q0 -171 -75 -258t-192 -96q20 -73 66.5 -112.5t109.5 -43.5q12 0 12 -12zM350 51q97 0 162 72.5t65 225.5q0 155 -65 227.5t-162 72.5 t-161.5 -72.5t-64.5 -227.5q0 -153 65 -225.5t161 -72.5z" />
<glyph unicode="R" horiz-adv-x="665" d="M655 37v-23q0 -8 -14 -13q-7 -3 -30 -3q-48 0 -83 30.5t-56.5 74.5t-42.5 88t-53.5 74.5t-75.5 30.5h-144v-284q0 -12 -12 -12h-41q-12 0 -12 12v675q0 13 12 13h210q232 0 232 -204q0 -73 -39.5 -119.5t-102.5 -61.5q32 -14 61.5 -58.5t48 -89.5t49 -81t65.5 -37h15 q13 0 13 -12zM156 348h149q76 0 124.5 38.5t48.5 107.5t-44 109.5t-124 40.5h-154v-296z" />
<glyph unicode="S" horiz-adv-x="604" d="M534 572l-30 -20q-9 -6 -14 2q-6 12 -17 24t-32.5 30t-58 29.5t-80.5 11.5q-84 0 -130 -38t-46 -93q0 -43 23.5 -70.5t61.5 -40.5t84 -22t92 -20t84 -29.5t61.5 -56.5t23.5 -94q0 -82 -64.5 -136.5t-182.5 -54.5q-62 0 -112.5 15.5t-81.5 40t-44.5 39.5t-23.5 30 q-5 8 3 15l25 24q9 8 15 -1q76 -106 219 -106q84 0 132.5 35.5t48.5 96.5q0 45 -23.5 73.5t-61.5 41.5t-84 22t-92 20t-84 28.5t-61.5 55t-23.5 93.5q0 81 63 135t175 54q58 0 104.5 -13.5t74 -36t40.5 -37t21 -29.5q6 -11 -4 -18z" />
<glyph unicode="T" horiz-adv-x="594" d="M27 700h540q13 0 13 -12v-32q0 -12 -13 -12h-236v-632q0 -12 -12 -12h-41q-12 0 -12 12v632h-239q-12 0 -12 12v32q0 12 12 12z" />
<glyph unicode="U" horiz-adv-x="675" d="M525 282v406q0 12 12 12h41q12 0 12 -12v-402q0 -158 -67 -225t-185 -67q-254 0 -254 292v402q0 12 13 12h41q12 0 12 -12v-406q0 -231 188 -231q187 0 187 231z" />
<glyph unicode="V" horiz-adv-x="636" d="M318 77l213 613q3 10 14 10h47q6 0 10 -3.5t2 -8.5l-248 -675q-6 -13 -14 -13h-48q-8 0 -14 13l-248 675q-3 12 12 12h51q10 0 14 -10z" />
<glyph unicode="W" horiz-adv-x="973" d="M521 687l176 -610l160 613q3 10 14 10h51q6 0 9.5 -4t2.5 -9l-197 -674q-4 -13 -15 -13h-49q-12 0 -17 13l-170 584l-169 -584q-6 -13 -16 -13h-48q-13 0 -17 13l-197 673q-1 5 2.5 9.5t9.5 4.5h51q11 0 14 -10l160 -613l176 610q3 13 17 13h37q11 0 15 -13z" />
<glyph unicode="X" horiz-adv-x="598" d="M558 0h-47q-9 0 -15 10l-197 297l-196 -297q-7 -10 -16 -10h-46q-7 0 -11 3.5t0 8.5l225 337l-225 339q-4 5 -0.5 8.5t10.5 3.5h51q9 0 15 -10l193 -295l193 295q7 10 16 10h50q6 0 10 -3.5t0 -8.5l-226 -338l226 -338q4 -5 0 -8.5t-10 -3.5z" />
<glyph unicode="Y" horiz-adv-x="621" d="M331 0h-41q-12 0 -12 12v295l-244 381q-4 5 0 8.5t10 3.5h51q9 0 15 -10l201 -325l199 325q7 10 16 10h50q7 0 10.5 -3.5t0.5 -8.5l-244 -381v-295q0 -12 -12 -12z" />
<glyph unicode="Z" horiz-adv-x="589" d="M534 0h-479q-12 0 -12 12v33q0 10 7 20l417 579h-412q-12 0 -12 12v32q0 12 13 12h479q12 0 12 -12v-33q0 -12 -7 -20l-415 -579h410q12 0 12 -12v-32q0 -12 -13 -12z" />
<glyph unicode="[" horiz-adv-x="296" d="M246 -244h-150q-12 0 -12 12v946q0 12 12 12h151q12 0 12 -12v-32q0 -11 -13 -11h-99v-860h100q12 0 12 -11v-32q0 -12 -13 -12z" />
<glyph unicode="\" horiz-adv-x="402" d="M358 -225h-37q-11 0 -14 10l-275 909q-3 12 12 12h36q11 0 14 -10l276 -909q3 -12 -12 -12z" />
<glyph unicode="]" horiz-adv-x="296" d="M200 -244h-150q-12 0 -12 12v32q0 11 12 11h99v860h-99q-12 0 -12 11v32q0 12 12 12h150q12 0 12 -12v-946q0 -12 -12 -12z" />
<glyph unicode="^" horiz-adv-x="393" d="M108 523h-31q-15 0 -9 13l86 170q6 12 19 12h47q12 0 19 -12l85 -170q7 -13 -8 -13h-31q-14 0 -19 12l-70 133l-70 -133q-5 -12 -18 -12z" />
<glyph unicode="_" horiz-adv-x="412" d="M43 0h326q12 0 12 -12v-24q0 -12 -12 -12h-326q-12 0 -12 12v24q0 12 12 12z" />
<glyph unicode="`" horiz-adv-x="256" d="M198 564h-39q-10 0 -16 9l-93 144q-5 9 6 9h58q9 0 14 -8l76 -146q4 -8 -6 -8z" />
<glyph unicode="a" horiz-adv-x="504" d="M467 37v-26q0 -13 -28 -13q-32 0 -51 18.5t-19 55.5v26q-51 -104 -172 -104q-73 0 -113 32.5t-40 90.5q0 127 183 127h136v78q0 112 -117 112q-56 0 -87 -25t-31 -67q0 -14 5 -34q2 -5 -0.5 -7t-9.5 -2h-31q-23 0 -23 54q0 59 47 97t131 38q179 0 179 -168v-221 q0 -47 31 -51q10 -2 10 -11zM363 174v24h-136q-118 0 -118 -76q0 -37 27.5 -57.5t74.5 -20.5q33 0 61 13.5t44 32.5t27.5 38t15.5 32z" />
<glyph unicode="b" horiz-adv-x="537" d="M120 0h-32q-12 0 -12 12v702q0 12 12 12h38q12 0 12 -13v-317l1 1q31 65 101 84q25 7 52 7q83 0 138.5 -60.5t55.5 -182.5q0 -128 -55.5 -189.5t-141.5 -61.5q-27 0 -50.5 6t-39 14.5t-29 19.5t-20.5 20t-12 17l-6 8v-67q0 -12 -12 -12zM138 319v-162q0 -4 3.5 -15 t14 -27.5t25 -31.5t40.5 -25.5t57 -10.5q66 0 105.5 50t39.5 147q0 96 -41.5 143.5t-104.5 47.5q-31 0 -56.5 -12t-40 -29t-25 -34t-13.5 -29z" />
<glyph unicode="c" horiz-adv-x="483" d="M51 241q0 124 56 185.5t155 61.5q82 0 125 -40.5t43 -103.5q0 -49 -21 -49h-23q-17 0 -17 11q0 3 1 13t1 16q0 45 -28 72.5t-81 27.5q-69 0 -109 -47.5t-40 -145.5q0 -105 48 -150t108 -45q80 0 123 57q10 13 19 4l17 -18q9 -9 3 -18q-12 -16 -29 -31.5t-55.5 -31 t-84.5 -15.5q-89 0 -150 59.5t-61 187.5z" />
<glyph unicode="d" horiz-adv-x="547" d="M399 169v163q0 4 -4 14t-15 26t-26 29.5t-40.5 23.5t-55.5 10q-63 0 -104 -50.5t-41 -145.5q0 -93 42 -142.5t104 -49.5q31 0 56.5 11.5t40 27t24.5 34.5t13.5 30t5.5 18v1zM503 37v-27q0 -12 -28 -12q-30 0 -50 18.5t-20 53.5v22l-3 -6q-4 -7 -7.5 -13t-10.5 -15.5 t-15.5 -17.5t-21.5 -17t-27.5 -15t-34 -10t-41.5 -4q-80 0 -136.5 62t-56.5 183q0 126 56.5 187.5t142.5 61.5q31 0 57.5 -8t42 -18t28 -23t16 -19t5.5 -10v304q0 12 12 12h39q12 0 12 -13v-612q0 -49 31 -53q10 0 10 -11z" />
<glyph unicode="e" horiz-adv-x="488" d="M421 245h-306v-12q1 -53 16.5 -91.5t40 -58t48.5 -28t50 -8.5q73 0 121 57q11 12 17 6l21 -21q9 -7 2 -17q-56 -78 -168 -78q-89 0 -150.5 59.5t-61.5 187.5q0 125 54.5 186t153.5 61q177 0 177 -226q0 -17 -15 -17zM116 290h260q0 66 -29 105.5t-92 39.5q-58 0 -95 -36 t-44 -109z" />
<glyph unicode="f" horiz-adv-x="368" d="M102 431h-59q-11 0 -11 11v27q0 13 12 13h58v85q0 73 39 117t113 44q72 0 112 -40q8 -6 3 -17l-14 -27q-6 -9 -14 -1q-32 32 -83 32q-43 0 -68 -29.5t-25 -80.5v-83h169q12 0 12 -13v-27q0 -11 -11 -11h-170v-418q0 -13 -12 -13h-39q-12 0 -12 12v419z" />
<glyph unicode="g" horiz-adv-x="512" d="M307 1h-101q-51 -1 -80.5 -26.5t-29.5 -71.5q0 -97 158 -97q168 0 168 103q0 44 -31 68t-84 24zM391 309q0 55 -38.5 90.5t-95.5 35.5q-58 0 -95.5 -35t-37.5 -91q0 -57 37 -91.5t95 -34.5t96.5 34.5t38.5 91.5zM209 48h96q80 0 129.5 -36t49.5 -104q0 -72 -55.5 -113.5 t-171.5 -41.5q-223 0 -223 147q0 82 83 119q2 2 3 2q-1 0 -9 3.5t-13.5 6.5t-14.5 9.5t-14.5 14t-9.5 19t-4 24.5q0 64 67 80l-4 4l-7 7t-8.5 9t-9.5 12t-9 14t-8.5 17t-7 19.5t-5 23t-1.5 25.5q0 80 56 129.5t138 49.5q16 0 31.5 -2.5t25 -6t17 -6.5t8.5 -3q94 -5 106 69 q3 12 13 11l27 -4q12 -1 12 -13q-6 -86 -105 -93q61 -50 61 -131q0 -82 -56.5 -131t-138.5 -49q-45 0 -87 21q-24 0 -40.5 -13t-16.5 -37q0 -30 24.5 -41t71.5 -11z" />
<glyph unicode="h" horiz-adv-x="535" d="M76 12v702q0 12 12 12h38q12 0 12 -13v-333q15 47 54 77.5t97 30.5q86 0 127.5 -52t41.5 -136v-202q0 -46 30 -50q11 0 11 -11v-27q0 -12 -29 -12q-76 0 -76 94v213q0 57 -31.5 93.5t-89.5 36.5q-63 0 -99 -50.5t-36 -108.5v-263q0 -13 -12 -13h-38q-12 0 -12 12z" />
<glyph unicode="i" horiz-adv-x="222" d="M156 633q0 -20 -14.5 -33.5t-34.5 -13.5t-34.5 13.5t-14.5 33.5q0 19 14.5 33t34.5 14t34.5 -14t14.5 -33zM178 37v-27q0 -12 -29 -12q-76 0 -76 94v380q0 13 12 13h39q12 0 12 -13v-374q0 -46 31 -50q11 0 11 -11z" />
<glyph unicode="j" horiz-adv-x="215" d="M152 636q0 -19 -13 -31t-32 -12t-32 12t-13 31t13 31.5t32 12.5t32 -12.5t13 -31.5zM139 469v-546q0 -170 -149 -170q-44 0 -78 20q-10 5 -5 15l11 26q5 9 11 6q33 -14 55 -14q92 0 92 119v545q0 12 12 12h39q12 0 12 -13z" />
<glyph unicode="k" horiz-adv-x="531" d="M512 36v-25q0 -13 -28 -13q-42 0 -68.5 25t-40 61t-27.5 72t-42.5 61t-74.5 25h-93v-230q0 -12 -12 -12h-38q-12 0 -12 12v702q0 12 12 12h38q12 0 12 -12v-426h93q74 0 115 54.5t42 127.5q0 12 12 12h35q12 0 12 -13q-1 -72 -33 -127t-96 -75q31 -11 51.5 -38t31.5 -57 t22 -58.5t30.5 -47t48.5 -18.5q10 0 10 -12z" />
<glyph unicode="l" horiz-adv-x="224" d="M179 37v-27q0 -12 -29 -12q-76 0 -76 94v621q0 12 13 12h39q12 0 12 -12v-615q0 -46 31 -50q10 0 10 -11z" />
<glyph unicode="m" horiz-adv-x="857" d="M780 300v-202q0 -50 31 -50q11 0 11 -14v-22q0 -14 -29 -14q-76 0 -76 94v208q0 60 -30 97.5t-90 37.5q-58 0 -92 -44.5t-38 -102.5v-190q0 -50 31 -50q10 0 10 -14v-22q0 -14 -29 -14q-76 0 -76 94v208q0 61 -30 98t-90 37q-63 0 -98.5 -50.5t-35.5 -109.5v-263 q0 -12 -12 -12h-39q-12 0 -12 13v372q0 44 -31 49q-11 0 -11 14v24q0 12 30 12q29 0 48.5 -19t19.5 -53v-39q13 50 52.5 82.5t104.5 32.5q123 0 157 -115q39 115 156 115q86 0 127 -52t41 -136z" />
<glyph unicode="n" horiz-adv-x="545" d="M86 13v372q0 44 -31 49q-11 0 -11 14v24q0 12 30 12q29 0 48.5 -19t19.5 -53v-39q13 50 53 82.5t104 32.5q87 0 128 -52t41 -136v-202q0 -46 31 -50q11 0 11 -14v-22q0 -14 -29 -14q-76 0 -76 94v208q0 60 -30.5 97.5t-90.5 37.5q-64 0 -99.5 -50.5t-35.5 -109.5v-263 q0 -12 -12 -12h-39q-12 0 -12 13z" />
<glyph unicode="o" horiz-adv-x="520" d="M260 -6q-96 0 -152.5 65t-56.5 182t56.5 182t152.5 65q95 0 151.5 -65t56.5 -182t-56.5 -182t-151.5 -65zM260 47q65 0 105.5 49.5t40.5 144.5q0 94 -40.5 144t-105.5 50t-106 -50t-41 -144q0 -95 41 -144.5t106 -49.5z" />
<glyph unicode="p" horiz-adv-x="548" d="M149 319v-164q0 -4 3.5 -14.5t14 -27t25 -31t40 -25t56.5 -10.5q66 0 106 50t40 147q0 96 -42 143.5t-105 47.5q-48 0 -82.5 -29t-44.5 -58zM44 447v25q0 12 30 12q29 0 49 -18.5t20 -52.5v-20q26 46 59 68q43 27 100 27q84 0 139.5 -60t55.5 -183q0 -128 -56 -189.5 t-142 -61.5q-32 0 -59 8.5t-43 20t-27.5 23.5t-15.5 20l-5 9v-307q0 -12 -12 -12h-39q-12 0 -12 13v616q0 43 -31 49q-11 0 -11 13z" />
<glyph unicode="q" horiz-adv-x="537" d="M399 170v162q0 4 -4.5 14t-15 26t-25.5 29.5t-40.5 23.5t-55.5 10q-64 0 -104.5 -50.5t-40.5 -145.5q0 -92 42.5 -142t103.5 -50q92 0 130 93q6 14 10 29v1zM417 492h33q12 0 12 -13v-710q0 -13 -12 -13h-40q-11 0 -11 12v320l-1 -3q-2 -3 -5 -8.5t-7.5 -12.5t-11.5 -15 t-15.5 -16t-20 -15t-25 -12.5t-31.5 -8.5t-37 -3q-80 0 -137 62t-57 183q0 126 55.5 187.5t141.5 61.5q26 0 49 -6t38.5 -14t29.5 -19t21 -19t13 -16l6 -8v74q0 12 12 12z" />
<glyph unicode="r" horiz-adv-x="372" d="M86 12v372q0 45 -32 50q-10 0 -10 10v27q0 13 29 13t49 -18t20 -56v-38q13 50 52 83t102 33q29 0 50 -8q10 -3 6 -12l-17 -38q-4 -9 -13 -6q-21 6 -41 6q-62 0 -97 -49t-35 -106v-262q0 -13 -12 -13h-39q-12 0 -12 12z" />
<glyph unicode="s" horiz-adv-x="465" d="M390 310h-26q-16 0 -14 10q3 21 3 30q0 37 -29 61t-90 24q-56 0 -86 -24t-30 -65q0 -39 31 -58t75 -26t87.5 -15.5t74.5 -37t31 -80.5q0 -64 -46 -99.5t-134 -35.5q-56 0 -101.5 18.5t-63.5 35.5t-30 34q-4 7 2 15l25 26q7 7 13 -1q59 -75 152 -75q58 0 89.5 21.5 t31.5 58.5q0 29 -22 46.5t-55.5 23t-72 14.5t-72 20t-55.5 40t-22 74q0 61 43.5 102t134.5 41q93 0 135 -38.5t42 -94.5q0 -44 -21 -45z" />
<glyph unicode="t" horiz-adv-x="402" d="M174 482h180q12 0 12 -12v-27q0 -12 -12 -12h-180v-265q0 -60 23 -89t75 -29q47 0 87 36q8 7 11 -2l14 -28q4 -6 -2 -13q-51 -47 -116 -47q-81 0 -118.5 42t-37.5 128v267h-64q-13 0 -13 12v27q0 12 13 12h64v138q0 12 12 12h39q13 0 13 -13v-137z" />
<glyph unicode="u" horiz-adv-x="535" d="M491 34v-24q0 -12 -29 -12q-69 0 -69 77v20q-20 -44 -62.5 -72.5t-105.5 -28.5q-153 0 -153 169v307q0 12 12 12h38q12 0 12 -13v-299q0 -123 109 -123q65 0 104 50.5t39 96.5v276q0 12 12 12h40q12 0 12 -13v-370q0 -46 31 -51q10 -2 10 -14z" />
<glyph unicode="v" horiz-adv-x="500" d="M277 0h-54q-7 0 -14 13l-172 456q-2 5 2 9t10 4h43q10 0 14 -9l145 -402l147 402q3 9 14 9h40q6 0 9.5 -4t1.5 -9l-172 -456q-6 -13 -14 -13z" />
<glyph unicode="w" horiz-adv-x="745" d="M549 0h-53q-10 0 -13 13l-108 356l-111 -355q-5 -14 -14 -14h-52q-9 0 -14 13l-144 455q-2 6 1 10t9 4h44q10 0 13 -10l118 -402l120 394q5 11 13 11h38q9 0 12 -12l115 -393l117 402q3 10 14 10h40q6 0 9.5 -4.5t1.5 -9.5l-142 -454q-5 -14 -14 -14z" />
<glyph unicode="x" horiz-adv-x="479" d="M431 0h-43q-9 0 -14 7l-135 195l-134 -193q-6 -9 -14 -9h-45q-6 0 -9 3.5t0 8.5l163 231l-163 227q-4 5 -0.5 8.5t10.5 3.5h47q9 0 15 -9l130 -189l135 190q5 8 14 8h43q7 0 10.5 -3.5t0.5 -7.5l-163 -228l163 -232q3 -4 -0.5 -7.5t-10.5 -3.5z" />
<glyph unicode="y" horiz-adv-x="499" d="M462 469l-229 -604q-43 -112 -138 -112q-33 0 -55 9q-9 3 -8 13l6 32q1 10 10 7q20 -6 43 -6q34 0 52.5 18t32.5 55l42 114l-182 474q-5 13 11 13h41q12 0 15 -10l149 -399l145 400q3 9 15 9h40q16 0 10 -13z" />
<glyph unicode="z" horiz-adv-x="453" d="M397 0h-342q-11 0 -11 12v23q0 17 11 31l282 365h-282q-11 0 -11 11v28q0 12 12 12h341q12 0 12 -12v-24q0 -14 -12 -31l-278 -364h278q12 0 12 -12v-27q0 -12 -12 -12z" />
<glyph unicode="{" horiz-adv-x="310" d="M111 334v233q0 82 41 118.5t104 39.5q6 1 11 -2.5t5 -11.5v-29q0 -10 -15 -13q-87 -8 -87 -111v-236q0 -28 -10.5 -47.5t-20 -25.5t-18.5 -8q8 -2 18 -9t20.5 -26.5t10.5 -45.5v-236q0 -97 85 -110q17 -3 17 -16v-29q0 -12 -15 -12q-64 3 -105 40.5t-41 117.5v233 q0 33 -19 50t-47 17q-8 0 -8 10v32q0 10 8 10q27 0 46.5 17t19.5 50z" />
<glyph unicode="|" horiz-adv-x="224" d="M140 724v-966q0 -12 -12 -12h-32q-12 0 -12 12v966q0 12 12 12h32q12 0 12 -12z" />
<glyph unicode="}" horiz-adv-x="310" d="M199 567v-233q0 -33 19.5 -50t46.5 -17q8 0 8 -10v-32q0 -10 -8 -10q-27 0 -46.5 -17t-19.5 -50v-233q0 -80 -41 -117.5t-105 -40.5q-15 0 -15 12v29q0 13 18 16q84 10 84 110v236q0 26 11 45.5t20.5 26.5t17.5 9q-9 2 -18.5 8t-20 25.5t-10.5 47.5v236q0 103 -87 111 q-15 3 -15 13v29q0 8 5 11.5t11 2.5q63 -3 104 -39.5t41 -118.5z" />
<glyph unicode="~" horiz-adv-x="441" d="M126 211h-33q-9 0 -11 7q-7 24 -7 36q0 31 19 50.5t54 19.5q29 0 74 -17.5t67 -17.5q25 0 25 22q0 16 -6 28q-1 2 -0.5 3.5t2.5 2t6 0.5h34q8 0 10 -7q6 -18 6 -35q0 -29 -18 -47.5t-52 -18.5q-36 0 -79.5 18t-59.5 18q-30 0 -30 -29q0 -11 6 -26q4 -7 -7 -7z" />
<glyph unicode="&#xa1;" horiz-adv-x="222" d="M112 418q-18 0 -31.5 13t-13.5 32t13.5 32t31.5 13q19 0 32 -13t13 -32t-13 -32t-32 -13zM76 -242l8 539q0 12 11 12h31q13 0 13 -12l7 -539q0 -12 -11 -12h-47q-12 0 -12 12z" />
<glyph unicode="&#xa2;" horiz-adv-x="492" d="M120 245q0 -87 35 -133t84 -58v386q-119 -17 -119 -195zM239 -88v84q-77 10 -129 72.5t-52 176.5q0 117 47.5 179.5t133.5 71.5v74q0 12 12 12h26q12 0 12 -13v-73q56 -3 92 -31t51 -56q4 -7 -3 -12l-37 -22q-7 -4 -11 3q-4 10 -13 21.5t-30.5 25t-48.5 16.5v-393 q37 3 65 20.5t38 31.5t16 29q3 7 9 3l26 -23q4 -4 2 -10q-43 -97 -156 -104v-84q0 -12 -12 -12h-26q-12 0 -12 13z" />
<glyph unicode="&#xa3;" horiz-adv-x="606" d="M64 296h96q-2 3 -18.5 28.5t-22 35.5t-16 33.5t-14.5 46t-4 47.5q0 96 61.5 157.5t173.5 61.5q57 0 103 -13.5t73 -35t40.5 -36.5t21.5 -29q5 -7 -2 -10l-44 -20q-7 -4 -10 3q-7 11 -17 21t-31 26.5t-56 26.5t-78 10q-82 0 -124.5 -49t-43.5 -119q-1 -28 8 -57t18.5 -46 t27 -44t23.5 -38h218q12 0 12 -12v-33q0 -12 -13 -12h-197q8 -16 8 -36q0 -41 -18.5 -78t-32 -50t-22.5 -19h332q12 0 12 -12v-32q0 -12 -12 -12h-412q-12 0 -12 12v20q0 11 8 16q90 63 90 155q0 20 -8 36h-118q-12 0 -12 12v33q0 12 12 12z" />
<glyph unicode="&#xa4;" horiz-adv-x="594" d="M468 378q0 -51 -26 -89l70 -70q9 -9 0 -17l-17 -18q-8 -7 -16 0l-69 70q-45 -47 -113 -47q-67 0 -114 47l-71 -71q-8 -9 -16 -1l-18 18q-8 8 1 16l73 74q-25 39 -25 88t25 88l-72 73q-8 8 -1 16l17 17q9 9 16 1l71 -72q48 48 114 48q65 0 113 -48l70 71q9 9 16 1l18 -18 q8 -8 0 -16l-72 -73q26 -42 26 -88zM418 378q0 50 -35.5 85t-85.5 35t-85 -35t-35 -85t35 -85t85 -35q50 -1 85.5 34.5t35.5 85.5z" />
<glyph unicode="&#xa5;" horiz-adv-x="625" d="M97 413h112l-171 261q-6 13 11 13h50q8 0 15 -10l199 -316l197 316q8 10 15 10h51q7 0 10 -3.5t0 -9.5l-172 -261h114q13 0 13 -12v-26q0 -12 -13 -12h-146l-37 -59v-31h141q12 0 12 -12v-25q0 -12 -12 -12h-141v-212q0 -12 -12 -12h-41q-12 0 -12 12v212h-142 q-12 0 -12 12v25q0 12 13 12h141v31l-38 59h-146q-12 0 -12 12v26q0 12 13 12z" />
<glyph unicode="&#xa6;" horiz-adv-x="226" d="M85 367v357q0 12 12 12h31q13 0 13 -13v-357q0 -12 -12 -12h-31q-13 0 -13 13zM85 -241v425q0 12 12 12h31q13 0 13 -13v-425q0 -12 -12 -12h-31q-13 0 -13 13z" />
<glyph unicode="&#xa7;" horiz-adv-x="624" d="M565 185q0 -70 -46 -119q47 -45 47 -122q0 -82 -64.5 -136.5t-182.5 -54.5q-62 0 -112.5 15.5t-81 39.5t-45 39.5t-23.5 30.5q-5 8 3 15l25 24q8 7 15 -1q76 -106 219 -106q84 0 132.5 35.5t48.5 96.5q0 44 -24 72.5t-62 41.5t-84 22t-91.5 20t-83.5 29t-62 55.5 t-24 93.5q0 64 48 117q-48 45 -48 124q0 81 63 135t175 54q58 0 104.5 -13.5t74 -36t40.5 -37t21 -29.5q6 -11 -4 -18l-29 -20q-10 -6 -15 2q-6 12 -17 24t-32.5 30t-58 29.5t-80.5 11.5q-84 0 -130 -38t-46 -93q0 -43 23.5 -70.5t61.5 -40.5t84 -22t92 -20t84 -29.5 t61.5 -56.5t23.5 -94zM499 183q0 43 -21.5 71t-59 41.5t-77 21.5t-88 18.5t-79.5 24.5q-38 -35 -38 -83q0 -52 36 -82.5t81.5 -39.5t110.5 -23t101 -32q34 34 34 83z" />
<glyph unicode="&#xa8;" horiz-adv-x="341" d="M86 592q-17 0 -29.5 12.5t-12.5 30.5q0 17 12.5 30t29.5 13t29.5 -13t12.5 -30q0 -18 -12.5 -30.5t-29.5 -12.5zM255 592q-17 0 -29.5 12.5t-12.5 30.5q0 17 12.5 30t29.5 13q18 0 30.5 -13t12.5 -30q0 -18 -12.5 -30.5t-30.5 -12.5z" />
<glyph unicode="&#xa9;" horiz-adv-x="871" d="M435 -17q-167 0 -273 106.5t-106 273.5t107 273.5t272 106.5q166 0 273 -106.5t107 -273.5t-107 -273.5t-273 -106.5zM435 38q142 0 233 92t91 233q0 143 -91.5 236t-232.5 93q-142 0 -233 -93t-91 -236q0 -142 91 -233.5t233 -91.5zM232 354q0 132 57 196t145 64 q48 0 84 -14.5t54 -38t26 -41.5t12 -36q2 -11 -10 -14l-27 -4q-11 -3 -15 9q-3 12 -9 24t-19 27t-37.5 24.5t-57.5 9.5q-60 0 -101.5 -47.5t-41.5 -156.5q0 -98 45 -143t104 -45q88 0 133 45q9 8 15 -1l13 -22q8 -9 -1 -18q-10 -11 -26.5 -22.5t-55 -23.5t-84.5 -12 q-82 0 -142.5 59.5t-60.5 180.5z" />
<glyph unicode="&#xaa;" horiz-adv-x="360" d="M58 494q0 74 103 74h73v36q0 31 -14.5 45t-46.5 14q-59 0 -59 -40q0 -4 0.5 -8.5t0.5 -6.5q0 -5 -6 -5h-24q-8 0 -11 8q-2 8 -2 18q0 31 26 52t74 21q104 0 104 -96v-121q0 -20 15 -23q9 0 9 -7v-18q0 -12 -20 -12q-16 0 -29.5 10t-13.5 31v6q-21 -48 -91 -48 q-40 0 -64 18t-24 52zM234 526v11h-70q-64 0 -64 -38q0 -19 15 -29t39 -10q40 0 60 21t20 45z" />
<glyph unicode="&#xab;" horiz-adv-x="458" d="M67 228q-11 10 -11 25v22q0 14 11 25l119 115q9 9 18 0l16 -19q8 -8 -1 -18l-113 -114l113 -113q10 -10 1 -19l-16 -19q-9 -9 -18 0zM234 228q-11 10 -11 25v22q0 14 11 25l119 115q9 9 17 0l17 -19q9 -8 -1 -18l-113 -114l113 -113q10 -10 1 -19l-17 -19q-8 -9 -17 0z " />
<glyph unicode="&#xac;" horiz-adv-x="463" d="M335 148v107h-242q-13 0 -13 12v24q0 12 13 12h281q12 0 12 -12v-144q0 -12 -11 -12h-29q-11 0 -11 13z" />
<glyph unicode="&#xad;" horiz-adv-x="404" d="M84 298h236q13 0 13 -12v-25q0 -12 -13 -12h-237q-11 0 -11 12v25q0 12 12 12z" />
<glyph unicode="&#xae;" horiz-adv-x="871" d="M656 169v-29q0 -13 -27 -13q-31 0 -55 20.5t-39.5 50t-30 58.5t-36.5 49.5t-50 20.5h-94v-186q0 -12 -12 -12h-34q-11 0 -11 13v450q0 11 11 11h155q151 0 151 -138q0 -16 -3 -30.5t-8 -25.5t-11 -20t-13 -15.5t-14 -11.5t-14 -8t-11.5 -5t-9.5 -3l-4 -1q22 -11 41 -39.5 t31 -56t30.5 -49t40.5 -21.5h10q7 0 7 -9zM324 375h96q105 0 105 86q0 90 -102 90h-99v-176zM435 -17q-167 0 -273 106.5t-106 273.5t107 273.5t272 106.5q166 0 273 -106.5t107 -273.5t-107 -273.5t-273 -106.5zM435 38q142 0 233 92t91 233q0 143 -91.5 236t-232.5 93 q-142 0 -233 -93t-91 -236q0 -142 91 -233.5t233 -91.5z" />
<glyph unicode="&#xaf;" horiz-adv-x="369" d="M67 649h236q12 0 12 -12v-24q0 -12 -13 -12h-236q-12 0 -12 12v24q0 12 13 12z" />
<glyph unicode="&#xb0;" horiz-adv-x="351" d="M297 587q0 -50 -36 -85.5t-86 -35.5t-85 35.5t-35 85.5t35 86t85 36t86 -36t36 -86zM260 587q0 35 -25 60t-60 25t-59.5 -25t-24.5 -60t24.5 -59.5t59.5 -24.5t60 24.5t25 59.5z" />
<glyph unicode="&#xb1;" horiz-adv-x="491" d="M407 291h-137v-151q0 -12 -12 -12h-26q-12 0 -12 13v150h-136q-13 0 -13 12v24q0 12 13 12h136v145q0 12 11 12h26q13 0 13 -12v-145h137q13 0 13 -12v-24q0 -12 -13 -12zM82 56h326q12 0 12 -12v-24q0 -12 -12 -12h-326q-12 0 -12 12v24q0 12 12 12z" />
<glyph unicode="&#xb2;" horiz-adv-x="251" d="M203 493h-155q-12 0 -12 11v11q0 27 14 46.5t34 31.5t40 23.5t34 27.5t14 38q0 23 -13 35.5t-35 12.5q-39 0 -49 -35q-2 -7 -9 -4l-26 5q-5 1 -5 7q3 13 10 26.5t28.5 26.5t51.5 13q42 0 65.5 -23.5t23.5 -61.5q0 -32 -19 -56t-42.5 -36.5t-42.5 -28.5t-19 -33v-2h112 q12 0 12 -12v-12q0 -11 -12 -11z" />
<glyph unicode="&#xb3;" horiz-adv-x="256" d="M128 614h-16q-8 0 -8 8v17q0 9 8 9h16q14 0 27.5 12t13.5 33q0 15 -12.5 26t-35.5 11t-42 -19q-5 -5 -14 -2l-20 7q-7 4 -4 11q21 42 82 42q45 0 67.5 -21t22.5 -51q0 -29 -14.5 -44.5t-27.5 -18.5q51 -19 51 -68q0 -35 -28 -55t-72 -20q-64 0 -90 45q-3 6 4 11l13 12 q7 5 10 0q21 -33 61 -33q27 0 44 11.5t17 31.5q0 22 -16.5 33.5t-36.5 11.5z" />
<glyph unicode="&#xb4;" horiz-adv-x="256" d="M97 564h-39q-10 0 -6 8l76 146q5 8 14 8h58q11 0 6 -9l-94 -145q-4 -8 -15 -8z" />
<glyph unicode="&#xb5;" horiz-adv-x="521" d="M144 173q0 -121 109 -121q64 0 103 48.5t40 96.5v273q0 12 12 12h39q12 0 12 -12v-458q0 -12 -12 -12h-33q-12 0 -12 12v94q-19 -49 -61.5 -80.5t-106.5 -31.5q-73 0 -96 49v-275q0 -12 -12 -12h-33q-12 0 -12 12v702q0 12 12 12h39q12 0 12 -12v-297z" />
<glyph unicode="&#xb6;" horiz-adv-x="583" d="M317 12v264h-70q-100 0 -153.5 57.5t-53.5 153.5q0 97 53.5 155t153.5 58h231q12 0 12 -12v-676q0 -12 -12 -12h-18q-12 0 -12 12v653h-90v-653q0 -12 -12 -12h-17q-12 0 -12 12z" />
<glyph unicode="&#xb7;" horiz-adv-x="232" d="M69 355q0 19 14 33t33 14t33 -14t14 -33t-14 -32.5t-33 -13.5t-33 13.5t-14 32.5z" />
<glyph unicode="&#xb8;" horiz-adv-x="266" d="M157 -5l-14 -32q27 -2 48 -19.5t21 -48.5q0 -33 -23.5 -51.5t-61.5 -18.5q-41 0 -68 24q-5 4 -2 11l10 18q3 7 9 3q25 -19 51 -19q45 0 45 34q0 16 -19 28t-55 12q-6 0 -3 7l21 51q3 9 13 9h21q11 0 7 -8z" />
<glyph unicode="&#xb9;" horiz-adv-x="205" d="M157 753v-249q0 -12 -12 -12h-19q-12 0 -12 12v195q-7 -15 -27 -29t-46 -17q-11 -3 -13 7l-4 21q-1 10 9 10q29 3 50.5 21.5t27.5 41.5q5 11 14 11h20q12 0 12 -12z" />
<glyph unicode="&#xba;" horiz-adv-x="351" d="M176 427q-54 0 -86.5 36t-32.5 102q0 65 32.5 101t86.5 36t86 -36t32 -101q0 -66 -32 -102t-86 -36zM176 465q33 0 54.5 25.5t21.5 73.5q0 47 -21.5 73t-54.5 26q-34 0 -55.5 -25t-21.5 -74t21.5 -74t55.5 -25z" />
<glyph unicode="&#xbb;" horiz-adv-x="412" d="M222 226l-117 -113q-9 -9 -15 -2l-22 24q-4 7 2 14l116 115l-116 116q-6 6 -2 14l21 23q7 7 16 -1l117 -114q13 -12 13 -26v-23q0 -15 -13 -27zM389 226l-117 -113q-8 -9 -15 -2l-22 24q-5 6 2 14l116 115l-116 116q-7 7 -2 14l21 23q7 7 16 -1l117 -114q13 -12 13 -26 v-23q0 -15 -13 -27z" />
<glyph unicode="&#xbc;" horiz-adv-x="514" d="M373 688l-204 -678q-4 -10 -15 -10h-23q-6 0 -9.5 3.5t-1.5 8.5l204 678q4 10 15 10h23q14 0 11 -12zM169 688v-249q0 -12 -12 -12h-20q-11 0 -11 12v195q-7 -15 -27 -29t-47 -17q-10 -3 -12 7l-4 21q-1 5 2 7.5t6 2.5q28 3 50 21.5t29 41.5q3 11 13 11h21q12 0 12 -12z M266 74v9q0 9 4 16l85 165q5 9 14 9h25q12 0 6 -10l-84 -165h86v52q0 12 12 12h19q12 0 12 -11v-53h25q11 0 11 -11v-14q0 -11 -11 -11h-25v-50q0 -12 -12 -12h-19q-12 0 -12 12v50h-124q-12 0 -12 12z" />
<glyph unicode="&#xbd;" horiz-adv-x="512" d="M373 688l-204 -678q-4 -10 -15 -10h-23q-6 0 -9.5 3.5t-1.5 8.5l204 678q4 10 15 10h23q14 0 11 -12zM169 688v-249q0 -12 -12 -12h-20q-11 0 -11 12v195q-7 -15 -27 -29t-47 -17q-10 -3 -12 7l-4 21q-1 5 2 7.5t6 2.5q28 3 50 21.5t29 41.5q3 11 13 11h21q12 0 12 -12z M455 0h-156q-11 0 -11 11v11q0 27 14 46.5t34 31.5t40 23.5t34 27.5t14 38q0 23 -13 35.5t-35 12.5q-39 0 -49 -35q-2 -7 -9 -4l-26 5q-5 1 -5 7q3 13 10 26.5t28.5 26.5t51.5 13q42 0 65.5 -23.5t23.5 -61.5q0 -32 -19 -56t-42.5 -36.5t-42.5 -28.5t-19 -33v-2h112 q12 0 12 -12v-12q0 -11 -12 -11z" />
<glyph unicode="&#xbe;" horiz-adv-x="551" d="M413 688l-204 -678q-4 -10 -15 -10h-23q-6 0 -9.5 3.5t-1.5 8.5l205 678q3 10 14 10h23q14 0 11 -12zM304 74v9q0 11 3 16l85 165q4 9 14 9h25q11 0 7 -10l-85 -165h87v52q0 12 11 12h20q11 0 11 -11v-53h25q11 0 11 -11v-14q0 -11 -11 -11h-25v-50q0 -12 -11 -12h-20 q-11 0 -11 12v50h-125q-11 0 -11 12zM139 547h-15q-9 0 -9 8v17q0 9 9 9h15q15 0 28 12t13 33q0 15 -12 26t-35 11q-27 0 -42 -19q-6 -6 -14 -2l-20 7q-9 3 -4 11q23 42 82 42q45 0 67.5 -21.5t22.5 -50.5t-15 -45t-28 -18q51 -17 51 -68q0 -35 -27.5 -55t-71.5 -20 q-62 0 -90 45q-3 5 3 11l13 12q6 6 10 0q21 -33 62 -33q27 0 43.5 11.5t16.5 31.5q0 23 -16.5 34t-36.5 11z" />
<glyph unicode="&#xbf;" horiz-adv-x="444" d="M251 419q-19 0 -32 13t-13 31q0 19 13 32t32 13t32 -13t13 -32q0 -18 -13 -31t-32 -13zM364 -57l37 -9q9 -3 9 -16q-4 -74 -56.5 -120.5t-129.5 -46.5q-94 0 -141 52t-47 128q0 50 18.5 87.5t45 62.5l53 50t46 65.5t20.5 93.5q0 12 12 12h36q11 0 11 -12q-1 -62 -20 -107 t-44.5 -71t-51 -48.5t-43 -54.5t-17.5 -75q0 -55 32 -90.5t91 -35.5q53 0 87.5 34.5t38.5 87.5q3 13 8 13q2 1 5 0z" />
<glyph unicode="&#xc0;" horiz-adv-x="643" d="M545 11l-73 196h-302l-73 -196q-3 -11 -14 -11h-40q-6 0 -10 3.5t-2 8.5l252 675q7 13 15 13h47q8 0 14 -13l253 -675q2 -5 -2 -8.5t-10 -3.5h-41q-11 0 -14 11zM321 613l-131 -352h262zM328 782h-39q-10 0 -16 9l-93 144q-5 9 6 9h58q9 0 14 -8l76 -146q4 -8 -6 -8z" />
<glyph unicode="&#xc1;" horiz-adv-x="643" d="M545 11l-73 196h-302l-73 -196q-3 -11 -14 -11h-40q-6 0 -10 3.5t-2 8.5l252 675q7 13 15 13h47q8 0 14 -13l253 -675q2 -5 -2 -8.5t-10 -3.5h-41q-11 0 -14 11zM321 613l-131 -352h262zM347 782h-39q-10 0 -6 8l76 146q5 8 14 8h58q11 0 6 -9l-94 -145q-4 -8 -15 -8z " />
<glyph unicode="&#xc2;" horiz-adv-x="643" d="M545 11l-73 196h-302l-73 -196q-3 -11 -14 -11h-40q-6 0 -10 3.5t-2 8.5l252 675q7 13 15 13h47q8 0 14 -13l253 -675q2 -5 -2 -8.5t-10 -3.5h-41q-11 0 -14 11zM321 613l-131 -352h262zM246 774h-31q-16 0 -9 12l75 138q5 12 18 12h49q13 0 18 -12l75 -138q3 -5 0 -8.5 t-10 -3.5h-31q-12 0 -18 11l-59 101l-59 -101q-6 -11 -18 -11z" />
<glyph unicode="&#xc3;" horiz-adv-x="643" d="M545 11l-73 196h-302l-73 -196q-3 -11 -14 -11h-40q-6 0 -10 3.5t-2 8.5l252 675q7 13 15 13h47q8 0 14 -13l253 -675q2 -5 -2 -8.5t-10 -3.5h-41q-11 0 -14 11zM321 613l-131 -352h262zM232 788h-33q-9 0 -11 7q-7 16 -7 36q0 31 19 50.5t54 19.5q29 0 74 -17.5 t67 -17.5q25 0 25 22q0 16 -6 28q-1 2 -0.5 3.5t2.5 2t6 0.5h34q8 0 10 -7q6 -12 6 -35q0 -29 -18 -47.5t-52 -18.5q-36 0 -79.5 18t-59.5 18q-30 0 -30 -29q0 -11 6 -26q4 -7 -7 -7z" />
<glyph unicode="&#xc4;" horiz-adv-x="643" d="M545 11l-73 196h-302l-73 -196q-3 -11 -14 -11h-40q-6 0 -10 3.5t-2 8.5l252 675q7 13 15 13h47q8 0 14 -13l253 -675q2 -5 -2 -8.5t-10 -3.5h-41q-11 0 -14 11zM321 613l-131 -352h262zM241 810q-17 0 -29.5 12.5t-12.5 30.5q0 17 12.5 30t29.5 13t29.5 -13t12.5 -30 q0 -18 -12.5 -30.5t-29.5 -12.5zM410 810q-17 0 -29.5 12.5t-12.5 30.5q0 17 12.5 30t29.5 13q18 0 30.5 -13t12.5 -30q0 -18 -12.5 -30.5t-30.5 -12.5z" />
<glyph unicode="&#xc5;" horiz-adv-x="643" d="M545 11l-73 196h-302l-73 -196q-3 -11 -14 -11h-40q-6 0 -10 3.5t-2 8.5l252 675q7 13 15 13h47q8 0 14 -13l253 -675q2 -5 -2 -8.5t-10 -3.5h-41q-11 0 -14 11zM321 613l-131 -352h262zM324 779q-32 0 -53.5 21t-21.5 53t21.5 53t53.5 21q31 0 52 -21t21 -53t-21 -53 t-52 -21zM363 853q0 17 -11 28t-28 11q-18 0 -29 -11t-11 -28q0 -18 10.5 -29t29.5 -11q17 0 28 11t11 29z" />
<glyph unicode="&#xc6;" horiz-adv-x="826" d="M322 612l-132 -351h264zM546 11l-72 196h-304l-72 -196q-3 -11 -14 -11h-41q-6 0 -10 3.5t-2 8.5l254 675q5 13 14 13h467q12 0 12 -12v-32q0 -12 -13 -12h-388l97 -263h234q12 0 12 -13v-31q0 -12 -13 -12h-211l100 -269h170q12 0 12 -12v-32q0 -12 -13 -12h-205 q-11 0 -14 11z" />
<glyph unicode="&#xc7;" horiz-adv-x="635" d="M561 148l26 -27q7 -7 0 -16q-9 -13 -24 -27.5t-42 -35t-68 -34t-88 -14.5l-12 -31q26 -2 47.5 -19.5t21.5 -48.5q0 -33 -23.5 -51.5t-61.5 -18.5q-41 0 -68 24q-5 5 -2 11l9 18q3 6 10 3q25 -19 51 -19q44 0 44 34q0 16 -18 28t-55 12q-7 0 -4 7l22 53 q-122 10 -195.5 96.5t-73.5 255.5q0 179 79.5 268.5t209.5 89.5q56 0 101 -17.5t69 -40.5t41 -54t22.5 -50t7.5 -36q2 -12 -11 -14l-36 -7q-12 -2 -14 9q-3 20 -11 40.5t-26.5 49t-55 46t-86.5 17.5q-98 0 -160.5 -73.5t-62.5 -227.5q0 -156 68 -226.5t170 -70.5 q107 0 183 93q9 12 16 4z" />
<glyph unicode="&#xc8;" horiz-adv-x="553" d="M487 0h-384q-12 0 -12 12v676q0 12 12 12h384q13 0 13 -12v-32q0 -12 -13 -12h-331v-268h282q12 0 12 -12v-31q0 -12 -13 -12h-281v-265h331q13 0 13 -12v-32q0 -12 -13 -12zM336 782h-39q-10 0 -16 9l-93 144q-5 9 6 9h58q9 0 14 -8l76 -146q4 -8 -6 -8z" />
<glyph unicode="&#xc9;" horiz-adv-x="553" d="M328 782h-39q-10 0 -6 8l76 146q5 8 14 8h58q11 0 6 -9l-94 -145q-4 -8 -15 -8zM487 0h-384q-12 0 -12 12v676q0 12 12 12h384q13 0 13 -12v-32q0 -12 -13 -12h-331v-268h282q12 0 12 -12v-31q0 -12 -13 -12h-281v-265h331q13 0 13 -12v-32q0 -12 -13 -12z" />
<glyph unicode="&#xca;" horiz-adv-x="553" d="M243 774h-31q-16 0 -9 12l75 138q5 12 18 12h49q13 0 18 -12l75 -138q3 -5 0 -8.5t-10 -3.5h-31q-12 0 -18 11l-59 101l-59 -101q-6 -11 -18 -11zM487 0h-384q-12 0 -12 12v676q0 12 12 12h384q13 0 13 -12v-32q0 -12 -13 -12h-331v-268h282q12 0 12 -12v-31 q0 -12 -13 -12h-281v-265h331q13 0 13 -12v-32q0 -12 -13 -12z" />
<glyph unicode="&#xcb;" horiz-adv-x="553" d="M237 810q-17 0 -29.5 12.5t-12.5 30.5q0 17 12.5 30t29.5 13t29.5 -13t12.5 -30q0 -18 -12.5 -30.5t-29.5 -12.5zM406 810q-17 0 -29.5 12.5t-12.5 30.5q0 17 12.5 30t29.5 13q18 0 30.5 -13t12.5 -30q0 -18 -12.5 -30.5t-30.5 -12.5zM487 0h-384q-12 0 -12 12v676 q0 12 12 12h384q13 0 13 -12v-32q0 -12 -13 -12h-331v-268h282q12 0 12 -12v-31q0 -12 -13 -12h-281v-265h331q13 0 13 -12v-32q0 -12 -13 -12z" />
<glyph unicode="&#xcc;" horiz-adv-x="247" d="M156 688v-676q0 -12 -12 -12h-41q-12 0 -12 12v676q0 12 12 12h41q12 0 12 -12zM147 782h-39q-10 0 -16 9l-93 144q-5 9 6 9h58q9 0 14 -8l76 -146q4 -8 -6 -8z" />
<glyph unicode="&#xcd;" horiz-adv-x="247" d="M156 688v-676q0 -12 -12 -12h-41q-12 0 -12 12v676q0 12 12 12h41q12 0 12 -12zM142 782h-39q-10 0 -6 8l76 146q5 8 14 8h58q11 0 6 -9l-94 -145q-4 -8 -15 -8z" />
<glyph unicode="&#xce;" horiz-adv-x="247" d="M156 688v-676q0 -12 -12 -12h-41q-12 0 -12 12v676q0 12 12 12h41q12 0 12 -12zM43 774h-31q-16 0 -9 12l75 138q5 12 18 12h49q13 0 18 -12l75 -138q3 -5 0 -8.5t-10 -3.5h-31q-12 0 -18 11l-59 101l-59 -101q-6 -11 -18 -11z" />
<glyph unicode="&#xcf;" horiz-adv-x="247" d="M156 688v-676q0 -12 -12 -12h-41q-12 0 -12 12v676q0 12 12 12h41q12 0 12 -12zM37 796q-17 0 -29.5 12.5t-12.5 30.5q0 17 12.5 30t29.5 13t29.5 -13t12.5 -30q0 -18 -12.5 -30.5t-29.5 -12.5zM206 796q-17 0 -29.5 12.5t-12.5 30.5q0 17 12.5 30t29.5 13q18 0 30.5 -13 t12.5 -30q0 -18 -12.5 -30.5t-30.5 -12.5z" />
<glyph unicode="&#xd0;" horiz-adv-x="659" d="M303 0h-200q-12 0 -12 12v676q0 12 12 12h164q149 0 242 -88.5t93 -268.5q0 -172 -80.5 -257.5t-218.5 -85.5zM156 56h147q109 0 171 72.5t62 214.5q0 151 -73 226t-197 75h-110v-270h208q12 0 12 -11v-27q0 -12 -12 -12h-208v-268z" />
<glyph unicode="&#xd1;" horiz-adv-x="677" d="M574 0h-52q-12 0 -21 14l-345 578v-580q0 -12 -12 -12h-41q-12 0 -12 12v676q0 12 12 12h52q13 0 20 -13l346 -587v588q0 12 12 12h41q12 0 12 -12v-676q0 -12 -12 -12zM252 788h-33q-9 0 -11 7q-7 16 -7 36q0 31 19 50.5t54 19.5q29 0 74 -17.5t67 -17.5q25 0 25 22 q0 16 -6 28q-1 2 -0.5 3.5t2.5 2t6 0.5h34q8 0 10 -7q6 -12 6 -35q0 -29 -18 -47.5t-52 -18.5q-36 0 -79.5 18t-59.5 18q-30 0 -30 -29q0 -11 6 -26q4 -7 -7 -7z" />
<glyph unicode="&#xd2;" d="M350 -6q-59 0 -110 20t-93 61t-66 111t-24 163q0 180 84 268.5t209 88.5t209 -88.5t84 -268.5q0 -93 -24 -163t-66 -111t-93 -61t-110 -20zM350 51q97 0 162 72.5t65 225.5q0 155 -65 227.5t-162 72.5t-161.5 -72.5t-64.5 -227.5q0 -153 65 -225.5t161 -72.5zM377 782 h-39q-10 0 -16 9l-93 144q-5 9 6 9h58q9 0 14 -8l76 -146q4 -8 -6 -8z" />
<glyph unicode="&#xd3;" d="M355 782h-39q-10 0 -6 8l76 146q5 8 14 8h58q11 0 6 -9l-94 -145q-4 -8 -15 -8zM350 -6q-59 0 -110 20t-93 61t-66 111t-24 163q0 180 84 268.5t209 88.5t209 -88.5t84 -268.5q0 -93 -24 -163t-66 -111t-93 -61t-110 -20zM350 51q97 0 162 72.5t65 225.5q0 155 -65 227.5 t-162 72.5t-161.5 -72.5t-64.5 -227.5q0 -153 65 -225.5t161 -72.5z" />
<glyph unicode="&#xd4;" d="M278 774h-31q-16 0 -9 12l75 138q5 12 18 12h49q13 0 18 -12l75 -138q3 -5 0 -8.5t-10 -3.5h-31q-12 0 -18 11l-59 101l-59 -101q-6 -11 -18 -11zM350 -6q-59 0 -110 20t-93 61t-66 111t-24 163q0 180 84 268.5t209 88.5t209 -88.5t84 -268.5q0 -93 -24 -163t-66 -111 t-93 -61t-110 -20zM350 51q97 0 162 72.5t65 225.5q0 155 -65 227.5t-162 72.5t-161.5 -72.5t-64.5 -227.5q0 -153 65 -225.5t161 -72.5z" />
<glyph unicode="&#xd5;" d="M350 -6q-59 0 -110 20t-93 61t-66 111t-24 163q0 180 84 268.5t209 88.5t209 -88.5t84 -268.5q0 -93 -24 -163t-66 -111t-93 -61t-110 -20zM350 51q97 0 162 72.5t65 225.5q0 155 -65 227.5t-162 72.5t-161.5 -72.5t-64.5 -227.5q0 -153 65 -225.5t161 -72.5zM261 788 h-33q-9 0 -11 7q-7 16 -7 36q0 31 19 50.5t54 19.5q29 0 74 -17.5t67 -17.5q25 0 25 22q0 16 -6 28q-1 2 -0.5 3.5t2.5 2t6 0.5h34q8 0 10 -7q6 -12 6 -35q0 -29 -18 -47.5t-52 -18.5q-36 0 -79.5 18t-59.5 18q-30 0 -30 -29q0 -11 6 -26q4 -7 -7 -7z" />
<glyph unicode="&#xd6;" d="M267 810q-17 0 -29.5 12.5t-12.5 30.5q0 17 12.5 30t29.5 13t29.5 -13t12.5 -30q0 -18 -12.5 -30.5t-29.5 -12.5zM436 810q-17 0 -29.5 12.5t-12.5 30.5q0 17 12.5 30t29.5 13q18 0 30.5 -13t12.5 -30q0 -18 -12.5 -30.5t-30.5 -12.5zM350 -6q-59 0 -110 20t-93 61 t-66 111t-24 163q0 180 84 268.5t209 88.5t209 -88.5t84 -268.5q0 -93 -24 -163t-66 -111t-93 -61t-110 -20zM350 51q97 0 162 72.5t65 225.5q0 155 -65 227.5t-162 72.5t-161.5 -72.5t-64.5 -227.5q0 -153 65 -225.5t161 -72.5z" />
<glyph unicode="&#xd7;" horiz-adv-x="455" d="M379 391l-117 -117l117 -117q9 -9 0 -17l-18 -18q-8 -8 -17 1l-117 117l-116 -117q-8 -10 -17 -1l-18 18q-8 8 0 17l117 117l-117 117q-8 8 0 17l18 18q10 8 16 -1l117 -117l117 117q9 8 17 1l18 -18q9 -9 0 -17z" />
<glyph unicode="&#xd8;" d="M349 -6q-99 0 -170 52l-35 -52q-7 -10 -16 -10h-45q-5 0 -6.5 4t1.5 8l59 89q-81 94 -81 264q0 180 84 268.5t209 88.5q98 0 170 -53l35 53q6 10 15 10h44q13 0 6 -11l-59 -90q82 -93 82 -266q0 -93 -24 -163t-66 -111t-93 -61t-110 -20zM349 51q97 0 162 72.5t65 225.5 q0 131 -53 211l-310 -462q56 -47 136 -47zM123 349q0 -133 52 -209l309 463q-56 46 -135 46q-97 0 -161.5 -72.5t-64.5 -227.5z" />
<glyph unicode="&#xd9;" horiz-adv-x="675" d="M525 282v406q0 12 12 12h41q12 0 12 -12v-402q0 -158 -67 -225t-185 -67q-254 0 -254 292v402q0 12 13 12h41q12 0 12 -12v-406q0 -231 188 -231q187 0 187 231zM356 782h-39q-10 0 -16 9l-93 144q-5 9 6 9h58q9 0 14 -8l76 -146q4 -8 -6 -8z" />
<glyph unicode="&#xda;" horiz-adv-x="675" d="M342 782h-39q-10 0 -6 8l76 146q5 8 14 8h58q11 0 6 -9l-94 -145q-4 -8 -15 -8zM525 282v406q0 12 12 12h41q12 0 12 -12v-402q0 -158 -67 -225t-185 -67q-254 0 -254 292v402q0 12 13 12h41q12 0 12 -12v-406q0 -231 188 -231q187 0 187 231z" />
<glyph unicode="&#xdb;" horiz-adv-x="675" d="M257 774h-31q-16 0 -9 12l75 138q5 12 18 12h49q13 0 18 -12l75 -138q3 -5 0 -8.5t-10 -3.5h-31q-12 0 -18 11l-59 101l-59 -101q-6 -11 -18 -11zM525 282v406q0 12 12 12h41q12 0 12 -12v-402q0 -158 -67 -225t-185 -67q-254 0 -254 292v402q0 12 13 12h41q12 0 12 -12 v-406q0 -231 188 -231q187 0 187 231z" />
<glyph unicode="&#xdc;" horiz-adv-x="675" d="M252 810q-17 0 -29.5 12.5t-12.5 30.5q0 17 12.5 30t29.5 13t29.5 -13t12.5 -30q0 -18 -12.5 -30.5t-29.5 -12.5zM421 810q-17 0 -29.5 12.5t-12.5 30.5q0 17 12.5 30t29.5 13q18 0 30.5 -13t12.5 -30q0 -18 -12.5 -30.5t-30.5 -12.5zM525 282v406q0 12 12 12h41 q12 0 12 -12v-402q0 -158 -67 -225t-185 -67q-254 0 -254 292v402q0 12 13 12h41q12 0 12 -12v-406q0 -231 188 -231q187 0 187 231z" />
<glyph unicode="&#xdd;" horiz-adv-x="621" d="M331 0h-41q-12 0 -12 12v295l-244 381q-4 5 0 8.5t10 3.5h51q9 0 15 -10l201 -325l199 325q7 10 16 10h50q7 0 10.5 -3.5t0.5 -8.5l-244 -381v-295q0 -12 -12 -12zM322 782h-39q-10 0 -6 8l76 146q5 8 14 8h58q11 0 6 -9l-94 -145q-4 -8 -15 -8z" />
<glyph unicode="&#xde;" horiz-adv-x="591" d="M156 204h147q179 0 179 157q0 77 -45.5 120.5t-135.5 43.5h-145v-321zM156 581h150q116 0 179 -55.5t63 -164.5q0 -106 -63 -159t-172 -53h-157v-137q0 -12 -12 -12h-41q-12 0 -12 12v676q0 12 12 12h41q12 0 12 -12v-107z" />
<glyph unicode="&#xdf;" horiz-adv-x="525" d="M192 13l7 30q3 10 12 7q37 -11 78 -11q64 0 100 29t36 84q0 36 -17.5 64.5t-43 46.5t-51 33t-43 32t-17.5 35q0 19 17.5 39.5t38.5 37.5t38.5 49.5t17.5 71.5q0 52 -29.5 88.5t-84.5 36.5q-53 0 -83 -36.5t-30 -102.5v-535q0 -12 -12 -12h-38q-12 0 -12 12v545 q0 84 45 133t129 49q82 0 129.5 -48.5t47.5 -116.5q0 -45 -17.5 -82t-39 -56.5t-39 -38.5t-17.5 -31q0 -11 18 -23.5t43 -27.5t50.5 -35.5t43.5 -57.5t18 -84q0 -76 -51.5 -114t-136.5 -38q-56 0 -98 13q-10 3 -9 14z" />
<glyph unicode="&#xe0;" horiz-adv-x="504" d="M467 37v-26q0 -13 -28 -13q-32 0 -51 18.5t-19 55.5v26q-51 -104 -172 -104q-73 0 -113 32.5t-40 90.5q0 127 183 127h136v78q0 112 -117 112q-56 0 -87 -25t-31 -67q0 -14 5 -34q2 -5 -0.5 -7t-9.5 -2h-31q-23 0 -23 54q0 59 47 97t131 38q179 0 179 -168v-221 q0 -47 31 -51q10 -2 10 -11zM363 174v24h-136q-118 0 -118 -76q0 -37 27.5 -57.5t74.5 -20.5q33 0 61 13.5t44 32.5t27.5 38t15.5 32zM266 564h-39q-10 0 -16 9l-93 144q-5 9 6 9h58q9 0 14 -8l76 -146q4 -8 -6 -8z" />
<glyph unicode="&#xe1;" horiz-adv-x="504" d="M467 37v-26q0 -13 -28 -13q-32 0 -51 18.5t-19 55.5v26q-51 -104 -172 -104q-73 0 -113 32.5t-40 90.5q0 127 183 127h136v78q0 112 -117 112q-56 0 -87 -25t-31 -67q0 -14 5 -34q2 -5 -0.5 -7t-9.5 -2h-31q-23 0 -23 54q0 59 47 97t131 38q179 0 179 -168v-221 q0 -47 31 -51q10 -2 10 -11zM363 174v24h-136q-118 0 -118 -76q0 -37 27.5 -57.5t74.5 -20.5q33 0 61 13.5t44 32.5t27.5 38t15.5 32zM252 564h-39q-10 0 -6 8l76 146q5 8 14 8h58q11 0 6 -9l-94 -145q-4 -8 -15 -8z" />
<glyph unicode="&#xe2;" horiz-adv-x="504" d="M467 37v-26q0 -13 -28 -13q-32 0 -51 18.5t-19 55.5v26q-51 -104 -172 -104q-73 0 -113 32.5t-40 90.5q0 127 183 127h136v78q0 112 -117 112q-56 0 -87 -25t-31 -67q0 -14 5 -34q2 -5 -0.5 -7t-9.5 -2h-31q-23 0 -23 54q0 59 47 97t131 38q179 0 179 -168v-221 q0 -47 31 -51q10 -2 10 -11zM363 174v24h-136q-118 0 -118 -76q0 -37 27.5 -57.5t74.5 -20.5q33 0 61 13.5t44 32.5t27.5 38t15.5 32zM174 556h-31q-16 0 -9 12l75 138q5 12 18 12h49q13 0 18 -12l75 -138q3 -5 0 -8.5t-10 -3.5h-31q-12 0 -18 11l-59 101l-59 -101 q-6 -11 -18 -11z" />
<glyph unicode="&#xe3;" horiz-adv-x="504" d="M467 37v-26q0 -13 -28 -13q-32 0 -51 18.5t-19 55.5v26q-51 -104 -172 -104q-73 0 -113 32.5t-40 90.5q0 127 183 127h136v78q0 112 -117 112q-56 0 -87 -25t-31 -67q0 -14 5 -34q2 -5 -0.5 -7t-9.5 -2h-31q-23 0 -23 54q0 59 47 97t131 38q179 0 179 -168v-221 q0 -47 31 -51q10 -2 10 -11zM363 174v24h-136q-118 0 -118 -76q0 -37 27.5 -57.5t74.5 -20.5q33 0 61 13.5t44 32.5t27.5 38t15.5 32zM145 570h-33q-9 0 -11 7q-7 16 -7 36q0 31 19 50.5t54 19.5q29 0 74 -17.5t67 -17.5q25 0 25 22q0 16 -6 28q-1 2 -0.5 3.5t2.5 2t6 0.5 h34q8 0 10 -7q6 -18 6 -35q0 -29 -18 -47.5t-52 -18.5q-36 0 -79.5 18t-59.5 18q-30 0 -30 -29q0 -11 6 -26q4 -7 -7 -7z" />
<glyph unicode="&#xe4;" horiz-adv-x="504" d="M467 37v-26q0 -13 -28 -13q-32 0 -51 18.5t-19 55.5v26q-51 -104 -172 -104q-73 0 -113 32.5t-40 90.5q0 127 183 127h136v78q0 112 -117 112q-56 0 -87 -25t-31 -67q0 -14 5 -34q2 -5 -0.5 -7t-9.5 -2h-31q-23 0 -23 54q0 59 47 97t131 38q179 0 179 -168v-221 q0 -47 31 -51q10 -2 10 -11zM363 174v24h-136q-118 0 -118 -76q0 -37 27.5 -57.5t74.5 -20.5q33 0 61 13.5t44 32.5t27.5 38t15.5 32zM167 592q-17 0 -29.5 12.5t-12.5 30.5q0 17 12.5 30t29.5 13t29.5 -13t12.5 -30q0 -18 -12.5 -30.5t-29.5 -12.5zM336 592 q-17 0 -29.5 12.5t-12.5 30.5q0 17 12.5 30t29.5 13q18 0 30.5 -13t12.5 -30q0 -18 -12.5 -30.5t-30.5 -12.5z" />
<glyph unicode="&#xe5;" horiz-adv-x="504" d="M467 37v-26q0 -13 -28 -13q-32 0 -51 18.5t-19 55.5v26q-51 -104 -172 -104q-73 0 -113 32.5t-40 90.5q0 127 183 127h136v78q0 112 -117 112q-56 0 -87 -25t-31 -67q0 -14 5 -34q2 -5 -0.5 -7t-9.5 -2h-31q-23 0 -23 54q0 59 47 97t131 38q179 0 179 -168v-221 q0 -47 31 -51q10 -2 10 -11zM363 174v24h-136q-118 0 -118 -76q0 -37 27.5 -57.5t74.5 -20.5q33 0 61 13.5t44 32.5t27.5 38t15.5 32zM252 561q-32 0 -53.5 21t-21.5 53t21.5 53t53.5 21q31 0 52 -21t21 -53t-21 -53t-52 -21zM291 635q0 17 -11 28t-28 11q-18 0 -29 -11 t-11 -28q0 -18 10.5 -29t29.5 -11q17 0 28 11t11 29z" />
<glyph unicode="&#xe6;" horiz-adv-x="818" d="M733 245h-307v-12q3 -101 50 -143.5t105 -42.5q70 0 121 57q12 12 19 5l20 -20q8 -8 2 -17q-56 -78 -169 -78q-41 0 -75.5 13t-56.5 34t-35 39t-21 37q-9 -19 -23 -37t-36.5 -39t-56.5 -34t-73 -13q-73 0 -113 32.5t-40 90.5q0 127 183 127h136v78q0 112 -117 112 q-56 0 -87 -25t-31 -67q0 -16 5 -33q3 -10 -10 -10h-31q-23 0 -23 54q0 59 47 97t131 38q121 0 155 -87q2 4 5.5 9.5t18 20.5t32 26.5t47.5 21t65 9.5q178 0 178 -226q0 -17 -15 -17zM363 174v24h-136q-118 0 -118 -76q0 -37 27.5 -57.5t74.5 -20.5q33 0 61 13.5t44 32.5 t27.5 38t15.5 32zM428 290h260q0 66 -29 105.5t-92 39.5q-58 0 -95 -35.5t-44 -109.5z" />
<glyph unicode="&#xe7;" horiz-adv-x="483" d="M51 241q0 124 56 185.5t155 61.5q82 0 125 -40.5t43 -103.5q0 -25 -5 -38q-4 -11 -16 -11h-20q-20 0 -20 11q0 3 1 13t1 16q0 45 -28 72.5t-81 27.5q-69 0 -109 -47.5t-40 -145.5q0 -105 48 -150t108 -45q74 0 122 57q11 13 18 6l19 -20q9 -9 3 -18q-56 -73 -153 -77 q-6 -14 -13 -32q26 -2 47.5 -19.5t21.5 -48.5q0 -33 -23.5 -51.5t-61.5 -18.5q-47 0 -68 24q-5 6 -2 11l9 18q4 7 10 3q25 -19 51 -19q44 0 44 34q0 16 -18 28t-55 12q-7 0 -4 7l22 53q-81 7 -134 66.5t-53 178.5z" />
<glyph unicode="&#xe8;" horiz-adv-x="488" d="M421 245h-306v-12q1 -53 16.5 -91.5t40 -58t48.5 -28t50 -8.5q73 0 121 57q11 12 17 6l21 -21q9 -7 2 -17q-56 -78 -168 -78q-89 0 -150.5 59.5t-61.5 187.5q0 125 54.5 186t153.5 61q177 0 177 -226q0 -17 -15 -17zM116 290h260q0 66 -29 105.5t-92 39.5q-58 0 -95 -36 t-44 -109zM268 564h-39q-10 0 -16 9l-93 144q-5 9 6 9h58q9 0 14 -8l76 -146q4 -8 -6 -8z" />
<glyph unicode="&#xe9;" horiz-adv-x="488" d="M266 564h-39q-10 0 -6 8l76 146q5 8 14 8h58q11 0 6 -9l-94 -145q-4 -8 -15 -8zM421 245h-306v-12q1 -53 16.5 -91.5t40 -58t48.5 -28t50 -8.5q73 0 121 57q11 12 17 6l21 -21q9 -7 2 -17q-56 -78 -168 -78q-89 0 -150.5 59.5t-61.5 187.5q0 125 54.5 186t153.5 61 q177 0 177 -226q0 -17 -15 -17zM116 290h260q0 66 -29 105.5t-92 39.5q-58 0 -95 -36t-44 -109z" />
<glyph unicode="&#xea;" horiz-adv-x="488" d="M180 556h-31q-16 0 -9 12l75 138q5 12 18 12h49q13 0 18 -12l75 -138q3 -5 0 -8.5t-10 -3.5h-31q-12 0 -18 11l-59 101l-59 -101q-6 -11 -18 -11zM421 245h-306v-12q1 -53 16.5 -91.5t40 -58t48.5 -28t50 -8.5q73 0 121 57q11 12 17 6l21 -21q9 -7 2 -17 q-56 -78 -168 -78q-89 0 -150.5 59.5t-61.5 187.5q0 125 54.5 186t153.5 61q177 0 177 -226q0 -17 -15 -17zM116 290h260q0 66 -29 105.5t-92 39.5q-58 0 -95 -36t-44 -109z" />
<glyph unicode="&#xeb;" horiz-adv-x="488" d="M176 592q-17 0 -29.5 12.5t-12.5 30.5q0 17 12.5 30t29.5 13t29.5 -13t12.5 -30q0 -18 -12.5 -30.5t-29.5 -12.5zM345 592q-17 0 -29.5 12.5t-12.5 30.5q0 17 12.5 30t29.5 13q18 0 30.5 -13t12.5 -30q0 -18 -12.5 -30.5t-30.5 -12.5zM421 245h-306v-12q1 -53 16.5 -91.5 t40 -58t48.5 -28t50 -8.5q73 0 121 57q11 12 17 6l21 -21q9 -7 2 -17q-56 -78 -168 -78q-89 0 -150.5 59.5t-61.5 187.5q0 125 54.5 186t153.5 61q177 0 177 -226q0 -17 -15 -17zM116 290h260q0 66 -29 105.5t-92 39.5q-58 0 -95 -36t-44 -109z" />
<glyph unicode="&#xec;" horiz-adv-x="222" d="M178 37v-27q0 -12 -29 -12q-76 0 -76 94v380q0 13 12 13h39q12 0 12 -13v-374q0 -46 31 -50q11 0 11 -11zM124 564h-39q-10 0 -16 9l-93 144q-5 9 6 9h58q9 0 14 -8l76 -146q4 -8 -6 -8z" />
<glyph unicode="&#xed;" horiz-adv-x="222" d="M122 564h-39q-10 0 -6 8l76 146q5 8 14 8h58q11 0 6 -9l-94 -145q-4 -8 -15 -8zM178 37v-27q0 -12 -29 -12q-76 0 -76 94v380q0 13 12 13h39q12 0 12 -13v-374q0 -46 31 -50q11 0 11 -11z" />
<glyph unicode="&#xee;" horiz-adv-x="222" d="M28 556h-31q-16 0 -9 12l75 138q5 12 18 12h49q13 0 18 -12l75 -138q3 -5 0 -8.5t-10 -3.5h-31q-12 0 -18 11l-59 101l-59 -101q-6 -11 -18 -11zM178 37v-27q0 -12 -29 -12q-76 0 -76 94v380q0 13 12 13h39q12 0 12 -13v-374q0 -46 31 -50q11 0 11 -11z" />
<glyph unicode="&#xef;" horiz-adv-x="222" d="M23 592q-17 0 -29.5 12.5t-12.5 30.5q0 17 12.5 30t29.5 13t29.5 -13t12.5 -30q0 -18 -12.5 -30.5t-29.5 -12.5zM192 592q-17 0 -29.5 12.5t-12.5 30.5q0 17 12.5 30t29.5 13q18 0 30.5 -13t12.5 -30q0 -18 -12.5 -30.5t-30.5 -12.5zM178 37v-27q0 -12 -29 -12 q-76 0 -76 94v380q0 13 12 13h39q12 0 12 -13v-374q0 -46 31 -50q11 0 11 -11z" />
<glyph unicode="&#xf0;" horiz-adv-x="576" d="M457 289l-6 7q-6 8 -13.5 15.5t-19.5 18t-26.5 19.5t-31.5 17t-38.5 13t-43.5 5q-74 0 -119 -44t-45 -124q0 -76 44 -122.5t117 -46.5q80 0 129 61t53 181zM233 520l-13 21q-7 11 4 18l92 56l-17 7q-17 8 -28.5 12t-32.5 8.5t-41 4.5q-8 0 -8 7v38q0 9 8 9q79 -1 176 -51 l94 58q11 8 18 -4l12 -18q7 -12 -4 -17l-78 -49q42 -38 74 -112t32 -179q0 -162 -62.5 -248.5t-184.5 -86.5q-103 0 -162.5 60.5t-59.5 161.5q0 104 62 162.5t157 58.5q42 0 79 -11.5t57 -24.5t36 -26l16 -13q0 86 -29 142t-65 84l-115 -72q-11 -7 -17 4z" />
<glyph unicode="&#xf1;" horiz-adv-x="545" d="M173 570h-33q-9 0 -11 7q-7 16 -7 36q0 31 19 50.5t54 19.5q29 0 74 -17.5t67 -17.5q25 0 25 22q0 16 -6 28q-1 2 -0.5 3.5t2.5 2t6 0.5h34q8 0 10 -7q6 -12 6 -35q0 -29 -18 -47.5t-52 -18.5q-36 0 -79.5 18t-59.5 18q-30 0 -30 -29q0 -11 6 -26q4 -7 -7 -7zM86 13v372 q0 44 -31 49q-11 0 -11 14v24q0 12 30 12q29 0 48.5 -19t19.5 -53v-39q13 50 53 82.5t104 32.5q87 0 128 -52t41 -136v-202q0 -46 31 -50q11 0 11 -14v-22q0 -14 -29 -14q-76 0 -76 94v208q0 60 -30.5 97.5t-90.5 37.5q-64 0 -99.5 -50.5t-35.5 -109.5v-263q0 -12 -12 -12 h-39q-12 0 -12 13z" />
<glyph unicode="&#xf2;" horiz-adv-x="520" d="M260 -6q-96 0 -152.5 65t-56.5 182t56.5 182t152.5 65q95 0 151.5 -65t56.5 -182t-56.5 -182t-151.5 -65zM260 47q65 0 105.5 49.5t40.5 144.5q0 94 -40.5 144t-105.5 50t-106 -50t-41 -144q0 -95 41 -144.5t106 -49.5zM279 564h-39q-10 0 -16 9l-93 144q-5 9 6 9h58 q9 0 14 -8l76 -146q4 -8 -6 -8z" />
<glyph unicode="&#xf3;" horiz-adv-x="520" d="M272 564h-39q-10 0 -6 8l76 146q5 8 14 8h58q11 0 6 -9l-94 -145q-4 -8 -15 -8zM260 -6q-96 0 -152.5 65t-56.5 182t56.5 182t152.5 65q95 0 151.5 -65t56.5 -182t-56.5 -182t-151.5 -65zM260 47q65 0 105.5 49.5t40.5 144.5q0 94 -40.5 144t-105.5 50t-106 -50t-41 -144 q0 -95 41 -144.5t106 -49.5z" />
<glyph unicode="&#xf4;" horiz-adv-x="520" d="M182 556h-31q-16 0 -9 12l75 138q5 12 18 12h49q13 0 18 -12l75 -138q3 -5 0 -8.5t-10 -3.5h-31q-12 0 -18 11l-59 101l-59 -101q-6 -11 -18 -11zM260 -6q-96 0 -152.5 65t-56.5 182t56.5 182t152.5 65q95 0 151.5 -65t56.5 -182t-56.5 -182t-151.5 -65zM260 47 q65 0 105.5 49.5t40.5 144.5q0 94 -40.5 144t-105.5 50t-106 -50t-41 -144q0 -95 41 -144.5t106 -49.5z" />
<glyph unicode="&#xf5;" horiz-adv-x="520" d="M260 -6q-96 0 -152.5 65t-56.5 182t56.5 182t152.5 65q95 0 151.5 -65t56.5 -182t-56.5 -182t-151.5 -65zM260 47q65 0 105.5 49.5t40.5 144.5q0 94 -40.5 144t-105.5 50t-106 -50t-41 -144q0 -95 41 -144.5t106 -49.5zM160 570h-33q-9 0 -11 7q-7 16 -7 36q0 31 19 50.5 t54 19.5q29 0 74 -17.5t67 -17.5q25 0 25 22q0 16 -6 28q-1 2 -0.5 3.5t2.5 2t6 0.5h34q8 0 10 -7q6 -12 6 -35q0 -29 -18 -47.5t-52 -18.5q-36 0 -79.5 18t-59.5 18q-30 0 -30 -29q0 -11 6 -26q4 -7 -7 -7z" />
<glyph unicode="&#xf6;" horiz-adv-x="520" d="M179 592q-17 0 -29.5 12.5t-12.5 30.5q0 17 12.5 30t29.5 13t29.5 -13t12.5 -30q0 -18 -12.5 -30.5t-29.5 -12.5zM348 592q-17 0 -29.5 12.5t-12.5 30.5q0 17 12.5 30t29.5 13q18 0 30.5 -13t12.5 -30q0 -18 -12.5 -30.5t-30.5 -12.5zM260 -6q-96 0 -152.5 65t-56.5 182 t56.5 182t152.5 65q95 0 151.5 -65t56.5 -182t-56.5 -182t-151.5 -65zM260 47q65 0 105.5 49.5t40.5 144.5q0 94 -40.5 144t-105.5 50t-106 -50t-41 -144q0 -95 41 -144.5t106 -49.5z" />
<glyph unicode="&#xf7;" horiz-adv-x="475" d="M79 305h318q12 0 12 -12v-24q0 -12 -13 -12h-317q-13 0 -13 12v24q0 12 13 12zM190 138q0 20 15.5 35.5t36.5 15.5q20 0 35.5 -15.5t15.5 -35.5q0 -21 -15.5 -36.5t-35.5 -15.5q-21 0 -36.5 15.5t-15.5 36.5zM190 419q0 19 15 34t34 15q21 0 35.5 -14.5t14.5 -34.5 q0 -21 -14.5 -36t-35.5 -15q-20 0 -34.5 15t-14.5 36z" />
<glyph unicode="&#xf8;" horiz-adv-x="520" d="M260 -6q-65 0 -113 30l-22 -34q-6 -10 -16 -10h-30q-12 0 -5 12l39 60q-62 65 -62 189q0 117 56.5 182t152.5 65q65 0 114 -32l24 37q7 10 17 10h28q5 0 7 -3.5t-2 -8.5l-41 -63q61 -66 61 -187q0 -117 -56.5 -182t-151.5 -65zM113 241q0 -84 34 -136l195 302 q-36 28 -82 28q-65 0 -106 -50t-41 -144zM260 47q65 0 105.5 49.5t40.5 144.5q0 84 -33 134l-194 -303q34 -25 81 -25z" />
<glyph unicode="&#xf9;" horiz-adv-x="535" d="M491 34v-24q0 -12 -29 -12q-69 0 -69 77v20q-20 -44 -62.5 -72.5t-105.5 -28.5q-153 0 -153 169v307q0 12 12 12h38q12 0 12 -13v-299q0 -123 109 -123q65 0 104 50.5t39 96.5v276q0 12 12 12h40q12 0 12 -13v-370q0 -46 31 -51q10 -2 10 -14zM292 564h-39q-10 0 -16 9 l-93 144q-5 9 6 9h58q9 0 14 -8l76 -146q4 -8 -6 -8z" />
<glyph unicode="&#xfa;" horiz-adv-x="535" d="M258 564h-39q-10 0 -6 8l76 146q5 8 14 8h58q11 0 6 -9l-94 -145q-4 -8 -15 -8zM491 34v-24q0 -12 -29 -12q-69 0 -69 77v20q-20 -44 -62.5 -72.5t-105.5 -28.5q-153 0 -153 169v307q0 12 12 12h38q12 0 12 -13v-299q0 -123 109 -123q65 0 104 50.5t39 96.5v276 q0 12 12 12h40q12 0 12 -13v-370q0 -46 31 -51q10 -2 10 -14z" />
<glyph unicode="&#xfb;" horiz-adv-x="535" d="M185 556h-31q-16 0 -9 12l75 138q5 12 18 12h49q13 0 18 -12l75 -138q3 -5 0 -8.5t-10 -3.5h-31q-12 0 -18 11l-59 101l-59 -101q-6 -11 -18 -11zM491 34v-24q0 -12 -29 -12q-69 0 -69 77v20q-20 -44 -62.5 -72.5t-105.5 -28.5q-153 0 -153 169v307q0 12 12 12h38 q12 0 12 -13v-299q0 -123 109 -123q65 0 104 50.5t39 96.5v276q0 12 12 12h40q12 0 12 -13v-370q0 -46 31 -51q10 -2 10 -14z" />
<glyph unicode="&#xfc;" horiz-adv-x="535" d="M183 592q-17 0 -29.5 12.5t-12.5 30.5q0 17 12.5 30t29.5 13t29.5 -13t12.5 -30q0 -18 -12.5 -30.5t-29.5 -12.5zM352 592q-17 0 -29.5 12.5t-12.5 30.5q0 17 12.5 30t29.5 13q18 0 30.5 -13t12.5 -30q0 -18 -12.5 -30.5t-30.5 -12.5zM491 34v-24q0 -12 -29 -12 q-69 0 -69 77v20q-20 -44 -62.5 -72.5t-105.5 -28.5q-153 0 -153 169v307q0 12 12 12h38q12 0 12 -13v-299q0 -123 109 -123q65 0 104 50.5t39 96.5v276q0 12 12 12h40q12 0 12 -13v-370q0 -46 31 -51q10 -2 10 -14z" />
<glyph unicode="&#xfd;" horiz-adv-x="499" d="M462 469l-229 -604q-43 -112 -138 -112q-33 0 -55 9q-9 3 -8 13l6 32q1 10 10 7q20 -6 43 -6q34 0 52.5 18t32.5 55l42 114l-182 474q-5 13 11 13h41q12 0 15 -10l149 -399l145 400q3 9 15 9h40q16 0 10 -13zM245 564h-39q-10 0 -6 8l76 146q5 8 14 8h58q11 0 6 -9 l-94 -145q-4 -8 -15 -8z" />
<glyph unicode="&#xfe;" horiz-adv-x="537" d="M138 319v-164q1 -5 4.5 -15t13.5 -26.5t24.5 -31t40.5 -25t57 -10.5q66 0 106 50t40 147q0 96 -42 143.5t-105 47.5q-31 0 -56.5 -12t-40 -29t-25 -34t-13.5 -29zM126 -244h-38q-12 0 -12 12v946q0 12 11 12h39q12 0 12 -12v-311q58 85 154 85q83 0 138.5 -60.5 t55.5 -182.5q0 -128 -55.5 -189.5t-141.5 -61.5q-32 0 -59.5 8.5t-43.5 20t-27.5 23.5t-16.5 20l-4 9v-307q0 -12 -12 -12z" />
<glyph unicode="&#xff;" horiz-adv-x="499" d="M462 469l-229 -604q-43 -112 -138 -112q-33 0 -55 9q-9 3 -8 13l6 32q1 10 10 7q20 -6 43 -6q34 0 52.5 18t32.5 55l42 114l-182 474q-5 13 11 13h41q12 0 15 -10l149 -399l145 400q3 9 15 9h40q16 0 10 -13zM168 592q-17 0 -29.5 12.5t-12.5 30.5q0 17 12.5 30t29.5 13 t29.5 -13t12.5 -30q0 -18 -12.5 -30.5t-29.5 -12.5zM337 592q-17 0 -29.5 12.5t-12.5 30.5q0 17 12.5 30t29.5 13q18 0 30.5 -13t12.5 -30q0 -18 -12.5 -30.5t-30.5 -12.5z" />
<glyph unicode="&#x152;" horiz-adv-x="1041" d="M350 51q97 0 162.5 72.5t65.5 225.5q0 155 -65.5 227.5t-162.5 72.5t-161.5 -72.5t-64.5 -227.5q0 -153 65 -225.5t161 -72.5zM644 644v-268h281q12 0 12 -12v-31q0 -12 -12 -12h-281v-265h331q12 0 12 -12v-32q0 -12 -13 -12h-383q-12 0 -12 12v120q-15 -51 -73 -94.5 t-156 -43.5q-59 0 -110 20t-93 61t-66 111t-24 163q0 180 84 268.5t209 88.5q95 0 154.5 -44t74.5 -94v120q0 12 12 12h384q12 0 12 -12v-32q0 -12 -13 -12h-330z" />
<glyph unicode="&#x153;" horiz-adv-x="844" d="M778 245h-307v-12q1 -53 16.5 -91.5t40 -58t48.5 -28t50 -8.5q73 0 121 57q11 12 17 6l22 -21q7 -7 1 -17q-56 -78 -168 -78q-133 0 -182 116q-24 -56 -70 -86t-107 -30q-96 0 -152.5 65t-56.5 182t56.5 182t152.5 65q60 0 106 -29.5t70 -84.5q47 114 179 114 q177 0 177 -226q0 -17 -14 -17zM260 47q65 0 105.5 49.5t40.5 144.5q0 94 -40.5 144t-105.5 50t-106 -50t-41 -144q0 -95 41 -144.5t106 -49.5zM472 290h259q0 145 -119 145q-58 0 -95.5 -35.5t-44.5 -109.5z" />
<glyph unicode="&#x178;" horiz-adv-x="621" d="M331 0h-41q-12 0 -12 12v295l-244 381q-4 5 0 8.5t10 3.5h51q9 0 15 -10l201 -325l199 325q7 10 16 10h50q7 0 10.5 -3.5t0.5 -8.5l-244 -381v-295q0 -12 -12 -12zM226 810q-17 0 -29.5 12.5t-12.5 30.5q0 17 12.5 30t29.5 13t29.5 -13t12.5 -30q0 -18 -12.5 -30.5 t-29.5 -12.5zM395 810q-17 0 -29.5 12.5t-12.5 30.5q0 17 12.5 30t29.5 13q18 0 30.5 -13t12.5 -30q0 -18 -12.5 -30.5t-30.5 -12.5z" />
<glyph unicode="&#x2c6;" horiz-adv-x="336" d="M90 556h-31q-16 0 -9 12l75 138q5 12 18 12h49q13 0 18 -12l75 -138q3 -5 0 -8.5t-10 -3.5h-31q-12 0 -18 11l-59 101l-59 -101q-6 -11 -18 -11z" />
<glyph unicode="&#x2dc;" horiz-adv-x="387" d="M99 570h-33q-9 0 -11 7q-7 16 -7 36q0 31 19 50.5t54 19.5q29 0 74 -17.5t67 -17.5q25 0 25 22q0 16 -6 28q-1 2 -0.5 3.5t2.5 2t6 0.5h34q8 0 10 -7q6 -12 6 -35q0 -29 -18 -47.5t-52 -18.5q-36 0 -79.5 18t-59.5 18q-30 0 -30 -29q0 -11 6 -26q4 -7 -7 -7z" />
<glyph unicode="&#x2000;" horiz-adv-x="472" />
<glyph unicode="&#x2001;" horiz-adv-x="944" />
<glyph unicode="&#x2002;" horiz-adv-x="472" />
<glyph unicode="&#x2003;" horiz-adv-x="944" />
<glyph unicode="&#x2004;" horiz-adv-x="314" />
<glyph unicode="&#x2005;" horiz-adv-x="236" />
<glyph unicode="&#x2006;" horiz-adv-x="157" />
<glyph unicode="&#x2007;" horiz-adv-x="157" />
<glyph unicode="&#x2008;" horiz-adv-x="118" />
<glyph unicode="&#x2009;" horiz-adv-x="188" />
<glyph unicode="&#x200a;" horiz-adv-x="52" />
<glyph unicode="&#x2010;" horiz-adv-x="404" d="M84 298h236q13 0 13 -12v-25q0 -12 -13 -12h-237q-11 0 -11 12v25q0 12 12 12z" />
<glyph unicode="&#x2011;" horiz-adv-x="404" d="M84 298h236q13 0 13 -12v-25q0 -12 -13 -12h-237q-11 0 -11 12v25q0 12 12 12z" />
<glyph unicode="&#x2012;" horiz-adv-x="404" d="M84 298h236q13 0 13 -12v-25q0 -12 -13 -12h-237q-11 0 -11 12v25q0 12 12 12z" />
<glyph unicode="&#x2013;" horiz-adv-x="549" d="M84 298h381q12 0 12 -12v-25q0 -12 -13 -12h-380q-12 0 -12 12v25q0 12 12 12z" />
<glyph unicode="&#x2014;" horiz-adv-x="898" d="M84 298h731q12 0 12 -12v-25q0 -12 -13 -12h-730q-12 0 -12 12v25q0 12 12 12z" />
<glyph unicode="&#x2018;" horiz-adv-x="178" d="M137 694q0 -20 -13.5 -33.5t-33.5 -13.5q-22 0 -36.5 16t-14.5 42q0 89 68 123q7 3 11 -4l12 -19q4 -6 -2 -10q-38 -22 -38 -55q19 0 33 -13.5t14 -32.5z" />
<glyph unicode="&#x2019;" horiz-adv-x="215" d="M62 669q0 19 14 33t33 14q22 0 36.5 -16t14.5 -42q0 -89 -68 -123q-7 -3 -11 4l-12 19q-4 6 2 10q37 22 38 55q-19 0 -33 13.5t-14 32.5z" />
<glyph unicode="&#x201a;" horiz-adv-x="226" d="M64 40q0 20 14 33.5t33 13.5q22 0 36.5 -15.5t14.5 -41.5q0 -90 -68 -124q-7 -3 -11 4l-12 19q-4 7 2 10q37 22 38 55q-19 0 -33 13.5t-14 32.5z" />
<glyph unicode="&#x201c;" horiz-adv-x="309" d="M269 695q0 -19 -14 -33t-34 -14q-22 0 -36 16t-14 42q0 90 67 123q8 3 12 -4l11 -18q5 -7 -2 -10q-37 -24 -38 -55q20 0 34 -13.5t14 -33.5zM137 695q0 -19 -14 -33t-33 -14q-22 0 -36.5 16t-14.5 42q0 89 68 123q7 3 11 -4l12 -18q4 -7 -2 -10q-38 -22 -38 -55 q19 0 33 -13.5t14 -33.5z" />
<glyph unicode="&#x201d;" horiz-adv-x="346" d="M61 667q0 19 14 33t33 14q22 0 36.5 -16t14.5 -42q0 -90 -67 -123q-8 -3 -12 4l-12 18q-3 7 2 10q38 22 38 55q-19 0 -33 13.5t-14 33.5zM192 667q0 19 14 33t33 14q22 0 36.5 -16t14.5 -42q0 -90 -67 -123q-8 -3 -12 4l-12 18q-3 7 2 10q38 22 38 55q-19 0 -33 13.5 t-14 33.5z" />
<glyph unicode="&#x201e;" horiz-adv-x="352" d="M64 40q0 20 14 33.5t33 13.5q22 0 36.5 -15.5t14.5 -41.5q0 -90 -68 -124q-7 -3 -11 4l-12 19q-4 7 2 10q37 22 38 55q-19 0 -33 13.5t-14 32.5zM190 40q0 20 14 33.5t33 13.5q22 0 36.5 -15.5t14.5 -41.5q0 -90 -68 -124q-7 -3 -11 4l-12 19q-4 7 2 10q37 22 38 55 q-19 0 -33 13.5t-14 32.5z" />
<glyph unicode="&#x2022;" horiz-adv-x="348" d="M259 289q0 -35 -25 -60t-60 -25q-36 0 -60.5 25t-24.5 60q0 36 24.5 61t60.5 25q35 0 60 -25t25 -61z" />
<glyph unicode="&#x2026;" horiz-adv-x="529" d="M108 -6q-18 0 -30.5 12.5t-12.5 30.5q0 17 12.5 29.5t30.5 12.5q17 0 29.5 -12.5t12.5 -29.5q0 -18 -12.5 -30.5t-29.5 -12.5zM263 -6q-17 0 -30 12.5t-13 30.5q0 17 13 29.5t30 12.5q18 0 30.5 -12.5t12.5 -29.5q0 -18 -12.5 -30.5t-30.5 -12.5zM421 -6 q-17 0 -29.5 12.5t-12.5 30.5q0 17 12.5 29.5t29.5 12.5t30 -12.5t13 -29.5q0 -18 -13 -30.5t-30 -12.5z" />
<glyph unicode="&#x202f;" horiz-adv-x="188" />
<glyph unicode="&#x2039;" horiz-adv-x="291" d="M68 226q-12 12 -12 27v23q0 14 12 26l118 114q9 8 16 1l20 -23q6 -8 -2 -14l-115 -116l115 -115q7 -7 2 -14l-21 -24q-6 -6 -16 2z" />
<glyph unicode="&#x203a;" horiz-adv-x="291" d="M222 226l-117 -113q-9 -9 -15 -2l-22 24q-4 7 2 14l116 115l-116 116q-6 6 -2 14l21 23q7 7 16 -1l117 -114q13 -12 13 -26v-23q0 -15 -13 -27z" />
<glyph unicode="&#x205f;" horiz-adv-x="236" />
<glyph unicode="&#x20ac;" horiz-adv-x="668" d="M62 429h74q18 123 87 190.5t184 67.5q123 0 187 -73q8 -11 -1 -18l-31 -22q-11 -9 -19 3q-51 53 -135 53q-77 0 -132 -48.5t-72 -152.5h248q12 0 12 -12v-32q0 -12 -12 -12h-255q-1 -31 1 -69h254q12 0 12 -12v-32q0 -12 -12 -12h-245q19 -91 75 -138t138 -47 q74 0 144 51q12 12 21 2l22 -22q9 -11 -2 -22q-77 -66 -187 -66q-111 0 -185 59.5t-95 182.5h-77q-12 0 -12 12v32q0 12 13 12h69q-1 25 0 69h-70q-12 0 -12 12v32q0 12 13 12z" />
<glyph unicode="&#x2122;" horiz-adv-x="796" d="M70 706h272q11 0 11 -13v-17q0 -12 -12 -12h-108v-308q0 -12 -12 -12h-28q-12 0 -12 13v307h-111q-12 0 -12 12v17q0 13 12 13zM671 357v272l-101 -221q-6 -11 -22 -11q-18 0 -22 11l-100 221v-273q0 -12 -12 -12h-20q-13 0 -13 13v337q0 12 13 12h31q11 0 16 -12 l107 -242l109 242q5 12 17 12h29q12 0 12 -12v-338q0 -12 -12 -12h-20q-12 0 -12 13z" />
</font>
</defs>
</svg>
