<?xml version="1.0" encoding="utf-8"?>
<!-- Generator: Adobe Illustrator 18.1.1, SVG Export Plug-In . SVG Version: 6.00 Build 0)  -->
<svg version="1.1" id="Layer_1" xmlns="http://www.w3.org/2000/svg" xmlns:xlink="http://www.w3.org/1999/xlink" x="0px" y="0px"
	 viewBox="0 0 130 40" enable-background="new 0 0 130 40" xml:space="preserve">
<g>
	<path fill="#F9A41A" d="M92.6,6.1c-2.1,0.1-1.7,0.2-5.3-1.5C80.8,1.6,71.8,0,65.7,0C44.5,0,35.5,14,37.5,15.6c0,0,1.4-1.9,3.5-3.7
		c6.1-5.2,12.2-7.5,24.2-7.7C70.8,4.2,76.2,5.5,82,8c1.9,0.8,6,2.9,6.3,3.7c0.4,0.9,1.7,2.6,4.1,2.6c2.3,0,4.1-1.8,4.1-4.1
		C96.5,8,94.8,6.2,92.6,6.1z"/>
</g>
<g>
	<path fill="#FFFFFF" d="M15.1,16.2c-0.6,0.4-0.9,0.3-1.1,0.1c-0.5-0.6-1.8-1.9-4-1.9c-1.5,0-2.4,0.6-2.4,1.6
		c0,3.8,10.9,1.3,10.9,9.7c0,3.2-2.3,6.6-8.7,6.6c-5.8,0-8.4-3-9.1-4.2c-0.2-0.4-0.1-0.9,0.2-1.1L3,25c0.3-0.3,0.8-0.4,1.1,0
		c0.8,1,2.7,2.8,5.6,2.8c1.6,0,2.5-0.7,2.5-1.8c0-4.3-11.1-1.1-11.1-9.8c0-3.5,3-6.5,8.3-6.5c5.5,0,7.7,2.7,8.4,3.9
		c0.1,0.2,0.2,0.6-0.3,1L15.1,16.2z"/>
	<path fill="#FFFFFF" d="M20.3,9.8c0-0.5,0.2-0.8,0.8-0.8h3.8c0.5,0,0.8,0.3,0.8,0.8v7.9c0.7-0.7,1.7-1.1,3.5-1.1
		c3.9,0,5.5,2.8,5.5,6.2v4c0,1,0.4,1.1,0.7,1.2c0.3,0.1,0.5,0.3,0.5,0.8v2.4c0,0.6-0.5,1.3-2.4,1.3c-2.9,0-4.3-1.5-4.3-4.6v-4.2
		c0-1.3-0.8-2-1.7-2c-1.4,0-1.9,1.1-1.9,1.9v8c0,0.5-0.3,0.8-0.8,0.8h-3.8c-0.6,0-0.8-0.3-0.8-0.8V9.8z"/>
	<path fill="#FFFFFF" d="M45.3,17.9c0-0.5,0.3-1.3,2.4-1.3c2,0,3.2,0.7,3.6,2.3v0c0.5-1,1.6-2.3,4.4-2.3c2.9,0,6.2,2.5,6.2,7.9
		c0,5.7-3.5,7.9-6.8,7.9c-2.5,0-3.1-1-3.1-1v7.8c0,0.5-0.2,0.8-0.8,0.8h-3.8c-0.5,0-0.8-0.3-0.8-0.8V22.3c0-1-0.4-1.1-0.8-1.2
		c-0.2-0.1-0.4-0.3-0.4-0.7V17.9z M52,25.4c0.1,0.9,0.7,2.2,2.2,2.2c1.4,0,2.4-1,2.4-3c0-2.3-1.3-3.1-2.4-3.1c-1.8,0-2.2,1.8-2.2,2
		V25.4z"/>
	<path fill="#FFFFFF" d="M79.4,32.2c-1.5,0-1.9-0.4-2.4-2.1l-1.6-5.3l-1.8,5.3c-0.6,1.7-1.2,2.1-2.6,2.1h-1.8
		c-1.5,0-1.9-0.4-2.5-2.1l-4.3-12.3c-0.2-0.5,0-1,0.5-1h4.3c0.7,0,0.7,0.5,0.8,1l2.1,8.2l2.6-8.1c0.2-0.5,0.3-1,0.8-1h4.1
		c0.5,0,0.6,0.5,0.7,1l1.9,8.1l2.1-8.2c0.1-0.4,0.2-1,0.9-1h4.2c0.6,0,0.8,0.5,0.6,1l-4.3,12.4c-0.6,1.6-1.2,2.1-2.7,2.1H79.4z"/>
	<path fill="#FFFFFF" d="M107.8,22.6c-0.4,0-0.8-0.1-0.8-0.4c0-0.2,0-0.3,0-0.6c0-0.7-0.4-1.1-1.6-1.1c-1,0-1.6,0.4-1.6,1.1
		c0,2.5,8.5,0.4,8.5,5.8c0,3.1-2.3,5.1-7.3,5.1c-4.4,0-6.3-1.7-7.1-2.7c-0.2-0.2-0.4-0.7,0.1-1.1l1.8-1.7c0.5-0.5,0.7-0.5,1-0.2
		c0.6,0.6,2,1.8,4,1.8c1.2,0,1.4-0.3,1.4-0.7c0-1.8-7.9-0.4-7.9-5.9c0-2.6,1.8-5.1,7-5.1c5,0,6.6,2.2,6.6,4.5c0,0.5-0.1,0.9-0.2,1.1
		c-0.2,0.3-0.5,0.4-0.9,0.4H107.8z"/>
	<path fill="#FFFFFF" d="M113.8,9.8c0-0.5,0.2-0.8,0.8-0.8h3.8c0.5,0,0.8,0.3,0.8,0.8v7.9c0.7-0.7,1.7-1.1,3.5-1.1
		c3.9,0,5.5,2.8,5.5,6.2v4c0,1,0.4,1.1,0.7,1.2c0.3,0.1,0.5,0.3,0.5,0.8v2.4c0,0.6-0.5,1.3-2.4,1.3c-2.9,0-4.3-1.5-4.3-4.6v-4.2
		c0-1.3-0.8-2-1.7-2c-1.4,0-1.9,1.1-1.9,1.9v8c0,0.5-0.3,0.8-0.8,0.8h-3.8c-0.6,0-0.8-0.3-0.8-0.8V9.8z"/>
	<path fill="#FFFFFF" d="M43.9,28c-0.2,0-0.7-0.1-0.9-0.8c0-0.5,0-7.2,0-9.5c0-0.5-0.4-0.9-0.9-0.9l0,0c-3,0-4.5,1.4-4.5,4.7v6.3
		l0,0c0,3.1,1.5,4.7,4.3,4.7c2.1,0,2.4-0.8,2.4-1.3v-2.4C44.2,28.2,44.2,28,43.9,28z"/>
	<g>
		<path fill="#FFFFFF" d="M95.8,28c-0.2,0-0.9-0.1-0.9-1.3v-9c0-0.6-0.3-0.9-1-0.7c-0.9,0.3-2.6,0.4-3.8-0.1
			c-0.3-0.1-0.7,0.1-0.7,0.5l0,2c0,0.1,0,0.1,0,0.2l0,8.2c0,3.2,1.5,4.7,4.3,4.7c2.1,0,2.4-0.8,2.4-1.3v-2.4
			C96.2,28.2,96.2,28,95.8,28z"/>
	</g>
</g>
</svg>
